<svg width="631" height="232" viewBox="0 0 631 232" fill="none" xmlns="http://www.w3.org/2000/svg">
<path d="M630.814 0.408081L619.897 3.75094L630.164 10.9743L630.814 0.408081ZM516.781 75.9858L517.593 76.6915L516.781 75.9858ZM363.946 122.499L363.028 122.836L363.946 122.499ZM416.839 151.722L416.675 150.787L416.839 151.722ZM225.968 124.902L226.222 124.039L225.968 124.902ZM279.356 112.332L280.275 112.919L279.356 112.332ZM158.306 164.877L159.139 165.563L158.306 164.877ZM363.158 121.206L362.24 121.543L363.158 121.206ZM477.37 113.69L478.29 114.277L477.37 113.69ZM488.111 101.784L488.923 102.489L488.111 101.784ZM463.883 132.273L462.963 131.687L463.883 132.273ZM421.804 151.722L421.639 150.786L421.804 151.722ZM280.99 110.077L280.07 109.491L280.99 110.077ZM215.67 121.279L215.924 120.417L215.67 121.279ZM602.542 34.4079L603.431 35.0335L602.542 34.4079ZM76.8961 218.83L77.227 219.753L76.8961 218.83ZM127.134 195.089L127.967 195.775L127.134 195.089ZM1.57354 231.035L2.56898 230.886L1.90724 229.04L0.911802 229.188L1.57354 231.035ZM4.55986 230.589L6.55074 230.292L5.889 228.446L3.89812 228.743L4.55986 230.589ZM8.54163 229.996L10.5325 229.699L9.87076 227.852L7.87988 228.149L8.54163 229.996ZM12.5234 229.402L14.5143 229.105L13.8525 227.258L11.8616 227.555L12.5234 229.402ZM16.5051 228.808L18.496 228.511L17.8343 226.665L15.8434 226.961L16.5051 228.808ZM20.4869 228.214L22.4778 227.917L21.816 226.071L19.8252 226.368L20.4869 228.214ZM24.4687 227.62L26.4596 227.324L25.7978 225.477L23.8069 225.774L24.4687 227.62ZM28.4504 227.027L30.4413 226.73L29.7796 224.883L27.7887 225.18L28.4504 227.027ZM32.4322 226.433L34.4231 226.136L33.7613 224.29L31.7705 224.586L32.4322 226.433ZM36.414 225.839L38.4048 225.542L37.7431 223.696L35.7522 223.993L36.414 225.839ZM40.3957 225.245L42.3866 224.949L41.7248 223.102L39.734 223.399L40.3957 225.245ZM44.3775 224.652L46.3683 224.355L45.7066 222.508L43.7157 222.805L44.3775 224.652ZM48.3592 224.058L50.3501 223.761L49.6884 221.914L47.6975 222.211L48.3592 224.058ZM52.341 223.464L54.3319 223.167L53.6701 221.321L51.6792 221.618L52.341 223.464ZM56.3227 222.87L58.3136 222.573L57.6519 220.727L55.661 221.024L56.3227 222.87ZM60.3045 222.277L62.2954 221.98L61.6336 220.133L59.6428 220.43L60.3045 222.277ZM64.2863 221.683L66.2771 221.386L65.6154 219.539L63.6245 219.836L64.2863 221.683ZM68.268 221.089L70.2589 220.792L69.5972 218.946L67.6063 219.243L68.268 221.089ZM72.2498 220.495L74.2406 220.198L73.5789 218.352L71.588 218.649L72.2498 220.495ZM76.2315 219.902L77.227 219.753L76.5653 217.907L75.5698 218.055L76.2315 219.902ZM77.227 219.753C77.5588 219.704 77.89 219.653 78.2205 219.6L77.5391 217.757C77.2151 217.808 76.8905 217.858 76.5653 217.907L77.227 219.753ZM80.1968 219.268C80.8537 219.151 81.5078 219.029 82.1592 218.9L81.3998 217.071C80.7614 217.197 80.1201 217.317 79.4762 217.431L80.1968 219.268ZM84.1069 218.497C84.754 218.357 85.3981 218.211 86.0393 218.059L85.2031 216.246C84.5746 216.395 83.9432 216.538 83.309 216.676L84.1069 218.497ZM87.9555 217.586C88.5917 217.423 89.2249 217.253 89.8548 217.078L88.943 215.285C88.3256 215.456 87.705 215.622 87.0813 215.783L87.9555 217.586ZM91.7366 216.536C92.3611 216.349 92.9823 216.157 93.6001 215.959L92.6141 214.187C92.0085 214.381 91.3996 214.57 90.7875 214.753L91.7366 216.536ZM95.4446 215.348C96.0563 215.138 96.6646 214.923 97.2693 214.703L96.2107 212.956C95.6179 213.172 95.0217 213.383 94.4221 213.588L95.4446 215.348ZM99.0736 214.024C99.6716 213.792 100.266 213.555 100.857 213.312L99.7271 211.593C99.1481 211.831 98.5654 212.064 97.9792 212.291L99.0736 214.024ZM102.618 212.566C103.202 212.312 103.781 212.053 104.357 211.788L103.158 210.099C102.594 210.359 102.026 210.613 101.454 210.862L102.618 212.566ZM106.073 210.977C106.641 210.702 107.205 210.421 107.765 210.134L106.498 208.478C105.949 208.759 105.397 209.034 104.84 209.305L106.073 210.977ZM109.432 209.259C109.984 208.962 110.532 208.66 111.075 208.353L109.743 206.732C109.21 207.033 108.674 207.329 108.133 207.62L109.432 209.259ZM112.692 207.415C113.226 207.097 113.756 206.774 114.282 206.446L112.887 204.863C112.371 205.184 111.852 205.501 111.328 205.812L112.692 207.415ZM115.846 205.446C116.362 205.108 116.874 204.765 117.382 204.417L115.925 202.874C115.427 203.215 114.926 203.552 114.419 203.883L115.846 205.446ZM118.89 203.358C119.387 203 119.88 202.637 120.369 202.269L118.853 200.769C118.374 201.129 117.891 201.485 117.403 201.836L118.89 203.358ZM121.819 201.151C122.297 200.774 122.77 200.392 123.239 200.005L121.666 198.55C121.207 198.929 120.743 199.303 120.274 199.673L121.819 201.151ZM124.629 198.831C125.087 198.435 125.54 198.034 125.988 197.629L124.36 196.221C123.921 196.618 123.477 197.011 123.028 197.399L124.629 198.831ZM127.315 196.4C127.534 196.193 127.751 195.985 127.967 195.775L126.301 194.404C126.089 194.609 125.876 194.813 125.662 195.016L127.315 196.4ZM127.967 195.775L128.617 195.146L126.95 193.774L126.301 194.404L127.967 195.775ZM129.915 193.887L131.214 192.628L129.548 191.256L128.249 192.515L129.915 193.887ZM132.513 191.369L133.812 190.11L132.146 188.739L130.847 189.998L132.513 191.369ZM135.111 188.852L136.41 187.593L134.743 186.221L133.444 187.48L135.111 188.852ZM137.709 186.334L139.007 185.075L137.341 183.703L136.042 184.962L137.709 186.334ZM140.306 183.816L141.605 182.557L139.939 181.186L138.64 182.444L140.306 183.816ZM142.904 181.298L144.203 180.04L142.536 178.668L141.237 179.927L142.904 181.298ZM145.502 178.781L146.8 177.522L145.134 176.15L143.835 177.409L145.502 178.781ZM148.099 176.263L149.398 175.004L147.732 173.632L146.433 174.891L148.099 176.263ZM150.697 173.745L151.996 172.486L150.329 171.115L149.03 172.374L150.697 173.745ZM153.295 171.228L154.594 169.969L152.927 168.597L151.628 169.856L153.295 171.228ZM155.892 168.71L157.191 167.451L155.525 166.079L154.226 167.338L155.892 168.71ZM158.49 166.192L159.139 165.563L157.473 164.191L156.824 164.82L158.49 166.192ZM159.139 165.563C159.356 165.353 159.568 165.141 159.777 164.926L158.077 163.587C157.879 163.791 157.678 163.992 157.473 164.191L159.139 165.563ZM160.986 163.601C161.375 163.148 161.749 162.685 162.106 162.212L160.284 161.016C159.946 161.464 159.592 161.903 159.223 162.332L160.986 163.601ZM163.133 160.762C163.459 160.269 163.77 159.766 164.064 159.255L162.14 158.213C161.861 158.698 161.567 159.174 161.257 159.642L163.133 160.762ZM164.897 157.695C165.158 157.166 165.402 156.63 165.63 156.086L163.624 155.209C163.408 155.725 163.177 156.233 162.929 156.734L164.897 157.695ZM166.26 154.432C166.453 153.874 166.629 153.309 166.787 152.737L164.721 152.036C164.571 152.578 164.404 153.113 164.222 153.642L166.26 154.432ZM167.208 151.008C167.331 150.426 167.436 149.839 167.523 149.246L165.418 148.728C165.336 149.289 165.236 149.846 165.12 150.397L167.208 151.008ZM167.731 147.459C167.756 147.159 167.778 146.859 167.794 146.557L165.675 146.179C165.659 146.465 165.639 146.75 165.615 147.034L167.731 147.459ZM167.794 146.557C167.811 146.249 167.833 145.943 167.859 145.639L165.744 145.211C165.716 145.532 165.693 145.854 165.675 146.179L167.794 146.557ZM168.074 143.829C168.166 143.227 168.276 142.633 168.404 142.048L166.318 141.426C166.183 142.043 166.067 142.669 165.971 143.304L168.074 143.829ZM168.848 140.303C169.016 139.724 169.202 139.155 169.406 138.597L167.376 137.783C167.161 138.373 166.964 138.973 166.787 139.583L168.848 140.303ZM170.078 136.936C170.321 136.389 170.582 135.852 170.86 135.326L168.911 134.33C168.617 134.885 168.342 135.452 168.085 136.03L170.078 136.936ZM171.751 133.772C172.067 133.262 172.4 132.764 172.749 132.278L170.905 131.112C170.537 131.625 170.186 132.151 169.852 132.689L171.751 133.772ZM173.849 130.849C174.233 130.383 174.632 129.929 175.047 129.489L173.331 128.167C172.893 128.632 172.471 129.111 172.066 129.603L173.849 130.849ZM176.341 128.201C176.788 127.784 177.25 127.381 177.726 126.991L176.157 125.532C175.656 125.943 175.168 126.369 174.697 126.809L176.341 128.201ZM179.197 125.86C179.701 125.497 180.219 125.147 180.749 124.813L179.346 123.234C178.787 123.587 178.241 123.956 177.709 124.339L179.197 125.86ZM182.379 123.851C182.934 123.546 183.501 123.255 184.08 122.979L182.859 121.301C182.249 121.591 181.65 121.898 181.065 122.221L182.379 123.851ZM185.847 122.199C186.447 121.954 187.057 121.726 187.677 121.513L186.652 119.754C185.998 119.979 185.355 120.22 184.723 120.478L185.847 122.199ZM189.562 120.923C190.198 120.743 190.844 120.579 191.497 120.431L190.683 118.613C189.993 118.769 189.312 118.942 188.641 119.132L189.562 120.923ZM193.478 120.04C194.143 119.927 194.817 119.83 195.497 119.75L194.903 117.895C194.185 117.979 193.475 118.081 192.772 118.2L193.478 120.04ZM197.549 119.564C198.236 119.519 198.929 119.491 199.627 119.481L199.263 117.61C198.526 117.621 197.794 117.651 197.069 117.698L197.549 119.564ZM201.725 119.503C202.425 119.527 203.129 119.569 203.837 119.628L203.709 117.766C202.961 117.703 202.218 117.659 201.479 117.633L201.725 119.503ZM205.957 119.858C206.66 119.952 207.367 120.062 208.077 120.191L208.184 118.36C207.436 118.224 206.689 118.107 205.947 118.009L205.957 119.858ZM210.191 120.625C210.89 120.786 211.591 120.963 212.294 121.159L212.633 119.381C211.892 119.175 211.153 118.987 210.416 118.818L210.191 120.625ZM214.378 121.79C214.724 121.903 215.07 122.02 215.417 122.142L215.924 120.417C215.56 120.289 215.195 120.165 214.831 120.046L214.378 121.79ZM215.417 122.142L216.704 122.595L217.212 120.87L215.924 120.417L215.417 122.142ZM219.278 123.5L221.853 124.406L222.361 122.681L219.786 121.775L219.278 123.5ZM224.427 125.311L225.715 125.764L226.222 124.039L224.935 123.586L224.427 125.311ZM225.715 125.764C226.059 125.885 226.404 126.003 226.749 126.118L227.213 124.378C226.883 124.268 226.552 124.155 226.222 124.039L225.715 125.764ZM228.829 126.768C229.527 126.973 230.226 127.164 230.925 127.342L231.21 125.55C230.541 125.379 229.872 125.196 229.204 125L228.829 126.768ZM233.034 127.84C233.74 127.993 234.446 128.132 235.15 128.259L235.253 126.427C234.579 126.306 233.903 126.172 233.227 126.026L233.034 127.84ZM237.272 128.599C237.981 128.699 238.688 128.785 239.394 128.859L239.313 127.001C238.638 126.931 237.961 126.848 237.283 126.752L237.272 128.599ZM241.512 129.038C242.218 129.085 242.922 129.118 243.623 129.138L243.36 127.268C242.689 127.249 242.016 127.217 241.34 127.173L241.512 129.038ZM245.723 129.156C246.421 129.149 247.116 129.128 247.807 129.094L247.364 127.226C246.702 127.259 246.037 127.279 245.369 127.286L245.723 129.156ZM249.872 128.952C250.558 128.891 251.238 128.817 251.915 128.729L251.295 126.877C250.648 126.961 249.996 127.032 249.34 127.09L249.872 128.952ZM253.93 128.427C254.597 128.313 255.259 128.186 255.915 128.046L255.124 126.223C254.496 126.357 253.862 126.479 253.224 126.588L253.93 128.427ZM257.867 127.587C258.511 127.421 259.149 127.242 259.78 127.05L258.823 125.27C258.219 125.453 257.608 125.625 256.991 125.783L257.867 127.587ZM261.653 126.437C262.27 126.22 262.879 125.99 263.481 125.748L262.364 124.024C261.788 124.255 261.205 124.475 260.615 124.683L261.653 126.437ZM265.261 124.985C265.845 124.719 266.422 124.44 266.99 124.149L265.722 122.494C265.179 122.772 264.627 123.039 264.068 123.294L265.261 124.985ZM268.664 123.242C269.212 122.929 269.751 122.603 270.28 122.265L268.871 120.691C268.364 121.014 267.849 121.326 267.324 121.626L268.664 123.242ZM271.835 121.221C272.342 120.862 272.84 120.492 273.327 120.11L271.786 118.629C271.32 118.994 270.844 119.348 270.359 119.691L271.835 121.221ZM274.752 118.935C275.215 118.534 275.667 118.122 276.108 117.698L274.447 116.321C274.025 116.726 273.592 117.121 273.15 117.504L274.752 118.935ZM277.392 116.402C277.807 115.962 278.21 115.511 278.602 115.05L276.834 113.786C276.459 114.228 276.073 114.66 275.676 115.081L277.392 116.402ZM279.736 113.643C279.919 113.404 280.099 113.162 280.275 112.919L278.436 111.746C278.267 111.98 278.095 112.211 277.92 112.44L279.736 113.643ZM280.275 112.919L280.684 112.355L278.844 111.182L278.436 111.746L280.275 112.919ZM281.501 111.227L281.91 110.663L280.07 109.491L279.661 110.055L281.501 111.227ZM281.91 110.663C282.08 110.428 282.253 110.196 282.429 109.966L280.612 108.762C280.429 109.002 280.248 109.245 280.07 109.491L281.91 110.663ZM283.521 108.614C283.898 108.171 284.287 107.738 284.687 107.316L282.973 105.992C282.556 106.433 282.149 106.885 281.754 107.349L283.521 108.614ZM285.926 106.073C286.352 105.668 286.788 105.273 287.234 104.89L285.638 103.454C285.171 103.855 284.714 104.268 284.269 104.692L285.926 106.073ZM288.611 103.767C289.082 103.402 289.563 103.049 290.053 102.707L288.586 101.172C288.073 101.529 287.57 101.898 287.078 102.28L288.611 103.767ZM291.557 101.713C292.069 101.392 292.591 101.083 293.121 100.786L291.795 99.162C291.241 99.4728 290.695 99.796 290.159 100.132L291.557 101.713ZM294.741 99.9281C295.291 99.6534 295.848 99.3909 296.414 99.1406L295.239 97.4409C294.648 97.7027 294.064 97.9773 293.489 98.2646L294.741 99.9281ZM298.137 98.425C298.72 98.1984 299.31 97.9843 299.906 97.7826L298.891 96.0209C298.267 96.2317 297.65 96.4556 297.041 96.6926L298.137 98.425ZM301.719 97.2147C302.33 97.0378 302.947 96.8736 303.57 96.7222L302.722 94.912C302.071 95.0704 301.425 95.2421 300.786 95.427L301.719 97.2147ZM305.458 96.306C306.093 96.1801 306.733 96.067 307.377 95.9669L306.703 94.1223C306.029 94.227 305.36 94.3452 304.696 94.4768L305.458 96.306ZM309.326 95.7055C309.979 95.6315 310.637 95.5704 311.298 95.5225L310.803 93.6577C310.111 93.7078 309.423 93.7716 308.74 93.8491L309.326 95.7055ZM313.292 95.4182C313.959 95.3965 314.629 95.388 315.302 95.3928L314.99 93.522C314.286 93.5171 313.585 93.5259 312.887 93.5485L313.292 95.4182ZM317.326 95.4465C318.002 95.4776 318.68 95.5219 319.359 95.5794L319.232 93.7172C318.521 93.657 317.813 93.6107 317.106 93.5782L317.326 95.4465ZM321.398 95.7912C322.076 95.8748 322.757 95.9716 323.437 96.0817L323.498 94.2426C322.785 94.1274 322.074 94.0262 321.364 93.9387L321.398 95.7912ZM325.475 96.4504C326.151 96.5859 326.828 96.7346 327.505 96.8965L327.752 95.0948C327.044 94.9255 326.336 94.7699 325.628 94.6282L325.475 96.4504ZM329.525 97.4192C330.194 97.6056 330.863 97.805 331.531 98.0175L331.963 96.2673C331.265 96.0451 330.565 95.8365 329.865 95.6416L329.525 97.4192ZM333.518 98.69C334.175 98.9255 334.83 99.1739 335.484 99.4352L336.097 97.7499C335.413 97.4767 334.728 97.2169 334.041 96.9706L333.518 98.69ZM337.423 100.252C337.744 100.393 338.065 100.539 338.385 100.687L339.129 99.0581C338.795 98.9032 338.46 98.7515 338.124 98.6032L337.423 100.252ZM338.385 100.687C338.696 100.831 339.006 100.978 339.314 101.127L340.101 99.5188C339.779 99.3625 339.455 99.209 339.129 99.0581L338.385 100.687ZM341.148 102.057C341.754 102.378 342.354 102.709 342.946 103.049L343.899 101.529C343.28 101.172 342.653 100.826 342.018 100.491L341.148 102.057ZM344.706 104.103C345.287 104.465 345.86 104.836 346.425 105.217L347.537 103.795C346.946 103.397 346.347 103.009 345.74 102.631L344.706 104.103ZM348.098 106.387C348.648 106.787 349.19 107.196 349.723 107.613L350.987 106.302C350.429 105.865 349.862 105.438 349.287 105.02L348.098 106.387ZM351.298 108.892C351.814 109.327 352.321 109.77 352.819 110.222L354.224 109.029C353.703 108.557 353.173 108.094 352.633 107.639L351.298 108.892ZM354.283 111.599C354.761 112.066 355.229 112.54 355.687 113.022L357.223 111.958C356.744 111.454 356.254 110.958 355.754 110.47L354.283 111.599ZM357.03 114.488C357.466 114.984 357.892 115.486 358.308 115.995L359.964 115.067C359.529 114.534 359.084 114.009 358.627 113.491L357.03 114.488ZM359.519 117.538C359.911 118.058 360.292 118.585 360.661 119.117L362.425 118.332C362.039 117.775 361.64 117.225 361.231 116.681L359.519 117.538ZM361.732 120.727C361.905 120.998 362.074 121.27 362.24 121.543L364.076 120.869C363.902 120.583 363.725 120.298 363.545 120.015L361.732 120.727ZM362.24 121.543L362.437 121.866L364.273 121.192L364.076 120.869L362.24 121.543ZM362.831 122.513L363.028 122.836L364.864 122.162L364.667 121.838L362.831 122.513ZM363.028 122.836C363.205 123.127 363.385 123.417 363.568 123.705L365.383 122.996C365.207 122.72 365.034 122.441 364.864 122.162L363.028 122.836ZM364.702 125.42C365.092 125.988 365.494 126.549 365.906 127.103L367.626 126.258C367.231 125.726 366.846 125.187 366.471 124.642L364.702 125.42ZM367.178 128.753C367.615 129.298 368.062 129.836 368.518 130.366L370.134 129.39C369.696 128.881 369.267 128.365 368.848 127.841L367.178 128.753ZM369.923 131.94C370.403 132.459 370.892 132.969 371.39 133.472L372.891 132.371C372.412 131.889 371.943 131.398 371.482 130.9L369.923 131.94ZM372.918 134.96C373.437 135.449 373.966 135.93 374.503 136.402L375.878 135.183C375.363 134.73 374.855 134.269 374.357 133.799L372.918 134.96ZM376.143 137.795C376.699 138.251 377.264 138.698 377.836 139.136L379.077 137.808C378.528 137.387 377.986 136.958 377.452 136.52L376.143 137.795ZM379.578 140.425C380.167 140.846 380.764 141.257 381.368 141.658L382.467 140.229C381.888 139.843 381.315 139.448 380.75 139.045L379.578 140.425ZM383.201 142.835C383.819 143.217 384.444 143.589 385.075 143.952L386.026 142.43C385.42 142.082 384.82 141.725 384.227 141.358L383.201 142.835ZM386.987 145.008C387.63 145.35 388.279 145.681 388.934 146.002L389.731 144.398C389.102 144.09 388.479 143.772 387.862 143.444L386.987 145.008ZM390.913 146.932C391.577 147.231 392.246 147.519 392.92 147.796L393.557 146.121C392.91 145.855 392.268 145.578 391.63 145.291L390.913 146.932ZM394.953 148.594C395.634 148.848 396.32 149.091 397.009 149.323L397.482 147.586C396.821 147.364 396.163 147.13 395.509 146.886L394.953 148.594ZM399.083 149.982C399.777 150.19 400.473 150.387 401.173 150.571L401.479 148.784C400.807 148.607 400.139 148.419 399.473 148.219L399.083 149.982ZM403.275 151.088C403.976 151.249 404.68 151.397 405.386 151.533L405.523 149.707C404.845 149.577 404.169 149.434 403.497 149.281L403.275 151.088ZM407.503 151.904C408.207 152.016 408.913 152.115 409.621 152.202L409.587 150.35C408.908 150.266 408.23 150.171 407.554 150.064L407.503 151.904ZM411.738 152.425C412.441 152.487 413.146 152.537 413.851 152.574L413.647 150.707C412.97 150.671 412.294 150.623 411.619 150.564L411.738 152.425ZM415.955 152.649C416.304 152.655 416.654 152.658 417.004 152.658L416.675 150.787C416.339 150.787 416.003 150.784 415.667 150.778L415.955 152.649ZM417.004 152.658L418.245 152.658L417.916 150.787L416.675 150.787L417.004 152.658ZM420.728 152.657L421.969 152.657L421.639 150.786L420.398 150.787L420.728 152.657ZM421.969 152.657C422.338 152.657 422.707 152.654 423.074 152.648L422.706 150.778C422.351 150.783 421.996 150.786 421.639 150.786L421.969 152.657ZM425.271 152.574C426.003 152.538 426.73 152.489 427.452 152.428L426.929 150.565C426.232 150.624 425.531 150.671 424.825 150.707L425.271 152.574ZM429.612 152.208C430.329 152.122 431.041 152.024 431.748 151.915L431.074 150.07C430.392 150.176 429.705 150.27 429.013 150.353L429.612 152.208ZM433.858 151.549C434.557 151.415 435.251 151.269 435.938 151.112L435.117 149.295C434.453 149.447 433.784 149.588 433.109 149.717L433.858 151.549ZM437.986 150.603C438.664 150.421 439.335 150.228 439.999 150.023L439.034 148.245C438.393 148.443 437.746 148.629 437.092 148.805L437.986 150.603ZM441.975 149.374C442.626 149.146 443.271 148.907 443.909 148.656L442.806 146.926C442.191 147.168 441.569 147.399 440.94 147.619L441.975 149.374ZM445.8 147.87C446.423 147.597 447.038 147.312 447.645 147.017L446.411 145.345C445.825 145.63 445.232 145.904 444.631 146.168L445.8 147.87ZM449.442 146.098C450.033 145.782 450.615 145.454 451.188 145.116L449.829 143.511C449.276 143.837 448.714 144.153 448.145 144.459L449.442 146.098ZM452.881 144.07C453.435 143.711 453.981 143.342 454.518 142.962L453.041 141.433C452.524 141.799 451.997 142.155 451.462 142.502L452.881 144.07ZM456.096 141.795C456.612 141.396 457.119 140.987 457.615 140.569L456.029 139.124C455.55 139.528 455.062 139.922 454.564 140.307L456.096 141.795ZM459.072 139.286C459.546 138.85 460.01 138.404 460.463 137.948L458.777 136.596C458.34 137.035 457.892 137.465 457.435 137.886L459.072 139.286ZM461.789 136.557C462.219 136.086 462.638 135.605 463.047 135.115L461.27 133.862C460.876 134.335 460.471 134.799 460.056 135.254L461.789 136.557ZM464.235 133.624C464.427 133.371 464.616 133.117 464.802 132.86L462.963 131.687C462.783 131.934 462.601 132.18 462.416 132.424L464.235 133.624ZM464.802 132.86L465.364 132.086L463.525 130.912L462.963 131.687L464.802 132.86ZM466.488 130.537L467.612 128.988L465.773 127.815L464.649 129.364L466.488 130.537ZM468.736 127.44L469.86 125.891L468.021 124.718L466.897 126.267L468.736 127.44ZM470.984 124.343L472.108 122.794L470.269 121.621L469.145 123.169L470.984 124.343ZM473.232 121.245L474.356 119.697L472.517 118.524L471.393 120.072L473.232 121.245ZM475.48 118.148L476.604 116.6L474.765 115.427L473.641 116.975L475.48 118.148ZM477.728 115.051L478.29 114.277L476.451 113.104L475.889 113.878L477.728 115.051ZM478.29 114.277C478.483 114.011 478.677 113.746 478.874 113.483L477.047 112.294C476.846 112.562 476.648 112.832 476.451 113.104L478.29 114.277ZM480.076 111.917C480.484 111.399 480.899 110.887 481.321 110.38L479.544 109.128C479.113 109.645 478.689 110.168 478.273 110.696L480.076 111.917ZM482.61 108.874C483.047 108.377 483.49 107.885 483.941 107.398L482.216 106.086C481.756 106.583 481.304 107.084 480.858 107.591L482.61 108.874ZM485.314 105.955C485.778 105.479 486.249 105.009 486.727 104.544L485.059 103.174C484.571 103.648 484.09 104.128 483.617 104.613L485.314 105.955ZM488.181 103.166C488.427 102.939 488.674 102.713 488.923 102.489L487.299 101.078C487.045 101.307 486.793 101.537 486.542 101.768L488.181 103.166ZM488.923 102.489L489.575 101.903L487.951 100.492L487.299 101.078L488.923 102.489ZM490.878 100.73L492.181 99.5578L490.557 98.1464L489.254 99.3191L490.878 100.73ZM493.485 98.3852L494.788 97.2125L493.164 95.8012L491.86 96.9738L493.485 98.3852ZM496.091 96.0399L497.394 94.8673L495.77 93.4559L494.467 94.6286L496.091 96.0399ZM498.697 93.6947L500 92.522L498.376 91.1107L497.073 92.2833L498.697 93.6947ZM501.304 91.3494L502.607 90.1768L500.983 88.7654L499.68 89.938L501.304 91.3494ZM503.91 89.0041L505.213 87.8315L503.589 86.4201L502.286 87.5928L503.91 89.0041ZM506.516 86.6589L507.82 85.4862L506.196 84.0749L504.892 85.2475L506.516 86.6589ZM509.123 84.3136L510.426 83.141L508.802 81.7296L507.499 82.9023L509.123 84.3136ZM511.729 81.9684L513.032 80.7957L511.408 79.3844L510.105 80.557L511.729 81.9684ZM514.336 79.6231L515.639 78.4505L514.015 77.0391L512.711 78.2117L514.336 79.6231ZM516.942 77.2778L517.593 76.6915L515.969 75.2802L515.318 75.8665L516.942 77.2778ZM517.593 76.6915C517.827 76.4816 518.062 76.2734 518.298 76.0669L516.692 74.6397C516.45 74.8515 516.209 75.065 515.969 75.2802L517.593 76.6915ZM519.74 74.8464C520.227 74.4456 520.722 74.0517 521.223 73.6646L519.691 72.1766C519.177 72.5735 518.67 72.9774 518.17 73.3883L519.74 74.8464ZM522.746 72.5225C523.261 72.1482 523.783 71.7809 524.31 71.4206L522.856 69.8758C522.315 70.2452 521.781 70.6218 521.253 71.0055L522.746 72.5225ZM525.912 70.36C526.453 70.0132 527 69.6735 527.552 69.341L526.18 67.7435C525.614 68.0844 525.053 68.4327 524.499 68.7883L525.912 70.36ZM529.228 68.3647C529.793 68.0463 530.364 67.7351 530.94 67.4314L529.654 65.7855C529.063 66.0969 528.478 66.4159 527.899 66.7424L529.228 68.3647ZM532.686 66.5419C533.274 66.2528 533.867 65.971 534.465 65.6968L533.268 64.007C532.655 64.2882 532.047 64.577 531.444 64.8735L532.686 66.5419ZM536.276 64.8967C536.884 64.6375 537.498 64.3859 538.117 64.142L537.013 62.4128C536.378 62.6629 535.749 62.9209 535.125 63.1866L536.276 64.8967ZM539.988 63.4333C540.616 63.2048 541.249 62.9841 541.887 62.7711L540.878 61.0072C540.224 61.2256 539.575 61.4519 538.931 61.6862L539.988 63.4333ZM543.812 62.1558C544.458 61.9586 545.109 61.7693 545.763 61.5878L544.853 59.7939C544.181 59.98 543.515 60.1742 542.852 60.3763L543.812 62.1558ZM547.739 61.0676C548.401 60.9023 549.067 60.7449 549.737 60.5954L548.927 58.7764C548.24 58.9296 547.557 59.091 546.878 59.2606L547.739 61.0676ZM551.757 60.1717C552.433 60.0386 553.113 59.9136 553.797 59.7966L553.09 57.9573C552.389 58.0773 551.692 58.2055 550.998 58.3419L551.757 60.1717ZM555.856 59.4704C556.2 59.4201 556.546 59.3719 556.892 59.3257L556.263 57.4745C555.908 57.5219 555.554 57.5713 555.201 57.6229L555.856 59.4704ZM556.892 59.3257C557.231 59.2805 557.569 59.2334 557.906 59.1844L557.252 57.3367C556.923 57.3845 556.594 57.4304 556.263 57.4745L556.892 59.3257ZM559.92 58.8676C560.589 58.7543 561.255 58.6335 561.917 58.5052L561.164 56.6743C560.519 56.7994 559.869 56.9173 559.217 57.0278L559.92 58.8676ZM563.895 58.0974C564.552 57.9538 565.205 57.8027 565.854 57.6443L565.004 55.8347C564.371 55.9892 563.734 56.1365 563.094 56.2766L563.895 58.0974ZM567.791 57.1463C568.434 56.9728 569.072 56.7919 569.706 56.6037L568.761 54.8198C568.142 55.0033 567.52 55.1797 566.893 55.349L567.791 57.1463ZM571.598 56.0168C572.225 55.8138 572.847 55.6035 573.465 55.3861L572.427 53.6322C571.824 53.8443 571.217 54.0494 570.606 54.2474L571.598 56.0168ZM575.306 54.7118C575.915 54.4797 576.52 54.2406 577.12 53.9944L575.992 52.2749C575.406 52.515 574.817 52.7483 574.222 52.9746L575.306 54.7118ZM578.906 53.2343C579.497 52.9738 580.083 52.7063 580.664 52.432L579.448 50.7511C578.881 51.0187 578.31 51.2795 577.734 51.5336L578.906 53.2343ZM582.391 51.588C582.961 51.2998 583.526 51.0047 584.086 50.7028L582.786 49.0646C582.24 49.3591 581.688 49.6468 581.132 49.9279L582.391 51.588ZM585.75 49.777C586.299 49.4617 586.842 49.1398 587.38 48.8111L585.998 47.2197C585.474 47.5402 584.944 47.8542 584.408 48.1617L585.75 49.777ZM588.976 47.8057C589.502 47.4642 590.022 47.1161 590.537 46.7615L589.077 45.2207C588.575 45.5665 588.068 45.906 587.555 46.2391L588.976 47.8057ZM592.061 45.6791C592.563 45.3121 593.059 44.9387 593.549 44.559L592.014 43.0726C591.537 43.4429 591.053 43.8071 590.564 44.165L592.061 45.6791ZM594.998 43.4021C595.474 43.0106 595.944 42.6128 596.408 42.2089L594.803 40.7805C594.351 41.1745 593.892 41.5624 593.428 41.9442L594.998 43.4021ZM597.779 40.9803C598.228 40.5652 598.672 40.1441 599.108 39.7169L597.437 38.3501C597.011 38.7667 596.579 39.1774 596.14 39.5822L597.779 40.9803ZM600.397 38.4198C600.819 37.9822 601.234 37.5388 601.643 37.0895L599.908 35.7876C599.51 36.2258 599.105 36.6583 598.693 37.085L600.397 38.4198ZM602.845 35.7269C603.042 35.4972 603.237 35.2661 603.431 35.0335L601.653 33.7824C601.464 34.0092 601.274 34.2346 601.082 34.4587L602.845 35.7269ZM603.431 35.0335L604.02 34.3252L602.242 33.074L601.653 33.7824L603.431 35.0335ZM605.198 32.9085L606.376 31.4918L604.598 30.2407L603.42 31.6574L605.198 32.9085ZM607.554 30.0752L608.732 28.6585L606.954 27.4074L605.776 28.824L607.554 30.0752ZM609.91 27.2419L611.088 25.8252L609.31 24.5741L608.132 25.9907L609.91 27.2419ZM612.266 24.4085L613.444 22.9919L611.666 21.7407L610.488 23.1574L612.266 24.4085ZM614.622 21.5752L615.8 20.1586L614.022 18.9074L612.844 20.3241L614.622 21.5752ZM616.978 18.7419L618.156 17.3252L616.378 16.0741L615.2 17.4908L616.978 18.7419ZM619.334 15.9086L620.512 14.4919L618.734 13.2408L617.556 14.6574L619.334 15.9086ZM621.69 13.0753L622.868 11.6586L621.09 10.4075L619.912 11.8241L621.69 13.0753ZM624.046 10.2419L625.224 8.82527L623.446 7.57414L622.268 8.99081L624.046 10.2419ZM626.402 7.40861L627.58 5.99195L625.802 4.74082L624.624 6.15748L626.402 7.40861ZM628.758 4.57529L629.936 3.15863L628.158 1.9075L626.98 3.32416L628.758 4.57529Z" fill="#FF7400"/>
</svg>
