<svg width="553" height="123" viewBox="0 0 553 123" fill="none" xmlns="http://www.w3.org/2000/svg">
<rect x="111.74" y="118" width="27.2537" height="25" rx="4" transform="rotate(-180 111.74 118)" fill="url(#paint0_linear_111_52)"/>
<rect x="27.2537" y="93" width="25" height="27.2537" rx="4" transform="rotate(90 27.2537 93)" fill="url(#paint1_linear_111_52)"/>
<rect x="69.497" y="118" width="27.2537" height="25" rx="4" transform="rotate(180 69.497 118)" fill="url(#paint2_linear_111_52)"/>
<rect x="111.74" y="53" width="27.2537" height="25" rx="4" transform="rotate(-180 111.74 53)" fill="url(#paint3_linear_111_52)"/>
<rect x="27.2537" y="28" width="25" height="27.2537" rx="4" transform="rotate(90 27.2537 28)" fill="url(#paint4_linear_111_52)"/>
<rect x="69.497" y="53" width="27.2537" height="25" rx="4" transform="rotate(180 69.497 53)" fill="url(#paint5_linear_111_52)"/>
<rect x="111.74" y="85.5" width="27.2537" height="25" rx="4" transform="rotate(-180 111.74 85.5)" fill="url(#paint6_linear_111_52)"/>
<rect x="27.2537" y="60.5" width="25" height="27.2537" rx="4" transform="rotate(90 27.2537 60.5)" fill="url(#paint7_linear_111_52)"/>
<rect x="69.497" y="85.5" width="27.2537" height="25" rx="4" transform="rotate(180 69.497 85.5)" fill="url(#paint8_linear_111_52)"/>
<path d="M127.607 118L127.859 103.42H131.009L132.809 112.618L134.735 103.42H137.777L138.029 118H135.869L135.635 108.118L133.781 118H131.927L129.983 108.046L129.785 118H127.607ZM143.884 118.18C143.392 118.18 142.966 118.054 142.606 117.802C142.258 117.55 141.994 117.232 141.814 116.848C141.634 116.464 141.544 116.068 141.544 115.66C141.544 115.012 141.67 114.466 141.922 114.022C142.174 113.578 142.504 113.206 142.912 112.906C143.32 112.606 143.776 112.348 144.28 112.132C144.784 111.916 145.288 111.718 145.792 111.538V110.566C145.792 110.338 145.774 110.14 145.738 109.972C145.702 109.804 145.63 109.678 145.522 109.594C145.426 109.498 145.282 109.45 145.09 109.45C144.898 109.45 144.748 109.492 144.64 109.576C144.544 109.648 144.472 109.762 144.424 109.918C144.388 110.062 144.364 110.224 144.352 110.404L144.298 111.124L141.724 111.016C141.784 109.792 142.102 108.886 142.678 108.298C143.266 107.71 144.148 107.416 145.324 107.416C146.38 107.416 147.16 107.71 147.664 108.298C148.168 108.874 148.42 109.636 148.42 110.584V115.426C148.42 115.834 148.426 116.2 148.438 116.524C148.462 116.836 148.486 117.118 148.51 117.37C148.546 117.61 148.576 117.82 148.6 118H146.152C146.116 117.736 146.074 117.448 146.026 117.136C145.978 116.824 145.942 116.614 145.918 116.506C145.798 116.938 145.57 117.328 145.234 117.676C144.898 118.012 144.448 118.18 143.884 118.18ZM144.874 116.254C145.006 116.254 145.132 116.224 145.252 116.164C145.372 116.104 145.474 116.026 145.558 115.93C145.654 115.834 145.732 115.744 145.792 115.66V112.798C145.54 112.954 145.306 113.11 145.09 113.266C144.874 113.41 144.688 113.572 144.532 113.752C144.376 113.932 144.256 114.13 144.172 114.346C144.088 114.562 144.046 114.808 144.046 115.084C144.046 115.444 144.118 115.732 144.262 115.948C144.406 116.152 144.61 116.254 144.874 116.254ZM155.043 118.108C154.323 118.108 153.759 118 153.351 117.784C152.943 117.556 152.661 117.232 152.505 116.812C152.349 116.392 152.271 115.882 152.271 115.282V109.378H151.245V107.596H152.271V104.446H155.025V107.596H156.537V109.378H155.025V115.03C155.025 115.354 155.103 115.588 155.259 115.732C155.427 115.864 155.655 115.93 155.943 115.93C156.087 115.93 156.225 115.924 156.357 115.912C156.489 115.888 156.609 115.87 156.717 115.858V117.982C156.549 118.006 156.309 118.03 155.997 118.054C155.685 118.09 155.367 118.108 155.043 118.108ZM163.192 118.18C162.424 118.18 161.782 118.042 161.266 117.766C160.75 117.478 160.36 117.064 160.096 116.524C159.832 115.972 159.7 115.312 159.7 114.544V111.052C159.7 110.26 159.832 109.6 160.096 109.072C160.36 108.532 160.756 108.124 161.284 107.848C161.812 107.56 162.448 107.416 163.192 107.416C163.984 107.416 164.626 107.56 165.118 107.848C165.61 108.136 165.97 108.556 166.198 109.108C166.438 109.66 166.558 110.332 166.558 111.124V112.942H162.382V114.958C162.382 115.258 162.412 115.504 162.472 115.696C162.544 115.888 162.64 116.026 162.76 116.11C162.88 116.182 163.03 116.218 163.21 116.218C163.378 116.218 163.522 116.182 163.642 116.11C163.774 116.026 163.87 115.9 163.93 115.732C163.99 115.564 164.02 115.342 164.02 115.066V114.076H166.54V114.94C166.54 115.996 166.252 116.8 165.676 117.352C165.1 117.904 164.272 118.18 163.192 118.18ZM162.382 111.646H164.02V110.62C164.02 110.32 163.99 110.08 163.93 109.9C163.87 109.708 163.774 109.576 163.642 109.504C163.522 109.42 163.366 109.378 163.174 109.378C162.994 109.378 162.844 109.42 162.724 109.504C162.616 109.588 162.532 109.738 162.472 109.954C162.412 110.158 162.382 110.452 162.382 110.836V111.646ZM171.76 118.18C171.34 118.18 170.986 118.072 170.698 117.856C170.422 117.64 170.218 117.352 170.086 116.992C169.954 116.632 169.888 116.236 169.888 115.804V107.596H172.606V115.408C172.606 115.696 172.654 115.918 172.75 116.074C172.846 116.218 173.02 116.29 173.272 116.29C173.416 116.29 173.566 116.254 173.722 116.182C173.89 116.098 174.058 116.002 174.226 115.894V107.596H176.944V118H174.226V117.028C173.866 117.376 173.476 117.658 173.056 117.874C172.648 118.078 172.216 118.18 171.76 118.18ZM183.644 118.18C182.744 118.18 182 117.964 181.412 117.532C180.836 117.088 180.386 116.41 180.062 115.498L181.97 114.706C182.15 115.21 182.366 115.606 182.618 115.894C182.87 116.17 183.164 116.308 183.5 116.308C183.752 116.308 183.938 116.254 184.058 116.146C184.19 116.026 184.256 115.864 184.256 115.66C184.256 115.372 184.16 115.114 183.968 114.886C183.776 114.658 183.434 114.34 182.942 113.932L181.97 113.104C181.466 112.672 181.058 112.246 180.746 111.826C180.446 111.394 180.296 110.86 180.296 110.224C180.296 109.66 180.434 109.168 180.71 108.748C180.998 108.328 181.376 108.004 181.844 107.776C182.324 107.536 182.84 107.416 183.392 107.416C184.244 107.416 184.94 107.662 185.48 108.154C186.032 108.634 186.404 109.288 186.596 110.116L184.832 110.908C184.76 110.644 184.664 110.398 184.544 110.17C184.424 109.93 184.268 109.732 184.076 109.576C183.896 109.42 183.692 109.342 183.464 109.342C183.248 109.342 183.074 109.408 182.942 109.54C182.81 109.672 182.744 109.84 182.744 110.044C182.744 110.26 182.852 110.488 183.068 110.728C183.296 110.968 183.608 111.256 184.004 111.592L184.976 112.456C185.264 112.708 185.546 112.978 185.822 113.266C186.098 113.542 186.326 113.854 186.506 114.202C186.686 114.538 186.776 114.928 186.776 115.372C186.776 115.972 186.632 116.482 186.344 116.902C186.056 117.322 185.672 117.64 185.192 117.856C184.724 118.072 184.208 118.18 183.644 118.18ZM189.532 118V116.236L192.466 109.594H189.784V107.596H195.31V109.216L192.358 116.002H195.328V118H189.532ZM206.305 118L204.415 103.42H206.935L207.943 112.33L209.221 103.438H211.219L212.551 112.312L213.559 103.42H216.043L214.171 118H211.651L210.229 108.766L208.879 118H206.305ZM219.338 118V107.596H222.056V109.27C222.404 108.658 222.746 108.208 223.082 107.92C223.43 107.62 223.838 107.47 224.306 107.47C224.39 107.47 224.462 107.476 224.522 107.488C224.594 107.488 224.66 107.5 224.72 107.524V110.26C224.588 110.2 224.438 110.152 224.27 110.116C224.102 110.068 223.928 110.044 223.748 110.044C223.412 110.044 223.106 110.134 222.83 110.314C222.554 110.482 222.296 110.728 222.056 111.052V118H219.338ZM227.944 120.934V119.026C228.34 119.026 228.664 119.002 228.916 118.954C229.168 118.906 229.354 118.816 229.474 118.684C229.606 118.564 229.672 118.39 229.672 118.162C229.672 117.982 229.63 117.736 229.546 117.424C229.474 117.112 229.39 116.764 229.294 116.38L226.918 107.596H229.492L230.824 113.986L231.904 107.596H234.496L232.084 118.324C231.94 118.996 231.7 119.518 231.364 119.89C231.04 120.274 230.638 120.544 230.158 120.7C229.69 120.856 229.144 120.934 228.52 120.934H227.944ZM240.662 118.18C239.894 118.18 239.252 118.036 238.736 117.748C238.22 117.448 237.83 117.028 237.566 116.488C237.314 115.948 237.188 115.306 237.188 114.562V111.052C237.188 110.272 237.314 109.618 237.566 109.09C237.83 108.55 238.22 108.136 238.736 107.848C239.252 107.56 239.894 107.416 240.662 107.416C241.406 107.416 242.03 107.536 242.534 107.776C243.038 108.004 243.41 108.352 243.65 108.82C243.902 109.288 244.028 109.876 244.028 110.584V111.574H241.436V110.512C241.436 110.2 241.406 109.96 241.346 109.792C241.298 109.612 241.214 109.486 241.094 109.414C240.986 109.342 240.842 109.306 240.662 109.306C240.482 109.306 240.338 109.354 240.23 109.45C240.122 109.534 240.044 109.684 239.996 109.9C239.948 110.104 239.924 110.392 239.924 110.764V114.85C239.924 115.414 239.984 115.798 240.104 116.002C240.236 116.194 240.428 116.29 240.68 116.29C240.872 116.29 241.022 116.248 241.13 116.164C241.238 116.08 241.316 115.948 241.364 115.768C241.412 115.588 241.436 115.36 241.436 115.084V113.824H244.028V114.958C244.028 115.654 243.902 116.248 243.65 116.74C243.398 117.22 243.02 117.58 242.516 117.82C242.012 118.06 241.394 118.18 240.662 118.18ZM247.089 118V116.236L250.023 109.594H247.341V107.596H252.867V109.216L249.915 116.002H252.885V118H247.089ZM258.156 118.18C257.664 118.18 257.238 118.054 256.878 117.802C256.53 117.55 256.266 117.232 256.086 116.848C255.906 116.464 255.816 116.068 255.816 115.66C255.816 115.012 255.942 114.466 256.194 114.022C256.446 113.578 256.776 113.206 257.184 112.906C257.592 112.606 258.048 112.348 258.552 112.132C259.056 111.916 259.56 111.718 260.064 111.538V110.566C260.064 110.338 260.046 110.14 260.01 109.972C259.974 109.804 259.902 109.678 259.794 109.594C259.698 109.498 259.554 109.45 259.362 109.45C259.17 109.45 259.02 109.492 258.912 109.576C258.816 109.648 258.744 109.762 258.696 109.918C258.66 110.062 258.636 110.224 258.624 110.404L258.57 111.124L255.996 111.016C256.056 109.792 256.374 108.886 256.95 108.298C257.538 107.71 258.42 107.416 259.596 107.416C260.652 107.416 261.432 107.71 261.936 108.298C262.44 108.874 262.692 109.636 262.692 110.584V115.426C262.692 115.834 262.698 116.2 262.71 116.524C262.734 116.836 262.758 117.118 262.782 117.37C262.818 117.61 262.848 117.82 262.872 118H260.424C260.388 117.736 260.346 117.448 260.298 117.136C260.25 116.824 260.214 116.614 260.19 116.506C260.07 116.938 259.842 117.328 259.506 117.676C259.17 118.012 258.72 118.18 258.156 118.18ZM259.146 116.254C259.278 116.254 259.404 116.224 259.524 116.164C259.644 116.104 259.746 116.026 259.83 115.93C259.926 115.834 260.004 115.744 260.064 115.66V112.798C259.812 112.954 259.578 113.11 259.362 113.266C259.146 113.41 258.96 113.572 258.804 113.752C258.648 113.932 258.528 114.13 258.444 114.346C258.36 114.562 258.318 114.808 258.318 115.084C258.318 115.444 258.39 115.732 258.534 115.948C258.678 116.152 258.882 116.254 259.146 116.254ZM272.113 113.302V111.844H276.127V113.302H272.113ZM287.751 118L285.375 103.42H287.067L288.633 113.896L290.595 103.474H292.035L294.015 113.95L295.545 103.42H297.201L294.861 118H293.385L291.351 107.2L289.299 118H287.751ZM303.317 118.144C302.501 118.144 301.871 117.988 301.427 117.676C300.983 117.352 300.671 116.884 300.491 116.272C300.323 115.648 300.239 114.886 300.239 113.986V111.61C300.239 110.686 300.329 109.918 300.509 109.306C300.689 108.694 301.001 108.232 301.445 107.92C301.901 107.608 302.525 107.452 303.317 107.452C304.193 107.452 304.835 107.632 305.243 107.992C305.663 108.352 305.939 108.874 306.071 109.558C306.203 110.23 306.269 111.04 306.269 111.988V112.834H302.165V114.922C302.165 115.342 302.201 115.684 302.273 115.948C302.357 116.212 302.483 116.41 302.651 116.542C302.831 116.662 303.059 116.722 303.335 116.722C303.623 116.722 303.839 116.656 303.983 116.524C304.139 116.38 304.241 116.182 304.289 115.93C304.349 115.666 304.379 115.36 304.379 115.012V114.382H306.251V114.778C306.251 115.822 306.029 116.644 305.585 117.244C305.141 117.844 304.385 118.144 303.317 118.144ZM302.165 111.79H304.379V110.854C304.379 110.422 304.355 110.062 304.307 109.774C304.259 109.474 304.157 109.252 304.001 109.108C303.857 108.952 303.623 108.874 303.299 108.874C302.987 108.874 302.747 108.946 302.579 109.09C302.423 109.234 302.315 109.48 302.255 109.828C302.195 110.164 302.165 110.632 302.165 111.232V111.79ZM313.539 118.144C313.167 118.144 312.831 118.054 312.531 117.874C312.243 117.682 311.991 117.472 311.775 117.244V118H309.849V103.42H311.775V108.424C312.003 108.16 312.273 107.932 312.585 107.74C312.909 107.548 313.293 107.452 313.737 107.452C314.277 107.452 314.703 107.596 315.015 107.884C315.339 108.16 315.579 108.514 315.735 108.946C315.891 109.366 315.993 109.798 316.041 110.242C316.089 110.674 316.113 111.046 316.113 111.358V113.878C316.113 114.61 316.041 115.306 315.897 115.966C315.753 116.614 315.495 117.142 315.123 117.55C314.751 117.946 314.223 118.144 313.539 118.144ZM313.143 116.632C313.479 116.632 313.719 116.512 313.863 116.272C314.007 116.02 314.097 115.684 314.133 115.264C314.169 114.844 314.187 114.382 314.187 113.878V111.358C314.187 110.926 314.163 110.53 314.115 110.17C314.067 109.798 313.965 109.504 313.809 109.288C313.653 109.072 313.407 108.964 313.071 108.964C312.819 108.964 312.579 109.018 312.351 109.126C312.135 109.234 311.943 109.354 311.775 109.486V116.164C311.943 116.296 312.141 116.41 312.369 116.506C312.609 116.59 312.867 116.632 313.143 116.632ZM325.739 118V103.42H328.907C329.987 103.42 330.839 103.588 331.463 103.924C332.099 104.248 332.549 104.74 332.813 105.4C333.089 106.06 333.227 106.882 333.227 107.866V113.23C333.227 114.262 333.089 115.132 332.813 115.84C332.549 116.548 332.111 117.088 331.499 117.46C330.899 117.82 330.089 118 329.069 118H325.739ZM327.773 116.542H328.925C329.669 116.542 330.197 116.398 330.509 116.11C330.821 115.822 331.007 115.402 331.067 114.85C331.139 114.298 331.175 113.632 331.175 112.852V108.118C331.175 107.362 331.127 106.75 331.031 106.282C330.935 105.814 330.725 105.472 330.401 105.256C330.077 105.04 329.567 104.932 328.871 104.932H327.773V116.542ZM339.749 118.144C338.933 118.144 338.303 117.988 337.859 117.676C337.415 117.352 337.103 116.884 336.923 116.272C336.755 115.648 336.671 114.886 336.671 113.986V111.61C336.671 110.686 336.761 109.918 336.941 109.306C337.121 108.694 337.433 108.232 337.877 107.92C338.333 107.608 338.957 107.452 339.749 107.452C340.625 107.452 341.267 107.632 341.675 107.992C342.095 108.352 342.371 108.874 342.503 109.558C342.635 110.23 342.701 111.04 342.701 111.988V112.834H338.597V114.922C338.597 115.342 338.633 115.684 338.705 115.948C338.789 116.212 338.915 116.41 339.083 116.542C339.263 116.662 339.491 116.722 339.767 116.722C340.055 116.722 340.271 116.656 340.415 116.524C340.571 116.38 340.673 116.182 340.721 115.93C340.781 115.666 340.811 115.36 340.811 115.012V114.382H342.683V114.778C342.683 115.822 342.461 116.644 342.017 117.244C341.573 117.844 340.817 118.144 339.749 118.144ZM338.597 111.79H340.811V110.854C340.811 110.422 340.787 110.062 340.739 109.774C340.691 109.474 340.589 109.252 340.433 109.108C340.289 108.952 340.055 108.874 339.731 108.874C339.419 108.874 339.179 108.946 339.011 109.09C338.855 109.234 338.747 109.48 338.687 109.828C338.627 110.164 338.597 110.632 338.597 111.232V111.79ZM347.595 118L345.543 107.596H347.487L348.765 115.966L350.061 107.596H351.933L349.953 118H347.595ZM357.851 118.144C357.035 118.144 356.405 117.988 355.961 117.676C355.517 117.352 355.205 116.884 355.025 116.272C354.857 115.648 354.773 114.886 354.773 113.986V111.61C354.773 110.686 354.863 109.918 355.043 109.306C355.223 108.694 355.535 108.232 355.979 107.92C356.435 107.608 357.059 107.452 357.851 107.452C358.727 107.452 359.369 107.632 359.777 107.992C360.197 108.352 360.473 108.874 360.605 109.558C360.737 110.23 360.803 111.04 360.803 111.988V112.834H356.699V114.922C356.699 115.342 356.735 115.684 356.807 115.948C356.891 116.212 357.017 116.41 357.185 116.542C357.365 116.662 357.593 116.722 357.869 116.722C358.157 116.722 358.373 116.656 358.517 116.524C358.673 116.38 358.775 116.182 358.823 115.93C358.883 115.666 358.913 115.36 358.913 115.012V114.382H360.785V114.778C360.785 115.822 360.563 116.644 360.119 117.244C359.675 117.844 358.919 118.144 357.851 118.144ZM356.699 111.79H358.913V110.854C358.913 110.422 358.889 110.062 358.841 109.774C358.793 109.474 358.691 109.252 358.535 109.108C358.391 108.952 358.157 108.874 357.833 108.874C357.521 108.874 357.281 108.946 357.113 109.09C356.957 109.234 356.849 109.48 356.789 109.828C356.729 110.164 356.699 110.632 356.699 111.232V111.79ZM364.527 118V103.42H366.453V118H364.527ZM373.123 118.144C372.355 118.144 371.749 117.988 371.305 117.676C370.861 117.364 370.543 116.92 370.351 116.344C370.171 115.768 370.081 115.09 370.081 114.31V111.286C370.081 110.506 370.171 109.828 370.351 109.252C370.543 108.676 370.861 108.232 371.305 107.92C371.749 107.608 372.355 107.452 373.123 107.452C373.891 107.452 374.491 107.608 374.923 107.92C375.367 108.232 375.679 108.676 375.859 109.252C376.051 109.828 376.147 110.506 376.147 111.286V114.31C376.147 115.09 376.051 115.768 375.859 116.344C375.679 116.92 375.367 117.364 374.923 117.676C374.491 117.988 373.891 118.144 373.123 118.144ZM373.123 116.722C373.495 116.722 373.753 116.614 373.897 116.398C374.053 116.182 374.143 115.9 374.167 115.552C374.203 115.192 374.221 114.82 374.221 114.436V111.178C374.221 110.782 374.203 110.41 374.167 110.062C374.143 109.714 374.053 109.432 373.897 109.216C373.753 108.988 373.495 108.874 373.123 108.874C372.751 108.874 372.487 108.988 372.331 109.216C372.175 109.432 372.079 109.714 372.043 110.062C372.019 110.41 372.007 110.782 372.007 111.178V114.436C372.007 114.82 372.019 115.192 372.043 115.552C372.079 115.9 372.175 116.182 372.331 116.398C372.487 116.614 372.751 116.722 373.123 116.722ZM379.707 121.42V107.596H381.633V108.424C381.861 108.16 382.137 107.932 382.461 107.74C382.785 107.548 383.169 107.452 383.613 107.452C384.153 107.452 384.579 107.596 384.891 107.884C385.215 108.16 385.455 108.514 385.611 108.946C385.767 109.366 385.869 109.798 385.917 110.242C385.965 110.674 385.989 111.046 385.989 111.358V113.878C385.989 114.61 385.917 115.306 385.773 115.966C385.629 116.614 385.365 117.142 384.981 117.55C384.609 117.946 384.081 118.144 383.397 118.144C383.025 118.144 382.695 118.054 382.407 117.874C382.119 117.682 381.861 117.466 381.633 117.226V121.42H379.707ZM383.019 116.632C383.355 116.632 383.595 116.512 383.739 116.272C383.883 116.02 383.973 115.684 384.009 115.264C384.045 114.844 384.063 114.382 384.063 113.878V111.358C384.063 110.926 384.039 110.53 383.991 110.17C383.943 109.798 383.841 109.504 383.685 109.288C383.529 109.072 383.283 108.964 382.947 108.964C382.695 108.964 382.455 109.018 382.227 109.126C381.999 109.234 381.801 109.36 381.633 109.504V116.164C381.813 116.296 382.017 116.41 382.245 116.506C382.473 116.59 382.731 116.632 383.019 116.632ZM392.42 118.144C391.604 118.144 390.974 117.988 390.53 117.676C390.086 117.352 389.774 116.884 389.594 116.272C389.426 115.648 389.342 114.886 389.342 113.986V111.61C389.342 110.686 389.432 109.918 389.612 109.306C389.792 108.694 390.104 108.232 390.548 107.92C391.004 107.608 391.628 107.452 392.42 107.452C393.296 107.452 393.938 107.632 394.346 107.992C394.766 108.352 395.042 108.874 395.174 109.558C395.306 110.23 395.372 111.04 395.372 111.988V112.834H391.268V114.922C391.268 115.342 391.304 115.684 391.376 115.948C391.46 116.212 391.586 116.41 391.754 116.542C391.934 116.662 392.162 116.722 392.438 116.722C392.726 116.722 392.942 116.656 393.086 116.524C393.242 116.38 393.344 116.182 393.392 115.93C393.452 115.666 393.482 115.36 393.482 115.012V114.382H395.354V114.778C395.354 115.822 395.132 116.644 394.688 117.244C394.244 117.844 393.488 118.144 392.42 118.144ZM391.268 111.79H393.482V110.854C393.482 110.422 393.458 110.062 393.41 109.774C393.362 109.474 393.26 109.252 393.104 109.108C392.96 108.952 392.726 108.874 392.402 108.874C392.09 108.874 391.85 108.946 391.682 109.09C391.526 109.234 391.418 109.48 391.358 109.828C391.298 110.164 391.268 110.632 391.268 111.232V111.79ZM398.971 118V107.596H400.897V109.072C401.281 108.436 401.665 108.01 402.049 107.794C402.433 107.578 402.817 107.47 403.201 107.47C403.249 107.47 403.291 107.47 403.327 107.47C403.375 107.47 403.435 107.476 403.507 107.488V109.612C403.363 109.552 403.195 109.504 403.003 109.468C402.823 109.42 402.637 109.396 402.445 109.396C402.145 109.396 401.869 109.468 401.617 109.612C401.377 109.744 401.137 110.008 400.897 110.404V118H398.971Z" fill="white"/>
<path d="M126.802 96V31.2H154.802V40.88H141.122V57.2H153.042V67.2H141.122V96H126.802ZM168.93 96V49.76H181.97V57.44C183.463 54.7733 184.956 52.7467 186.45 51.36C187.943 49.92 189.756 49.2 191.89 49.2C192.316 49.2 192.69 49.2267 193.01 49.28C193.33 49.28 193.623 49.3333 193.89 49.44V62.4C193.303 62.1333 192.636 61.92 191.89 61.76C191.196 61.5467 190.45 61.44 189.65 61.44C188.156 61.44 186.77 61.84 185.49 62.64C184.21 63.44 183.036 64.5333 181.97 65.92V96H168.93ZM222.595 96.8C219.288 96.8 216.408 96.24 213.955 95.12C211.555 94 209.688 92.32 208.355 90.08C207.075 87.84 206.435 85.04 206.435 81.68V64.08C206.435 60.72 207.075 57.92 208.355 55.68C209.688 53.44 211.555 51.76 213.955 50.64C216.408 49.52 219.288 48.96 222.595 48.96C225.901 48.96 228.755 49.52 231.155 50.64C233.608 51.76 235.501 53.44 236.835 55.68C238.168 57.92 238.835 60.72 238.835 64.08V81.68C238.835 85.04 238.168 87.84 236.835 90.08C235.501 92.32 233.608 94 231.155 95.12C228.755 96.24 225.901 96.8 222.595 96.8ZM222.675 88.16C223.528 88.16 224.195 87.9467 224.675 87.52C225.155 87.04 225.475 86.4 225.635 85.6C225.848 84.7467 225.955 83.7333 225.955 82.56V63.2C225.955 62.0267 225.848 61.04 225.635 60.24C225.475 59.3867 225.155 58.7467 224.675 58.32C224.195 57.84 223.528 57.6 222.675 57.6C221.821 57.6 221.155 57.84 220.675 58.32C220.195 58.7467 219.848 59.3867 219.635 60.24C219.421 61.04 219.315 62.0267 219.315 63.2V82.56C219.315 83.7333 219.421 84.7467 219.635 85.6C219.848 86.4 220.195 87.04 220.675 87.52C221.155 87.9467 221.821 88.16 222.675 88.16ZM254.066 96V49.76H267.106V54.4C268.813 52.6933 270.573 51.36 272.386 50.4C274.253 49.44 276.2 48.96 278.226 48.96C280.146 48.96 281.72 49.44 282.946 50.4C284.226 51.3067 285.186 52.5867 285.826 54.24C286.466 55.84 286.786 57.68 286.786 59.76V96H273.826V61.6C273.826 60.48 273.64 59.6267 273.266 59.04C272.893 58.4533 272.2 58.16 271.186 58.16C270.653 58.16 270.013 58.32 269.266 58.64C268.573 58.9067 267.853 59.3067 267.106 59.84V96H254.066ZM316.933 96.48C313.467 96.48 310.773 95.9733 308.853 94.96C306.987 93.9467 305.707 92.48 305.013 90.56C304.32 88.5867 303.973 86.2133 303.973 83.44V58.32H299.493V49.76H303.973V35.68H317.173V49.76H323.733V58.32H317.173V82.16C317.173 83.4933 317.547 84.4533 318.293 85.04C319.093 85.6267 320.08 85.92 321.253 85.92C321.947 85.92 322.587 85.8933 323.173 85.84C323.76 85.7333 324.293 85.6533 324.773 85.6V95.84C324.08 95.9467 322.987 96.08 321.493 96.24C320 96.4 318.48 96.48 316.933 96.48ZM356.495 96.96C352.015 96.96 348.468 96.0267 345.855 94.16C343.295 92.2933 341.455 89.68 340.335 86.32C339.268 82.9067 338.735 78.9867 338.735 74.56V52.8C338.735 48.2133 339.321 44.24 340.495 40.88C341.668 37.52 343.668 34.9333 346.495 33.12C349.375 31.2533 353.268 30.32 358.175 30.32C362.975 30.32 366.735 31.12 369.455 32.72C372.228 34.32 374.201 36.5333 375.375 39.36C376.548 42.1867 377.135 45.4933 377.135 49.28V53.44H363.135V48.16C363.135 46.7733 363.028 45.4933 362.815 44.32C362.655 43.1467 362.228 42.2133 361.535 41.52C360.895 40.7733 359.828 40.4 358.335 40.4C356.788 40.4 355.668 40.8267 354.975 41.68C354.281 42.48 353.828 43.4933 353.615 44.72C353.455 45.9467 353.375 47.2267 353.375 48.56V78.56C353.375 80 353.508 81.36 353.775 82.64C354.095 83.8667 354.628 84.88 355.375 85.68C356.175 86.4267 357.295 86.8 358.735 86.8C360.228 86.8 361.375 86.4 362.175 85.6C362.975 84.8 363.535 83.76 363.855 82.48C364.175 81.2 364.335 79.84 364.335 78.4V70.8H358.495V62.4H377.215V96H367.775L366.975 90.64C366.121 92.4533 364.868 93.9733 363.215 95.2C361.561 96.3733 359.321 96.96 356.495 96.96ZM394.177 96V31.2H412.017C416.39 31.2 420.177 31.68 423.377 32.64C426.577 33.6 429.057 35.3333 430.817 37.84C432.63 40.2933 433.537 43.7867 433.537 48.32C433.537 50.9867 433.324 53.36 432.897 55.44C432.47 57.52 431.67 59.3333 430.497 60.88C429.377 62.3733 427.75 63.6267 425.617 64.64L434.497 96H419.697L412.577 66.96H408.497V96H394.177ZM408.497 58.72H412.497C414.524 58.72 416.097 58.3733 417.217 57.68C418.337 56.9333 419.11 55.8933 419.537 54.56C420.017 53.1733 420.257 51.52 420.257 49.6C420.257 46.8267 419.75 44.6667 418.737 43.12C417.724 41.5733 415.857 40.8 413.137 40.8H408.497V58.72ZM450.226 96V31.2H464.546V96H450.226ZM482.208 96V31.2H498.608C504.262 31.2 508.662 31.92 511.808 33.36C514.955 34.7467 517.168 36.96 518.448 40C519.728 42.9867 520.368 46.88 520.368 51.68V75.2C520.368 80.0533 519.728 84.0267 518.448 87.12C517.168 90.16 514.955 92.4 511.808 93.84C508.715 95.28 504.368 96 498.768 96H482.208ZM496.528 86.08H498.768C500.955 86.08 502.528 85.76 503.488 85.12C504.448 84.48 505.035 83.52 505.248 82.24C505.515 80.96 505.648 79.36 505.648 77.44V49.2C505.648 47.28 505.488 45.7333 505.168 44.56C504.902 43.3867 504.288 42.5333 503.328 42C502.368 41.4667 500.822 41.2 498.688 41.2H496.528V86.08Z" fill="white"/>
<defs>
<linearGradient id="paint0_linear_111_52" x1="111.74" y1="130.5" x2="138.994" y2="130.5" gradientUnits="userSpaceOnUse">
<stop stop-color="#FF9966"/>
<stop offset="1" stop-color="#FF5E62"/>
</linearGradient>
<linearGradient id="paint1_linear_111_52" x1="27.2537" y1="106.627" x2="52.2537" y2="106.627" gradientUnits="userSpaceOnUse">
<stop stop-color="#FF9966"/>
<stop offset="1" stop-color="#FF5E62"/>
</linearGradient>
<linearGradient id="paint2_linear_111_52" x1="69.497" y1="130.5" x2="96.7507" y2="130.5" gradientUnits="userSpaceOnUse">
<stop stop-color="#FF9966"/>
<stop offset="1" stop-color="#FF5E62"/>
</linearGradient>
<linearGradient id="paint3_linear_111_52" x1="111.74" y1="65.5" x2="138.994" y2="65.5" gradientUnits="userSpaceOnUse">
<stop stop-color="#FF9966"/>
<stop offset="1" stop-color="#FF5E62"/>
</linearGradient>
<linearGradient id="paint4_linear_111_52" x1="27.2537" y1="41.6269" x2="52.2537" y2="41.6269" gradientUnits="userSpaceOnUse">
<stop stop-color="#FF9966"/>
<stop offset="1" stop-color="#FF5E62"/>
</linearGradient>
<linearGradient id="paint5_linear_111_52" x1="69.497" y1="65.5" x2="96.7507" y2="65.5" gradientUnits="userSpaceOnUse">
<stop stop-color="#FF9966"/>
<stop offset="1" stop-color="#FF5E62"/>
</linearGradient>
<linearGradient id="paint6_linear_111_52" x1="111.74" y1="98" x2="138.994" y2="98" gradientUnits="userSpaceOnUse">
<stop stop-color="#FF9966"/>
<stop offset="1" stop-color="#FF5E62"/>
</linearGradient>
<linearGradient id="paint7_linear_111_52" x1="27.2537" y1="74.1269" x2="52.2537" y2="74.1269" gradientUnits="userSpaceOnUse">
<stop stop-color="#FF9966"/>
<stop offset="1" stop-color="#FF5E62"/>
</linearGradient>
<linearGradient id="paint8_linear_111_52" x1="69.497" y1="98" x2="96.7507" y2="98" gradientUnits="userSpaceOnUse">
<stop stop-color="#FF9966"/>
<stop offset="1" stop-color="#FF5E62"/>
</linearGradient>
</defs>
</svg>
