<svg width="553" height="124" viewBox="0 0 553 124" fill="none" xmlns="http://www.w3.org/2000/svg">
<rect x="111.74" y="118" width="27.2537" height="25" rx="4" transform="rotate(-180 111.74 118)" fill="url(#paint0_linear_111_52)"/>
<rect x="27.2537" y="93" width="25" height="27.2537" rx="4" transform="rotate(90 27.2537 93)" fill="url(#paint1_linear_111_52)"/>
<rect x="69.497" y="118" width="27.2537" height="25" rx="4" transform="rotate(180 69.497 118)" fill="url(#paint2_linear_111_52)"/>
<rect x="111.74" y="53" width="27.2537" height="25" rx="4" transform="rotate(-180 111.74 53)" fill="url(#paint3_linear_111_52)"/>
<rect x="27.2537" y="28" width="25" height="27.2537" rx="4" transform="rotate(90 27.2537 28)" fill="url(#paint4_linear_111_52)"/>
<rect x="69.497" y="53" width="27.2537" height="25" rx="4" transform="rotate(180 69.497 53)" fill="url(#paint5_linear_111_52)"/>
<rect x="111.74" y="85.5" width="27.2537" height="25" rx="4" transform="rotate(-180 111.74 85.5)" fill="url(#paint6_linear_111_52)"/>
<rect x="27.2537" y="60.5" width="25" height="27.2537" rx="4" transform="rotate(90 27.2537 60.5)" fill="url(#paint7_linear_111_52)"/>
<rect x="69.497" y="85.5" width="27.2537" height="25" rx="4" transform="rotate(180 69.497 85.5)" fill="url(#paint8_linear_111_52)"/>
<path d="M129.587 118L127.211 103.42H128.903L130.469 113.896L132.431 103.474H133.871L135.851 113.95L137.381 103.42H139.037L136.697 118H135.221L133.187 107.2L131.135 118H129.587ZM142.628 118V103.42H148.28V104.932H144.662V109.756H147.596V111.196H144.662V116.542H148.316V118H142.628ZM151.758 118V103.42H155.106C155.766 103.42 156.336 103.492 156.816 103.636C157.308 103.78 157.716 104.002 158.04 104.302C158.364 104.602 158.604 104.986 158.76 105.454C158.916 105.91 158.994 106.45 158.994 107.074C158.994 107.674 158.916 108.196 158.76 108.64C158.616 109.072 158.388 109.414 158.076 109.666C157.776 109.918 157.386 110.08 156.906 110.152C157.494 110.284 157.968 110.512 158.328 110.836C158.688 111.148 158.952 111.556 159.12 112.06C159.3 112.552 159.39 113.146 159.39 113.842C159.39 114.466 159.318 115.036 159.174 115.552C159.03 116.068 158.802 116.506 158.49 116.866C158.19 117.226 157.8 117.508 157.32 117.712C156.852 117.904 156.294 118 155.646 118H151.758ZM153.792 116.542H155.16C156.072 116.542 156.678 116.332 156.978 115.912C157.29 115.48 157.446 114.79 157.446 113.842C157.446 113.23 157.362 112.72 157.194 112.312C157.038 111.892 156.78 111.58 156.42 111.376C156.072 111.16 155.598 111.052 154.998 111.052H153.792V116.542ZM153.792 109.504H154.998C155.574 109.504 156.024 109.426 156.348 109.27C156.672 109.102 156.9 108.838 157.032 108.478C157.164 108.118 157.23 107.65 157.23 107.074C157.23 106.402 157.128 105.916 156.924 105.616C156.72 105.316 156.402 105.13 155.97 105.058C155.538 104.974 154.974 104.932 154.278 104.932H153.792V109.504ZM172.349 118.162C171.509 118.162 170.807 117.982 170.243 117.622C169.691 117.262 169.271 116.764 168.983 116.128C168.695 115.492 168.527 114.754 168.479 113.914L170.279 113.428C170.315 113.944 170.393 114.442 170.513 114.922C170.645 115.402 170.855 115.798 171.143 116.11C171.431 116.41 171.833 116.56 172.349 116.56C172.877 116.56 173.273 116.416 173.537 116.128C173.813 115.828 173.951 115.402 173.951 114.85C173.951 114.19 173.801 113.662 173.501 113.266C173.201 112.858 172.823 112.45 172.367 112.042L169.919 109.882C169.439 109.462 169.085 109.006 168.857 108.514C168.629 108.01 168.515 107.392 168.515 106.66C168.515 105.592 168.821 104.764 169.433 104.176C170.045 103.588 170.879 103.294 171.935 103.294C172.511 103.294 173.015 103.372 173.447 103.528C173.891 103.672 174.257 103.9 174.545 104.212C174.845 104.524 175.079 104.92 175.247 105.4C175.427 105.868 175.547 106.42 175.607 107.056L173.879 107.524C173.843 107.044 173.771 106.606 173.663 106.21C173.555 105.802 173.363 105.478 173.087 105.238C172.823 104.986 172.439 104.86 171.935 104.86C171.431 104.86 171.035 104.998 170.747 105.274C170.471 105.538 170.333 105.934 170.333 106.462C170.333 106.906 170.405 107.272 170.549 107.56C170.705 107.848 170.951 108.142 171.287 108.442L173.753 110.602C174.305 111.082 174.791 111.658 175.211 112.33C175.631 112.99 175.841 113.776 175.841 114.688C175.841 115.408 175.691 116.032 175.391 116.56C175.091 117.076 174.677 117.472 174.149 117.748C173.633 118.024 173.033 118.162 172.349 118.162ZM182.944 118.162C181.96 118.162 181.174 117.97 180.586 117.586C179.998 117.202 179.578 116.656 179.326 115.948C179.074 115.228 178.948 114.388 178.948 113.428V107.902C178.948 106.942 179.074 106.12 179.326 105.436C179.59 104.74 180.01 104.212 180.586 103.852C181.174 103.48 181.96 103.294 182.944 103.294C183.928 103.294 184.708 103.48 185.284 103.852C185.86 104.224 186.274 104.752 186.526 105.436C186.79 106.12 186.922 106.942 186.922 107.902V113.446C186.922 114.394 186.79 115.222 186.526 115.93C186.274 116.638 185.86 117.19 185.284 117.586C184.708 117.97 183.928 118.162 182.944 118.162ZM182.944 116.56C183.484 116.56 183.892 116.452 184.168 116.236C184.444 116.008 184.63 115.696 184.726 115.3C184.822 114.892 184.87 114.418 184.87 113.878V107.488C184.87 106.948 184.822 106.486 184.726 106.102C184.63 105.706 184.444 105.406 184.168 105.202C183.892 104.986 183.484 104.878 182.944 104.878C182.404 104.878 181.99 104.986 181.702 105.202C181.426 105.406 181.24 105.706 181.144 106.102C181.048 106.486 181 106.948 181 107.488V113.878C181 114.418 181.048 114.892 181.144 115.3C181.24 115.696 181.426 116.008 181.702 116.236C181.99 116.452 182.404 116.56 182.944 116.56ZM190.721 118V103.42H192.755V116.542H196.481V118H190.721ZM203.438 118.162C202.382 118.162 201.572 117.952 201.008 117.532C200.444 117.112 200.06 116.524 199.856 115.768C199.652 115 199.55 114.106 199.55 113.086V103.42H201.494V113.176C201.494 113.8 201.536 114.37 201.62 114.886C201.704 115.402 201.884 115.81 202.16 116.11C202.448 116.41 202.874 116.56 203.438 116.56C204.014 116.56 204.44 116.41 204.716 116.11C204.992 115.81 205.172 115.402 205.256 114.886C205.34 114.37 205.382 113.8 205.382 113.176V103.42H207.308V113.086C207.308 114.106 207.206 115 207.002 115.768C206.798 116.524 206.414 117.112 205.85 117.532C205.298 117.952 204.494 118.162 203.438 118.162ZM212.851 118V104.932H210.385V103.42H217.279V104.932H214.885V118H212.851ZM220.593 118V103.42H222.591V118H220.593ZM230.476 118.162C229.492 118.162 228.706 117.97 228.118 117.586C227.53 117.202 227.11 116.656 226.858 115.948C226.606 115.228 226.48 114.388 226.48 113.428V107.902C226.48 106.942 226.606 106.12 226.858 105.436C227.122 104.74 227.542 104.212 228.118 103.852C228.706 103.48 229.492 103.294 230.476 103.294C231.46 103.294 232.24 103.48 232.816 103.852C233.392 104.224 233.806 104.752 234.058 105.436C234.322 106.12 234.454 106.942 234.454 107.902V113.446C234.454 114.394 234.322 115.222 234.058 115.93C233.806 116.638 233.392 117.19 232.816 117.586C232.24 117.97 231.46 118.162 230.476 118.162ZM230.476 116.56C231.016 116.56 231.424 116.452 231.7 116.236C231.976 116.008 232.162 115.696 232.258 115.3C232.354 114.892 232.402 114.418 232.402 113.878V107.488C232.402 106.948 232.354 106.486 232.258 106.102C232.162 105.706 231.976 105.406 231.7 105.202C231.424 104.986 231.016 104.878 230.476 104.878C229.936 104.878 229.522 104.986 229.234 105.202C228.958 105.406 228.772 105.706 228.676 106.102C228.58 106.486 228.532 106.948 228.532 107.488V113.878C228.532 114.418 228.58 114.892 228.676 115.3C228.772 115.696 228.958 116.008 229.234 116.236C229.522 116.452 229.936 116.56 230.476 116.56ZM238.253 118V103.42H239.639L243.779 113.104V103.42H245.471V118H244.175L239.981 108.046V118H238.253ZM253 118.162C252.16 118.162 251.458 117.982 250.894 117.622C250.342 117.262 249.922 116.764 249.634 116.128C249.346 115.492 249.178 114.754 249.13 113.914L250.93 113.428C250.966 113.944 251.044 114.442 251.164 114.922C251.296 115.402 251.506 115.798 251.794 116.11C252.082 116.41 252.484 116.56 253 116.56C253.528 116.56 253.924 116.416 254.188 116.128C254.464 115.828 254.602 115.402 254.602 114.85C254.602 114.19 254.452 113.662 254.152 113.266C253.852 112.858 253.474 112.45 253.018 112.042L250.57 109.882C250.09 109.462 249.736 109.006 249.508 108.514C249.28 108.01 249.166 107.392 249.166 106.66C249.166 105.592 249.472 104.764 250.084 104.176C250.696 103.588 251.53 103.294 252.586 103.294C253.162 103.294 253.666 103.372 254.098 103.528C254.542 103.672 254.908 103.9 255.196 104.212C255.496 104.524 255.73 104.92 255.898 105.4C256.078 105.868 256.198 106.42 256.258 107.056L254.53 107.524C254.494 107.044 254.422 106.606 254.314 106.21C254.206 105.802 254.014 105.478 253.738 105.238C253.474 104.986 253.09 104.86 252.586 104.86C252.082 104.86 251.686 104.998 251.398 105.274C251.122 105.538 250.984 105.934 250.984 106.462C250.984 106.906 251.056 107.272 251.2 107.56C251.356 107.848 251.602 108.142 251.938 108.442L254.404 110.602C254.956 111.082 255.442 111.658 255.862 112.33C256.282 112.99 256.492 113.776 256.492 114.688C256.492 115.408 256.342 116.032 256.042 116.56C255.742 117.076 255.328 117.472 254.8 117.748C254.284 118.024 253.684 118.162 253 118.162Z" fill="#989A9E"/>
<path d="M126.802 96V31.2H154.802V40.88H141.122V57.2H153.042V67.2H141.122V96H126.802ZM168.93 96V49.76H181.97V57.44C183.463 54.7733 184.956 52.7467 186.45 51.36C187.943 49.92 189.756 49.2 191.89 49.2C192.316 49.2 192.69 49.2267 193.01 49.28C193.33 49.28 193.623 49.3333 193.89 49.44V62.4C193.303 62.1333 192.636 61.92 191.89 61.76C191.196 61.5467 190.45 61.44 189.65 61.44C188.156 61.44 186.77 61.84 185.49 62.64C184.21 63.44 183.036 64.5333 181.97 65.92V96H168.93ZM222.595 96.8C219.288 96.8 216.408 96.24 213.955 95.12C211.555 94 209.688 92.32 208.355 90.08C207.075 87.84 206.435 85.04 206.435 81.68V64.08C206.435 60.72 207.075 57.92 208.355 55.68C209.688 53.44 211.555 51.76 213.955 50.64C216.408 49.52 219.288 48.96 222.595 48.96C225.901 48.96 228.755 49.52 231.155 50.64C233.608 51.76 235.501 53.44 236.835 55.68C238.168 57.92 238.835 60.72 238.835 64.08V81.68C238.835 85.04 238.168 87.84 236.835 90.08C235.501 92.32 233.608 94 231.155 95.12C228.755 96.24 225.901 96.8 222.595 96.8ZM222.675 88.16C223.528 88.16 224.195 87.9467 224.675 87.52C225.155 87.04 225.475 86.4 225.635 85.6C225.848 84.7467 225.955 83.7333 225.955 82.56V63.2C225.955 62.0267 225.848 61.04 225.635 60.24C225.475 59.3867 225.155 58.7467 224.675 58.32C224.195 57.84 223.528 57.6 222.675 57.6C221.821 57.6 221.155 57.84 220.675 58.32C220.195 58.7467 219.848 59.3867 219.635 60.24C219.421 61.04 219.315 62.0267 219.315 63.2V82.56C219.315 83.7333 219.421 84.7467 219.635 85.6C219.848 86.4 220.195 87.04 220.675 87.52C221.155 87.9467 221.821 88.16 222.675 88.16ZM254.066 96V49.76H267.106V54.4C268.813 52.6933 270.573 51.36 272.386 50.4C274.253 49.44 276.2 48.96 278.226 48.96C280.146 48.96 281.72 49.44 282.946 50.4C284.226 51.3067 285.186 52.5867 285.826 54.24C286.466 55.84 286.786 57.68 286.786 59.76V96H273.826V61.6C273.826 60.48 273.64 59.6267 273.266 59.04C272.893 58.4533 272.2 58.16 271.186 58.16C270.653 58.16 270.013 58.32 269.266 58.64C268.573 58.9067 267.853 59.3067 267.106 59.84V96H254.066ZM316.933 96.48C313.467 96.48 310.773 95.9733 308.853 94.96C306.987 93.9467 305.707 92.48 305.013 90.56C304.32 88.5867 303.973 86.2133 303.973 83.44V58.32H299.493V49.76H303.973V35.68H317.173V49.76H323.733V58.32H317.173V82.16C317.173 83.4933 317.547 84.4533 318.293 85.04C319.093 85.6267 320.08 85.92 321.253 85.92C321.947 85.92 322.587 85.8933 323.173 85.84C323.76 85.7333 324.293 85.6533 324.773 85.6V95.84C324.08 95.9467 322.987 96.08 321.493 96.24C320 96.4 318.48 96.48 316.933 96.48ZM356.495 96.96C352.015 96.96 348.468 96.0267 345.855 94.16C343.295 92.2933 341.455 89.68 340.335 86.32C339.268 82.9067 338.735 78.9867 338.735 74.56V52.8C338.735 48.2133 339.321 44.24 340.495 40.88C341.668 37.52 343.668 34.9333 346.495 33.12C349.375 31.2533 353.268 30.32 358.175 30.32C362.975 30.32 366.735 31.12 369.455 32.72C372.228 34.32 374.201 36.5333 375.375 39.36C376.548 42.1867 377.135 45.4933 377.135 49.28V53.44H363.135V48.16C363.135 46.7733 363.028 45.4933 362.815 44.32C362.655 43.1467 362.228 42.2133 361.535 41.52C360.895 40.7733 359.828 40.4 358.335 40.4C356.788 40.4 355.668 40.8267 354.975 41.68C354.281 42.48 353.828 43.4933 353.615 44.72C353.455 45.9467 353.375 47.2267 353.375 48.56V78.56C353.375 80 353.508 81.36 353.775 82.64C354.095 83.8667 354.628 84.88 355.375 85.68C356.175 86.4267 357.295 86.8 358.735 86.8C360.228 86.8 361.375 86.4 362.175 85.6C362.975 84.8 363.535 83.76 363.855 82.48C364.175 81.2 364.335 79.84 364.335 78.4V70.8H358.495V62.4H377.215V96H367.775L366.975 90.64C366.121 92.4533 364.868 93.9733 363.215 95.2C361.561 96.3733 359.321 96.96 356.495 96.96ZM394.177 96V31.2H412.017C416.39 31.2 420.177 31.68 423.377 32.64C426.577 33.6 429.057 35.3333 430.817 37.84C432.63 40.2933 433.537 43.7867 433.537 48.32C433.537 50.9867 433.324 53.36 432.897 55.44C432.47 57.52 431.67 59.3333 430.497 60.88C429.377 62.3733 427.75 63.6267 425.617 64.64L434.497 96H419.697L412.577 66.96H408.497V96H394.177ZM408.497 58.72H412.497C414.524 58.72 416.097 58.3733 417.217 57.68C418.337 56.9333 419.11 55.8933 419.537 54.56C420.017 53.1733 420.257 51.52 420.257 49.6C420.257 46.8267 419.75 44.6667 418.737 43.12C417.724 41.5733 415.857 40.8 413.137 40.8H408.497V58.72ZM450.226 96V31.2H464.546V96H450.226ZM482.208 96V31.2H498.608C504.262 31.2 508.662 31.92 511.808 33.36C514.955 34.7467 517.168 36.96 518.448 40C519.728 42.9867 520.368 46.88 520.368 51.68V75.2C520.368 80.0533 519.728 84.0267 518.448 87.12C517.168 90.16 514.955 92.4 511.808 93.84C508.715 95.28 504.368 96 498.768 96H482.208ZM496.528 86.08H498.768C500.955 86.08 502.528 85.76 503.488 85.12C504.448 84.48 505.035 83.52 505.248 82.24C505.515 80.96 505.648 79.36 505.648 77.44V49.2C505.648 47.28 505.488 45.7333 505.168 44.56C504.902 43.3867 504.288 42.5333 503.328 42C502.368 41.4667 500.822 41.2 498.688 41.2H496.528V86.08Z" fill="#444548"/>
<defs>
<linearGradient id="paint0_linear_111_52" x1="111.74" y1="130.5" x2="138.994" y2="130.5" gradientUnits="userSpaceOnUse">
<stop stop-color="#FF9966"/>
<stop offset="1" stop-color="#FF5E62"/>
</linearGradient>
<linearGradient id="paint1_linear_111_52" x1="27.2537" y1="106.627" x2="52.2537" y2="106.627" gradientUnits="userSpaceOnUse">
<stop stop-color="#FF9966"/>
<stop offset="1" stop-color="#FF5E62"/>
</linearGradient>
<linearGradient id="paint2_linear_111_52" x1="69.497" y1="130.5" x2="96.7507" y2="130.5" gradientUnits="userSpaceOnUse">
<stop stop-color="#FF9966"/>
<stop offset="1" stop-color="#FF5E62"/>
</linearGradient>
<linearGradient id="paint3_linear_111_52" x1="111.74" y1="65.5" x2="138.994" y2="65.5" gradientUnits="userSpaceOnUse">
<stop stop-color="#FF9966"/>
<stop offset="1" stop-color="#FF5E62"/>
</linearGradient>
<linearGradient id="paint4_linear_111_52" x1="27.2537" y1="41.6269" x2="52.2537" y2="41.6269" gradientUnits="userSpaceOnUse">
<stop stop-color="#FF9966"/>
<stop offset="1" stop-color="#FF5E62"/>
</linearGradient>
<linearGradient id="paint5_linear_111_52" x1="69.497" y1="65.5" x2="96.7507" y2="65.5" gradientUnits="userSpaceOnUse">
<stop stop-color="#FF9966"/>
<stop offset="1" stop-color="#FF5E62"/>
</linearGradient>
<linearGradient id="paint6_linear_111_52" x1="111.74" y1="98" x2="138.994" y2="98" gradientUnits="userSpaceOnUse">
<stop stop-color="#FF9966"/>
<stop offset="1" stop-color="#FF5E62"/>
</linearGradient>
<linearGradient id="paint7_linear_111_52" x1="27.2537" y1="74.1269" x2="52.2537" y2="74.1269" gradientUnits="userSpaceOnUse">
<stop stop-color="#FF9966"/>
<stop offset="1" stop-color="#FF5E62"/>
</linearGradient>
<linearGradient id="paint8_linear_111_52" x1="69.497" y1="98" x2="96.7507" y2="98" gradientUnits="userSpaceOnUse">
<stop stop-color="#FF9966"/>
<stop offset="1" stop-color="#FF5E62"/>
</linearGradient>
</defs>
</svg>
