<svg width="515" height="112" viewBox="0 0 515 112" fill="none" xmlns="http://www.w3.org/2000/svg">
<path d="M456.439 81L456.435 81.9998L456.439 81ZM441.216 80.2189L441.451 79.2463L441.216 80.2189ZM447.878 81L447.881 80.0002L447.878 81ZM147.711 55.7453L148.387 55.0066L147.711 55.7453ZM156.664 63.9331L155.988 64.6717L156.664 63.9331ZM186.358 50.6862L186.243 49.6935L186.358 50.6862ZM209.09 44.9695L208.545 44.1332L209.09 44.9695ZM196.782 49.4454L196.897 50.4382L196.782 49.4454ZM230.04 31.2786L229.494 30.4424L230.04 31.2786ZM316.899 46.0592L316.531 45.1306L316.899 46.0592ZM288.669 49.8258L288.786 48.8325L288.669 49.8258ZM402.553 66.3116L402.961 65.3974L402.553 66.3116ZM325.242 42.7354L324.874 41.8068L325.242 42.7354ZM93.4247 69.8907L93.044 70.8164L93.4247 69.8907ZM417.658 73.0053L417.25 73.9196L417.658 73.0053ZM433.849 78.4666L434.084 77.494L433.849 78.4666ZM48.4455 52.6144L49.3747 52.9936L50.1361 51.1421L49.2069 50.7629L48.4455 52.6144ZM51.2329 53.7521L53.0912 54.5105L53.8526 52.6589L51.9944 51.9005L51.2329 53.7521ZM54.9495 55.2689L56.8078 56.0273L57.5692 54.1757L55.7109 53.4173L54.9495 55.2689ZM58.666 56.7857L60.5243 57.5441L61.2857 55.6926L59.4274 54.9342L58.666 56.7857ZM62.3826 58.3026L64.2408 59.061L65.0022 57.2094L63.144 56.451L62.3826 58.3026ZM66.0991 59.8194L67.9574 60.5778L68.7188 58.7262L66.8605 57.9678L66.0991 59.8194ZM69.8157 61.3362L71.6739 62.0946L72.4353 60.2431L70.5771 59.4847L69.8157 61.3362ZM73.5322 62.8531L75.3905 63.6115L76.1519 61.7599L74.2936 61.0015L73.5322 62.8531ZM77.2487 64.3699L79.107 65.1283L79.8684 63.2767L78.0101 62.5183L77.2487 64.3699ZM80.9653 65.8867L82.8235 66.6451L83.585 64.7936L81.7267 64.0352L80.9653 65.8867ZM84.6818 67.4036L86.5401 68.162L87.3015 66.3104L85.4432 65.552L84.6818 67.4036ZM88.3984 68.9204L90.2566 69.6788L91.018 67.8272L89.1598 67.0688L88.3984 68.9204ZM92.1149 70.4372L93.044 70.8164L93.8054 68.9649L92.8763 68.5857L92.1149 70.4372ZM93.044 70.8164C93.374 70.9511 93.7057 71.0764 94.0389 71.1925L94.703 69.3042C94.4025 69.1995 94.1033 69.0864 93.8054 68.9649L93.044 70.8164ZM96.0819 71.7861C96.7779 71.9491 97.4772 72.0737 98.177 72.161L98.4311 70.1768C97.8009 70.0982 97.1712 69.986 96.5442 69.8392L96.0819 71.7861ZM100.301 72.3121C101.014 72.3249 101.724 72.2999 102.429 72.2379L102.261 70.246C101.625 70.3018 100.985 70.3244 100.343 70.3128L100.301 72.3121ZM104.539 71.9401C105.237 71.8038 105.927 71.631 106.605 71.4228L106.024 69.5114C105.412 69.699 104.79 69.8548 104.161 69.9776L104.539 71.9401ZM108.607 70.6922C109.26 70.4142 109.9 70.1019 110.522 69.7563L109.555 68.0092C108.994 68.3206 108.418 68.6022 107.829 68.8528L108.607 70.6922ZM112.329 68.6247C112.909 68.2176 113.47 67.7787 114.008 67.3093L112.695 65.8047C112.211 66.2275 111.706 66.6227 111.183 66.9895L112.329 68.6247ZM115.538 65.8245C116.019 65.3064 116.475 64.7601 116.904 64.1865L115.303 62.9925C114.917 63.5092 114.506 64.0012 114.074 64.4676L115.538 65.8245ZM118.09 62.4145C118.271 62.1107 118.445 61.8009 118.611 61.4849L116.843 60.5568C116.692 60.842 116.535 61.1216 116.372 61.3955L118.09 62.4145ZM118.611 61.4849C118.757 61.2092 118.908 60.939 119.065 60.6745L117.344 59.6602C117.171 59.9531 117.003 60.252 116.843 60.5568L118.611 61.4849ZM120.087 59.1291C120.457 58.6271 120.848 58.1496 121.259 57.6968L119.778 56.3566C119.322 56.8597 118.888 57.39 118.478 57.9471L120.087 59.1291ZM122.57 56.3922C123.032 55.9773 123.512 55.5891 124.008 55.2279L122.834 53.6127C122.283 54.0141 121.749 54.4455 121.235 54.9067L122.57 56.3922ZM125.558 54.2169C126.093 53.9055 126.643 53.6226 127.204 53.3685L126.383 51.5477C125.76 51.8297 125.151 52.1438 124.556 52.4895L125.558 54.2169ZM128.926 52.6903C129.512 52.4932 130.107 52.3258 130.708 52.1886L130.269 50.2392C129.603 50.3913 128.943 50.5769 128.294 50.7955L128.926 52.6903ZM132.532 51.8678C133.144 51.7915 133.76 51.7458 134.377 51.7313L134.336 49.7322C133.652 49.7484 132.969 49.799 132.291 49.8836L132.532 51.8678ZM136.226 51.781C136.839 51.8286 137.45 51.9073 138.058 52.0175L138.421 50.0499C137.746 49.9276 137.067 49.8403 136.387 49.7874L136.226 51.781ZM139.856 52.4395C140.444 52.6098 141.027 52.8111 141.601 53.0436L142.357 51.1902C141.72 50.9317 141.072 50.708 140.419 50.5187L139.856 52.4395ZM143.272 53.8236C143.81 54.1094 144.339 54.4251 144.855 54.7712L145.973 53.1093C145.4 52.7252 144.813 52.3746 144.215 52.057L143.272 53.8236ZM146.336 55.8761C146.572 56.0716 146.805 56.2741 147.034 56.4839L148.387 55.0066C148.133 54.7746 147.876 54.5505 147.614 54.3341L146.336 55.8761ZM147.034 56.4839L147.78 57.1663L149.133 55.6889L148.387 55.0066L147.034 56.4839ZM149.273 58.5309L150.765 59.8955L152.118 58.4182L150.626 57.0535L149.273 58.5309ZM152.257 61.2602L153.75 62.6248L155.102 61.1474L153.61 59.7828L152.257 61.2602ZM155.242 63.9894L155.988 64.6717L157.341 63.1944L156.595 62.5121L155.242 63.9894ZM155.988 64.6717C156.257 64.9176 156.532 65.1498 156.814 65.3686L158.045 63.7884C157.805 63.6024 157.571 63.4044 157.341 63.1944L155.988 64.6717ZM158.624 66.5502C159.269 66.8986 159.934 67.1863 160.61 67.4152L161.257 65.5209C160.686 65.3277 160.125 65.0847 159.579 64.7902L158.624 66.5502ZM162.714 67.9339C163.432 68.048 164.155 68.1009 164.874 68.0949L164.864 66.0953C164.254 66.1005 163.642 66.0556 163.035 65.9591L162.714 67.9339ZM167.031 67.8992C167.743 67.7753 168.444 67.5936 169.127 67.356L168.475 65.4678C167.895 65.6696 167.299 65.824 166.694 65.9292L167.031 67.8992ZM171.109 66.4792C171.742 66.1348 172.349 65.7372 172.923 65.2884L171.693 63.7154C171.208 64.095 170.694 64.4317 170.157 64.7237L171.109 66.4792ZM174.515 63.8119C174.997 63.2827 175.441 62.7078 175.838 62.0893L174.156 61.0127C173.82 61.5356 173.446 62.0211 173.038 62.4678L174.515 63.8119ZM176.855 60.175C176.996 59.8467 177.126 59.5094 177.243 59.1636L175.349 58.5277C175.249 58.8233 175.138 59.1107 175.018 59.3899L176.855 60.175ZM177.243 59.1636C177.356 58.8315 177.483 58.5072 177.624 58.1914L175.798 57.3807C175.632 57.7536 175.481 58.1362 175.349 58.5277L177.243 59.1636ZM178.65 56.3757C179.05 55.8016 179.501 55.2686 179.997 54.7828L178.6 53.3568C178.014 53.9301 177.481 54.5592 177.009 55.2371L178.65 56.3757ZM181.618 53.4684C182.196 53.0834 182.811 52.7517 183.455 52.4792L182.681 50.6381C181.92 50.9598 181.194 51.3514 180.513 51.8057L181.618 53.4684ZM185.443 51.8508C185.781 51.7779 186.125 51.7204 186.473 51.679L186.243 49.6935C185.832 49.7423 185.427 49.8101 185.028 49.8961L185.443 51.8508ZM186.473 51.679L187.341 51.5756L187.111 49.5901L186.243 49.6935L186.473 51.679ZM189.079 51.3688L190.816 51.162L190.586 49.1764L188.849 49.3833L189.079 51.3688ZM192.553 50.9552L194.291 50.7484L194.061 48.7628L192.323 48.9696L192.553 50.9552ZM196.028 50.5416L196.897 50.4382L196.667 48.4526L195.798 48.556L196.028 50.5416ZM196.897 50.4382C197.274 50.3932 197.65 50.3411 198.025 50.2818L197.719 48.3069C197.369 48.3621 197.019 48.4107 196.667 48.4526L196.897 50.4382ZM200.26 49.8399C200.999 49.6638 201.731 49.4596 202.454 49.2277L201.849 47.3239C201.174 47.5402 200.492 47.7306 199.802 47.8947L200.26 49.8399ZM204.596 48.4489C205.299 48.1622 205.991 47.8484 206.672 47.5082L205.781 45.7206C205.147 46.0379 204.501 46.3304 203.845 46.5978L204.596 48.4489ZM208.67 46.411C208.995 46.2156 209.317 46.0139 209.636 45.8057L208.545 44.1332C208.248 44.3273 207.948 44.5154 207.644 44.6976L208.67 46.411ZM209.636 45.8057L210.509 45.2353L209.418 43.5627L208.545 44.1332L209.636 45.8057ZM212.254 44.0944L214 42.9535L212.909 41.2809L211.164 42.4218L212.254 44.0944ZM215.746 41.8126L217.492 40.6717L216.401 38.9991L214.655 40.14L215.746 41.8126ZM219.238 39.5308L220.983 38.3899L219.893 36.7173L218.147 37.8582L219.238 39.5308ZM222.729 37.249L224.475 36.1081L223.384 34.4355L221.638 35.5764L222.729 37.249ZM226.221 34.9672L227.967 33.8263L226.876 32.1537L225.13 33.2946L226.221 34.9672ZM229.712 32.6854L230.585 32.1149L229.494 30.4424L228.622 31.0128L229.712 32.6854ZM230.585 32.1149C230.856 31.9382 231.13 31.7768 231.407 31.6302L230.477 29.8632C230.144 30.0389 229.817 30.2318 229.494 30.4424L230.585 32.1149ZM233.161 30.9068C233.774 30.7203 234.395 30.5971 235.017 30.5339L234.821 28.5446C234.072 28.6207 233.323 28.7692 232.584 28.994L233.161 30.9068ZM236.911 30.5247C237.543 30.5825 238.167 30.7006 238.774 30.8759L239.335 28.9547C238.607 28.7447 237.859 28.6028 237.099 28.5334L236.911 30.5247ZM240.538 31.5712C241.1 31.8571 241.637 32.1964 242.137 32.5852L243.368 31.0048C242.766 30.5376 242.123 30.1307 241.449 29.788L240.538 31.5712ZM243.512 33.883C243.921 34.3528 244.29 34.8662 244.609 35.4202L246.343 34.4185C245.959 33.7509 245.515 33.1321 245.021 32.5662L243.512 33.883ZM245.39 37.143C245.492 37.439 245.581 37.7437 245.657 38.0568L247.601 37.5809C247.511 37.2078 247.404 36.8437 247.283 36.489L245.39 37.143ZM245.657 38.0568C245.752 38.4512 245.867 38.8374 245.999 39.2145L247.887 38.5452C247.776 38.2313 247.681 37.9096 247.601 37.5809L245.657 38.0568ZM247.027 41.3957C247.445 42.0891 247.931 42.7344 248.475 43.3234L249.946 41.9644C249.493 41.474 249.089 40.9369 248.742 40.36L247.027 41.3957ZM250.281 44.9191C250.932 45.3864 251.633 45.7889 252.373 46.1182L253.191 44.2912C252.576 44.0171 251.993 43.6821 251.45 43.293L250.281 44.9191ZM254.665 46.8703C255.056 46.9558 255.454 47.0221 255.857 47.0684L256.092 45.0819C255.755 45.0433 255.424 44.988 255.099 44.9169L254.665 46.8703ZM255.857 47.0684L256.879 47.1856L257.113 45.1991L256.092 45.0819L255.857 47.0684ZM258.922 47.42L260.966 47.6545L261.2 45.6679L259.157 45.4335L258.922 47.42ZM263.009 47.8889L265.052 48.1233L265.287 46.1367L263.244 45.9023L263.009 47.8889ZM267.096 48.3577L269.139 48.5921L269.374 46.6056L267.33 46.3711L267.096 48.3577ZM271.183 48.8265L273.226 49.0609L273.461 47.0744L271.417 46.84L271.183 48.8265ZM275.27 49.2953L277.313 49.5298L277.547 47.5432L275.504 47.3088L275.27 49.2953ZM279.356 49.7642L281.4 49.9986L281.634 48.012L279.591 47.7776L279.356 49.7642ZM283.443 50.233L285.487 50.4674L285.721 48.4809L283.678 48.2464L283.443 50.233ZM287.53 50.7018L288.552 50.819L288.786 48.8325L287.765 48.7153L287.53 50.7018ZM288.552 50.819C288.898 50.8587 289.244 50.8954 289.59 50.9289L289.79 48.9386C289.455 48.9062 289.121 48.8708 288.786 48.8325L288.552 50.819ZM291.673 51.0936C292.368 51.1363 293.064 51.1667 293.76 51.1848L293.819 49.1859C293.146 49.1684 292.474 49.139 291.802 49.0978L291.673 51.0936ZM295.849 51.2023C296.546 51.1958 297.242 51.1771 297.938 51.1461L297.856 49.1485C297.183 49.1784 296.511 49.1965 295.837 49.2028L295.849 51.2023ZM300.024 51.0163C300.718 50.9607 301.412 50.893 302.104 50.813L301.881 48.8267C301.212 48.9039 300.542 48.9694 299.871 49.023L300.024 51.0163ZM304.176 50.5365C304.865 50.4323 305.552 50.3158 306.237 50.1873L305.874 48.222C305.212 48.3463 304.548 48.4588 303.883 48.5595L304.176 50.5365ZM308.285 49.7655C308.965 49.613 309.642 49.4485 310.317 49.2719L309.816 47.3376C309.164 47.5082 308.51 47.6672 307.853 47.8146L308.285 49.7655ZM312.33 48.707C312.998 48.5071 313.662 48.2952 314.323 48.0716L313.687 46.1778C313.048 46.3939 312.406 46.5986 311.762 46.7918L312.33 48.707ZM316.292 47.3663C316.618 47.243 316.943 47.1168 317.267 46.9877L316.531 45.1306C316.218 45.2553 315.904 45.3773 315.589 45.4964L316.292 47.3663ZM317.267 46.9877L318.31 46.5723L317.574 44.7151L316.531 45.1306L317.267 46.9877ZM320.395 45.7413L322.481 44.9104L321.746 43.0532L319.66 43.8842L320.395 45.7413ZM324.567 44.0794L325.609 43.6639L324.874 41.8068L323.831 42.2223L324.567 44.0794ZM325.609 43.6639C325.922 43.5395 326.235 43.4181 326.548 43.2997L325.846 41.4295C325.522 41.5522 325.198 41.6779 324.874 41.8068L325.609 43.6639ZM328.441 42.6231C329.078 42.4084 329.717 42.2057 330.358 42.0151L329.793 40.0988C329.129 40.2963 328.467 40.5062 327.808 40.7286L328.441 42.6231ZM332.294 41.4766C332.944 41.3085 333.596 41.1524 334.249 41.0084L333.824 39.0559C333.147 39.205 332.472 39.3667 331.799 39.5409L332.294 41.4766ZM336.219 40.6113C336.879 40.4906 337.54 40.3821 338.201 40.2856L337.919 38.307C337.234 38.4069 336.549 38.5193 335.865 38.6444L336.219 40.6113ZM340.194 40.032C340.861 39.9593 341.528 39.8989 342.195 39.8506L342.057 37.8562C341.366 37.9063 340.675 37.9689 339.984 38.0442L340.194 40.032ZM344.201 39.7416C344.871 39.7174 345.54 39.7053 346.209 39.7053L346.216 37.7057C345.523 37.7057 344.829 37.7182 344.135 37.7434L344.201 39.7416ZM348.217 39.7415C348.887 39.7657 349.555 39.802 350.222 39.8502L350.373 37.8559C349.682 37.8058 348.989 37.7683 348.296 37.7432L348.217 39.7415ZM352.222 40.0313C352.888 40.1037 353.552 40.188 354.214 40.2843L354.508 38.3056C353.822 38.2058 353.134 38.1184 352.445 38.0434L352.222 40.0313ZM356.195 40.6091C356.853 40.7293 357.509 40.8613 358.162 41.0051L358.599 39.0523C357.922 38.9033 357.242 38.7665 356.56 38.642L356.195 40.6091ZM360.114 41.4719C360.762 41.6392 361.406 41.8181 362.048 42.0088L362.624 40.092C361.959 39.8945 361.292 39.7091 360.621 39.5358L360.114 41.4719ZM363.961 42.6151C364.594 42.8286 365.224 43.0537 365.85 43.2902L366.563 41.4195C365.914 41.1745 365.262 40.9413 364.605 40.7202L363.961 42.6151ZM367.713 44.0331C368.329 44.2917 368.941 44.5617 369.548 44.843L370.394 43.0282C369.765 42.7368 369.131 42.4571 368.493 42.1892L367.713 44.0331ZM371.353 45.7187C371.948 46.0211 372.539 46.3347 373.124 46.6592L374.099 44.9099C373.492 44.5736 372.88 44.2488 372.264 43.9355L371.353 45.7187ZM374.86 47.6634C375.431 48.008 375.997 48.3635 376.558 48.7298L377.656 47.0552C377.076 46.6757 376.489 46.3074 375.897 45.9503L374.86 47.6634ZM378.216 49.8571C378.76 50.2421 379.299 50.6377 379.832 51.0439L381.048 49.4527C380.497 49.032 379.939 48.6221 379.374 48.2232L378.216 49.8571ZM381.403 52.2884C381.918 52.7117 382.427 53.1453 382.929 53.5891L384.257 52.0895C383.737 51.6298 383.21 51.1806 382.677 50.7421L381.403 52.2884ZM384.407 54.9441C384.649 55.1744 384.889 55.4072 385.128 55.6424L386.535 54.2165C386.288 53.9728 386.039 53.7317 385.788 53.4931L384.407 54.9441ZM385.128 55.6424C385.374 55.8847 385.621 56.1246 385.871 56.3621L387.252 54.9112C387.011 54.6819 386.772 54.4503 386.535 54.2165L385.128 55.6424ZM387.396 57.7606C387.913 58.2178 388.438 58.6654 388.971 59.1032L390.244 57.557C389.73 57.1344 389.224 56.7024 388.725 56.2611L387.396 57.7606ZM390.593 60.3881C391.142 60.8066 391.698 61.2152 392.261 61.6136L393.42 59.9801C392.876 59.5956 392.34 59.2012 391.81 58.7972L390.593 60.3881ZM393.972 62.7781C394.549 63.1559 395.133 63.5233 395.723 63.8802L396.762 62.168C396.192 61.8236 395.628 61.4689 395.071 61.1042L393.972 62.7781ZM397.514 64.9184C398.117 65.2535 398.726 65.5779 399.341 65.8914L400.254 64.1093C399.661 63.8067 399.073 63.4936 398.491 63.1702L397.514 64.9184ZM401.202 66.7979C401.515 66.9433 401.829 67.0859 402.145 67.2258L402.961 65.3974C402.656 65.2624 402.353 65.1247 402.051 64.9843L401.202 66.7979ZM402.145 67.2258L403.089 67.6442L403.905 65.8157L402.961 65.3974L402.145 67.2258ZM404.977 68.4809L406.865 69.3176L407.681 67.4892L405.793 66.6525L404.977 68.4809ZM408.753 70.1543L410.641 70.991L411.457 69.1626L409.569 68.3259L408.753 70.1543ZM412.53 71.8278L414.418 72.6645L415.233 70.8361L413.345 69.9993L412.53 71.8278ZM416.306 73.5012L417.25 73.9196L418.066 72.0911L417.122 71.6728L416.306 73.5012ZM417.25 73.9196C417.579 74.0655 417.909 74.2096 418.24 74.3517L419.035 72.5141C418.711 72.375 418.388 72.234 418.066 72.0911L417.25 73.9196ZM420.236 75.1818C420.904 75.4509 421.576 75.7123 422.25 75.9659L422.96 74.0941C422.3 73.8459 421.643 73.59 420.989 73.3266L420.236 75.1818ZM424.282 76.7036C424.962 76.9418 425.645 77.1721 426.331 77.3945L426.954 75.4925C426.283 75.2748 425.615 75.0493 424.949 74.8162L424.282 76.7036ZM428.395 78.0383C429.085 78.245 429.778 78.4438 430.473 78.6346L431.009 76.7063C430.328 76.5195 429.65 76.3249 428.974 76.1226L428.395 78.0383ZM432.564 79.1831C432.914 79.2705 433.264 79.3559 433.615 79.4393L434.084 77.494C433.741 77.4123 433.398 77.3287 433.056 77.2432L432.564 79.1831ZM433.615 79.4393L434.536 79.6583L435.005 77.713L434.084 77.494L433.615 79.4393ZM436.377 80.0964L438.219 80.5345L438.688 78.5891L436.847 78.1511L436.377 80.0964ZM440.061 80.9726L440.982 81.1916L441.451 79.2463L440.53 79.0272L440.061 80.9726ZM440.982 81.1916C441.264 81.2587 441.546 81.3216 441.83 81.3804L442.242 79.4223C441.978 79.3675 441.714 79.3088 441.451 79.2463L440.982 81.1916ZM443.542 81.6832C444.115 81.7675 444.691 81.835 445.269 81.8857L445.45 79.8938C444.912 79.8465 444.374 79.7835 443.839 79.7049L443.542 81.6832ZM447.005 81.9871C447.295 81.9956 447.585 81.9998 447.875 81.9998L447.881 80.0002C447.611 80.0002 447.34 79.9963 447.07 79.9884L447.005 81.9871ZM447.875 81.9998L448.945 81.9998L448.951 80.0002L447.881 80.0002L447.875 81.9998ZM451.085 81.9998L453.225 81.9998L453.232 80.0002L451.092 80.0002L451.085 81.9998ZM455.365 81.9998L456.435 81.9998L456.442 80.0002L455.372 80.0002L455.365 81.9998ZM456.435 81.9998C456.807 81.9998 457.176 81.9892 457.544 81.9684L457.437 79.972C457.107 79.9907 456.776 80.0002 456.442 80.0002L456.435 81.9998ZM459.746 81.7167C460.479 81.59 461.201 81.4218 461.906 81.2145L461.348 79.2962C460.716 79.482 460.069 79.6328 459.411 79.7464L459.746 81.7167ZM463.995 80.4682C464.679 80.179 465.343 79.8515 465.986 79.4883L465.005 77.7486C464.429 78.0744 463.833 78.368 463.221 78.6273L463.995 80.4682ZM467.852 78.2881C468.451 77.853 469.024 77.3842 469.57 76.884L468.22 75.4125C467.731 75.8612 467.216 76.2818 466.679 76.6721L467.852 78.2881ZM471.117 75.2938C471.601 74.7364 472.054 74.1503 472.474 73.5379L470.825 72.4118C470.448 72.9608 470.042 73.4863 469.608 73.9862L471.117 75.2938ZM473.621 71.6389C473.965 70.9885 474.273 70.3151 474.543 69.621L472.68 68.9009C472.437 69.5231 472.161 70.1266 471.853 70.7095L473.621 71.6389ZM475.229 67.5128C475.322 67.1569 475.406 66.7968 475.48 66.4327L473.52 66.0409C473.453 66.3679 473.378 66.6911 473.294 67.0103L475.229 67.5128Z" fill="#FF7400"/>
<path d="M30.4209 68.9686L4.24093 59.0136V51.8636L30.4209 41.9086V48.7836L6.82593 57.3636V53.5136L30.4209 62.0936V68.9686ZM37.4407 80.1886L55.5907 28.3786H63.2357L45.0857 80.1886H37.4407ZM420.907 68.9686V62.0936L444.502 53.5136V57.3636L420.907 48.7836V41.9086L447.087 51.8636V59.0136L420.907 68.9686Z" fill="#FF7400"/>
<path d="M71.6888 74.6886V29.1886H92.3588C97.2988 29.1886 101.654 30.142 105.424 32.0486C109.194 33.912 112.14 36.5336 114.264 39.9136C116.387 43.2936 117.449 47.302 117.449 51.9386C117.449 56.532 116.387 60.5403 114.264 63.9636C112.14 67.3436 109.194 69.987 105.424 71.8936C101.654 73.757 97.2988 74.6886 92.3588 74.6886H71.6888ZM82.2188 66.0436H91.8388C94.8722 66.0436 97.4938 65.4803 99.7038 64.3536C101.957 63.1836 103.69 61.537 104.904 59.4136C106.16 57.2903 106.789 54.7986 106.789 51.9386C106.789 49.0353 106.16 46.5436 104.904 44.4636C103.69 42.3403 101.957 40.7153 99.7038 39.5886C97.4938 38.4186 94.8722 37.8336 91.8388 37.8336H82.2188V66.0436ZM148.53 75.2086C144.543 75.2086 141.033 74.4286 138 72.8686C135.01 71.3086 132.692 69.1853 131.045 66.4986C129.398 63.7686 128.575 60.6703 128.575 57.2036C128.575 53.6936 129.377 50.5953 130.98 47.9086C132.627 45.1786 134.858 43.0553 137.675 41.5386C140.492 39.9786 143.677 39.1986 147.23 39.1986C150.653 39.1986 153.73 39.9353 156.46 41.4086C159.233 42.8386 161.422 44.9186 163.025 47.6486C164.628 50.3353 165.43 53.5636 165.43 57.3336C165.43 57.7236 165.408 58.1786 165.365 58.6986C165.322 59.1753 165.278 59.6303 165.235 60.0636H136.83V54.1486H159.905L156.005 55.9036C156.005 54.0836 155.637 52.502 154.9 51.1586C154.163 49.8153 153.145 48.7753 151.845 48.0386C150.545 47.2586 149.028 46.8686 147.295 46.8686C145.562 46.8686 144.023 47.2586 142.68 48.0386C141.38 48.7753 140.362 49.837 139.625 51.2236C138.888 52.567 138.52 54.1703 138.52 56.0336V57.5936C138.52 59.5003 138.932 61.1903 139.755 62.6636C140.622 64.0936 141.813 65.1986 143.33 65.9786C144.89 66.7153 146.71 67.0836 148.79 67.0836C150.653 67.0836 152.278 66.802 153.665 66.2386C155.095 65.6753 156.395 64.8303 157.565 63.7036L162.96 69.5536C161.357 71.3736 159.342 72.782 156.915 73.7786C154.488 74.732 151.693 75.2086 148.53 75.2086ZM187.536 74.6886L172.846 39.7186H183.311L195.531 69.8136H190.331L203.006 39.7186H212.756L198.001 74.6886H187.536ZM245.888 75.4686C242.292 75.4686 238.977 74.9053 235.943 73.7786C232.953 72.6086 230.332 70.962 228.078 68.8386C225.868 66.7153 224.135 64.2236 222.878 61.3636C221.665 58.5036 221.058 55.362 221.058 51.9386C221.058 48.5153 221.665 45.3736 222.878 42.5136C224.135 39.6536 225.89 37.162 228.143 35.0386C230.397 32.9153 233.04 31.2903 236.073 30.1636C239.107 28.9936 242.443 28.4086 246.083 28.4086C250.113 28.4086 253.732 29.0803 256.938 30.4236C260.188 31.767 262.918 33.717 265.128 36.2736L258.368 42.5136C256.722 40.7803 254.923 39.502 252.973 38.6786C251.023 37.812 248.9 37.3786 246.603 37.3786C244.393 37.3786 242.378 37.7253 240.558 38.4186C238.738 39.112 237.157 40.1086 235.813 41.4086C234.513 42.7086 233.495 44.247 232.758 46.0236C232.065 47.8003 231.718 49.772 231.718 51.9386C231.718 54.062 232.065 56.012 232.758 57.7886C233.495 59.5653 234.513 61.1253 235.813 62.4686C237.157 63.7686 238.717 64.7653 240.493 65.4586C242.313 66.152 244.307 66.4986 246.473 66.4986C248.553 66.4986 250.568 66.1736 252.518 65.5236C254.512 64.8303 256.44 63.682 258.303 62.0786L264.283 69.6836C261.813 71.547 258.932 72.977 255.638 73.9736C252.388 74.9703 249.138 75.4686 245.888 75.4686ZM254.663 68.3186V51.2236H264.283V69.6836L254.663 68.3186ZM280.565 74.6886V29.1886H300.26C304.333 29.1886 307.843 29.8603 310.79 31.2036C313.736 32.5036 316.011 34.3886 317.615 36.8586C319.218 39.3286 320.02 42.2753 320.02 45.6986C320.02 49.0786 319.218 52.0036 317.615 54.4736C316.011 56.9003 313.736 58.7636 310.79 60.0636C307.843 61.3636 304.333 62.0136 300.26 62.0136H286.415L291.095 57.3986V74.6886H280.565ZM309.49 74.6886L298.115 58.1786H309.36L320.865 74.6886H309.49ZM291.095 58.5686L286.415 53.6286H299.675C302.925 53.6286 305.351 52.9353 306.955 51.5486C308.558 50.1186 309.36 48.1686 309.36 45.6986C309.36 43.1853 308.558 41.2353 306.955 39.8486C305.351 38.462 302.925 37.7686 299.675 37.7686H286.415L291.095 32.7636V58.5686ZM334.863 74.6886V29.1886H345.393V74.6886H334.863ZM362.691 74.6886V29.1886H383.361C388.301 29.1886 392.656 30.142 396.426 32.0486C400.196 33.912 403.142 36.5336 405.266 39.9136C407.389 43.2936 408.451 47.302 408.451 51.9386C408.451 56.532 407.389 60.5403 405.266 63.9636C403.142 67.3436 400.196 69.987 396.426 71.8936C392.656 73.757 388.301 74.6886 383.361 74.6886H362.691ZM373.221 66.0436H382.841C385.874 66.0436 388.496 65.4803 390.706 64.3536C392.959 63.1836 394.692 61.537 395.906 59.4136C397.162 57.2903 397.791 54.7986 397.791 51.9386C397.791 49.0353 397.162 46.5436 395.906 44.4636C394.692 42.3403 392.959 40.7153 390.706 39.5886C388.496 38.4186 385.874 37.8336 382.841 37.8336H373.221V66.0436Z" fill="#0C0C0C"/>
<path d="M474.565 18.6438C474.462 18.7464 474.428 19.5772 474.428 21.6612V24.5415L474.714 24.7239C474.977 24.8947 475.022 24.8947 475.286 24.7239L475.571 24.5415V21.6612C475.571 18.587 475.56 18.5073 474.999 18.5073C474.84 18.5073 474.645 18.5641 474.565 18.6438Z" fill="#FF7400"/>
<path d="M458.718 25.202C458.604 25.3161 458.524 25.4864 458.524 25.5775C458.524 25.7713 462.654 29.8923 462.848 29.8923C463.055 29.8923 463.444 29.4595 463.444 29.2433C463.444 28.959 459.428 24.9968 459.141 24.9968C459.004 24.9968 458.821 25.0879 458.718 25.202Z" fill="#FF7400"/>
<path d="M488.592 27.0234C487.471 28.1391 486.556 29.1298 486.556 29.2433C486.556 29.4595 486.945 29.8923 487.151 29.8923C487.357 29.8923 491.476 25.7707 491.476 25.5546C491.476 25.3155 491.11 24.9968 490.846 24.9968C490.709 24.9968 489.794 25.8281 488.592 27.0234Z" fill="#FF7400"/>
<path d="M473.226 26.7047C466.567 27.5583 461.258 32.7045 460.171 39.3309C459.485 43.566 460.984 48.234 464.199 51.866C465.537 53.3686 465.846 54.1432 466.476 57.5017C467.105 60.9284 467.334 61.5436 468.135 62.09L468.524 62.3405L475.068 62.3176C481.476 62.2838 481.625 62.2838 481.934 62.0447C482.677 61.4983 482.929 60.7696 483.581 57.2173C484.154 54.1432 484.462 53.3807 485.755 51.9233C487.277 50.1924 488.627 47.8699 489.291 45.8776C491.968 37.6918 486.693 28.8002 478.043 26.9443C476.739 26.6588 474.451 26.5453 473.226 26.7047ZM477.918 28.0594C483.387 29.2095 487.529 33.4217 488.627 38.9433C488.73 39.4329 488.787 40.4575 488.787 41.619C488.776 43.2014 488.742 43.6572 488.512 44.4994C487.883 46.9016 486.796 48.9283 485 51.0346C483.341 52.9702 482.986 53.79 482.38 57.2735C482.002 59.4366 481.647 60.8258 481.441 61.0419C481.304 61.1784 480.285 61.2013 474.942 61.2013C468.958 61.2013 468.592 61.1899 468.489 60.9967C468.294 60.6435 467.928 59.0497 467.574 57.0459C467.379 55.9755 467.139 54.826 467.036 54.4843C466.75 53.4936 466.018 52.2186 465.263 51.3534C462.597 48.3022 461.327 45.4218 461.189 42.0633C460.88 34.8452 465.96 28.8569 473.237 27.8547C474.348 27.6954 476.705 27.7974 477.918 28.0594Z" fill="#FF7400"/>
<path d="M481.899 35.1067C481.819 35.152 480.206 38.1923 478.307 41.8466C476.407 45.5124 474.828 48.5298 474.794 48.5637C474.771 48.5975 473.467 47.3224 471.899 45.7401C469.393 43.2008 469.016 42.8597 468.741 42.8935C468.524 42.9165 468.397 43.0185 468.317 43.2238C468.18 43.6337 468.18 43.6451 471.716 47.1745C474.222 49.6799 474.76 50.1581 475 50.1351C475.252 50.1007 475.698 49.3038 479.027 42.9285C481.087 38.9777 482.769 35.676 482.78 35.5739C482.781 35.1978 482.231 34.902 481.899 35.1067Z" fill="#FF7400"/>
<path d="M452.139 40.9586C451.922 41.1747 451.967 41.7102 452.219 41.8466C452.356 41.9149 453.535 41.9607 455.239 41.9607C457.802 41.9607 458.042 41.9378 458.214 41.756C458.454 41.494 458.466 41.2326 458.226 41.0044C458.077 40.845 457.63 40.8221 455.159 40.8221C453.066 40.8221 452.242 40.8565 452.139 40.9586Z" fill="#FF7400"/>
<path d="M491.773 41.0044C491.533 41.2435 491.545 41.5393 491.797 41.7669C491.98 41.9378 492.357 41.9607 494.783 41.9607C496.476 41.9607 497.643 41.9154 497.781 41.8466C498.032 41.7102 498.079 41.1747 497.861 40.9586C497.758 40.8559 496.934 40.8221 494.84 40.8221C492.369 40.8221 491.922 40.845 491.773 41.0044Z" fill="#FF7400"/>
<path d="M460.56 54.9166C459.439 56.0323 458.524 57.023 458.524 57.1365C458.524 57.3526 458.912 57.7855 459.119 57.7855C459.325 57.7855 463.444 53.6639 463.444 53.4478C463.444 53.2087 463.078 52.8899 462.814 52.8899C462.677 52.8905 461.762 53.7212 460.56 54.9166Z" fill="#FF7400"/>
<path d="M486.75 53.0952C486.636 53.2093 486.556 53.3801 486.556 53.4707C486.556 53.6645 490.686 57.7855 490.88 57.7855C491.086 57.7855 491.476 57.3532 491.476 57.1365C491.476 56.8521 487.46 52.8899 487.173 52.8899C487.037 52.8905 486.854 52.9811 486.75 53.0952Z" fill="#FF7400"/>
</svg>
