<svg width="262" height="100" viewBox="0 0 262 100" fill="none" xmlns="http://www.w3.org/2000/svg">
<path d="M13.3139 66.4623C17.3319 46.0753 20.6719 25.0173 26.9429 5.18333C27.1189 4.62533 27.2969 4.05433 27.5279 3.51633C28.1379 2.10233 25.4519 3.52833 25.2049 2.63533C25.5979 4.05433 25.2059 6.20533 25.1069 7.71833C24.4899 17.1723 24.2489 26.6463 23.9649 36.1143C23.6629 46.1893 23.3719 56.2693 22.7149 66.3283C22.3009 72.6643 22.4109 80.4283 19.7029 86.3243C19.3829 87.0203 18.9819 87.0013 19.5249 87.2353C18.1679 86.6483 17.2539 84.3963 16.5879 83.1813C14.1969 78.8133 13.0349 73.7093 12.0089 68.8773C10.5639 62.0753 9.72289 55.0623 9.40089 48.1133C9.29589 45.8433 6.06289 45.8733 5.90089 48.1133C5.58989 52.4083 5.13889 56.6943 4.61089 60.9673C4.00689 65.8603 3.88489 74.7143 0.452893 78.6643C-1.02011 80.3593 1.44489 82.8463 2.92789 81.1393C6.72189 76.7743 7.02389 68.9313 7.77889 63.5033C8.48789 58.3973 9.02889 53.2563 9.40189 48.1133C8.23489 48.1133 7.06889 48.1133 5.90189 48.1133C6.51289 61.2753 7.71089 78.5133 16.3479 89.0863C18.7869 92.0723 21.8739 90.2423 23.0789 87.2853C25.4329 81.5133 25.5959 74.5943 26.0649 68.4653C27.5599 48.8933 27.3259 29.2303 28.4829 9.63933C28.5989 7.68033 30.0779 1.03733 27.1709 0.101334C24.5569 -0.740666 23.6639 3.89533 23.1889 5.47833C17.3179 25.0273 13.8809 45.5183 9.93689 65.5283C9.50389 67.7363 12.8779 68.6763 13.3139 66.4623ZM17.2869 86.3293C21.7969 75.4493 26.3969 64.5813 31.4489 53.9393C32.5009 51.7233 33.5749 49.5043 34.8229 47.3903C36.5309 44.4943 33.2639 49.8673 33.0549 45.4673C33.1089 46.5993 33.0579 47.7463 33.0629 48.8803C33.0989 56.4093 33.2569 63.9503 33.8329 71.4603C34.0209 73.9093 33.8999 83.9193 37.6799 84.4803C41.8569 85.0993 42.3559 78.6323 42.6599 75.8593C43.3919 69.1923 42.9679 62.2773 42.1409 55.6403C41.8229 53.0873 41.5019 45.3953 38.0299 44.5793C29.6029 42.6003 29.2769 82.2003 31.5249 88.3903C33.2989 93.2763 37.3359 91.5423 39.4489 87.9903C41.6339 84.3163 42.8409 79.9573 44.0229 75.8893C46.4959 67.3763 48.1679 58.6223 49.7359 49.9063C48.5899 49.7523 47.4439 49.5963 46.2979 49.4413C44.9489 59.8323 43.1689 71.0353 44.4159 81.4933C44.7789 84.5403 46.7289 88.3283 50.0429 85.3973C52.3539 83.3533 53.6899 79.6903 54.8469 76.9413C56.7999 72.2983 58.3229 67.5113 59.7229 62.6773C60.1959 61.0463 60.6479 59.4083 61.1259 57.7803C61.2829 57.2453 61.4529 56.7153 61.6319 56.1863C62.0359 54.9963 58.8579 54.4043 58.9479 55.8593C59.3129 61.7133 58.4239 67.7863 57.8259 73.5983C57.6659 75.1603 55.7329 90.1633 61.5969 84.3353C65.7049 80.2513 67.2559 72.6123 69.1249 67.3673C70.3379 63.9653 71.5489 60.5593 72.9079 57.2123C73.4349 55.9153 74.0269 54.6453 74.7039 53.4203C75.7209 51.5803 74.2079 51.9473 74.4619 52.9703C76.2539 60.1743 74.8959 69.3233 73.6879 76.5223C73.4759 77.7893 73.1909 79.0413 72.8769 80.2863C72.7459 80.7813 72.5979 81.2713 72.4329 81.7573C71.6749 84.1123 72.1559 81.3423 73.3029 83.0333C71.0429 79.6983 71.6369 72.9153 71.4559 69.0983C71.2689 65.1583 71.3239 61.1273 72.0409 57.2393C72.2399 56.1633 72.5359 55.0803 73.0559 54.1133C73.0339 54.1553 72.1209 53.1563 72.5349 54.8283C73.1929 57.4873 72.4459 60.5903 71.8139 63.1673C70.5889 68.1633 69.8109 72.8053 70.2439 77.9753C70.5319 81.4083 72.3019 90.2273 77.6299 88.7613C83.4679 87.1563 84.4139 75.1703 85.4079 70.4143C87.1089 62.2743 88.3549 54.0383 89.5429 45.8103C90.1699 41.4703 90.3979 36.8673 91.4779 32.6073C90.3529 32.2973 89.2279 31.9863 88.1029 31.6763C84.5669 46.4743 81.2279 61.5803 80.1639 76.7853C79.8689 81.0083 78.7779 90.3403 84.0969 92.1943C87.6329 93.4263 92.9389 89.7163 94.9759 87.1353C96.6329 85.0363 97.3469 82.0623 96.7549 79.4393C96.2579 77.2373 92.8839 78.1703 93.3799 80.3693C94.4219 84.9883 85.3079 92.8563 83.8639 86.2133C82.4749 79.8213 83.9449 72.3233 84.8559 65.9693C86.4649 54.7483 88.8439 43.6283 91.4779 32.6073C92.0019 30.4153 88.6589 29.4863 88.1029 31.6763C86.5279 37.8893 86.2269 44.6333 85.2679 50.9623C84.4619 56.2833 83.5669 61.5903 82.5539 66.8753C81.4799 72.4713 80.5579 78.7073 78.0039 83.8483C76.0949 87.6893 74.5169 81.8493 74.1209 80.2523C73.1949 76.5163 73.4839 72.4113 74.0719 68.6573C74.7429 64.3653 76.3349 60.4753 76.1869 56.0613C76.0949 53.3193 73.6839 47.9153 70.5309 51.6563C68.9889 53.4853 68.5819 56.2893 68.3039 58.5683C67.5309 64.9033 67.9189 71.3373 68.6229 77.6613C68.8969 80.1273 69.0199 83.8833 71.0119 85.6983C72.6029 87.1463 74.3699 85.7513 75.1719 84.2503C79.0309 77.0233 78.6309 65.8283 78.4139 57.9503C78.3649 56.1773 77.7209 45.3773 73.1709 49.6733C69.8779 52.7813 68.5249 58.7523 67.0389 62.8433C64.9369 68.6273 63.2469 74.8173 60.2699 80.2313C60.1189 80.4983 59.9569 80.7573 59.7829 81.0093C58.7909 82.5123 60.6709 83.1703 60.6189 82.0953C60.5269 80.1773 60.8509 78.1953 61.0449 76.2923C61.6329 70.5093 62.2099 64.7393 62.4219 58.9273C62.4759 57.4563 62.9469 54.7333 61.7409 53.5273C60.6159 52.4023 59.1079 53.2463 58.5739 54.4653C55.8869 60.5963 54.7999 67.5043 52.3889 73.7793C51.3929 76.3723 49.8619 81.3603 47.4029 83.0603C48.4039 82.3683 48.4259 83.8613 48.0129 82.0033C47.7579 80.8543 47.7359 79.6433 47.6869 78.4723C47.2849 68.8433 48.5609 58.9793 49.7979 49.4413C50.0519 47.4863 46.7079 47.0453 46.3599 48.9763C44.3389 60.2043 42.2659 71.6973 38.2009 82.4033C37.5509 84.1173 36.6449 86.8663 35.0839 88.0333C34.8759 88.1893 35.4389 88.3823 35.1629 87.9613C34.6599 87.1963 34.4909 86.2003 34.2999 85.3233C32.8459 78.6263 33.7549 71.1293 34.4849 64.4083C34.9809 59.8433 35.6359 55.2443 36.7859 50.7923C37.0249 49.8633 37.2799 48.6173 37.8909 47.8423C37.1259 48.8133 36.3189 47.0953 36.8979 48.0943C37.1809 48.5823 37.3219 49.1573 37.4849 49.6923C39.3309 55.7753 39.4429 62.6293 39.4669 68.9323C39.4789 71.9303 39.3729 74.9683 38.8749 77.9283C38.7179 78.8633 38.5109 79.8473 38.1009 80.7073C37.8059 81.3273 39.0729 81.8583 38.5149 79.9123C36.5339 73.0033 36.8739 65.0263 36.6919 57.9063C36.6089 54.6893 36.5739 51.4713 36.5579 48.2543C36.5519 47.0343 37.0139 44.6143 35.8869 43.7103C31.7869 40.4233 25.0379 59.5183 24.0689 61.6943C20.5719 69.5473 17.2019 77.4593 13.9109 85.4003C13.0479 87.4843 16.4359 88.3843 17.2869 86.3293ZM99.3419 56.2613C97.5899 62.3233 95.7119 68.3643 93.5509 74.2933C92.9889 75.8353 92.3889 77.3643 91.6839 78.8483C91.4709 79.2963 91.2399 79.8123 90.9269 80.2023C92.4869 81.2373 93.1389 81.2973 92.8859 80.3803C92.8569 80.0013 92.8439 79.6223 92.8459 79.2423C92.8009 76.5043 93.3069 68.2073 96.5049 73.8483C97.4069 75.4413 97.5539 76.8633 99.0439 77.9613C108.768 85.1313 129.352 31.1353 131.194 25.4023C130.048 25.2473 128.902 25.0923 127.756 24.9373C128.717 39.1203 129.454 53.3343 129.745 67.5473C129.876 73.9673 130.66 81.3953 129.003 87.6843C128.935 87.9453 128.936 87.9403 128.815 88.1463C130.553 88.2353 130.998 87.9983 130.146 87.4333C129.678 87.0433 129.208 86.6573 128.733 86.2753C126.482 84.4473 124.164 82.6993 121.837 80.9673C117.596 77.8103 113.102 74.1663 108.115 72.2563C106.496 71.6363 105.099 74.0763 106.413 75.1813C111.574 79.5213 119.128 76.8143 124.181 73.8533C130.597 70.0923 134.981 62.9143 138.9 56.8353C148.747 41.5593 158.389 23.9093 162.981 6.19733C163.554 3.98533 160.358 3.16733 159.606 5.26633C151.035 29.1993 148.554 59.3153 156.988 83.5473C157.682 85.5403 159.027 88.1023 161.551 87.4153C164.052 86.7343 165.311 82.7533 166.219 80.7303C168.634 75.3483 171.181 70.0973 173.812 64.8183C175.609 61.2143 177.082 57.4373 178.452 53.6543C179.002 52.1343 179.501 50.5963 179.999 49.0583C180.233 48.3333 181.493 45.8843 180.437 46.6473C179.581 46.2983 178.723 45.9503 177.867 45.6013C178.19 46.3983 177.644 48.8883 177.557 49.9103C177.273 53.2383 177.002 56.5663 176.778 59.8993C176.443 64.8793 175.682 70.4613 176.6 75.4223C176.918 77.1453 178.062 78.5913 179.931 77.6483C182.227 76.4893 182.91 70.8443 183.866 68.6633C187.351 60.7133 192.055 53.1113 197.024 46.0093C197.721 45.0123 198.439 44.0293 199.252 43.1223C200.153 42.1163 197.322 40.6023 196.873 41.8993C196.662 42.5083 196.386 43.1013 196.144 43.6983C194.496 47.7843 193.026 51.9463 191.614 56.1183C190.739 58.7003 185.703 69.2953 189.9 71.0063C191.744 71.7583 193.423 68.6513 194.205 67.5863C197.028 63.7363 199.919 59.9373 202.874 56.1883C204.854 53.6753 206.832 51.0313 209.186 48.8473C208.461 48.3503 207.737 47.8533 207.012 47.3563C206.842 47.8293 206.643 48.2883 206.415 48.7353C205.975 49.6863 205.508 50.6273 205.048 51.5693C203.845 54.0303 202.623 56.4823 201.462 58.9643C200.621 60.7613 195.6 73.2043 202.635 69.7873C210.544 65.9463 216.345 57.7463 223.308 52.4893C223.74 52.1633 224.243 51.7523 224.753 51.5513C223.783 49.8633 223.196 49.5363 222.993 50.5683C222.742 51.1133 222.487 51.6563 222.226 52.1973C220.948 54.8923 220.113 57.7943 219.385 60.6773C218.448 64.3923 216.72 70.6633 218.553 74.3723C221.919 81.1803 232.172 61.9213 233.598 59.7983C234.712 58.1393 235.803 56.3893 237.163 54.9153C235.668 53.0403 234.82 52.7433 234.62 54.0223C234.473 54.4763 234.311 54.9253 234.136 55.3693C233.388 57.3583 232.53 59.3113 231.734 61.2823C229.924 65.7623 228.151 70.2623 226.494 74.8033C225.793 76.7233 228.688 77.7893 229.692 76.1513C232.235 72.0013 234.835 67.8833 237.494 63.8073C239.11 61.3283 240.724 58.8113 242.561 56.4883C242.79 56.1973 243.036 55.9223 243.289 55.6503C244.13 54.7493 241.269 53.3603 240.891 54.6573C240.253 56.8453 239.157 58.9423 238.335 61.0603C236.908 64.7413 234.961 70.1323 235.977 74.1973C236.369 75.7623 237.968 77.7063 239.773 76.4793C242.68 74.5013 243.57 69.5873 245.001 66.6553C246.955 62.6453 249.193 58.7473 251.548 54.9593C250.483 54.5103 249.416 54.0613 248.35 53.6113C246.55 59.1473 244.855 64.7203 243.285 70.3263C242.481 73.2003 238.577 82.3233 241.87 84.7263C244.935 86.9653 247.251 77.8123 247.689 76.5303C250.713 67.6873 253.056 58.5903 255.25 49.5113C257.72 39.2923 259.816 28.9653 261.152 18.5343C261.571 15.2613 263.585 6.63033 258.877 5.02733C255.012 3.71133 250.878 8.37533 248.583 10.7713C242.853 16.7523 238.151 23.8193 233.714 30.7773C222.194 48.8413 214.105 67.8013 208.422 88.4133C208.084 89.6373 201.438 109.124 207.457 108.082C209.679 107.697 208.733 104.325 206.527 104.707C208.397 104.383 208.391 106.596 208.426 104.924C208.471 102.782 209.024 100.621 209.478 98.5413C211.729 88.2293 214.683 77.8333 218.435 67.9713C225.388 49.6963 235.776 31.4603 248.27 16.3953C249.043 15.4613 257.125 6.29233 258.033 8.91733C259.014 11.7583 257.996 15.6803 257.652 18.5353C256.965 24.2403 255.903 29.9043 254.772 35.5353C252.685 45.9313 250.105 56.2393 247.167 66.4263C246.137 69.9973 245.037 73.5503 243.811 77.0603C243.402 78.2333 242.97 79.4023 242.471 80.5393C242.317 80.8923 242.142 81.2333 241.96 81.5723C241.397 82.6233 244.217 83.3003 244.23 82.0433C244.283 76.9383 246.613 71.3163 248.034 66.4763C249.207 62.4823 250.439 58.5023 251.726 54.5423C252.357 52.6023 249.549 51.5513 248.528 53.1943C246.419 56.5873 244.466 60.0783 242.621 63.6213C241.483 65.8053 240.475 68.0453 239.53 70.3173C239.132 71.2753 238.809 72.2273 238.292 73.1313C239.337 74.0313 239.686 74.0333 239.338 73.1363C239.298 72.6323 239.293 72.1283 239.323 71.6233C239.443 66.1483 242.279 61.0313 244.125 56.0183C244.665 54.5483 244.799 52.9863 243.12 52.2943C240.233 51.1063 235.516 60.4543 234.474 62.0413C231.805 66.1103 229.215 70.2353 226.673 74.3863C227.738 74.8353 228.805 75.2843 229.871 75.7343C231.162 72.1993 232.538 68.6943 233.921 65.1943C235.193 61.9753 236.575 58.7973 237.793 55.5583C238.158 54.5873 238.529 53.4373 237.96 52.4733C237.658 51.9623 237.058 51.5763 236.449 51.6063C234.655 51.6983 233.553 53.7933 232.619 55.0783C229.998 58.6883 227.627 62.4883 225.163 66.2063C224.076 67.8463 222.975 69.4753 221.845 71.0843C220.199 73.4253 221.327 71.5773 221.607 72.5243C221.379 71.7523 221.474 70.8013 221.485 70.0083C221.562 64.6333 223.143 58.8783 225.252 53.9643C225.867 52.5313 227.532 50.1633 226.055 48.6873C224.669 47.3013 222.783 48.5823 221.544 49.4683C215.55 53.7613 210.461 59.3223 204.81 64.0423C203.751 64.9273 202.663 65.7713 201.475 66.4743C202.039 66.1393 201.808 67.9633 202.409 65.8443C202.708 64.7933 203.156 63.7553 203.58 62.7553C205.463 58.3013 207.801 54.0493 209.829 49.6613C210.366 48.5003 211.282 45.8783 209.214 45.4943C207.232 45.1263 205.775 47.2723 204.631 48.5683C199.298 54.6063 195.074 61.5553 189.817 67.6233C190.488 67.9303 191.159 68.2363 191.831 68.5433C191.839 68.2103 191.879 67.8803 191.95 67.5543C192.068 66.8633 192.248 66.1793 192.416 65.4993C192.864 63.6853 193.431 61.8973 193.99 60.1153C195.374 55.7143 196.942 51.3673 198.579 47.0543C199.223 45.3573 200.822 42.9583 200.48 41.0543C200.185 39.4123 198.252 39.3263 197.203 40.2463C192.611 44.2683 189.421 51.0723 186.406 56.2483C184.39 59.7093 182.51 63.2533 180.848 66.8963C180.173 68.3773 179.572 69.8923 179.042 71.4303C178.727 72.3483 178.467 73.2833 178.145 74.1993C178.791 74.4823 179.437 74.7653 180.083 75.0483C179.979 74.5143 179.92 73.9743 179.903 73.4303C179.509 67.8463 180.117 62.1023 180.517 56.5363C180.742 53.4313 182.475 47.6973 181.246 44.6713C180.861 43.7243 179.683 42.8973 178.675 43.6253C176.71 45.0463 176.245 49.3313 175.531 51.4373C173.181 58.3673 169.765 64.6763 166.639 71.2523C164.92 74.8653 163.5 78.6223 161.673 82.1843C161.424 82.6683 161.142 83.1313 160.849 83.5893C160.175 84.6393 161.138 84.1523 160.92 83.8143C159.878 82.1953 159.531 79.9503 159.085 78.1163C153.391 54.7493 154.856 28.8933 162.985 6.19733C161.86 5.88733 160.735 5.57633 159.61 5.26633C155.642 20.5713 147.571 35.3383 139.652 48.9063C135.884 55.3613 131.834 61.8943 126.687 67.3543C123.032 71.2313 113.904 76.9183 108.892 72.7063C108.325 73.6813 107.757 74.6563 107.19 75.6313C112.588 77.6993 117.552 82.0813 122.117 85.5183C123.884 86.8483 128.259 92.2433 131.004 90.7713C132.668 89.8793 132.734 86.9713 132.915 85.3943C133.356 81.5363 133.321 77.6063 133.319 73.7293C133.311 57.4633 132.359 41.1623 131.259 24.9373C131.126 22.9713 128.44 22.5483 127.821 24.4723C122.837 39.9793 115.874 55.6203 106.46 68.9803C105.074 70.9473 103.487 73.0793 101.495 74.4833C100.137 75.4413 99.3199 71.6223 98.4579 70.3483C96.2079 67.0263 92.4899 66.9533 90.6769 70.6163C89.4039 73.1883 87.7629 80.6063 90.3179 82.9543C92.6169 85.0683 94.4689 81.1693 95.1839 79.5863C98.4079 72.4453 100.547 64.7053 102.719 57.1903C103.345 55.0173 99.9679 54.0963 99.3419 56.2613ZM133.039 84.0643C146.973 73.3273 162.621 59.0613 168.281 41.9593C167.156 41.6493 166.031 41.3383 164.906 41.0283C163.423 47.8463 162.14 54.7133 160.995 61.5953C159.581 70.0953 157.445 79.7033 158.945 88.3163C159.332 90.5373 162.705 89.5923 162.32 87.3863C160.816 78.7553 163.304 68.7903 164.742 60.3093C165.784 54.1693 166.957 48.0443 168.281 41.9593C168.761 39.7503 165.615 38.8853 164.906 41.0283C159.6 57.0613 143.488 71.6283 131.273 81.0423C129.511 82.3993 131.252 85.4423 133.039 84.0643Z" fill="#231F20"/>
</svg>
