<svg width="579" height="487" viewBox="0 0 579 487" fill="none" xmlns="http://www.w3.org/2000/svg">
<path d="M299.775 -3.94789C298.236 -4.06887 295.049 -3.70593 285.819 -2.61715C282.192 -2.25423 277.357 -1.77033 275.269 -1.52838C272.522 -1.28643 270.544 -0.802534 268.456 -0.0766816C266.588 0.649171 264.72 1.0121 263.072 1.13307C255.709 1.496 250.325 2.10087 248.017 2.58477C246.589 2.82673 242.193 4.27845 238.237 5.85113C234.281 7.30283 229.007 9.11746 226.589 9.96429C216.589 13.1096 210.436 15.6501 207.139 17.8277C202.633 20.8521 196.59 23.7555 193.183 24.6023C190.216 25.3282 183.073 30.4091 178.568 34.8852C174.832 38.7565 174.282 39.1194 170.107 41.5389C166.041 43.8374 165.162 44.6842 164.063 46.8618C163.294 48.4345 163.074 48.5554 161.316 48.4345C160.791 48.4345 160.386 48.8953 160.454 49.4152L160.546 50.1282C161.096 53.8784 159.887 57.6286 157.579 59.4432C156.261 60.411 153.623 61.3789 152.085 61.3789C150.986 61.3789 150.986 61.3789 151.865 63.1935C152.286 64.1191 152.301 65.1781 151.908 66.1156L151.865 66.2179C150.437 69.3632 144.613 74.4442 140.767 75.7749C140.437 75.8959 140.107 76.7428 139.887 77.8315C139.558 79.5252 139.558 79.7671 140.327 80.8559C140.767 81.5818 141.206 82.1866 141.206 82.3076C141.206 82.4286 140.327 83.0335 139.118 83.5174C136.591 84.7271 135.602 86.0578 134.723 89.0822C133.184 94.4052 133.074 98.3973 134.063 114.971C134.503 122.592 134.173 130.819 133.074 144.61C132.195 155.74 131.756 166.748 132.195 174.854C132.415 178.604 132.415 185.016 132.415 188.887L132.356 192.726C132.322 194.9 132.755 197.056 133.624 199.049C134.494 201.044 134.942 203.197 134.942 205.373V209.816C134.942 216.348 135.052 218.284 135.822 223.244C136.92 230.503 137.58 233.164 139.778 239.092C140.767 241.753 141.865 245.262 142.195 246.955L142.475 248.496C142.641 249.411 143.291 250.165 144.173 250.463C145.162 250.826 145.931 250.826 146.701 250.584C148.569 249.98 148.569 250.101 148.788 252.641C149.228 258.206 150.766 262.319 153.514 265.464C155.601 267.884 156.041 268.731 156.59 272.239L156.649 272.576C156.761 273.225 157.65 273.329 157.909 272.723C158.898 270.182 159.448 267.884 158.788 268.247C158.459 268.489 158.459 268.368 158.568 267.884C158.678 267.521 158.898 266.916 159.008 266.553C159.118 266.19 159.338 265.948 159.557 265.948C159.777 265.948 162.195 268.61 165.052 271.755L168.93 276.116C169.38 276.621 170.217 276.303 170.217 275.626C170.217 272.844 170.986 269.82 172.414 266.553C173.513 264.013 173.623 263.287 173.733 260.263L173.808 257.853C173.828 257.24 174.329 256.754 174.942 256.754C175.931 256.754 176.041 256.875 176.26 258.085C176.37 258.811 176.92 260.867 177.469 262.682C178.124 264.845 178.421 267.101 178.347 269.359L178.238 272.723L178.148 275.514C178.063 278.134 178.583 280.739 179.667 283.127C180.766 285.667 181.535 287.966 182.194 290.99C182.634 293.289 183.623 296.797 184.282 298.733C185.271 301.636 185.491 302.725 185.491 305.023C185.491 309.137 184.282 310.467 180.326 310.951C176.041 311.435 176.26 311.314 176.48 313.25C176.644 314.692 177.605 315.872 178.299 317.147C179.917 320.114 182.552 325.711 182.964 327.162C184.612 333.09 182.194 337.445 174.942 341.316C170.326 343.857 170.986 343.615 157.03 348.696C150.217 351.236 142.525 354.14 140.107 355.228C136.261 356.922 132.305 358.374 125.382 360.672C124.613 360.914 120.767 362.003 116.921 362.971C102.416 366.842 97.141 368.294 92.0862 370.108C76.8117 375.552 74.2843 376.157 54.6143 379.06C50.5485 379.665 43.0761 380.754 37.9114 381.601C32.7466 382.327 26.2632 383.295 23.6259 383.778C20.9886 384.141 15.9338 384.867 12.5272 385.472C7.25261 386.198 3.95597 386.924 0.769217 388.013C0.311415 388.157 0 388.581 0 389.061V464.81C0 479.922 12.2504 492.172 27.3621 492.172C136.151 492.172 225.27 492.172 225.38 492.051C225.49 491.931 224.941 483.583 224.281 473.542C222.743 450.073 222.743 452.493 224.062 452.13C224.611 452.009 225.161 451.646 225.161 451.404C225.161 449.952 223.952 443.419 222.084 435.677C217.908 417.894 216.369 407.853 215.82 395.271L215.788 394.556C215.725 393.121 217.492 392.393 218.457 393.456C221.644 396.844 231.864 405.433 239.446 410.998C242.083 412.934 245.6 415.837 247.248 417.531C248.896 419.224 252.083 422.37 254.281 424.547C256.479 426.725 258.896 429.507 259.775 430.838C261.424 433.257 261.753 433.499 264.061 432.774C264.801 432.502 265.224 432.973 264.905 433.693C264.816 433.894 264.716 434.113 264.61 434.346C264.085 435.359 264.261 436.594 265.05 437.419L265.929 438.338C267.138 439.669 271.643 443.419 276.039 446.807C280.434 450.194 287.247 455.396 291.313 458.541C297.137 463.017 299.005 464.348 300.544 464.711C305.269 466.042 319.444 467.01 325.269 466.405C328.016 466.163 329.005 465.8 331.312 464.59C337.466 461.445 346.257 454.549 360.872 441.363C366.257 436.524 367.026 435.556 374.169 426.483C382.41 416.079 386.147 410.514 391.641 400.957C397.575 390.674 403.069 378.698 405.047 372.286C405.15 371.945 405.254 371.624 405.354 371.332C405.74 370.213 406.659 370.118 407.355 371.076C408.124 372.165 408.674 373.979 410.542 382.327C414.717 400.473 415.816 411.119 415.816 430.717C415.816 447.049 415.267 453.339 412.19 471.607C411.311 476.809 410.322 482.978 409.882 485.398C409.553 487.817 409.113 490.358 409.003 491.084C408.889 491.714 409.373 492.293 410.013 492.293H538.473C560.856 492.293 579 474.149 579 451.767V424.597C579 416.65 573.837 409.623 566.253 407.248C559.22 405.07 544.825 400.473 534.276 397.207C523.726 393.819 513.617 390.916 511.858 390.553C508.012 389.827 497.793 389.706 480.43 390.19C470.321 390.432 468.123 390.432 464.057 389.948C455.706 388.859 450.761 387.287 447.464 384.867C446.695 384.262 444.497 382.327 442.739 380.633C435.706 373.979 431.53 370.108 428.234 367.326C423.289 363.092 422.519 362.003 420.432 356.801C419.443 354.381 417.684 350.147 416.476 347.365C415.267 344.703 414.168 341.679 414.058 340.832C413.619 337.929 414.717 331.517 421.64 294.741C423.838 283.006 425.047 281.07 431.86 276.836C436.805 273.812 437.794 272.239 438.783 266.19C439.003 264.86 439.003 263.771 438.893 263.771C438.783 263.771 438.124 264.739 437.574 265.948C436.255 268.61 433.508 271.513 430.651 273.207C428.014 274.659 423.398 276.473 422.519 276.352C421.75 276.231 419.992 272.844 419.333 270.545C418.783 268.368 418.344 256.028 418.673 251.31C418.893 248.528 419.003 248.044 419.992 246.592C421.201 244.899 421.201 244.536 419.333 242.358C418.344 241.269 417.574 239.576 417.574 238.729C417.574 238.487 418.344 238.366 419.333 238.366C421.091 238.366 421.091 238.366 420.761 237.519C420.542 237.035 420.102 236.551 419.772 236.309C419.333 235.946 419.223 235.1 419.003 231.833C418.783 228.204 418.783 227.72 418.014 226.873C417.574 226.389 417.025 225.301 416.695 224.454C416.256 223.123 416.256 222.881 416.695 222.881C417.355 222.881 419.113 223.849 419.113 224.333C419.113 224.454 420.102 225.18 421.421 225.905C422.931 226.697 424.627 227.064 426.33 226.968L428.014 226.873C430.761 226.752 434.387 226.873 438.124 227.236C441.31 227.599 444.167 227.841 444.387 227.841C444.827 227.841 444.827 228.93 444.937 234.132V240.423L445.706 233.043C446.145 229.051 447.464 216.832 448.563 205.945C449.772 195.057 450.651 185.984 450.541 185.742C450.431 185.5 448.123 181.628 445.376 176.91C439.662 167.353 439.662 167.353 439.003 164.934C438.343 162.393 438.124 149.933 438.563 141.465C438.783 137.593 439.003 131.424 439.112 127.673C439.332 121.141 439.222 120.657 438.343 115.213C436.365 103.599 434.387 92.4695 433.289 85.332C432.409 80.251 431.97 77.8315 431.53 77.4686C431.091 77.1057 429.662 76.9847 424.937 77.1057C421.64 77.2267 418.893 77.1057 418.893 76.9847C418.893 76.8637 419.992 76.5008 421.201 76.2588C422.222 76.0446 422.625 74.8021 421.923 74.0296L418.564 70.331C413.728 64.8871 412.3 63.7984 410.432 63.7984C409.333 63.7984 406.036 61.7418 404.608 60.0481C403.399 58.5964 401.311 57.8706 398.124 57.5076L397.852 57.4761C396.927 57.3688 396.144 58.1553 396.256 59.0803C396.806 64.0403 398.564 66.3388 402.74 67.9115C403.289 68.1535 403.289 68.2745 402.41 69.2423C401.861 69.8471 400.981 71.1779 400.542 72.1457C399.333 74.5652 399.113 74.8071 397.905 74.8071C396.806 74.8071 396.256 74.4442 392.3 71.1779C390.212 69.4842 389.773 69.2423 388.564 69.3632C384.388 69.7262 383.949 69.6052 382.081 68.3954C381.092 67.6696 379.553 66.4598 378.674 65.492C377.795 64.6452 375.268 62.1047 373.07 59.8062C369.444 56.056 369.004 55.4511 367.466 52.3057C366.609 50.4205 365.44 48.5353 364.974 47.8796C364.95 47.8459 364.923 47.815 364.894 47.7861L364.658 47.5559C364.348 47.2524 363.825 47.4064 363.729 47.8296C363.619 48.3135 363.619 48.9184 363.729 49.1603C363.839 49.4023 363.29 49.5233 362.301 49.5233C361.422 49.5233 360.652 49.6442 360.652 49.7652C360.652 50.2491 361.751 51.8218 363.949 54.3623C365.488 56.056 366.257 57.2657 366.477 58.3545C366.916 60.0481 367.356 60.2901 367.685 59.0803C368.015 57.9916 368.345 58.7174 368.674 60.774L368.696 60.9626C368.801 61.8938 368.073 62.7096 367.136 62.7096C366.062 62.7096 365.084 62.0917 364.622 61.1219L364.169 60.1691C363.4 58.5964 362.191 56.6608 360.982 55.2091C359.883 53.8784 357.466 51.0959 355.708 49.0393C353.949 46.8618 351.971 44.9262 351.532 44.5633C350.543 43.9584 347.576 43.8374 346.037 44.2003C345.268 44.4423 345.158 44.3213 345.158 43.4745C345.158 42.8696 345.268 42.2647 345.378 42.1438C345.818 41.5389 347.356 40.5711 347.905 40.5711C348.125 40.5711 348.455 40.3291 348.455 40.0872C348.455 39.3613 348.125 39.3613 347.246 40.0872C346.477 40.692 346.147 40.813 346.147 40.2081C346.147 39.7242 344.829 38.1516 338.895 31.4979L336.644 29.0199C335.735 28.0199 336.445 26.417 337.796 26.417H339.913C340.475 26.417 340.786 27.0684 340.433 27.5057C339.664 28.3526 339.554 28.7155 339.884 29.3204C340.195 30.0068 342.995 32.8233 344.714 34.3166C345.538 35.0323 346.314 34.7546 346.477 33.6755C346.587 32.5867 346.477 31.8608 345.818 30.5301C345.048 28.9574 344.829 27.8687 345.158 27.8687C346.037 27.8687 348.894 30.0462 350.653 32.2238C353.62 35.7321 355.268 38.5145 356.147 42.0228C357.026 45.0472 357.576 45.894 359.993 47.7086C360.553 48.1193 361.344 47.7353 361.367 47.0417L361.422 45.4101L361.469 44.0147C361.494 43.2576 362.382 42.864 362.96 43.3535C364.389 44.5633 364.499 44.5633 364.828 43.9584C365.048 43.5955 365.927 42.9906 366.806 42.6277C367.693 42.2371 368.056 41.1714 367.593 40.3204L365.817 37.0628C364.389 34.4013 362.96 31.3769 362.74 30.2882C361.532 25.4492 361.202 24.8443 359.224 22.5457C354.609 17.1018 352.191 16.7389 350.872 21.215C350.71 21.8112 350.012 22.0743 349.497 21.7337L348.894 21.336C346.697 19.8843 345.488 18.1906 344.939 16.255C344.609 14.8033 344.499 14.6823 343.73 14.8033C341.092 15.5292 337.576 15.4082 334.939 14.6823C333.4 14.3194 331.752 13.8355 331.202 13.7145C330.653 13.5936 329.664 13.4726 329.115 13.3516C328.509 13.2304 327.957 13.7229 328.007 14.3382L328.016 14.4404C328.072 15.1181 327.478 15.6693 326.807 15.5637L326.587 15.5292C324.499 15.1662 323.95 14.8033 323.51 13.2306C323.321 12.395 322.55 11.8223 321.695 11.8811L321.422 11.8999C319.884 12.0209 319.554 12.1419 319.115 13.1097C317.796 15.5292 313.84 17.1018 310.763 16.497C309.774 16.255 308.346 16.134 307.686 16.134C306.588 16.134 306.478 16.255 306.258 17.4648C305.928 18.9165 305.379 19.1584 302.632 19.2794C300.983 19.2794 300.544 19.8843 301.972 20.2472C303.511 20.6101 305.928 22.0618 307.137 23.2716C308.456 24.4813 309.994 27.6267 310.763 30.4091C311.093 31.4979 311.313 32.4657 311.313 32.5867C311.313 32.7077 310.434 32.4657 309.335 31.9818C306.368 30.6511 303.401 30.0462 300.544 30.0462C298.236 30.0462 297.577 29.9252 295.379 29.0784C292.279 27.6413 291.821 28.9573 294.594 30.9546C295.155 31.359 295.751 31.7854 296.368 32.2238C303.84 37.5467 306.148 38.6355 310.434 39.1194C312.192 39.3613 313.62 39.6033 313.62 39.7243C313.62 39.8452 313.291 40.3291 312.851 40.934C312.385 41.5209 311.613 41.7727 310.89 41.5738L310.324 41.4179C309.335 41.176 308.126 40.934 307.577 40.934C307.197 40.934 306.997 41.3849 307.253 41.6661L307.577 42.0228C308.126 42.6277 309.774 43.8374 311.313 44.5633C314.609 46.3779 318.895 50.4911 318.016 50.975C317.357 51.3379 317.357 52.5477 318.126 54.3623C318.675 55.572 319.115 56.0559 320.433 56.7818C322.082 57.6286 322.961 57.8706 322.961 57.5076C322.961 57.3867 322.521 56.2979 321.862 55.0881C321.313 53.8784 320.763 52.7896 320.653 52.6686C320.543 52.5476 321.862 53.0316 323.51 53.7574C323.779 53.8759 324.04 53.9912 324.286 54.1001C325.671 54.7111 326.126 54.1057 325.378 52.7896C324.609 51.0959 322.961 45.1681 323.181 44.9262C323.291 44.8052 324.17 45.0472 325.159 45.4101C326.697 45.894 327.137 46.2569 327.796 47.2247C327.965 47.5176 328.161 47.8164 328.365 48.1017C329.287 49.392 330.268 49.0034 330.983 47.5877C331.862 45.5311 334.279 42.2647 334.939 42.2647C335.158 42.2647 336.257 42.8696 337.466 43.7164C338.675 44.5633 340.543 45.5311 341.642 45.894C343.07 46.3779 344.169 47.1038 345.268 48.3135L345.752 48.808C346.397 49.467 347.362 49.6981 348.235 49.4023L348.699 49.2451C348.98 49.1499 348.963 48.7469 348.675 48.6764C348.348 48.5966 348.306 48.15 348.611 48.01L349.004 47.8296C349.872 47.4203 350.285 47.8282 350.058 48.7601C350.008 48.9644 349.951 49.1808 349.883 49.4023L349.801 49.7865C349.578 50.8294 349.899 51.9142 350.653 52.6686C351.312 53.3945 353.62 56.056 355.817 58.5964C358.015 61.1369 360.543 63.9194 361.422 64.6452C363.18 65.9759 363.619 66.8227 363.4 68.5164C363.29 69.4842 363.07 69.3633 358.894 64.6452C355.817 61.2579 353.949 59.4432 352.741 58.8384C351.497 58.2297 350.954 58.7521 351.461 60.041C351.926 61.2261 352.598 62.8179 353.4 64.5242L354.403 66.775C355.625 69.5173 357.418 71.967 359.663 73.9603C361.532 75.654 363.07 76.9847 362.96 77.1057C362.63 77.4686 359.883 75.7749 358.015 74.2023C356.916 73.2345 354.389 70.452 352.521 68.0325C348.565 62.9515 346.037 60.653 343.51 59.8062C341.972 59.3223 341.642 59.3223 341.092 59.6852C340.323 60.1691 340.543 60.4111 338.675 57.1447L337.963 55.9335C337.716 55.5141 337.134 55.4538 336.807 55.814C336.415 56.2456 336.35 56.8822 336.646 57.3842L337.576 58.9593C339.664 62.3467 341.312 66.3389 340.983 66.8228C340.873 66.9437 339.664 65.855 338.235 64.6452C335.378 62.1047 333.4 60.532 332.961 60.532C332.851 60.532 333.29 61.9837 334.06 63.6774C335.928 68.0325 336.038 68.5164 335.598 68.1535C333.81 67.0178 331.979 65.6452 330.751 64.6287C329.76 63.8081 328.905 62.766 328.675 61.4998C328.455 60.532 328.455 60.532 329.444 60.774C330.457 60.9969 331.382 60.1569 330.435 59.7346C330.399 59.7186 330.362 59.7021 330.323 59.6852C329.664 59.3223 328.236 59.0803 327.137 59.0803C326.786 59.0803 326.425 59.068 326.08 59.0434C324.931 58.9612 323.703 58.203 322.741 58.8384C322.29 59.0869 322.184 59.6893 322.524 60.0767L324.939 62.8306C329.884 68.6374 332.301 72.1457 333.4 75.291C333.73 76.2589 333.95 77.1057 333.84 77.2267C333.73 77.3476 332.851 76.7428 331.752 76.0169C328.236 73.4764 328.236 73.4764 325.708 75.412C323.4 77.2267 321.642 77.7106 319.115 77.2267C317.466 76.9847 316.478 76.5008 315.928 75.654C315.598 75.1701 315.379 75.291 314.06 76.2588C312.412 77.5896 312.302 77.4686 314.39 80.8559C314.576 81.1437 314.738 81.4315 314.869 81.686C315.137 82.2041 314.901 82.5889 314.39 82.3076C313.73 81.9447 313.181 82.0657 311.642 82.6705C308.236 84.0013 308.456 84.1223 308.785 82.0657C309.005 80.372 308.895 80.2511 308.236 79.7672C307.796 79.5252 306.258 79.2832 304.719 79.2832C303.181 79.2832 301.643 79.0413 301.203 78.9203C300.434 78.6783 300.434 78.6784 300.983 80.0091C301.753 81.9447 301.972 82.1867 303.84 82.7915C305.489 83.2754 306.478 84.2432 307.247 85.8159C307.577 86.5418 307.577 86.6628 306.807 87.0257C304.829 87.8725 303.291 87.5096 300.654 85.574C298.126 83.7593 295.928 82.5496 295.928 83.0335C295.928 84.0013 296.808 86.1788 297.247 86.4208C297.577 86.6628 298.786 88.3564 299.884 90.292C300.983 92.2276 302.412 94.2842 302.961 94.7681C304.06 95.7359 306.478 96.7037 308.895 97.0666C310.544 97.3086 310.544 97.1876 310.983 100.817C311.203 102.148 311.313 102.511 311.752 102.39C312.082 102.269 313.071 101.906 314.17 101.543C315.365 101.156 316.666 101.262 317.783 101.838L319.554 102.752C321.422 103.72 324.719 105.172 326.697 105.898C330.543 107.229 336.257 110.858 336.477 111.947C336.587 112.672 338.125 112.431 340.873 111.221C341.972 110.737 342.96 110.374 343.07 110.374C343.18 110.374 343.18 110.858 342.961 111.584C342.631 113.035 342.851 114.366 343.84 116.544L343.864 116.597C344.277 117.506 345.344 117.914 346.257 117.511C349.883 115.939 350.763 115.697 352.521 116.06C355.488 116.665 356.477 117.511 357.795 120.294C358.455 121.746 358.565 121.746 359.004 121.141C359.224 120.778 359.444 120.294 359.444 120.052C359.444 119.81 359.993 119.568 360.872 119.568C361.661 119.568 362.301 120.208 362.301 120.997V121.625C362.301 123.439 362.411 123.802 363.29 124.649C363.839 125.133 365.378 126.343 366.916 127.189L368.322 128.028C368.996 128.43 369.205 129.31 368.784 129.972C368.345 130.698 367.466 131.545 366.696 132.029C365.707 132.633 365.268 133.117 365.048 134.206C364.608 136.142 364.608 136.263 366.367 136.989C368.235 137.835 368.345 138.44 367.356 140.618C366.477 142.432 366.586 143.642 367.466 145.336C368.235 146.788 368.674 147.15 368.674 146.062C368.674 145.699 368.894 145.941 369.114 146.667C369.392 147.585 368.995 148.405 368.114 148.785C367.976 148.844 367.832 148.905 367.685 148.965C366.037 149.57 366.037 149.57 365.048 148.602C364.169 147.634 363.839 146.546 364.499 146.183C364.718 146.062 364.828 145.82 364.828 145.699C364.828 145.457 361.532 144.126 361.312 144.368C361.202 144.489 361.312 145.699 361.532 147.15L361.611 147.791C361.769 149.068 361.335 150.347 360.433 151.264C359.663 152.11 359.004 152.957 359.004 153.078C359.004 153.199 359.773 153.441 360.762 153.441C363.839 153.441 365.268 154.772 368.015 160.095C369.334 162.514 369.663 163.724 369.663 164.813C369.663 165.781 369.553 166.265 369.224 166.265C369.004 166.265 368.455 166.627 368.015 166.99C367.026 167.837 366.147 167.595 361.312 165.418C355.488 162.635 355.378 162.635 340.103 162.635C328.016 162.635 326.477 162.514 324.939 162.03C324.726 161.952 324.523 161.874 324.336 161.799C323.623 161.515 323.248 160.816 323.51 160.095C324.06 158.28 327.686 156.708 335.268 155.014C344.499 152.957 346.147 151.627 349.554 144.005C350.653 141.586 351.532 139.408 351.532 139.287C351.532 138.924 348.785 139.287 345.928 140.013C344.389 140.376 342.301 141.344 340.433 142.432C337.576 144.126 337.576 144.247 337.576 143.279C337.576 142.795 337.686 142.432 337.906 142.553C338.345 142.795 338.345 142.795 337.906 141.344C337.466 140.013 338.016 140.013 330.653 141.707C326.367 142.795 325.818 142.795 321.203 142.553C315.708 142.311 310.104 142.916 308.346 143.884C307.686 144.247 306.148 145.457 304.829 146.425C301.643 148.965 299.335 150.175 296.808 150.417C294.72 150.538 294.72 150.659 294.39 151.868C293.841 153.562 293.621 153.804 292.852 153.32C292.115 152.915 291.531 153.47 291.987 154.177C292.738 155.344 294.474 157.565 297.577 161.426C300.434 164.934 301.533 167.595 302.522 173.039C303.112 176.286 305.222 178.473 308.339 177.391C308.449 177.353 308.561 177.314 308.675 177.273C313.071 175.58 315.269 174.249 318.785 171.346C322.631 168.2 324.609 166.99 327.686 166.144C332.082 164.934 342.521 164.329 347.576 165.055C350.213 165.418 351.971 166.265 353.29 167.837C353.67 168.256 353.373 168.926 352.808 168.926H350.872C345.927 168.926 340.103 169.773 331.093 171.829C318.565 174.612 316.368 175.338 315.488 177.273C315.159 177.999 315.159 177.999 316.697 177.757C317.576 177.636 324.609 176.789 332.411 175.943C340.213 175.096 348.455 174.007 350.872 173.523C356.806 172.434 359.773 172.676 362.85 174.37C365.597 175.822 367.026 175.822 370.872 174.491C373.729 173.402 374.828 172.676 375.268 171.104C375.597 170.257 375.487 170.015 374.498 169.531C373.949 169.168 373.4 169.047 373.29 169.168C373.18 169.289 372.081 169.894 370.762 170.378C368.235 171.346 367.466 171.225 367.466 169.894C367.466 168.563 369.993 167.232 373.949 166.507C377.246 165.902 377.575 166.144 377.136 168.2C376.916 168.926 376.916 169.652 377.026 169.773C377.136 169.894 379.224 170.015 381.751 170.015C385.267 170.015 386.806 169.894 388.125 169.41L388.801 169.177C389.313 169.001 389.477 168.359 389.113 167.958C387.905 166.628 387.245 166.386 384.059 166.99C382.52 167.232 380.762 167.474 380.103 167.474C379.004 167.474 379.004 167.474 379.553 166.628C379.883 166.144 381.092 165.176 382.41 164.45C384.278 163.361 389.333 159.732 390.542 158.522C390.652 158.401 390.542 157.675 390.212 156.828C389.883 156.103 389.443 154.772 389.223 154.046C389.004 153.199 388.784 152.352 388.674 152.11C388.564 151.748 388.234 152.352 387.795 153.562C386.366 157.796 381.092 161.426 375.268 162.03L374.548 162.114C373.973 162.18 373.562 161.571 373.839 161.063C374.169 160.337 375.048 158.885 375.707 157.796C377.136 155.256 377.465 152.957 377.136 147.271C377.026 144.247 376.696 142.553 375.597 138.682C374.828 136.021 374.059 132.633 373.729 130.94C373.399 129.367 372.96 127.431 372.63 126.585C372.301 125.738 371.971 124.286 371.971 123.439C371.971 121.867 371.971 121.746 372.85 121.988C374.938 122.592 375.597 122.592 376.037 122.229C376.806 121.504 376.696 122.471 375.597 124.891C374.498 127.311 374.608 128.762 375.707 128.762C376.147 128.762 377.246 129.367 378.344 129.972C380.542 131.424 382.3 131.908 382.74 131.182C382.96 130.698 383.289 122.109 383.18 117.27C383.18 116.06 382.85 114.608 382.3 113.277C381.861 112.189 381.311 110.374 381.092 109.285C380.872 108.196 380.652 106.987 380.542 106.745C380.432 106.382 380.542 106.14 380.872 106.14C381.641 106.14 381.531 105.293 380.213 103.115C379.553 102.027 379.114 101.059 379.114 100.938C379.114 100.454 383.839 101.18 385.487 101.906C387.135 102.632 392.19 107.108 393.289 108.801C394.168 110.253 395.267 110.858 397.905 111.1L399.444 111.247C399.931 111.294 400.32 110.851 400.212 110.374C399.882 108.559 399.333 107.471 398.784 107.471C398.454 107.471 397.575 106.866 396.916 106.019C395.707 104.688 395.707 104.567 396.476 104.809C396.916 104.93 399.553 105.414 402.3 105.898C407.904 106.987 408.893 107.471 410.102 109.648C411.201 111.947 411.75 112.431 412.739 112.431C413.225 112.431 413.619 112.824 413.619 113.31V124.286V134.265C413.619 135.348 414.208 136.345 415.157 136.868C416.256 137.472 416.695 137.956 416.695 138.44C416.695 139.57 416.749 140.779 417.425 141.685C417.823 142.219 418.418 142.813 419.223 143.521C420.651 144.731 419.223 152.352 416.805 156.828C415.926 158.401 415.047 160.579 414.717 161.547C414.168 163.845 413.618 170.015 413.509 174.733V176.635C413.509 177.003 413.013 177.119 412.849 176.789C412.52 176.064 411.97 174.491 411.641 173.16C410.981 170.378 410.542 169.41 409.443 168.2C409.138 167.907 408.632 168.148 408.669 168.569L408.783 169.894C408.893 171.225 409.223 173.402 409.443 174.733C410.102 178.12 410.102 178.241 408.893 177.031C406.476 174.491 405.926 170.499 406.586 162.272C406.915 158.764 406.915 157.433 406.586 156.224C406.308 155.155 406.931 154.798 407.63 155.654C407.684 155.721 407.739 155.79 407.794 155.861C409.553 157.917 409.882 157.796 409.663 155.256C409.333 152.231 408.674 149.328 407.465 146.546C406.696 144.61 405.926 143.642 403.619 141.223C400.322 137.956 399.223 137.23 396.036 136.384C394.828 136.021 393.179 135.295 392.41 134.69C391.641 134.085 390.982 133.601 390.872 133.601C390.762 133.601 390.762 134.569 390.762 135.779C390.762 138.319 391.311 139.771 393.509 142.674C394.278 143.763 395.157 145.094 395.377 145.699C396.476 147.997 397.245 152.11 398.014 159.369L398.297 161.82C398.687 165.201 398.133 168.624 396.696 171.708C395.487 174.37 394.498 176.547 394.388 176.668C394.278 176.789 394.058 176.547 393.839 176.306C393.289 175.58 388.674 174.128 387.245 174.249C386.745 174.299 386.516 174.897 386.853 175.269L387.245 175.701C388.674 177.273 390.762 178.241 394.168 178.846C395.487 179.088 396.476 179.451 396.476 179.572C396.476 179.693 395.927 180.056 395.157 180.419C392.96 181.387 390.102 181.145 384.388 179.572C383.834 179.408 383.296 179.257 382.788 179.121C380.397 178.48 378.991 179.897 380.872 181.507C381.421 181.991 383.509 182.959 385.487 183.564C389.443 184.774 390.652 185.5 392.08 187.314C392.722 188.099 393.086 189.073 393.117 190.086L393.289 195.783C393.399 200.864 393.729 204.009 394.168 206.428C395.047 210.784 394.828 213.808 393.619 218.163C392.63 221.55 392.63 223.123 393.619 225.301C393.949 225.905 394.058 226.389 393.949 226.51C393.729 226.752 392.08 225.905 391.641 225.422C391.421 225.18 390.872 224.817 390.432 224.575C390.013 224.402 389.553 224.71 389.553 225.163V226.389C389.553 230.14 390.872 234.979 392.3 236.309C392.63 236.551 392.85 236.914 392.85 237.035C392.85 237.64 390.432 237.761 387.465 237.398C383.839 236.793 383.509 237.035 383.949 239.092C384.169 240.302 384.388 240.544 385.597 240.785C386.806 241.148 386.916 241.148 387.026 242.479C387.136 243.689 387.026 243.931 386.147 244.536C384.828 245.383 384.059 247.076 383.729 249.617C383.595 250.87 384.202 252.088 385.284 252.735L388.564 254.698C389.609 255.342 390.607 255.951 391.447 256.472C393.076 257.481 393.356 258.944 391.861 260.142L391.36 260.555C390.756 261.053 391.079 262.034 391.861 262.077C393.094 262.145 394.058 263.164 394.058 264.399V265.585V267.415C394.058 268.312 393.406 269.075 392.52 269.215C390.762 269.457 390.322 269.941 389.993 272.239C389.883 273.086 389.223 275.747 388.564 278.046C387.905 280.344 387.245 282.764 387.245 283.49C387.184 284.168 387.663 284.777 388.337 284.876L388.784 284.941C389.663 285.062 390.652 285.304 390.982 285.546C391.531 285.909 391.531 285.909 390.982 286.393C390.652 286.635 389.993 286.877 389.443 286.998C388.234 287.119 387.575 287.724 387.575 288.692C387.575 289.176 387.026 290.022 386.256 290.869C385.487 291.595 384.938 292.321 384.938 292.563C384.938 292.684 385.487 292.926 386.256 293.047C387.795 293.289 389.333 294.499 390.102 295.829C390.542 296.676 390.542 296.797 389.553 298.491C388.454 300.305 388.564 300.305 385.817 299.58C384.938 299.338 384.938 299.338 386.256 300.91C387.355 302.241 387.575 302.725 387.795 304.298C387.905 305.265 388.015 306.354 388.234 306.717C388.454 307.201 388.344 307.322 387.245 307.322C386.147 307.322 386.037 307.322 386.256 308.29C386.366 308.774 386.586 309.741 386.696 310.346C386.806 311.193 387.245 311.556 388.234 312.04C388.813 312.305 388.879 313.102 388.352 313.459L388.125 313.613C386.586 314.581 385.487 314.943 383.289 315.064C381.861 315.185 381.421 315.911 382.52 316.274C383.289 316.516 385.817 318.694 385.817 318.936C385.817 319.057 384.938 319.42 383.839 319.661C382.74 319.903 381.861 320.145 381.751 320.387C381.641 320.629 383.949 321.234 386.806 321.718C387.55 321.835 387.949 322.66 387.579 323.316L385.817 326.436C384.388 328.856 382.85 332.122 382.41 333.574C381.641 335.872 381.092 336.719 378.894 339.259C377.465 340.953 374.938 343.615 373.4 345.187C370.213 348.333 370.103 348.333 372.081 343.857C372.74 342.405 373.839 340.59 374.828 339.501L375.647 338.599C376.012 338.198 375.8 337.551 375.268 337.445C374.608 337.324 373.4 337.203 372.74 337.203C371.531 337.203 371.202 337.324 370.323 338.534C369.444 339.622 369.004 339.864 366.586 340.469C363.29 341.195 362.411 341.074 360.543 339.259C359.773 338.534 359.004 337.808 358.894 337.808C358.784 337.808 358.675 338.534 358.565 339.501C358.125 342.889 357.466 344.824 356.257 346.034C355.048 347.244 352.411 348.212 350.543 348.212C349.224 348.212 349.224 347.97 349.774 350.752C349.993 351.962 350.543 351.962 352.301 350.873C353.07 350.389 354.059 349.905 354.499 349.784C356.147 349.3 343.62 357.527 339.884 359.462C335.818 361.519 334.06 362.124 332.082 362.124C331.422 362.124 329.664 362.729 328.016 363.576C322.961 366.116 320.763 366.237 318.675 364.301L318.455 364.083C317.955 363.588 317.908 362.796 318.346 362.245C318.785 361.64 319.225 360.672 319.335 360.188C319.444 359.583 319.664 359.099 319.774 359.099C319.913 359.099 320.07 359.398 320.191 359.78C320.493 360.744 320.17 361.842 320.653 362.729C320.983 363.576 321.093 363.697 321.093 363.213C321.093 362.124 323.181 358.616 324.28 357.769C324.719 357.406 325.818 356.801 326.697 356.317C327.576 355.833 328.785 354.744 329.334 353.898C330.653 352.204 330.433 351.962 328.345 351.962C327.576 351.962 326.917 351.72 326.367 350.994C325.598 350.147 325.488 350.026 326.148 349.542C327.356 348.575 329.884 348.575 333.62 349.663C334.169 349.784 334.169 349.784 333.84 349.059C333.62 348.575 332.961 347.728 332.301 347.123C331.642 346.518 330.433 345.308 329.664 344.582L329.128 344.038C328.603 343.504 328.507 342.682 328.895 342.042C330.214 340.106 330.873 337.203 329.774 338.413C329.554 338.655 328.345 339.139 327.027 339.622C324.829 340.469 323.95 340.59 320.543 340.59H318.305C317.262 340.59 316.383 341.369 316.258 342.405C316.148 343.857 315.818 344.34 314.609 345.671C311.313 349.059 311.642 349.059 307.796 346.397C306.368 345.429 303.73 343.978 301.972 343.01C298.016 341.074 296.917 339.985 294.61 335.509C293.731 333.695 292.302 331.517 291.533 330.428C290.764 329.46 289.775 327.767 289.225 326.799C288.786 325.831 288.126 324.742 287.907 324.5C287.247 323.654 286.258 320.508 285.819 318.331C285.159 314.46 286.368 311.798 289.665 309.379C291.533 307.927 298.016 305.507 303.95 304.056C305.818 303.572 307.906 302.967 308.566 302.604C310.104 301.878 311.862 301.878 313.62 302.483C314.745 302.895 315.89 302.409 316.877 301.732C317.767 301.121 318.961 300.278 320.214 299.338C322.631 297.644 324.609 296.192 324.719 296.192C324.829 296.192 324.939 296.676 325.049 297.402C325.159 298.37 325.488 298.733 326.477 299.096C327.498 299.47 328.252 299.225 328.123 298.145C327.996 297.079 327.708 295.748 327.356 295.103C326.258 292.805 323.95 292.442 318.236 294.015C315.928 294.62 312.192 295.224 309.884 295.466C307.686 295.708 303.621 296.313 300.983 296.918C295.928 298.007 290.214 299.217 277.577 301.636C273.401 302.483 269.555 303.33 269.006 303.693C267.467 304.54 266.149 304.781 262.083 304.902C258.676 304.902 258.566 304.902 257.138 303.814C256.446 303.286 255.428 303.591 255.16 304.419C254.83 305.386 254.061 307.08 253.512 308.411C252.083 311.314 252.083 311.919 253.512 312.282C254.391 312.524 254.611 312.887 254.94 314.097C255.174 314.999 254.583 315.606 254.064 316.381C253.872 316.666 253.731 316.948 253.731 317.121C253.731 317.242 255.929 318.573 258.566 320.266C261.204 321.839 264.83 324.259 266.698 325.589C270.105 327.888 272.412 328.856 274.94 328.856C275.607 328.856 276.149 328.314 276.149 327.647V327.283C276.149 326.181 276.992 325.576 278.079 325.757C278.436 325.817 278.827 325.885 279.225 325.952L280.801 326.314C281.423 326.456 281.863 327.009 281.863 327.646C281.863 328.251 281.973 329.098 282.192 329.46C282.632 330.307 285.379 332.243 288.126 333.574C289.885 334.42 291.533 336.114 291.203 336.84C291.093 337.082 290.434 337.808 289.665 338.413C288.566 339.38 288.017 339.622 286.808 339.622C284.94 339.622 283.072 340.469 283.291 341.195C283.511 341.921 286.039 343.978 288.236 345.187C289.225 345.671 290.983 346.76 292.082 347.607C293.511 348.575 294.06 348.817 293.95 348.333C293.841 347.849 293.95 347.97 294.61 348.575C294.755 348.712 294.889 348.858 295.006 349.002C295.595 349.729 294.929 350.308 295.049 351.236C295.159 352.083 294.83 354.018 294.28 355.954C293.181 359.946 293.181 360.793 294.28 361.882C296.008 363.784 294.302 365.486 292.448 363.707C292.362 363.625 292.277 363.541 292.192 363.455C291.313 362.608 290.434 361.882 290.324 361.882C289.885 361.882 288.566 364.664 288.017 366.358C287.247 369.382 286.588 370.834 286.258 370.834C286.038 370.834 284.61 370.229 283.072 369.382C281.533 368.536 279.225 367.568 277.907 367.084C274.83 365.995 274.061 365.39 273.841 364.059C273.731 363.455 273.511 362.487 273.401 361.882C273.31 361.43 272.744 361.274 272.435 361.615L271.533 362.608L270.635 363.535C270.179 364.005 269.414 363.968 269.006 363.455C268.566 362.85 267.467 361.761 266.588 360.914C265.38 359.825 264.72 358.858 264.391 357.648C264.061 356.68 262.742 354.381 261.533 352.446L260.23 350.465C259.888 349.944 259.081 350.133 259.006 350.752C258.845 352.171 257.774 353.063 256.377 353.362C255.938 353.457 255.451 353.556 254.94 353.656C253.182 354.018 251.204 354.502 250.655 354.744C250.105 354.986 249.116 355.228 248.457 355.228C247.966 355.228 247.658 354.699 247.9 354.273L248.457 353.293C249.116 352.204 249.885 350.51 250.215 349.421C250.626 348.214 250.398 346.881 249.609 345.879L248.017 343.857C244.94 339.864 241.424 336.84 239.006 336.114L238.755 336.035C238.016 335.803 237.562 335.063 237.688 334.3C237.908 333.09 237.798 332.727 236.149 330.549C235.16 329.219 234.281 328.009 234.061 327.888C233.842 327.767 232.413 327.646 230.875 327.767C228.018 327.888 228.018 327.888 228.237 327.162C228.567 325.952 229.226 324.621 229.776 324.138C230.545 323.412 230.325 322.807 228.787 321.476C227.029 320.024 225.051 319.299 221.864 318.936L221.12 318.858C220.231 318.764 219.556 318.015 219.556 317.121C219.556 314.943 218.677 312.766 216.37 308.411C214.282 304.54 213.842 303.693 211.644 297.523C211.237 296.371 210.8 295.287 210.461 294.485C210.091 293.607 209.52 292.684 208.567 292.684C208.018 292.684 207.688 292.563 207.688 292.321C207.688 291.837 210.106 290.627 212.304 290.022C214.282 289.418 216.589 287.845 217.139 286.635C217.359 286.03 217.249 285.788 216.37 284.821C215.271 283.611 215.271 283.611 215.271 284.458C215.271 284.773 214.891 284.933 214.665 284.712L214.282 284.337C212.853 282.885 212.084 280.828 211.754 277.683C211.534 276.231 211.095 274.054 210.765 272.965C210.436 271.876 210.106 270.908 210.216 270.787C210.326 270.666 208.348 269.215 208.018 269.215C207.908 269.215 208.018 269.457 208.128 269.82C208.458 270.666 206.04 268.126 205.491 267.037C205.271 266.553 204.941 265.223 204.831 264.013C204.502 260.988 203.952 259.416 201.974 256.149C199.007 251.31 191.974 237.64 191.535 235.946C191.315 235.1 190.875 232.196 190.656 229.535C190.106 224.333 189.667 222.881 188.128 220.704C187.579 219.978 187.139 219.252 187.249 219.252C187.359 219.252 188.018 218.768 188.898 218.405C191.425 217.074 192.194 214.292 190.985 210.421C190.752 209.522 191.194 208.579 192.072 208.277C195.9 206.961 203.209 205.01 204.062 205.219C204.435 205.27 204.597 205.718 204.344 205.997L203.732 206.67C202.304 208.364 202.084 209.211 203.403 208.727C205.82 207.759 206.919 206.428 207.688 203.646C208.897 199.412 213.512 197.355 224.172 196.146C226.809 195.783 230.985 195.299 233.402 195.057C235.82 194.815 239.556 194.089 241.644 193.484C244.501 192.637 246.589 192.274 249.446 192.153C249.718 192.138 249.986 192.122 250.249 192.103C252.727 191.931 255.819 191.008 255.819 188.524C255.819 188.161 254.171 188.04 246.369 188.161C236.919 188.282 236.809 188.403 231.314 189.613C228.237 190.339 223.732 191.427 221.314 192.153L217.914 193.066C217.59 193.153 217.353 192.764 217.578 192.516C218.787 191.186 223.183 187.556 225.38 186.226C228.347 184.411 231.424 183.08 235.27 181.991C241.424 180.177 243.622 180.298 248.786 182.959C250.105 183.685 252.523 184.653 254.061 185.137C258.786 186.709 261.533 185.984 262.742 182.717C262.923 182.268 263.539 182.219 263.79 182.633L264.5 183.806C265.314 185.15 266.034 185.975 266.572 186.283C266.654 186.329 266.829 186.375 266.92 186.397C267.444 186.518 267.756 186.258 267.789 185.722C267.856 184.632 267.907 182.637 267.907 180.419C268.017 173.644 268.347 172.676 270.215 171.346C271.423 170.499 272.412 168.442 272.412 166.869C272.412 166.144 272.302 166.023 271.314 166.023C270.791 166.023 270.438 165.491 270.639 165.009L270.874 164.45C271.313 163.24 271.533 162.272 271.423 160.458L271.421 160.399C271.38 159.504 270.29 159.09 269.665 159.732L269.255 160.154C268.476 160.953 267.364 161.336 266.259 161.184C265.27 161.063 263.841 160.7 263.072 160.216C261.533 159.49 257.907 159.369 255.6 159.974C253.841 160.458 251.644 159.853 250.655 158.764C250.105 158.038 250.105 158.038 250.874 157.312C251.268 156.941 251.214 156.3 250.764 155.999L249.269 154.999C248.816 154.697 248.269 154.561 247.731 154.648C245.988 154.931 243.996 155.493 240.215 156.949C236.437 158.469 232.414 159.288 228.343 159.367L228.237 159.369C222.853 159.49 221.644 159.611 219.776 160.337C218.567 160.821 217.578 161.305 217.578 161.547C217.578 161.788 217.798 161.788 218.018 161.668C218.238 161.547 219.227 161.909 220.216 162.514C221.754 163.361 221.864 163.603 221.314 163.724C220.985 163.845 220.216 164.087 219.776 164.329C219.227 164.571 217.029 164.571 213.512 164.45C208.458 164.208 208.018 164.208 206.809 164.934C205.161 165.781 202.304 168.563 201.095 170.378C200.598 171.129 199.608 171.374 198.819 170.939L198.458 170.741C197.469 170.257 196.59 169.531 196.48 169.289C196.37 169.047 195.93 167.958 195.491 166.99C195.051 165.902 193.952 164.329 192.744 162.998C192.633 162.876 192.525 162.755 192.419 162.634C191.24 161.284 190.25 159.732 188.458 159.732C187.909 159.732 188.018 159.974 189.007 161.788C189.996 163.603 190.106 164.087 190.106 166.386V167.273C190.106 168.205 189.387 168.979 188.458 169.047C186.48 169.289 185.931 169.773 185.601 171.95C185.271 174.128 185.271 174.249 186.59 174.249C187.469 174.249 187.579 174.491 188.238 176.064L188.366 176.415C188.675 177.265 189.542 177.777 190.436 177.636C192.084 177.394 192.744 176.91 192.524 176.185C192.304 175.58 193.952 175.217 195.93 175.338C196.601 175.395 196.99 176.124 196.663 176.712L196.15 177.636C193.733 181.87 193.293 183.08 192.963 185.016C192.634 186.951 192.634 186.951 191.425 187.072C190.546 187.193 190.216 187.072 189.996 186.588C189.886 186.226 189.337 185.379 188.898 184.653C188.458 183.927 187.029 181.507 185.821 179.088C184.612 176.668 183.513 174.612 183.403 174.491C183.293 174.37 183.403 175.217 183.623 176.427C184.282 179.814 184.172 184.048 183.513 185.863C182.634 187.919 181.315 189.613 180.326 189.613C179.447 189.613 178.458 190.944 177.909 192.758C177.689 193.484 177.139 194.694 176.59 195.541C174.942 198.323 174.832 199.049 174.832 210.3C174.832 216.348 174.722 220.704 174.502 220.704C173.843 220.704 171.755 217.8 171.425 216.469C171.206 215.744 171.096 212.961 171.096 210.3C171.096 205.703 170.546 202.073 169.887 201.347C169.777 201.227 169.997 199.291 170.326 196.992C170.986 193.242 171.096 192.879 170.546 190.46C170.326 189.129 169.997 187.435 169.997 186.709C169.949 186.183 169.341 185.916 168.921 186.236L168.458 186.588C167.689 187.193 166.7 188.403 166.151 189.371C164.392 192.516 163.294 193.726 161.316 194.21C160.327 194.452 159.448 194.694 159.338 194.694C159.228 194.694 159.448 195.42 159.777 196.146C160.327 197.476 160.327 197.476 160.546 196.629C160.605 196.403 160.927 196.403 160.986 196.629C161.316 198.202 161.206 199.049 160.546 199.533C159.667 200.017 158.898 201.831 157.799 205.582C157.36 207.275 156.7 208.969 156.371 209.453C155.821 210.3 155.711 210.3 155.382 204.493C154.832 197.597 155.052 196.267 156.481 192.032C157.14 190.218 157.689 188.403 157.799 187.798L157.807 187.761C157.859 187.5 157.524 187.346 157.36 187.556C156.371 188.887 155.162 191.548 154.832 192.879C154.736 193.41 154.428 193.376 154.394 192.838C154.271 190.857 154.087 186.486 153.843 181.387L153.348 170.161C153.313 169.365 153.567 168.582 154.063 167.958C155.821 165.781 155.821 166.023 153.404 163.966C153.346 163.914 153.29 163.863 153.233 163.813C152.133 162.826 152.411 162.15 153.843 162.514C155.272 162.877 156.59 162.998 156.81 162.877C157.03 162.756 157.47 162.03 157.689 161.305C158.019 159.974 158.019 159.853 157.03 158.401C155.821 156.829 155.492 156.949 155.492 159.49C155.492 160.186 154.866 160.715 154.179 160.598L154.063 160.579C152.854 160.458 152.415 160.579 150.876 161.547C148.569 163.119 147.909 164.208 147.689 166.507C147.47 168.442 147.47 168.442 146.261 168.563C145.052 168.684 145.052 168.684 144.613 166.748C143.953 164.087 144.063 159.127 144.832 157.191C145.382 155.498 147.47 152.957 148.129 152.957C148.349 152.957 148.569 153.32 148.678 153.683C148.898 154.409 149.997 154.893 152.195 155.377C153.184 155.619 153.404 155.498 153.404 155.014C153.404 154.409 154.612 153.683 155.931 153.683C156.481 153.683 159.008 151.99 163.294 148.723L168.844 144.477C169.313 144.118 169.995 144.304 170.217 144.852C170.546 145.699 170.656 146.062 170.326 146.667C170.107 147.029 169.887 147.755 169.887 148.118C169.887 148.723 170.107 148.481 171.096 147.029C172.414 144.973 172.195 144.973 176.26 145.941C177.579 146.304 178.238 146.304 178.348 145.941C178.458 145.699 178.898 145.941 179.557 146.546C180.546 147.392 180.656 147.634 180.656 149.57C180.656 151.627 180.656 151.627 179.667 151.989C179.117 152.231 178.238 152.352 177.799 152.352C177.359 152.352 176.7 152.594 176.48 152.836C175.821 153.441 173.623 156.466 173.623 156.828C173.623 156.949 174.612 157.07 175.821 157.07C177.249 157.07 177.909 157.191 177.579 157.433C177.139 157.675 177.249 157.917 177.909 158.643L178.063 158.837C178.311 159.149 178.088 159.611 177.689 159.611C177.446 159.611 177.37 159.939 177.588 160.046L177.689 160.095C179.447 160.942 179.447 160.942 179.447 156.828V155.518C179.447 154.304 180.431 153.32 181.645 153.32C183.073 153.32 184.282 153.078 185.271 152.594C185.925 152.262 186.7 152.737 186.7 153.471V154.288C186.7 156.708 186.7 156.708 187.799 157.433C189.117 158.28 189.117 158.28 188.568 156.224C188.018 154.167 188.568 154.046 191.315 155.498C193.072 156.465 194.491 155.295 194.258 153.304C194.232 153.086 194.204 152.85 194.172 152.594C193.952 150.901 193.623 146.425 193.293 142.795C193.073 139.166 192.744 135.537 192.634 134.811C192.524 133.48 192.524 133.48 194.282 132.512C195.806 131.767 196.735 129.196 198.178 130.088C198.294 130.159 198.423 130.242 198.568 130.335C199.447 130.94 200.656 131.303 202.524 131.666C204.062 131.908 205.271 132.029 205.381 131.908C205.491 131.787 205.051 131.182 204.611 130.577C203.952 129.73 203.622 128.883 203.513 127.552C203.403 126.464 203.403 125.617 203.513 125.617C203.622 125.617 204.282 125.98 204.941 126.343C206.185 126.929 207.54 126.604 208.57 125.693C208.891 125.409 209.229 125.095 209.556 124.77C211.974 122.35 213.183 121.625 215.6 120.536C218.018 119.568 220.325 117.028 223.512 112.189L225.011 109.832C225.423 109.184 225.118 108.322 224.391 108.075C223.183 107.712 222.963 107.471 222.633 106.261C222.194 104.446 222.084 104.446 223.842 102.269C226.479 98.8812 226.589 98.6393 226.369 95.7359C226.259 94.2842 226.04 92.7115 225.93 92.2276C225.71 91.3808 225.82 91.2598 227.908 90.7759C229.996 90.292 230.765 89.6871 229.336 89.6871C228.457 89.6871 225.6 87.6305 222.743 84.8481C220.985 83.1544 217.798 81.0978 216.809 81.0978C216.26 81.0978 216.26 80.7349 217.578 78.0735C218.677 75.7749 218.787 75.654 219.776 75.8959C222.413 76.5008 223.183 76.8637 224.501 78.0735C225.085 78.6631 226.089 78.3962 226.303 77.5943L226.369 77.3476C226.848 75.7652 226.467 74.311 224.998 73.5532C224.872 73.4884 224.743 73.4224 224.611 73.3554C221.424 71.9037 219.446 70.694 219.007 69.8471C218.677 69.2423 219.117 69.1213 224.721 68.0325C229.056 67.2371 230.318 64.8158 226.506 62.6032C225.938 62.2733 225.339 61.9431 224.721 61.6208C224.391 61.4998 224.831 63.7983 225.27 64.1613C225.6 64.4032 223.512 65.1291 222.633 65.1291C221.974 65.1291 222.303 61.1369 223.073 59.9271C223.512 59.0803 223.732 59.0803 224.831 59.2013C227.908 59.8062 230.655 59.8062 231.864 59.4432C232.523 59.2013 234.171 58.1125 235.6 57.1447C237.028 56.0559 238.457 55.0881 239.006 54.9672C240.325 54.6042 242.083 52.4267 242.743 50.2491C243.072 49.1603 243.402 48.0715 243.402 47.8296C243.402 46.9828 243.842 46.9828 244.94 47.4667C245.929 47.9506 246.039 47.9506 245.6 48.9184C245.38 49.5233 245.05 50.3701 244.94 51.0959C244.848 51.5536 245.31 51.9252 245.737 51.7371L246.369 51.4589C248.347 50.612 250.655 50.6121 252.523 51.3379C254.171 51.9428 254.171 51.9428 254.171 51.5798C254.171 51.0959 251.973 48.7974 250.874 48.0716C250.325 47.7086 248.127 46.7408 246.039 46.015C243.951 45.1681 241.424 43.8374 240.325 43.1116C238.567 41.7808 238.017 41.5389 232.853 40.5711C231.407 40.2869 230.083 40.0028 229.085 39.7688C228.053 39.5268 227.686 38.5162 228.457 37.7886L228.762 37.4806C229.377 36.8609 229.559 35.9335 229.226 35.1272C228.457 33.4335 228.128 31.4979 228.567 31.4979C228.787 31.4979 229.226 31.7399 229.666 32.1028C230.435 32.7077 231.204 32.5867 232.303 31.7399C232.963 31.256 232.853 31.135 230.655 28.7155C229.794 27.7207 230.501 26.175 231.816 26.175H232.413H235.494C235.937 26.175 236.261 25.7568 236.149 25.3282C236.039 24.8443 235.71 23.7555 235.6 22.7877C235.347 21.6742 234.578 21.5552 233.55 22.0524C231.128 23.2239 227.74 24.1545 223.622 24.8443C220.765 25.3282 220.216 25.3282 218.787 24.8443C217.358 24.3604 217.139 24.1184 216.809 23.0296C216.26 20.9731 216.37 20.973 218.238 20.7311C219.227 20.6101 220.655 20.2472 221.314 20.0053C224.105 18.981 227.038 20.292 230.004 20.495C230.565 20.5334 231.184 20.5718 231.864 20.6101C235.27 20.7311 241.644 21.094 246.039 21.457C253.731 22.0618 254.281 22.0618 257.907 21.457C259.995 21.094 262.193 20.8521 262.632 20.8521C262.986 20.8521 263.183 20.4424 262.962 20.1661L261.863 18.7955C260.105 16.497 258.347 15.4082 257.248 15.7711C256.698 15.8921 256.259 15.6501 255.38 14.6823C254.72 13.9565 254.281 13.3516 254.391 13.2306C254.501 13.1096 255.6 13.3516 256.918 13.5935C260.215 14.1984 261.973 14.1984 263.182 13.4726C263.841 13.1096 264.94 12.8677 266.039 12.8677C269.555 12.8677 267.797 11.7789 262.962 10.8111C260.654 10.3272 258.896 9.8433 258.017 9.23843C256.589 8.27062 254.061 5.60918 254.391 5.24625C254.611 5.0043 258.457 5.9721 260.984 6.9399C263.841 8.14965 264.391 8.14965 268.566 6.9399C270.924 6.29106 274.664 5.58785 276.94 5.30417C278.246 5.14137 278.858 5.8985 278.566 7.18185L278.39 7.72573C278.206 8.29336 278.629 8.87551 279.225 8.87551C280.654 8.99649 281.094 8.27063 281.094 6.33502C281.094 4.27844 281.753 4.15746 287.027 5.00428C289.555 5.36721 292.961 5.85112 294.5 6.09307C296.148 6.33503 297.906 6.69796 298.456 7.06088C300.324 8.02869 300.654 7.66574 300.324 4.39941C300.104 1.73795 300.214 1.496 300.873 1.13307C301.862 0.528196 309.994 1.01211 313.95 1.85893C317.137 2.58479 319.444 2.82674 317.686 2.22186C317.247 2.10089 316.148 1.496 315.379 0.891126C313.62 -0.439604 311.642 -1.16545 307.137 -2.01228C305.159 -2.3752 302.741 -3.10107 301.643 -3.464C301.093 -3.70595 300.654 -3.94789 299.775 -3.94789ZM320.543 2.70576C320.164 2.70576 319.856 2.94418 320.236 2.94704C320.324 2.94771 320.427 2.9477 320.543 2.9477C320.659 2.9477 320.762 2.94395 320.85 2.93777C321.223 2.91169 320.917 2.70576 320.543 2.70576ZM323.071 3.06869C322.829 3.06869 322.48 3.36188 322.717 3.41224C322.775 3.42459 322.855 3.43162 322.961 3.43162C323.291 3.43162 323.51 3.31063 323.4 3.18965C323.291 3.06868 323.181 3.06869 323.071 3.06869ZM325.049 3.43162C324.738 3.43162 324.552 3.67069 324.862 3.67312C324.919 3.67356 324.981 3.67356 325.049 3.67356C325.11 3.67356 325.167 3.67122 325.219 3.66717C325.517 3.64408 325.347 3.43162 325.049 3.43162ZM326.917 3.79453C326.675 3.79453 326.327 4.08777 326.563 4.1381C326.621 4.15044 326.701 4.15746 326.807 4.15746C327.137 4.15746 327.356 4.03649 327.247 3.91551C327.137 3.79454 327.137 3.79453 326.917 3.79453ZM328.895 4.15746C328.584 4.15746 328.398 4.39654 328.708 4.39897C328.765 4.39941 328.827 4.39941 328.895 4.39941C328.954 4.39941 329.01 4.39719 329.061 4.39334C329.361 4.37069 329.196 4.15746 328.895 4.15746ZM330.873 4.52039C330.631 4.52039 330.283 4.81363 330.519 4.86396C330.577 4.8763 330.657 4.88332 330.763 4.88332C331.093 4.88332 331.312 4.76235 331.202 4.64137C331.093 4.5204 330.983 4.52039 330.873 4.52039ZM332.521 4.88332C332.211 4.88332 332.024 5.1224 332.335 5.12483C332.391 5.12527 332.453 5.12527 332.521 5.12527C332.582 5.12527 332.639 5.12292 332.691 5.11888C332.989 5.09578 332.82 4.88332 332.521 4.88332ZM337.356 5.97209C337.115 5.97209 336.766 6.26532 337.002 6.31565C337.06 6.328 337.14 6.33502 337.246 6.33502C337.576 6.33502 337.796 6.21405 337.686 6.09307C337.576 5.9721 337.466 5.97209 337.356 5.97209ZM338.675 6.33502C338.364 6.33502 338.178 6.5741 338.488 6.57653C338.545 6.57697 338.607 6.57697 338.675 6.57697C338.734 6.57697 338.79 6.57475 338.841 6.57091C339.141 6.54826 338.976 6.33502 338.675 6.33502ZM340.323 6.69795C340.082 6.69795 339.733 6.99115 339.969 7.0415C340.027 7.05386 340.107 7.06088 340.213 7.06088C340.543 7.06088 340.763 6.93989 340.653 6.81892C340.543 6.69794 340.433 6.69795 340.323 6.69795ZM341.642 7.06088C341.4 7.06088 341.052 7.3541 341.288 7.40443C341.346 7.41677 341.426 7.42379 341.532 7.42379C341.624 7.42379 341.708 7.41428 341.779 7.39793C342.009 7.34435 341.878 7.06088 341.642 7.06088ZM346.477 8.51258C346.235 8.51258 345.887 8.80582 346.123 8.85615C346.181 8.86849 346.261 8.87551 346.367 8.87551C346.697 8.87551 346.916 8.75452 346.807 8.63355C346.697 8.51257 346.587 8.51258 346.477 8.51258ZM348.785 9.11746C348.543 9.11746 348.194 9.41069 348.431 9.46102C348.488 9.47337 348.569 9.48039 348.675 9.48039C348.766 9.48039 348.849 9.47109 348.919 9.45507C349.142 9.40384 349.014 9.11746 348.785 9.11746ZM352.96 10.5692C352.789 10.5692 352.737 10.6017 352.771 10.6669C352.897 10.9018 353.193 10.9886 353.446 11.0728C353.481 11.0843 353.514 11.095 353.547 11.105C354.163 11.2941 353.605 10.5692 352.96 10.5692ZM356.916 12.0209C356.477 12.0209 356.477 12.1418 357.026 12.3838C357.905 12.7467 357.905 12.7467 357.686 12.3838C357.576 12.1418 357.246 12.0209 356.916 12.0209ZM268.237 13.4726C268.017 13.4726 267.028 13.9565 265.819 14.6823L265.355 14.9661C264.847 15.2767 265.01 16.0529 265.599 16.134C268.237 16.497 269.445 16.497 269.445 16.255C269.445 15.5292 268.456 13.4726 268.237 13.4726ZM368.784 16.6179C368.564 16.6179 368.674 16.7389 368.894 16.9809C369.114 17.2228 369.553 17.3438 369.663 17.3438C370.018 17.3438 369.399 16.886 369.08 16.7307C368.949 16.6664 368.833 16.6179 368.784 16.6179ZM370.982 17.7067C370.762 17.7067 370.872 17.8277 371.092 18.0696C371.312 18.3116 371.751 18.4326 371.861 18.4326C372.081 18.4326 371.971 18.3116 371.751 18.0696C371.531 17.8277 371.202 17.7067 370.982 17.7067ZM372.74 18.4326C372.52 18.4326 372.52 18.5536 372.85 18.7955C372.993 18.9002 373.11 18.9822 373.202 19.0416C373.592 19.2925 373.204 18.4326 372.74 18.4326ZM374.938 19.5213C374.718 19.5213 374.938 19.7633 375.377 20.0053C375.817 20.2472 376.366 20.4891 376.476 20.4891C376.696 20.4891 376.476 20.2472 376.037 20.0053C375.597 19.7633 375.048 19.5213 374.938 19.5213ZM379.333 21.6989C379.004 21.6989 379.224 21.9409 379.773 22.1828C381.092 22.7877 381.202 22.7877 380.432 22.1828C380.103 21.9409 379.553 21.6989 379.333 21.6989ZM382.823 23.3529C382.722 23.322 382.639 23.439 382.724 23.5017C382.729 23.5054 382.742 23.5159 382.746 23.5205C383.075 23.8795 383.511 24.1184 383.729 24.1184C384.166 24.1184 383.951 23.9986 382.974 23.4012C382.965 23.3956 382.954 23.3911 382.944 23.3882C382.902 23.3764 382.861 23.3646 382.823 23.3529ZM385.707 24.8443C385.487 24.8443 385.487 24.9653 385.817 25.2072C386.476 25.6911 386.586 25.6911 386.256 25.2072C386.147 25.0862 385.927 24.8443 385.707 24.8443ZM387.026 25.5701C386.806 25.5701 386.806 25.6911 387.136 25.933C387.278 26.0377 387.395 26.1198 387.487 26.1792C387.877 26.43 387.489 25.5701 387.026 25.5701ZM388.344 26.296C388.125 26.296 388.124 26.417 388.454 26.6589C388.597 26.7636 388.714 26.8456 388.806 26.905C389.196 27.1559 388.808 26.296 388.344 26.296ZM389.553 27.0218C389.333 27.0218 389.333 27.1428 389.663 27.3847C389.795 27.4816 389.905 27.559 389.994 27.6171C390.388 27.8747 390.024 27.0218 389.553 27.0218ZM274.83 27.6267C274.061 27.6267 273.292 27.7477 273.072 27.9896C272.742 28.3526 272.193 28.3526 270.874 28.1106C268.456 27.6267 268.456 27.6267 268.456 29.3204C268.456 30.7721 268.456 30.893 269.775 31.135C270.544 31.256 271.863 31.3769 272.742 31.3769C273.563 31.3769 274.151 32.1691 273.913 32.9545L273.841 33.1916C273.401 34.6433 273.401 35.0062 273.731 35.4901C274.171 36.095 275.05 36.216 277.357 35.853C278.182 35.7133 278.786 34.9988 278.786 34.1622V33.1916C278.786 31.8608 278.896 30.4091 279.006 29.8043C279.225 28.9574 279.116 28.7155 278.456 28.2316C277.797 27.7477 276.149 27.5057 274.83 27.6267ZM392.882 29.6946C392.508 29.2946 391.846 29.4177 391.641 29.9252C391.311 30.7721 391.311 31.4979 391.531 33.3126C392.41 39.3613 397.575 46.015 403.069 48.4345C405.597 49.5232 407.355 50.975 408.344 52.9106C408.674 53.5154 408.783 53.5155 409.663 53.0316C410.322 52.6686 411.531 52.4267 412.739 52.4267C414.075 52.4267 415.354 52.9647 416.287 53.9193L417.904 55.5721C419.552 57.3867 420.981 58.8384 421.091 58.8384C421.421 58.8384 415.377 52.5477 414.498 51.9428C413.948 51.5799 412.41 50.0072 410.871 48.5555C409.443 46.9828 404.608 42.0228 400.102 37.4257L392.882 29.6946ZM290.874 43.4745C290.434 43.4745 289.885 43.7164 289.005 44.2003L288.957 44.2271C288.241 44.6214 288.269 45.6601 289.005 46.015C289.14 46.0809 289.271 46.1446 289.396 46.2054C290.128 46.5612 290.999 46.1983 291.203 45.4101C291.643 44.2003 291.533 43.4745 290.874 43.4745ZM296.478 46.015C296.171 46.015 295.889 46.1771 295.589 46.2449C295.013 46.3755 294.121 46.5582 293.291 46.7408C292.411 46.9561 292.093 48.0427 292.719 48.6983L293.621 49.6442C294.83 50.9749 296.478 52.4267 297.137 52.7896C299.005 53.8784 299.335 53.7574 299.884 51.8218C300.147 50.811 301.028 50.0826 302.07 50.0151L302.192 50.0072L302.732 49.9722C303.479 49.9238 304.06 49.3039 304.06 48.5555C304.06 47.8595 303.434 47.3307 302.748 47.447L302.632 47.4667C301.862 47.5877 300.764 48.0716 300.104 48.5555C299.445 49.0394 298.456 49.5232 297.906 49.6442C297.342 49.7685 296.808 49.3388 296.808 48.761V48.0716C296.808 46.3779 296.808 46.015 296.478 46.015ZM422.519 60.4111C422.447 60.3424 422.339 60.4408 422.4 60.5197L422.41 60.532C422.959 61.2579 423.289 61.4998 423.289 61.2579C423.289 61.1369 422.959 60.774 422.519 60.4111ZM423.618 62.1047C423.47 61.941 423.388 62.0278 423.503 62.2169C423.505 62.2198 423.507 62.2227 423.508 62.2257C423.785 62.6823 424.147 62.5954 423.758 62.2309C423.715 62.1908 423.668 62.1488 423.618 62.1047ZM424.278 63.1935C424.168 63.1935 424.388 63.6774 424.827 64.2823C425.157 64.8871 425.596 65.371 425.706 65.371C425.816 65.371 425.596 64.8871 425.157 64.2823C424.717 63.6774 424.388 63.1935 424.278 63.1935ZM426.256 66.2179C426.199 66.1425 426.082 66.2161 426.126 66.3L426.146 66.3389C426.366 66.8228 427.025 68.0325 427.464 68.8793C427.904 69.8472 428.453 70.573 428.563 70.573C428.783 70.573 427.025 67.1857 426.256 66.2179ZM428.893 71.1779C428.783 71.0569 428.783 71.1779 428.893 71.1779C428.783 71.2988 428.783 71.5408 428.893 71.7827C429.028 72.0303 429.144 72.1563 429.22 72.1773C429.595 72.2816 428.893 71.1779 428.893 71.1779ZM430.431 74.4442C430.272 74.0942 429.941 74.1805 430.089 74.5353C430.093 74.5452 430.097 74.5552 430.102 74.5652C430.431 75.1701 430.651 75.0491 430.431 74.4442ZM430.828 75.5136C430.745 75.3664 430.563 75.3525 430.586 75.5202C430.605 75.6566 430.66 75.8586 430.761 76.1379C430.871 76.5008 430.981 76.6218 431.091 76.5008C431.186 76.3961 431.116 76.1102 430.953 75.7999C430.902 75.7028 430.882 75.6089 430.828 75.5136ZM214.721 131.061C214.611 131.061 213.952 131.666 213.293 132.27C211.754 133.722 210.655 133.843 210.106 132.633C209.447 131.182 208.677 131.666 208.238 133.722C208.018 134.69 207.798 135.9 207.798 136.384C207.798 136.883 208.257 137.257 208.746 137.156L211.315 136.626L212.459 136.389C213.854 136.101 214.876 134.903 214.941 133.48C214.941 132.15 214.831 131.061 214.721 131.061ZM244.831 170.378C247.578 170.378 249.995 170.499 251.424 170.983C252.633 171.346 255.27 172.434 257.138 173.402C260.544 175.217 260.654 175.217 260.874 176.668C261.094 178.362 260.984 178.483 258.457 179.33C256.589 180.056 257.138 180.177 251.753 177.757C249.666 176.91 249.116 176.789 245.38 176.789C239.666 176.789 233.732 178.12 224.062 181.749C217.249 184.29 215.271 185.258 211.425 188.161C209.666 189.492 207.578 190.944 206.699 191.307C205.71 191.79 204.282 192.032 202.194 192.153L200.743 192.213C200.001 192.243 199.452 191.533 199.667 190.823C200.326 188.645 200.546 188.403 200.985 189.129C201.205 189.492 201.535 189.613 201.754 189.492C202.414 189.008 203.403 186.467 203.622 184.774C203.952 181.87 205.491 180.782 215.271 176.548C223.402 172.918 223.842 172.797 228.237 172.192C230.765 171.829 234.501 171.225 236.479 170.983C239.226 170.62 242.193 170.378 244.831 170.378ZM165.491 205.703C165.711 205.824 166.151 205.945 166.37 205.945C166.59 205.945 166.7 206.549 166.81 207.638C166.81 209.09 167.25 210.421 168.568 213.203C168.678 213.445 167.579 213.445 166.48 213.203C164.942 212.84 164.063 212.235 163.843 211.509C163.403 210.179 164.942 205.461 165.491 205.703ZM443.838 213.445C444.277 213.445 444.277 214.05 444.277 215.381V215.558C444.277 216.529 443.49 217.316 442.519 217.316C440.981 217.316 440.761 217.195 440.871 216.711C440.981 216.348 441.091 215.623 441.2 215.139C441.31 214.413 441.75 214.05 442.629 213.808C443.288 213.566 443.618 213.445 443.838 213.445ZM313.511 217.437C312.924 217.373 312.412 217.832 312.412 218.422V219.131C312.412 220.704 312.302 220.945 311.642 221.066C311.093 221.187 311.203 221.308 312.412 221.671C313.181 221.913 314.28 222.639 314.719 223.123C315.075 223.613 315.791 224.102 316.4 224.463C316.669 224.623 317.114 224.811 317.409 224.912C318.054 225.132 318.178 224.721 317.832 224.134C317.251 223.148 316.216 221.667 315.708 221.187C315.379 220.825 315.049 220.22 315.049 219.736C315.049 217.921 314.719 217.437 313.511 217.437ZM270.105 225.422C269.665 225.422 269.006 225.422 268.237 225.422C264.061 225.543 263.621 225.905 263.621 228.325C263.621 230.986 264.171 232.68 265.709 234.132C266.478 234.858 267.138 235.463 267.248 235.463C267.797 235.463 270.105 232.196 270.324 231.228C270.764 229.051 271.423 226.268 271.643 225.785C271.753 225.543 271.533 225.422 270.105 225.422ZM329.334 233.043C329.005 233.043 329.005 233.406 329.005 234.858C329.005 236.046 329.668 237.136 330.725 237.681L332.521 238.608C334.389 239.576 339.005 242.479 342.631 245.02C346.257 247.56 350.763 250.464 352.521 251.552C360.872 256.633 365.268 260.746 367.466 265.464C368.784 268.247 369.663 269.336 371.092 270.062C372.958 270.918 373.7 268.793 372.917 266.895C372.698 266.365 372.452 265.798 372.191 265.223C370.542 261.593 369.993 259.658 370.542 259.053C370.857 258.706 371.679 259.605 371.6 259.144C371.558 258.904 371.426 258.484 371.202 257.843L371.1 257.563C370.936 257.111 371.27 256.633 371.751 256.633C372.301 256.633 374.279 256.875 376.147 257.117C378.015 257.359 379.993 257.601 380.432 257.601C380.835 257.601 381.097 257.176 380.915 256.816L380.762 256.512C379.773 254.577 378.125 252.641 377.246 252.52C376.806 252.399 375.158 252.641 373.619 253.004C369.883 253.972 369.224 253.972 369.224 252.883C369.224 252.157 368.674 251.673 366.477 250.222C365.048 249.254 363.07 248.286 362.301 248.044C361.422 247.802 356.037 245.262 350.103 242.358C340.44 237.605 332.7 234.016 330.213 233.177C329.945 233.087 329.617 233.043 329.334 233.043ZM309.445 235.221C308.016 235.1 306.588 235.825 303.95 237.519C302.082 238.608 299.884 239.939 299.005 240.302C295.049 241.995 286.258 243.81 282.522 243.81C280.214 243.81 277.467 242.237 275.05 239.334L274.011 238.126C273.58 237.626 272.774 237.756 272.522 238.366C272.108 239.43 270.83 239.752 270.276 240.75C269.694 241.8 268.978 243.566 268.127 246.108L268.025 246.407C267.46 248.065 266.22 249.407 264.61 250.101C262.735 250.894 262.2 252.271 263.312 253.977C264.638 256.012 266.463 258.653 267.358 259.779C268.017 260.504 268.237 260.625 270.105 260.383C272.852 260.021 275.269 259.295 278.017 257.843L278.834 257.434C279.798 256.952 280.959 257.115 281.753 257.843C283.401 259.295 286.039 260.867 287.797 261.23C292.852 262.561 298.236 260.383 304.719 254.214C308.346 250.826 309.225 250.463 318.236 249.375L319.301 249.249C322.293 248.896 324.661 246.555 325.049 243.568C325.708 238.729 325.708 238.487 325.159 238.487C324.17 238.487 322.851 239.213 321.862 240.181C321.347 240.748 320.509 240.888 319.837 240.518L318.565 239.818C317.247 239.092 314.939 237.761 313.401 236.914C311.752 235.825 310.544 235.221 309.445 235.221ZM443.165 244.642C443.113 244.585 443.027 244.588 443 244.66C442.977 244.719 442.959 244.798 442.959 244.899C442.959 245.262 443.069 245.504 443.178 245.383C443.285 245.265 443.288 244.917 443.187 244.675C443.181 244.663 443.174 244.652 443.165 244.642ZM442.491 247.113C442.439 247.054 442.378 247.11 442.348 247.182C442.323 247.242 442.299 247.328 442.299 247.439C442.299 247.802 442.409 248.044 442.519 247.923C442.621 247.811 442.628 247.492 442.542 247.253C442.528 247.216 442.518 247.142 442.491 247.113ZM442.299 248.77C442.299 248.566 442.109 248.615 442.016 248.796C442 248.825 441.985 248.857 441.97 248.891C441.86 249.254 441.64 249.859 441.64 250.101C441.64 250.555 442.045 249.762 442.176 249.328C442.245 249.102 442.299 248.891 442.299 248.77ZM254.098 256.233C253.957 255.613 253.592 255.415 252.983 255.599C251.297 256.108 247.901 257.498 246.479 258.327C244.061 259.658 240.435 262.44 236.919 265.464C225.27 275.626 226.259 274.901 224.281 274.901C223.614 274.901 223.073 275.442 223.073 276.109V276.957C223.073 278.772 222.963 278.893 222.633 278.409C221.754 277.199 218.567 277.925 218.567 279.377C218.567 281.554 219.556 283.974 221.754 286.393C222.963 287.724 224.281 288.934 224.611 289.055C225.49 289.297 225.49 289.418 224.941 291.353C224.721 292.2 224.501 292.926 224.611 293.047C224.721 293.168 226.04 293.047 227.688 292.805C231.204 292.321 232.853 292.684 234.611 294.378C235.701 295.378 237.112 295.827 238.589 295.734C240.557 295.61 243.64 295.239 247.578 294.62C257.687 293.047 264.061 291.474 275.16 287.966C282.742 285.546 287.357 284.337 289.995 284.095C291.863 283.853 292.302 283.732 292.412 283.127C292.522 282.522 292.302 282.401 289.005 282.643C287.027 282.764 283.841 283.248 281.753 283.611C279.665 283.974 275.709 284.458 272.962 284.7C268.566 285.062 267.577 285.062 265.38 284.579C261.643 283.732 259.665 283.853 255.709 285.062C251.534 286.393 240.215 288.208 236.259 288.329C232.743 288.329 231.754 287.845 231.754 286.03C231.754 284.458 232.963 281.433 234.611 278.772C237.248 274.417 245.16 266.069 251.534 260.746C253.769 258.821 254.113 258.503 254.239 257.368C254.275 257.044 254.171 256.551 254.098 256.233ZM364.389 269.336C364.128 268.545 363.38 268.018 362.548 268.037L358.675 268.126C352.85 268.247 351.422 268.731 349.114 270.908C348.455 271.513 347.246 272.36 346.367 272.844C344.829 273.691 344.719 273.691 344.389 272.965C343.84 271.997 341.972 271.997 339.664 273.207C337.796 274.175 336.257 274.417 330.104 275.143C326.148 275.505 325.708 275.747 325.378 276.594C325.159 277.199 324.829 277.32 322.521 277.32C321.093 277.32 319.115 277.199 318.126 276.957C316.368 276.594 316.148 276.594 311.862 278.167C306.697 280.103 303.291 280.828 298.786 281.191C296.038 281.433 295.599 281.433 295.599 282.038C295.599 282.522 295.819 282.643 296.588 282.643C298.786 282.643 304.5 281.796 307.027 281.191C308.566 280.828 310.763 280.224 311.862 279.982C313.291 279.619 317.027 279.377 323.071 279.135C332.521 278.772 334.939 278.53 345.928 276.231C349.334 275.505 353.29 275.022 356.697 274.78C364.828 274.296 366.257 273.328 364.389 269.336ZM160.533 278.728C160.345 278.108 159.553 277.929 159.118 278.409C157.579 280.102 157.799 281.433 160.327 286.393C161.645 289.176 162.964 291.232 164.063 292.442C164.942 293.41 165.821 294.136 165.931 294.136C166.261 294.136 164.832 289.66 163.074 285.788C162.195 283.853 161.206 281.07 160.876 279.861L160.533 278.728ZM342.631 295.829C342.521 295.829 341.972 295.829 341.092 295.95C339.994 296.071 338.235 296.071 337.136 296.071C334.499 295.829 332.082 296.918 330.323 299.338C328.675 301.636 327.906 301.515 324.719 298.975C324.06 298.491 323.95 298.491 322.411 301.515C321.532 303.209 320.763 304.781 320.763 304.902C320.763 305.023 321.313 305.991 322.082 306.838C322.741 307.685 323.51 309.137 323.73 309.862C323.991 310.725 324.786 311.314 325.686 311.314H327.027C328.785 311.314 330.323 311.072 330.983 310.83C332.191 310.346 333.4 308.653 334.06 306.717C334.499 305.386 335.818 304.781 338.235 304.781C339.664 304.781 339.664 304.781 339.444 303.814C339.334 303.209 339.114 301.999 339.005 301.031C338.785 299.338 338.785 299.217 339.994 298.007C340.433 297.524 341.018 297.04 341.489 296.664C341.879 296.354 343.129 295.829 342.631 295.829ZM166.59 297.523C166.48 297.644 166.59 298.007 166.81 298.37C167.359 299.459 167.579 299.338 167.14 298.249C166.92 297.765 166.7 297.402 166.59 297.523ZM168.788 301.394C168.719 301.292 168.562 301.38 168.613 301.493L168.678 301.636C169.085 302.382 169.376 302.352 168.934 301.627C168.889 301.552 168.84 301.474 168.788 301.394ZM170.311 304.165C170.23 304.106 170.101 304.222 170.151 304.309C170.172 304.344 170.194 304.381 170.217 304.419C170.23 304.448 170.244 304.477 170.258 304.505C170.49 304.959 170.785 304.727 170.461 304.333C170.421 304.283 170.378 304.233 170.332 304.183C170.328 304.179 170.316 304.169 170.311 304.165ZM173.184 309.5C173.108 309.389 172.998 309.454 173.053 309.576C173.06 309.59 173.067 309.605 173.074 309.621C173.293 310.104 173.623 310.709 173.733 310.951C173.843 311.193 174.063 311.435 174.173 311.435C174.392 311.435 173.843 310.346 173.184 309.5ZM174.914 312.245C174.605 311.873 174.462 311.965 174.708 312.38C174.713 312.388 174.717 312.395 174.722 312.403C174.942 312.766 175.161 313.129 175.271 313.129C175.37 313.129 175.292 312.839 175.118 312.519C175.076 312.441 174.971 312.313 174.914 312.245ZM253.284 314.2C253.269 314.167 253.055 314.158 253.037 314.19C253.013 314.233 252.988 314.283 252.962 314.339C252.852 314.701 252.633 315.306 252.633 315.548C252.633 315.675 252.646 315.742 252.672 315.762C252.921 315.942 253.009 315.279 253.103 314.987C253.197 314.692 253.289 314.384 253.292 314.224C253.292 314.22 253.286 314.204 253.284 314.2ZM329.664 325.952C329.482 325.952 329.252 326.005 328.997 326.097C326.707 326.916 326.141 329.471 326.477 331.88C326.511 332.142 326.545 332.393 326.579 332.63C326.778 334.026 327.791 334.543 329.115 334.058C330.763 333.574 331.093 333.332 331.642 331.88L331.809 331.481C332.118 330.744 332.056 329.903 331.642 329.219C331.203 328.614 330.763 327.646 330.543 327.041C330.323 326.436 329.994 325.952 329.664 325.952ZM237.908 350.873C238.754 350.958 242.833 352.881 245.58 354.401C247.204 355.299 247.686 356.926 246.918 358.616C246.205 360.187 244.979 360.356 243.901 359.01C241.533 356.053 237.688 351.079 237.688 350.994C237.688 350.873 237.798 350.873 237.908 350.873ZM298.286 352.429C298.756 352.274 299.218 352.682 299.124 353.167L299.005 353.777C298.676 355.107 298.566 355.47 297.906 355.47C297.467 355.47 296.808 355.591 296.478 355.833C295.819 356.196 295.819 356.196 296.038 354.865C296.364 353.191 296.69 352.699 298.183 352.454C298.218 352.449 298.253 352.44 298.286 352.429ZM306.807 468.098C300.434 468.219 297.687 470.518 282.302 482.736C278.017 486.124 273.731 489.632 272.852 490.479C272.256 491.047 272.659 492.051 273.482 492.051H362.208C362.654 492.051 362.86 491.495 362.521 491.205C361.971 490.721 359.993 488.906 358.345 487.212C354.609 483.583 349.664 479.47 342.851 474.268C340.213 472.212 337.246 470.034 336.367 469.308C334.829 468.098 334.609 468.098 333.29 468.34C331.422 468.703 320.983 468.703 312.192 468.34C309.994 468.098 308.346 468.098 306.807 468.098ZM301.739 480.196C301.724 480.196 301.721 480.218 301.736 480.222L302.961 480.559C304.28 480.922 304.61 481.406 305.049 483.099C305.269 484.067 305.269 484.067 303.511 484.067C302.54 484.067 301.753 483.28 301.753 482.309V482.132V480.209C301.753 480.202 301.747 480.196 301.739 480.196ZM313.95 483.099C314.17 483.099 314.719 483.22 315.269 483.341C316.368 483.704 316.587 483.946 316.807 484.793C316.917 485.398 317.027 486.003 317.027 486.245C317.027 486.608 316.038 486.608 315.049 486.366C314.576 486.261 313.776 484.273 313.845 483.491C313.857 483.348 313.807 483.099 313.95 483.099Z" fill="black"/>
</svg>
