<svg width="1982" height="1033" viewBox="0 0 1982 1033" fill="none" xmlns="http://www.w3.org/2000/svg">
<path d="M40 42C40 40.8954 40.8954 40 42 40H1940C1941.1 40 1942 40.8954 1942 42V991C1942 992.105 1941.1 993 1940 993H42C40.8955 993 40 992.105 40 991V42Z" fill="white"/>
<path d="M917.578 368.661L869.238 516H830.298L896.338 338.266H921.118L917.578 368.661ZM957.739 516L909.277 368.661L905.371 338.266H930.396L996.802 516H957.739ZM955.542 449.838V478.524H861.67V449.838H955.542ZM1107.5 452.646H1062.21V424.081H1107.5C1114.49 424.081 1120.19 422.942 1124.58 420.663C1128.98 418.303 1132.19 415.048 1134.23 410.897C1136.26 406.747 1137.28 402.068 1137.28 396.859C1137.28 391.57 1136.26 386.646 1134.23 382.089C1132.19 377.532 1128.98 373.869 1124.58 371.103C1120.19 368.336 1114.49 366.952 1107.5 366.952H1074.9V516H1038.28V338.266H1107.5C1121.41 338.266 1133.33 340.788 1143.26 345.834C1153.27 350.798 1160.92 357.675 1166.21 366.464C1171.5 375.253 1174.15 385.303 1174.15 396.615C1174.15 408.09 1171.5 418.018 1166.21 426.4C1160.92 434.783 1153.27 441.252 1143.26 445.81C1133.33 450.367 1121.41 452.646 1107.5 452.646ZM1293.63 452.646H1248.34V424.081H1293.63C1300.63 424.081 1306.32 422.942 1310.72 420.663C1315.11 418.303 1318.33 415.048 1320.36 410.897C1322.4 406.747 1323.41 402.068 1323.41 396.859C1323.41 391.57 1322.4 386.646 1320.36 382.089C1318.33 377.532 1315.11 373.869 1310.72 371.103C1306.32 368.336 1300.63 366.952 1293.63 366.952H1261.04V516H1224.41V338.266H1293.63C1307.54 338.266 1319.47 340.788 1329.39 345.834C1339.4 350.798 1347.05 357.675 1352.34 366.464C1357.63 375.253 1360.28 385.303 1360.28 396.615C1360.28 408.09 1357.63 418.018 1352.34 426.4C1347.05 434.783 1339.4 441.252 1329.39 445.81C1319.47 450.367 1307.54 452.646 1293.63 452.646ZM1524.8 487.436V516H1435.33V487.436H1524.8ZM1447.17 338.266V516H1410.55V338.266H1447.17ZM1690.06 487.436V516H1595.46V487.436H1690.06ZM1607.42 338.266V516H1570.8V338.266H1607.42ZM1677.73 410.653V438.485H1595.46V410.653H1677.73ZM1689.94 338.266V366.952H1595.46V338.266H1689.94Z" fill="black"/>
<path d="M778.557 608.83C768.754 630.387 757.15 650.229 743.706 668.472C725.381 693.341 710.377 710.556 698.813 720.115C680.888 735.807 661.682 743.843 641.116 744.3C626.352 744.3 608.547 740.301 587.821 732.188C567.027 724.114 547.917 720.115 530.444 720.115C512.119 720.115 492.465 724.114 471.443 732.188C450.388 740.301 433.428 744.528 420.46 744.947C400.738 745.747 381.08 737.482 361.458 720.115C348.935 709.718 333.27 691.894 314.505 666.644C294.371 639.679 277.818 608.411 264.85 572.764C250.962 534.259 244 496.974 244 460.877C244 419.528 253.387 383.864 272.188 353.979C286.965 329.974 306.622 311.038 331.226 297.137C355.829 283.236 382.413 276.152 411.041 275.699C426.706 275.699 447.248 280.311 472.775 289.375C498.231 298.47 514.575 303.082 521.741 303.082C527.099 303.082 545.256 297.689 576.037 286.938C605.146 276.967 629.713 272.838 649.839 274.465C704.375 278.654 745.347 299.117 772.595 335.984C723.821 364.113 699.694 403.513 700.174 454.056C700.614 493.424 715.618 526.185 745.107 552.198C758.471 564.271 773.395 573.601 790 580.228C786.399 590.169 782.598 599.69 778.557 608.83ZM653.48 140.344C653.48 171.201 641.637 200.012 618.03 226.679C589.541 258.381 555.083 276.7 517.716 273.81C517.24 270.108 516.964 266.211 516.964 262.117C516.964 232.495 530.512 200.792 554.571 174.872C566.583 161.747 581.859 150.835 600.384 142.13C618.87 133.554 636.355 128.812 652.8 128C653.28 132.125 653.48 136.251 653.48 140.344Z" fill="#666666"/>
<path d="M833.506 555.344H848.594C851.836 555.344 854.6 555.832 856.885 556.809C859.17 557.785 860.918 559.23 862.129 561.145C863.359 563.039 863.975 565.383 863.975 568.176C863.975 570.305 863.584 572.18 862.803 573.801C862.021 575.422 860.918 576.789 859.492 577.902C858.066 578.996 856.367 579.846 854.395 580.451L852.168 581.535H838.604L838.545 575.705H848.711C850.469 575.705 851.934 575.393 853.105 574.768C854.277 574.143 855.156 573.293 855.742 572.219C856.348 571.125 856.65 569.895 856.65 568.527C856.65 567.043 856.357 565.754 855.771 564.66C855.205 563.547 854.326 562.697 853.135 562.111C851.943 561.506 850.43 561.203 848.594 561.203H840.859V598H833.506V555.344ZM857.852 598L847.832 578.84L855.537 578.811L865.703 597.619V598H857.852ZM905.219 592.17V598H882.572V592.17H905.219ZM884.652 555.344V598H877.299V555.344H884.652ZM902.26 573.156V578.898H882.572V573.156H902.26ZM905.072 555.344V561.203H882.572V555.344H905.072ZM929.617 598H920.506L920.564 592.17H929.617C932.254 592.17 934.461 591.594 936.238 590.441C938.035 589.289 939.383 587.639 940.281 585.49C941.199 583.342 941.658 580.783 941.658 577.814V575.5C941.658 573.195 941.395 571.154 940.867 569.377C940.359 567.6 939.598 566.105 938.582 564.895C937.586 563.684 936.355 562.766 934.891 562.141C933.445 561.516 931.775 561.203 929.881 561.203H920.33V555.344H929.881C932.713 555.344 935.301 555.822 937.645 556.779C939.988 557.717 942.01 559.074 943.709 560.852C945.428 562.629 946.746 564.758 947.664 567.238C948.582 569.719 949.041 572.492 949.041 575.559V577.814C949.041 580.881 948.582 583.654 947.664 586.135C946.746 588.615 945.428 590.744 943.709 592.521C941.99 594.279 939.939 595.637 937.557 596.594C935.193 597.531 932.547 598 929.617 598ZM924.578 555.344V598H917.225V555.344H924.578ZM990.344 592.17V598H967.697V592.17H990.344ZM969.777 555.344V598H962.424V555.344H969.777ZM987.385 573.156V578.898H967.697V573.156H987.385ZM990.197 555.344V561.203H967.697V555.344H990.197ZM1024.79 587.014C1024.79 586.135 1024.65 585.354 1024.38 584.67C1024.13 583.986 1023.67 583.361 1023 582.795C1022.34 582.229 1021.4 581.682 1020.19 581.154C1019 580.607 1017.48 580.051 1015.62 579.484C1013.59 578.859 1011.71 578.166 1010 577.404C1008.3 576.623 1006.81 575.725 1005.54 574.709C1004.27 573.674 1003.29 572.492 1002.58 571.164C1001.88 569.816 1001.53 568.264 1001.53 566.506C1001.53 564.768 1001.89 563.186 1002.61 561.76C1003.36 560.334 1004.4 559.104 1005.75 558.068C1007.12 557.014 1008.73 556.203 1010.58 555.637C1012.44 555.051 1014.49 554.758 1016.73 554.758C1019.9 554.758 1022.62 555.344 1024.91 556.516C1027.21 557.688 1028.98 559.26 1030.21 561.232C1031.46 563.205 1032.09 565.383 1032.09 567.766H1024.79C1024.79 566.359 1024.49 565.119 1023.88 564.045C1023.3 562.951 1022.4 562.092 1021.19 561.467C1020 560.842 1018.48 560.529 1016.65 560.529C1014.91 560.529 1013.46 560.793 1012.31 561.32C1011.16 561.848 1010.3 562.561 1009.73 563.459C1009.17 564.357 1008.88 565.373 1008.88 566.506C1008.88 567.307 1009.07 568.039 1009.44 568.703C1009.81 569.348 1010.38 569.953 1011.14 570.52C1011.9 571.066 1012.86 571.584 1014.01 572.072C1015.16 572.561 1016.52 573.029 1018.08 573.479C1020.45 574.182 1022.51 574.963 1024.26 575.822C1026.02 576.662 1027.49 577.619 1028.66 578.693C1029.83 579.768 1030.71 580.988 1031.29 582.355C1031.88 583.703 1032.17 585.236 1032.17 586.955C1032.17 588.752 1031.81 590.373 1031.09 591.818C1030.37 593.244 1029.33 594.465 1027.98 595.48C1026.66 596.477 1025.05 597.248 1023.18 597.795C1021.32 598.322 1019.25 598.586 1016.97 598.586C1014.92 598.586 1012.9 598.312 1010.9 597.766C1008.93 597.219 1007.13 596.389 1005.51 595.275C1003.89 594.143 1002.6 592.736 1001.65 591.057C1000.69 589.357 1000.21 587.375 1000.21 585.109H1007.56C1007.56 586.496 1007.8 587.678 1008.27 588.654C1008.76 589.631 1009.43 590.432 1010.29 591.057C1011.15 591.662 1012.14 592.111 1013.28 592.404C1014.43 592.697 1015.66 592.844 1016.97 592.844C1018.69 592.844 1020.12 592.6 1021.28 592.111C1022.45 591.623 1023.33 590.939 1023.91 590.061C1024.5 589.182 1024.79 588.166 1024.79 587.014ZM1052.53 555.344V598H1045.18V555.344H1052.53ZM1100.42 576.203V592.492C1099.82 593.293 1098.87 594.172 1097.58 595.129C1096.31 596.066 1094.62 596.877 1092.51 597.561C1090.4 598.244 1087.78 598.586 1084.63 598.586C1081.96 598.586 1079.51 598.137 1077.28 597.238C1075.05 596.32 1073.13 594.982 1071.51 593.225C1069.91 591.467 1068.67 589.328 1067.79 586.809C1066.91 584.27 1066.47 581.379 1066.47 578.137V575.178C1066.47 571.955 1066.87 569.084 1067.67 566.564C1068.49 564.025 1069.66 561.877 1071.19 560.119C1072.71 558.361 1074.54 557.033 1076.69 556.135C1078.86 555.217 1081.31 554.758 1084.05 554.758C1087.54 554.758 1090.43 555.344 1092.72 556.516C1095.02 557.668 1096.8 559.27 1098.05 561.32C1099.3 563.371 1100.09 565.715 1100.42 568.352H1093.22C1092.98 566.867 1092.52 565.539 1091.84 564.367C1091.18 563.195 1090.22 562.277 1088.97 561.613C1087.74 560.93 1086.14 560.588 1084.16 560.588C1082.46 560.588 1080.97 560.91 1079.68 561.555C1078.39 562.199 1077.32 563.146 1076.46 564.396C1075.62 565.646 1074.98 567.17 1074.55 568.967C1074.12 570.764 1073.91 572.814 1073.91 575.119V578.137C1073.91 580.48 1074.15 582.561 1074.64 584.377C1075.15 586.193 1075.87 587.727 1076.81 588.977C1077.77 590.227 1078.93 591.174 1080.3 591.818C1081.66 592.443 1083.21 592.756 1084.93 592.756C1086.61 592.756 1087.98 592.619 1089.06 592.346C1090.13 592.053 1090.98 591.711 1091.61 591.32C1092.25 590.91 1092.75 590.52 1093.1 590.148V581.682H1084.22V576.203H1100.42ZM1148.41 555.344V598H1141.05L1121.92 567.443V598H1114.57V555.344H1121.92L1141.11 585.959V555.344H1148.41Z" fill="black"/>
</svg>
