<?xml version="1.0" encoding="utf-8"?>

<!DOCTYPE svg PUBLIC "-//W3C//DTD SVG 1.1//EN" "http://www.w3.org/Graphics/SVG/1.1/DTD/svg11.dtd">
<svg version="1.1" id="Layer_1" xmlns="http://www.w3.org/2000/svg" xmlns:xlink="http://www.w3.org/1999/xlink" x="0px" y="0px"
	 viewBox="0 0 1233.1193 1658.1227" enable-background="new 0 0 1233.1193 1658.1227" xml:space="preserve">
<g>
	<linearGradient id="SVGID_1_" gradientUnits="userSpaceOnUse" x1="450.4595" y1="1379.4518" x2="770.7167" y2="1379.4518">
		<stop  offset="0" style="stop-color:#FFFFFF"/>
		<stop  offset="1" style="stop-color:#000000"/>
	</linearGradient>
	<polygon fill="url(#SVGID_1_)" points="491.2495,1629.0613 527.4462,1530.5771 519.9128,1414.2703 609.3938,1297.7797 
		701.2633,1415.0052 695.9349,1537.9268 732.3152,1627.5914 744.9932,1528.556 770.7167,1431.5417 716.8812,1181.8403 
		647.7952,1129.8422 569.1549,1129.8422 499.5178,1180.1866 450.4595,1430.0718 477.4691,1528.7397 	"/>
	<linearGradient id="SVGID_2_" gradientUnits="userSpaceOnUse" x1="547.5808" y1="1376.5425" x2="672.7837" y2="1376.5425">
		<stop  offset="0" style="stop-color:#FFFFFF"/>
		<stop  offset="1" style="stop-color:#000000"/>
	</linearGradient>
	<polygon fill="url(#SVGID_2_)" points="609.4549,1297.5959 672.7837,1379.0536 610.588,1455.4891 547.5808,1378.3187 	"/>
	<linearGradient id="SVGID_3_" gradientUnits="userSpaceOnUse" x1="572.2173" y1="1181.5953" x2="643.263" y2="1181.5953">
		<stop  offset="0" style="stop-color:#FFFFFF"/>
		<stop  offset="1" style="stop-color:#000000"/>
	</linearGradient>
	<polygon fill="url(#SVGID_3_)" points="643.263,1129.8422 608.9651,1233.3485 572.2173,1129.8422 	"/>
	<linearGradient id="SVGID_4_" gradientUnits="userSpaceOnUse" x1="321.8421" y1="1262.9305" x2="900.6202" y2="1262.9305">
		<stop  offset="0" style="stop-color:#FFFFFF"/>
		<stop  offset="1" style="stop-color:#000000"/>
	</linearGradient>
	<polygon fill="url(#SVGID_4_)" points="450.4595,1430.0718 426.2059,1504.3636 321.8421,1348.9204 448.0096,1019.415 
		456.3391,1062.2875 549.3111,1126.9636 669.9664,1127.576 762.4484,1063.2675 770.7167,1020.2725 900.6202,1352.7177 
		796.0114,1506.446 770.7167,1431.5417 716.8812,1181.8403 647.7952,1129.8422 569.1549,1129.8422 499.5178,1180.1866 	"/>
	<linearGradient id="SVGID_5_" gradientUnits="userSpaceOnUse" x1="448.6063" y1="1069.3921" x2="770.7167" y2="1069.3921">
		<stop  offset="0" style="stop-color:#FFFFFF"/>
		<stop  offset="1" style="stop-color:#000000"/>
	</linearGradient>
	<polygon fill="url(#SVGID_5_)" points="448.6063,1018.8182 546.1106,1027.1478 609.3326,1011.208 672.5388,1027.7445 
		770.7167,1020.2725 762.4484,1063.2675 669.9664,1127.576 549.3111,1126.9636 456.3391,1062.2875 	"/>
	<linearGradient id="SVGID_6_" gradientUnits="userSpaceOnUse" x1="568.4957" y1="1028.4182" x2="650.8122" y2="1028.4182">
		<stop  offset="0" style="stop-color:#FFFFFF"/>
		<stop  offset="1" style="stop-color:#000000"/>
	</linearGradient>
	<polygon fill="url(#SVGID_6_)" points="568.4957,1021.7895 583.7316,1045.6284 634.566,1045.6284 650.8122,1022.0602 
		609.3326,1011.208 	"/>
	<linearGradient id="SVGID_7_" gradientUnits="userSpaceOnUse" x1="315.595" y1="1153.6364" x2="448.0096" y2="1153.6364">
		<stop  offset="0" style="stop-color:#FFFFFF"/>
		<stop  offset="1" style="stop-color:#000000"/>
	</linearGradient>
	<polygon fill="url(#SVGID_7_)" points="321.8421,1348.9204 316.7893,1366.0387 315.595,1024.1921 381.1898,941.234 
		395.4296,959.4241 396.882,975.5189 443.2761,1017.9626 448.0096,1019.415 	"/>
	<linearGradient id="SVGID_8_" gradientUnits="userSpaceOnUse" x1="770.7167" y1="1149.7664" x2="907.5564" y2="1149.7664">
		<stop  offset="0" style="stop-color:#FFFFFF"/>
		<stop  offset="1" style="stop-color:#000000"/>
	</linearGradient>
	<polygon fill="url(#SVGID_8_)" points="900.6202,1352.7177 907.5564,1359.6538 904.6625,1023.8247 835.8752,939.879 
		823.1742,957.6098 823.1742,977.5225 777.0557,1019.415 770.7167,1020.2725 	"/>
	<linearGradient id="SVGID_9_" gradientUnits="userSpaceOnUse" x1="835.9441" y1="1171.7346" x2="1038.0571" y2="1171.7346">
		<stop  offset="0" style="stop-color:#FFFFFF"/>
		<stop  offset="1" style="stop-color:#000000"/>
	</linearGradient>
	<polygon fill="url(#SVGID_9_)" points="907.5564,1359.6538 909.256,1434.6653 1038.0571,1224.6515 993.041,1017.9451 
		857.6253,908.804 835.9441,938.7535 838.2408,942.2446 904.6625,1023.8247 	"/>
	<linearGradient id="SVGID_10_" gradientUnits="userSpaceOnUse" x1="857.6253" y1="1046.4858" x2="1094.2813" y2="1046.4858">
		<stop  offset="0" style="stop-color:#FFFFFF"/>
		<stop  offset="1" style="stop-color:#000000"/>
	</linearGradient>
	<polygon fill="url(#SVGID_10_)" points="1038.0571,1224.6515 1055.451,1283.0194 1094.2813,1163.8339 928.671,809.9524 
		857.6253,908.804 993.041,1017.9451 	"/>
	<linearGradient id="SVGID_11_" gradientUnits="userSpaceOnUse" x1="928.671" y1="995.6514" x2="1125.5168" y2="995.6514">
		<stop  offset="0" style="stop-color:#FFFFFF"/>
		<stop  offset="1" style="stop-color:#000000"/>
	</linearGradient>
	<polygon fill="url(#SVGID_11_)" points="1094.2813,1163.8339 1125.5168,1208.0538 1085.7068,930.2403 948.5148,783.249 
		928.671,809.9524 	"/>
	<linearGradient id="SVGID_12_" gradientUnits="userSpaceOnUse" x1="924.5063" y1="802.7989" x2="1160.5743" y2="802.7989">
		<stop  offset="0" style="stop-color:#FFFFFF"/>
		<stop  offset="1" style="stop-color:#000000"/>
	</linearGradient>
	<polygon fill="url(#SVGID_12_)" points="948.5148,783.249 1085.7068,930.2403 1160.5743,1003.638 1150.5054,856.2546 
		1013.436,754.8307 935.3469,601.9598 924.5063,679.1302 	"/>
	<linearGradient id="SVGID_13_" gradientUnits="userSpaceOnUse" x1="935.3469" y1="700.6889" x2="1131.1515" y2="700.6889">
		<stop  offset="0" style="stop-color:#FFFFFF"/>
		<stop  offset="1" style="stop-color:#000000"/>
	</linearGradient>
	<polygon fill="url(#SVGID_13_)" points="1129.647,840.8206 1131.1515,771.1223 1046.754,634.4203 941.5328,560.5573 
		935.3469,601.9598 1013.436,754.8307 	"/>
	<linearGradient id="SVGID_14_" gradientUnits="userSpaceOnUse" x1="905.765" y1="686.1123" x2="1211.5067" y2="686.1123">
		<stop  offset="0" style="stop-color:#FFFFFF"/>
		<stop  offset="1" style="stop-color:#000000"/>
	</linearGradient>
	<polygon fill="url(#SVGID_14_)" points="1131.1515,771.1223 1211.5067,900.5358 1171.0841,546.2869 976.137,471.6888 
		905.765,525.7081 941.5328,560.5573 1046.754,634.4203 	"/>
	<linearGradient id="SVGID_15_" gradientUnits="userSpaceOnUse" x1="822.7148" y1="487.1229" x2="1171.0841" y2="487.1229">
		<stop  offset="0" style="stop-color:#FFFFFF"/>
		<stop  offset="1" style="stop-color:#000000"/>
	</linearGradient>
	<polygon fill="url(#SVGID_15_)" points="1171.0841,546.2869 1118.7185,467.2791 1017.2946,459.0108 938.4705,427.9589 
		822.7148,447.8027 905.765,525.7081 976.137,471.6888 	"/>
	<linearGradient id="SVGID_16_" gradientUnits="userSpaceOnUse" x1="779.7199" y1="346.4706" x2="1184.4971" y2="346.4706">
		<stop  offset="0" style="stop-color:#FFFFFF"/>
		<stop  offset="1" style="stop-color:#000000"/>
	</linearGradient>
	<polygon fill="url(#SVGID_16_)" points="822.7148,447.8027 806.7296,431.2662 779.7199,431.2662 918.9941,331.1284 
		1003.3304,222.9061 1094.6487,264.7986 1184.4971,470.0352 1118.7185,467.2791 1017.2946,459.0108 938.4705,427.9589 	"/>
	<linearGradient id="SVGID_17_" gradientUnits="userSpaceOnUse" x1="186.7939" y1="1171.6428" x2="381.1898" y2="1171.6428">
		<stop  offset="0" style="stop-color:#FFFFFF"/>
		<stop  offset="1" style="stop-color:#000000"/>
	</linearGradient>
	<polygon fill="url(#SVGID_17_)" points="316.7893,1366.0387 316.7893,1432.4604 186.7939,1223.7328 228.8701,1019.415 
		360.0598,910.8251 381.1898,941.234 315.595,1024.1921 	"/>
	<linearGradient id="SVGID_18_" gradientUnits="userSpaceOnUse" x1="133.3258" y1="1050.3444" x2="360.0598" y2="1050.3444">
		<stop  offset="0" style="stop-color:#FFFFFF"/>
		<stop  offset="1" style="stop-color:#000000"/>
	</linearGradient>
	<polygon fill="url(#SVGID_18_)" points="186.7939,1223.7328 173.0135,1287.4291 133.3258,1166.1613 288.7691,813.2597 
		360.0598,910.8251 228.8701,1019.415 	"/>
	<linearGradient id="SVGID_19_" gradientUnits="userSpaceOnUse" x1="105.9487" y1="999.9386" x2="288.7691" y2="999.9386">
		<stop  offset="0" style="stop-color:#FFFFFF"/>
		<stop  offset="1" style="stop-color:#000000"/>
	</linearGradient>
	<polygon fill="url(#SVGID_19_)" points="133.3258,1166.1613 105.9487,1211.4224 139.7567,937.2836 272.0488,788.455 
		288.7691,813.2597 	"/>
	<linearGradient id="SVGID_20_" gradientUnits="userSpaceOnUse" x1="71.4057" y1="810.7792" x2="293.73" y2="810.7792">
		<stop  offset="0" style="stop-color:#FFFFFF"/>
		<stop  offset="1" style="stop-color:#000000"/>
	</linearGradient>
	<polygon fill="url(#SVGID_20_)" points="139.7567,937.2836 71.4057,1012.6166 75.6317,867.4628 207.7401,762.9152 
		279.7659,608.9419 293.73,686.296 272.0488,788.455 	"/>
	<linearGradient id="SVGID_21_" gradientUnits="userSpaceOnUse" x1="94.7406" y1="709.3174" x2="279.7659" y2="709.3174">
		<stop  offset="0" style="stop-color:#FFFFFF"/>
		<stop  offset="1" style="stop-color:#000000"/>
	</linearGradient>
	<polygon fill="url(#SVGID_21_)" points="98.2485,849.5644 94.7406,783.494 174.4834,643.1174 273.1512,569.0705 279.7659,608.9419 
		207.7401,762.9152 	"/>
	<linearGradient id="SVGID_22_" gradientUnits="userSpaceOnUse" x1="21.6125" y1="695.7586" x2="310.2054" y2="695.7586">
		<stop  offset="0" style="stop-color:#FFFFFF"/>
		<stop  offset="1" style="stop-color:#000000"/>
	</linearGradient>
	<polygon fill="url(#SVGID_22_)" points="94.7406,783.494 21.6125,910.8251 50.7657,560.0673 239.6495,480.692 310.2054,532.6289 
		273.1512,569.0705 174.4834,643.1174 	"/>
	<linearGradient id="SVGID_23_" gradientUnits="userSpaceOnUse" x1="50.7657" y1="498.0554" x2="386.3345" y2="498.0554">
		<stop  offset="0" style="stop-color:#FFFFFF"/>
		<stop  offset="1" style="stop-color:#000000"/>
	</linearGradient>
	<polygon fill="url(#SVGID_23_)" points="50.7657,560.0673 100.6203,478.6709 197.0833,470.2189 276.2748,436.0434 
		386.3345,452.7637 310.2054,532.6289 239.6495,480.692 	"/>
	<linearGradient id="SVGID_24_" gradientUnits="userSpaceOnUse" x1="34.4742" y1="360.1592" x2="431.7181" y2="360.1592">
		<stop  offset="0" style="stop-color:#FFFFFF"/>
		<stop  offset="1" style="stop-color:#000000"/>
	</linearGradient>
	<polygon fill="url(#SVGID_24_)" points="100.6203,478.6709 34.4742,485.2855 119.3616,277.8441 207.7401,235.0329 
		292.4438,339.5804 431.7181,436.0434 403.606,436.0434 386.3345,452.7637 276.2748,436.0434 197.0833,470.2189 	"/>
	<linearGradient id="SVGID_25_" gradientUnits="userSpaceOnUse" x1="176.872" y1="420.3337" x2="586.9776" y2="420.3337">
		<stop  offset="0" style="stop-color:#FFFFFF"/>
		<stop  offset="1" style="stop-color:#000000"/>
	</linearGradient>
	<polygon fill="url(#SVGID_25_)" points="207.7401,235.0329 176.872,197.1826 256.676,212.8004 296.3024,245.506 391.4792,275.8229 
		483.7162,436.0434 550.4135,480.692 586.9776,584.6884 528.1811,643.4849 443.8449,595.1614 352.7103,604.3484 273.1512,569.0705 
		403.606,436.0434 431.7181,436.0434 292.4438,339.5804 	"/>
	<linearGradient id="SVGID_26_" gradientUnits="userSpaceOnUse" x1="338.2868" y1="511.6469" x2="430.2482" y2="511.6469">
		<stop  offset="0" style="stop-color:#FFFFFF"/>
		<stop  offset="1" style="stop-color:#000000"/>
	</linearGradient>
	<polygon fill="url(#SVGID_26_)" points="395.3274,444.4852 430.2482,578.8087 338.2868,502.6506 	"/>
	<linearGradient id="SVGID_27_" gradientUnits="userSpaceOnUse" x1="273.1512" y1="702.0976" x2="467.9417" y2="702.0976">
		<stop  offset="0" style="stop-color:#FFFFFF"/>
		<stop  offset="1" style="stop-color:#000000"/>
	</linearGradient>
	<polygon fill="url(#SVGID_27_)" points="293.73,686.296 381.9248,835.1246 461.8513,735.3544 448.6221,709.3174 467.9417,689.9978 
		387.9882,638.5239 352.7103,604.3484 273.1512,569.0705 	"/>
	<linearGradient id="SVGID_28_" gradientUnits="userSpaceOnUse" x1="389.3589" y1="664.7021" x2="505.3362" y2="664.7021">
		<stop  offset="0" style="stop-color:#FFFFFF"/>
		<stop  offset="1" style="stop-color:#000000"/>
	</linearGradient>
	<polygon fill="url(#SVGID_28_)" points="467.9417,689.9978 505.3362,684.0299 486.6389,650.3444 389.3589,639.4063 	"/>
	<linearGradient id="SVGID_29_" gradientUnits="userSpaceOnUse" x1="352.7103" y1="676.8947" x2="543.9214" y2="676.8947">
		<stop  offset="0" style="stop-color:#FFFFFF"/>
		<stop  offset="1" style="stop-color:#000000"/>
	</linearGradient>
	<polygon fill="url(#SVGID_29_)" points="461.8513,735.3544 513.5432,758.628 543.9214,703.6287 528.1811,643.4849 
		443.8449,595.1614 352.7103,604.3484 389.3589,639.4063 486.6389,650.3444 505.3362,684.0299 467.9417,689.9978 448.6221,709.3174 
			"/>
	<linearGradient id="SVGID_30_" gradientUnits="userSpaceOnUse" x1="272.0488" y1="822.8601" x2="395.4296" y2="822.8601">
		<stop  offset="0" style="stop-color:#FFFFFF"/>
		<stop  offset="1" style="stop-color:#000000"/>
	</linearGradient>
	<polygon fill="url(#SVGID_30_)" points="395.4296,959.4241 392.0305,888.2253 381.9248,835.1246 293.73,686.296 272.0488,788.455 	
		"/>
	<linearGradient id="SVGID_31_" gradientUnits="userSpaceOnUse" x1="381.9248" y1="831.2686" x2="513.5432" y2="831.2686">
		<stop  offset="0" style="stop-color:#FFFFFF"/>
		<stop  offset="1" style="stop-color:#000000"/>
	</linearGradient>
	<polygon fill="url(#SVGID_31_)" points="393.8903,927.1828 465.1586,844.3729 513.5432,758.628 461.8513,735.3544 
		381.9248,835.1246 392.0305,888.2253 	"/>
	<linearGradient id="SVGID_32_" gradientUnits="userSpaceOnUse" x1="393.8903" y1="921.8127" x2="609.3326" y2="921.8127">
		<stop  offset="0" style="stop-color:#FFFFFF"/>
		<stop  offset="1" style="stop-color:#000000"/>
	</linearGradient>
	<polygon fill="url(#SVGID_32_)" points="609.3326,1011.208 595.9808,956.3313 535.2244,935.5075 501.7839,883.0806 
		481.2361,815.881 465.1586,844.3729 393.8903,927.1828 396.882,975.5189 443.2761,1017.9626 545.5138,1027.7445 	"/>
	<linearGradient id="SVGID_33_" gradientUnits="userSpaceOnUse" x1="609.3326" y1="921.8127" x2="823.1742" y2="921.8127">
		<stop  offset="0" style="stop-color:#FFFFFF"/>
		<stop  offset="1" style="stop-color:#000000"/>
	</linearGradient>
	<polygon fill="url(#SVGID_33_)" points="609.3326,1011.208 672.5388,1027.7445 770.7167,1020.2725 777.0557,1019.415 
		823.1742,977.5225 823.1742,927.1828 752.5266,844.1279 735.0713,815.881 716.2534,882.7131 681.787,935.9974 621.5206,956.3925 	
		"/>
	<linearGradient id="SVGID_34_" gradientUnits="userSpaceOnUse" x1="501.7839" y1="946.9605" x2="716.2534" y2="946.9605">
		<stop  offset="0" style="stop-color:#FFFFFF"/>
		<stop  offset="1" style="stop-color:#000000"/>
	</linearGradient>
	<polygon fill="url(#SVGID_34_)" points="501.7839,883.0806 595.2458,902.1895 609.3326,921.8128 622.4393,902.4467 
		716.2534,882.7131 681.787,935.9974 621.5206,956.3925 609.3326,1011.208 595.9808,956.3313 535.2244,935.5075 	"/>
	<linearGradient id="SVGID_35_" gradientUnits="userSpaceOnUse" x1="501.7839" y1="880.5817" x2="716.2534" y2="880.5817">
		<stop  offset="0" style="stop-color:#FFFFFF"/>
		<stop  offset="1" style="stop-color:#000000"/>
	</linearGradient>
	<polygon fill="url(#SVGID_35_)" points="501.7839,883.0806 607.3727,839.3506 716.2534,882.7131 622.4393,902.4467 
		609.3326,921.8128 595.2458,902.1895 	"/>
	<linearGradient id="SVGID_36_" gradientUnits="userSpaceOnUse" x1="167.0113" y1="245.1385" x2="1044.6716" y2="245.1385">
		<stop  offset="0" style="stop-color:#FFFFFF"/>
		<stop  offset="1" style="stop-color:#000000"/>
	</linearGradient>
	<polygon fill="url(#SVGID_36_)" points="256.676,212.8004 187.7126,155.5963 167.0113,44.2505 438.7002,164.1708 
		503.2538,290.7058 605.7802,355.0145 706.3468,288.011 770.7167,155.8413 1044.6716,29.0613 1024.6442,142.2446 913.6657,236.5028 
		817.9376,269.0246 747.5656,395.0696 605.8415,461.2157 461.3515,397.1947 391.4792,275.8229 296.3024,245.506 	"/>
	<linearGradient id="SVGID_37_" gradientUnits="userSpaceOnUse" x1="461.3515" y1="639.0751" x2="747.5656" y2="639.0751">
		<stop  offset="0" style="stop-color:#FFFFFF"/>
		<stop  offset="1" style="stop-color:#000000"/>
	</linearGradient>
	<polygon fill="url(#SVGID_37_)" points="501.7839,883.0806 481.2361,815.881 543.9214,703.6287 528.1811,643.4849 
		586.9776,584.6884 550.4135,480.692 483.7162,436.0434 461.3515,397.1947 605.8415,461.2157 747.5656,395.0696 726.4356,432.9199 
		660.8407,479.7733 625.9303,584.3209 686.9317,643.4849 670.2114,702.0976 735.0713,815.881 716.2534,882.7131 607.3727,839.3506 	
		"/>
	<linearGradient id="SVGID_38_" gradientUnits="userSpaceOnUse" x1="378.5563" y1="210.718" x2="829.0845" y2="210.718">
		<stop  offset="0" style="stop-color:#FFFFFF"/>
		<stop  offset="1" style="stop-color:#000000"/>
	</linearGradient>
	<polygon fill="url(#SVGID_38_)" points="438.7002,164.1708 431.7181,103.1694 378.5563,77.201 438.7002,85.0405 542.3903,141.2034 
		605.8415,335.9056 665.2198,138.9679 767.8381,77.201 829.0845,66.4216 776.9025,96.3098 770.7167,155.8413 706.3468,288.011 
		605.7802,355.0145 503.2538,290.7058 	"/>
	<linearGradient id="SVGID_39_" gradientUnits="userSpaceOnUse" x1="555.9038" y1="258.2951" x2="652.6419" y2="258.2951">
		<stop  offset="0" style="stop-color:#FFFFFF"/>
		<stop  offset="1" style="stop-color:#000000"/>
	</linearGradient>
	<polygon fill="url(#SVGID_39_)" points="555.9038,182.6702 603.8204,216.4752 652.6419,180.6845 605.8415,335.9056 	"/>
	<linearGradient id="SVGID_40_" gradientUnits="userSpaceOnUse" x1="625.9303" y1="413.6273" x2="1034.0148" y2="413.6273">
		<stop  offset="0" style="stop-color:#FFFFFF"/>
		<stop  offset="1" style="stop-color:#000000"/>
	</linearGradient>
	<polygon fill="url(#SVGID_40_)" points="1003.3304,222.9061 1034.0148,183.7697 955.5154,200.9581 913.6657,236.5028 
		817.9376,269.0246 726.4356,432.9199 660.8407,479.7733 625.9303,584.3209 686.9317,643.4849 769.9818,592.0379 860.3813,600.1224 
		941.5328,560.5573 806.7296,431.2662 779.7199,431.2662 918.9941,331.1284 	"/>
	<linearGradient id="SVGID_41_" gradientUnits="userSpaceOnUse" x1="782.8435" y1="507.6817" x2="874.8968" y2="507.6817">
		<stop  offset="0" style="stop-color:#FFFFFF"/>
		<stop  offset="1" style="stop-color:#000000"/>
	</linearGradient>
	<polygon fill="url(#SVGID_41_)" points="874.8968,497.2285 782.8435,575.3176 815.2164,440.0457 	"/>
	<linearGradient id="SVGID_42_" gradientUnits="userSpaceOnUse" x1="823.1742" y1="818.37" x2="948.5148" y2="818.37">
		<stop  offset="0" style="stop-color:#FFFFFF"/>
		<stop  offset="1" style="stop-color:#000000"/>
	</linearGradient>
	<polygon fill="url(#SVGID_42_)" points="823.1742,957.6098 823.1742,927.1828 834.7192,831.5112 924.5063,679.1302 
		948.5148,783.249 	"/>
	<linearGradient id="SVGID_43_" gradientUnits="userSpaceOnUse" x1="701.6059" y1="830.4724" x2="834.7192" y2="830.4724">
		<stop  offset="0" style="stop-color:#FFFFFF"/>
		<stop  offset="1" style="stop-color:#000000"/>
	</linearGradient>
	<polygon fill="url(#SVGID_43_)" points="823.1742,927.1828 752.5266,844.1279 735.0713,815.881 701.6059,757.1728 753.139,733.762 
		834.7192,831.5112 	"/>
	<linearGradient id="SVGID_44_" gradientUnits="userSpaceOnUse" x1="747.5656" y1="696.0342" x2="941.5328" y2="696.0342">
		<stop  offset="0" style="stop-color:#FFFFFF"/>
		<stop  offset="1" style="stop-color:#000000"/>
	</linearGradient>
	<polygon fill="url(#SVGID_44_)" points="753.139,733.762 765.7557,705.5886 747.5656,687.3985 826.2059,634.8491 
		860.3813,600.1224 941.5328,560.5573 924.5063,679.1302 834.7192,831.5112 	"/>
	<linearGradient id="SVGID_45_" gradientUnits="userSpaceOnUse" x1="670.2114" y1="674.6053" x2="860.3813" y2="674.6053">
		<stop  offset="0" style="stop-color:#FFFFFF"/>
		<stop  offset="1" style="stop-color:#000000"/>
	</linearGradient>
	<polygon fill="url(#SVGID_45_)" points="747.5656,687.3985 711.0015,681.7026 729.2835,648.1395 826.2059,634.8491 
		860.3813,600.1224 769.9818,592.0379 686.9317,643.4849 670.2114,702.0976 701.6059,757.1728 753.139,733.762 765.7557,705.5886 	
		"/>
	<linearGradient id="SVGID_46_" gradientUnits="userSpaceOnUse" x1="711.0015" y1="661.1238" x2="826.2059" y2="661.1238">
		<stop  offset="0" style="stop-color:#FFFFFF"/>
		<stop  offset="1" style="stop-color:#000000"/>
	</linearGradient>
	<polygon fill="url(#SVGID_46_)" points="747.5656,687.3985 711.0015,681.7026 729.2835,648.1395 826.2059,634.8491 	"/>
</g>
</svg>
