<?xml version="1.0" encoding="UTF-8"?>
<!DOCTYPE svg PUBLIC "-//W3C//DTD SVG 1.1//EN" "http://www.w3.org/Graphics/SVG/1.1/DTD/svg11.dtd">
<!-- Creator: CorelDRAW -->
<svg xmlns="http://www.w3.org/2000/svg" xml:space="preserve" width="210mm" height="297mm" version="1.1" style="shape-rendering:geometricPrecision; text-rendering:geometricPrecision; image-rendering:optimizeQuality; fill-rule:evenodd; clip-rule:evenodd"
viewBox="0 0 21000 29700"
 xmlns:xlink="http://www.w3.org/1999/xlink"
 xmlns:xodm="http://www.corel.com/coreldraw/odm/2003">
 <defs>
  <style type="text/css">
   <![CDATA[
    .str0 {stroke:#333333;stroke-width:18;stroke-linejoin:bevel;stroke-miterlimit:22.9256}
    .fil0 {fill:none}
   ]]>
  </style>
 </defs>
 <g id="Layer_x0020_1">
  <metadata id="CorelCorpID_0Corel-Layer"/>
  <g id="Geometric_x0020_Polygon_x0020_butterfly--geometric-polygone-butterfly-butterflies-clipart-wall_x0020_decor.dxf">
   <path class="fil0 str0" d="M16993.08 8179.14c0,0 -551.25,3237.73 -551.25,3237.73 0,0 0,0 -0.01,0 -683.48,2070.52 -1043.21,3147.73 -1043.21,3147.73 0,0 0,0 0,0 -0.01,0 -2137.52,1214.19 -2137.52,1214.19 0,0 0,0 0,0 0,0 2113.91,625.13 2113.91,625.13 0,0 0,0 0,0 251.37,74.29 108.23,167.7 39.79,313.97 0,0 0,0 0,0 -0.01,0 -1602.17,3419.93 -1602.17,3419.93 0,0 0,0 0,0 0,0 395.68,1450.92 395.68,1450.92 0,0 0,0 0,0 40.71,235.47 -15.26,263.45 -167.86,83.95 0,0 0,0 0,0 -463.67,-903.37 -713.49,-1400.02 -713.49,-1400.02 0,0 0,0 0,0 -0.01,0 -1630.89,-494.64 -1630.89,-494.64 0,0 0,0 0,0 0,0 -593.61,-917.27 -593.61,-917.27 0,0 0,0 0,0 0,0 -602.27,311.41 -602.27,311.41 0,0 0,0 0,0 0,0 -602.27,-311.41 -602.27,-311.41 0,0 0,0 0,0 0,0 -593.61,917.27 -593.61,917.27 0,0 0,0 0,0 -0.01,0 -1630.89,494.64 -1630.89,494.64 0,0 0,0 0,0 0,0 -249.82,496.65 -713.49,1400.02 0,0 0,0 0,0 -152.6,179.5 -208.57,151.52 -167.86,-83.95 0,0 0,0 0,0 0,0 395.68,-1450.92 395.68,-1450.92 0,0 0,0 0,0 -0.01,0 -1602.17,-3419.93 -1602.17,-3419.93 0,0 0,0 0,0 -68.44,-146.27 -211.58,-239.68 39.79,-313.97 0,0 0,0 0,0 0,0 2113.91,-625.13 2113.91,-625.13 0,0 0,0 0,0 -0.01,0 -2137.52,-1214.19 -2137.52,-1214.19 0,0 0,0 0,0 0,0 -359.73,-1077.21 -1043.22,-3147.73 0,0 0,0 0,0 0,0 -551.25,-3237.73 -551.25,-3237.73 0,0 0,0 0,0 -58.96,-346.71 13.89,-316.47 254.17,-133.55 0,0 0,0 0,0 0,0 4853.77,3695.07 4853.77,3695.07 0,0 0,0 0,0 0,0 707.94,1913.04 707.94,1913.04 0,0 0,0 0,0 0,0 290.77,-311.74 290.77,-311.74 0,0 0,0 0,0 0,0 -644.47,-2095.42 -644.47,-2095.42 0,0 0,0 0,0 -69.66,-4.46 -126.33,-57.79 -135.01,-127.05 0,0 0,0 0,0 -8.67,-69.26 33.1,-134.93 99.5,-156.44 0,0 0,0 0,0 66.41,-21.51 138.74,7.21 172.32,68.39 0,0 0,0 0,0 33.56,61.21 18.93,137.62 -34.89,182.08 0,0 0,0 0,0 0,0 611.6,2038.54 611.6,2038.54 0,0 0,0 0,0 0,0 317.2,-334.23 317.2,-334.23 0,0 0,0 0,0 0,0 317.2,334.23 317.2,334.23 0,0 0,0 0,0 0,0 611.6,-2038.54 611.6,-2038.54 0,0 0,0 0,0 -53.82,-44.46 -68.45,-120.87 -34.89,-182.08 0,0 0,0 0,0 33.58,-61.18 105.91,-89.9 172.32,-68.39 0,0 0,0 0,0 66.4,21.51 108.17,87.18 99.5,156.44 0,0 0,0 0,0 -8.68,69.26 -65.35,122.59 -135.01,127.05 0,0 0,0 0,0 0,0 -644.47,2095.42 -644.47,2095.42 0,0 0,0 0,0 0,0 290.77,311.74 290.77,311.74 0,0 0,0 0,0 0,0 707.94,-1913.04 707.94,-1913.04 0,0 0,0 0,0 0,0 4853.77,-3695.07 4853.77,-3695.07 0,0 0,0 0,0 240.28,-182.92 313.13,-213.16 254.17,133.55z"/>
   <path class="fil0 str0" d="M14309.54 10047.61c0,0 2344.31,-1780.75 2344.31,-1780.75 0,0 0,0 0,0 0,0 -1948.6,3045.84 -1948.6,3045.84 0,0 0,0 0,0 0,0 -395.71,-1265.09 -395.71,-1265.09z"/>
   <path class="fil0 str0" d="M14201.53 10131.6c0,0 425.7,1307.05 425.7,1307.05 0,0 0,0 0,0 0,0 -2482.21,263.83 -2482.21,263.83 0,0 0,0 0,0 0,0 2056.51,-1570.88 2056.51,-1570.88z"/>
   <path class="fil0 str0" d="M11989.12 11846.46c0,0 2560.18,-299.77 2560.18,-299.77 0,0 0,0 0,0 0,0 -1648.84,2560.17 -1648.84,2560.17 0,0 0,0 0,0 0,0 -911.34,-2260.4 -911.34,-2260.4z"/>
   <path class="fil0 str0" d="M11905.04 12002.55c0,0 899.35,2194.43 899.35,2194.43 0,0 0,0 0,0 0,0 -2170.39,1199.2 -2170.39,1199.2 0,0 0,0 0,0 0,0 1271.04,-3393.63 1271.04,-3393.63z"/>
   <path class="fil0 str0" d="M10568.46 13147.23c0,0 542.61,569.61 542.61,569.61 0,0 0,0 0,0 0,0 -530.75,1468.93 -530.75,1468.93 0,0 0,0 0,0 0,0 -11.86,-2038.54 -11.86,-2038.54z"/>
   <path class="fil0 str0" d="M10431.9 13147.23c0,0 -11.86,2038.54 -11.86,2038.54 0,0 0,0 0,0 0,0 -530.75,-1468.93 -530.75,-1468.93 0,0 0,0 0,0 0,0 542.61,-569.61 542.61,-569.61z"/>
   <path class="fil0 str0" d="M16833.68 8278.91c0,0 -485.64,2967.87 -485.64,2967.87 0,0 0,0 0,0 0,0 -1528.91,137.9 -1528.91,137.9 0,0 0,0 0,0 0,0 2014.55,-3105.77 2014.55,-3105.77z"/>
   <path class="fil0 str0" d="M16258.01 11510.74c0,0 -965.32,2973.89 -965.32,2973.89 0,0 0,0 0,0 0,0 -2248.38,-227.85 -2248.38,-227.85 0,0 0,0 0,0 0,0 3213.7,-2746.04 3213.7,-2746.04z"/>
   <path class="fil0 str0" d="M14687.19 11540.63c0,0 1540.91,-173.9 1540.91,-173.9 0,0 0,0 0,0 0,0 -3087.8,2644.09 -3087.8,2644.09 0,0 0,0 0,0 0,0 1546.89,-2470.19 1546.89,-2470.19z"/>
   <path class="fil0 str0" d="M12930.35 14412.78c0,0 2182.43,179.88 2182.43,179.88 0,0 0,0 0,0 0,0 -1966.58,1085.24 -1966.58,1085.24 0,0 0,0 0,0 0,0 -215.85,-1265.12 -215.85,-1265.12z"/>
   <path class="fil0 str0" d="M10687.97 15486.03c0,0 2092.49,-1079.23 2092.49,-1079.23 0,0 0,0 0,0 0,0 221.84,1313.06 221.84,1313.06 0,0 0,0 0,0 0,0 -2314.33,-233.83 -2314.33,-233.83z"/>
   <path class="fil0 str0" d="M13152.05 15881.93c0,0 2122.48,611.54 2122.48,611.54 0,0 0,0 0,0 0,0 -2793.98,1409.02 -2793.98,1409.02 0,0 0,0 0,0 0,0 671.5,-2020.56 671.5,-2020.56z"/>
   <path class="fil0 str0" d="M9095.32 12002.55c0,0 1271.04,3393.63 1271.04,3393.63 0,0 0,0 0,0 0,0 -2170.39,-1199.2 -2170.39,-1199.2 0,0 0,0 0,0 0,0 899.35,-2194.43 899.35,-2194.43z"/>
   <path class="fil0 str0" d="M8219.9 14406.8c0,0 2092.49,1079.23 2092.49,1079.23 0,0 0,0 0,0 0,0 -2314.33,233.83 -2314.33,233.83 0,0 0,0 0,0 0,0 221.84,-1313.06 221.84,-1313.06z"/>
   <path class="fil0 str0" d="M10651.78 15660.09c0,0 2380.29,185.86 2380.29,185.86 0,0 0,0 0,0 0,0 -701.54,2032.58 -701.54,2032.58 0,0 0,0 0,0 0,0 -1678.75,-2218.44 -1678.75,-2218.44z"/>
   <path class="fil0 str0" d="M10627.63 15875.97c0,0 1660.86,2146.41 1660.86,2146.41 0,0 0,0 0,0 0,0 -1085.21,689.5 -1085.21,689.5 0,0 0,0 0,0 0,0 -575.65,-2835.91 -575.65,-2835.91z"/>
   <path class="fil0 str0" d="M10597.64 16403.59c0,0 509.65,2320.34 509.65,2320.34 0,0 0,0 0,0 0,0 -527.63,239.84 -527.63,239.84 0,0 0,0 0,0 0,0 17.98,-2560.18 17.98,-2560.18z"/>
   <path class="fil0 str0" d="M12439.62 18067.63c0,0 2907.92,-1444.97 2907.92,-1444.97 0,0 0,0 0,0 0,0 -1594.86,3357.6 -1594.86,3357.6 0,0 0,0 0,0 0,0 -1313.06,-1912.63 -1313.06,-1912.63z"/>
   <path class="fil0 str0" d="M13710.75 20100.1c0,0 179.88,1001.29 179.88,1001.29 0,0 0,0 0,0 0,0 -485.66,-899.37 -485.66,-899.37 0,0 0,0 0,0 0,0 -1618.84,-509.65 -1618.84,-509.65 0,0 0,0 0,0 0,0 575.56,-1504.87 575.56,-1504.87 0,0 0,0 0,0 0,0 1349.06,1912.6 1349.06,1912.6z"/>
   <path class="fil0 str0" d="M6798.83 10131.6c0,0 2056.51,1570.88 2056.51,1570.88 0,0 0,0 0,0 0,0 -2482.21,-263.83 -2482.21,-263.83 0,0 0,0 0,0 0,0 425.7,-1307.05 425.7,-1307.05z"/>
   <path class="fil0 str0" d="M5887.58 14592.66c0,0 2182.43,-179.88 2182.43,-179.88 0,0 0,0 0,0 0,0 -215.85,1265.12 -215.85,1265.12 0,0 0,0 0,0 0,0 -1966.58,-1085.24 -1966.58,-1085.24z"/>
   <path class="fil0 str0" d="M7968.29 15845.95c0,0 2380.29,-185.86 2380.29,-185.86 0,0 0,0 0,0 0,0 -1678.75,2218.44 -1678.75,2218.44 0,0 0,0 0,0 0,0 -701.54,-2032.58 -701.54,-2032.58z"/>
   <path class="fil0 str0" d="M9011.24 11846.46c0,0 -911.34,2260.4 -911.34,2260.4 0,0 0,0 0,0 0,0 -1648.84,-2560.17 -1648.84,-2560.17 0,0 0,0 0,0 0,0 2560.18,299.77 2560.18,299.77z"/>
   <path class="fil0 str0" d="M6313.17 11540.63c0,0 1546.89,2470.19 1546.89,2470.19 0,0 0,0 0,0 0,0 -3087.8,-2644.09 -3087.8,-2644.09 0,0 0,0 0,0 0,0 1540.91,173.9 1540.91,173.9z"/>
   <path class="fil0 str0" d="M10402.72 16403.59c0,0 17.98,2560.18 17.98,2560.18 0,0 0,0 0,0 0,0 -527.63,-239.84 -527.63,-239.84 0,0 0,0 0,0 0,0 509.65,-2320.34 509.65,-2320.34z"/>
   <path class="fil0 str0" d="M10372.73 15875.97c0,0 -575.65,2835.91 -575.65,2835.91 0,0 0,0 0,0 0,0 -1085.21,-689.5 -1085.21,-689.5 0,0 0,0 0,0 0,0 1660.86,-2146.41 1660.86,-2146.41z"/>
   <path class="fil0 str0" d="M11227.15 18843.9c0,0 984.71,-632.5 984.71,-632.5 0,0 0,0 0,0 0,0 -533.55,1363.96 -533.55,1363.96 0,0 0,0 0,0 -323.76,-511.63 -451.16,-731.46 -451.16,-731.46z"/>
   <path class="fil0 str0" d="M4346.51 8266.86c0,0 2344.31,1780.75 2344.31,1780.75 0,0 0,0 0,0 0,0 -395.71,1265.09 -395.71,1265.09 0,0 0,0 0,0 0,0 -1948.6,-3045.84 -1948.6,-3045.84z"/>
   <path class="fil0 str0" d="M4742.35 11510.74c0,0 3213.7,2746.04 3213.7,2746.04 0,0 0,0 0,0 0,0 -2248.38,227.85 -2248.38,227.85 0,0 0,0 0,0 0,0 -965.32,-2973.89 -965.32,-2973.89z"/>
   <path class="fil0 str0" d="M5725.83 16493.47c0,0 2122.48,-611.54 2122.48,-611.54 0,0 0,0 0,0 0,0 671.5,2020.56 671.5,2020.56 0,0 0,0 0,0 0,0 -2793.98,-1409.02 -2793.98,-1409.02z"/>
   <path class="fil0 str0" d="M8638.67 18187.5c0,0 575.56,1504.87 575.56,1504.87 0,0 0,0 0,0 0,0 -1618.84,509.65 -1618.84,509.65 0,0 0,0 0,0 0,0 -485.66,899.37 -485.66,899.37 0,0 0,0 0,0 0,0 179.88,-1001.29 179.88,-1001.29 0,0 0,0 0,0 0,0 1349.06,-1912.6 1349.06,-1912.6z"/>
   <path class="fil0 str0" d="M5652.82 16622.66c0,0 2907.92,1444.97 2907.92,1444.97 0,0 0,0 0,0 0,0 -1313.06,1912.63 -1313.06,1912.63 0,0 0,0 0,0 0,0 -1594.86,-3357.6 -1594.86,-3357.6z"/>
   <path class="fil0 str0" d="M4166.68 8278.91c0,0 2014.55,3105.77 2014.55,3105.77 0,0 0,0 0,0 0,0 -1528.91,-137.9 -1528.91,-137.9 0,0 0,0 0,0 0,0 -485.64,-2967.87 -485.64,-2967.87z"/>
   <path class="fil0 str0" d="M9773.21 18843.9c0,0 -127.4,219.83 -451.16,731.46 0,0 0,0 0,0 0,0 -533.55,-1363.96 -533.55,-1363.96 0,0 0,0 0,0 0,0 984.71,632.5 984.71,632.5z"/>
  </g>
 </g>
</svg>
