<svg width="191" height="191" viewBox="0 0 191 191" fill="none" xmlns="http://www.w3.org/2000/svg">
<g clip-path="url(#clip0_68_71)">
<path d="M91.3134 185.824C141.529 188.02 184.018 149.092 186.213 98.8759C188.409 48.66 149.481 6.17181 99.2653 3.97595C49.0494 1.78009 6.56121 40.7081 4.36536 90.924C2.1695 141.14 41.0975 183.628 91.3134 185.824Z" fill="white"/>
<path d="M58.3424 60.6285C57.9024 60.7034 57.5395 60.917 57.2186 61.3159C56.8867 61.7495 56.7438 62.481 56.8829 62.9739C56.9998 63.4051 57.7017 64.2988 58.487 64.9201C57.6342 65.9372 55.9904 67.9887 55.1932 69.0423C49.3993 76.6972 45.889 83.7787 45.2557 88.9675C44.9133 91.7725 45.3739 93.7643 46.6026 95.3508C47.5117 96.5203 48.6053 97.2103 50.3956 97.6737C51.8643 98.0537 54.134 98.1381 56.4391 97.8888C54.9093 99.8906 52.7151 102.967 51.5768 104.723C49.6965 107.64 47.7375 111.387 46.9684 113.547C45.6157 117.31 45.3266 120.438 45.9857 123.462C46.3879 125.32 47.1012 126.829 48.1087 128.007C49.1345 129.207 50.4678 130.073 52.1213 130.599C54.8303 131.461 58.8637 131.426 63.998 130.452C65.0796 130.249 66.7435 129.862 67.9852 129.552C66.725 133.328 66.6943 136.824 67.8114 139.383C68.1729 140.206 69.222 141.612 69.8633 142.141C73.6974 145.273 82.0353 145.527 93.3705 142.509C94.2781 142.269 96.8444 141.506 98.1237 141.103C98.9338 142.29 99.7162 142.778 101.566 143.083C102.77 143.267 103.772 143.116 104.736 142.616C105.176 142.386 105.44 142.152 105.594 141.93C105.845 141.568 105.905 141.187 105.763 140.722C105.626 140.286 105.413 140.021 105.018 139.822C104.791 139.708 104.456 139.618 103.908 139.553C103.48 139.506 103.329 139.482 103.108 139.31L103.181 139.253C105.175 138.511 109.494 136.584 112.166 135.245C121.938 130.341 132.458 123.287 139.539 116.887C145.955 111.095 152.247 103.791 153.62 100.605C154.036 99.6499 154.182 98.6448 154.059 97.8521C153.953 97.2324 153.886 97.0622 153.325 96.3302C152.731 95.5563 152.603 95.4804 152.035 95.2263C150.145 94.3856 147.137 95.0894 141.126 98.4095C133.436 102.655 121.949 110.66 113.805 117.46C105.783 124.151 100.447 130.071 98.3705 134.495C98.1207 135.029 98.1162 135.282 97.9955 135.341C97.872 135.403 96.812 135.764 95.6467 136.164C89.2253 138.339 83.662 139.504 79.5441 139.505C78.4084 139.507 76.6039 139.305 75.7182 139.073C74.9756 138.881 74.0703 138.477 73.7359 138.131C73.319 137.707 73.1784 137.021 73.186 136.166C73.1957 135.088 73.4713 133.753 73.9944 132.21C74.3512 131.168 75.5624 128.486 76.1534 127.449L77.462 126.816C84.4641 124.511 92.4242 121.08 99.9113 117.141C110.024 111.818 121.723 104.337 132.251 96.4399C138.524 91.7339 141.917 88.7418 145.17 85.0626C147.711 82.1907 149.809 78.9224 150.336 77.0729C150.715 75.759 150.725 74.5674 150.417 73.5491C150.092 72.4759 149.419 71.579 148.402 70.9216C145.755 69.2107 140.805 69.6231 134.02 72.3324C127.603 74.8946 119.523 79.4409 110.344 85.7553C104.859 89.5182 97.1553 95.3766 93.0659 98.8851C82.6291 107.85 75.4037 115.728 71.287 122.602L71.0077 123.072C67.5827 124.192 62.3149 125.435 59.6894 125.764C57.5007 126.033 55.3998 126.038 54.1784 125.742C53.4226 125.56 52.8528 125.292 52.446 124.836C52.0237 124.362 51.7832 123.706 51.6242 122.838C51.3827 121.48 51.5689 119.272 52.0414 117.653C53.5019 112.659 57.9068 105.59 64.51 97.5471L65.9427 95.8073L67.3637 95.3279C76.7647 92.1821 88.5227 86.2974 99.0208 79.4749C104.84 75.6902 111.125 70.9516 115.424 67.1012C118.839 64.0431 121.587 61.2072 123.731 58.5369C125.619 56.1739 126.83 54.1612 127.411 52.4325C128.059 50.5053 127.953 48.8962 127.205 47.5073C126.632 46.4459 125.726 45.7096 124.552 45.3334C123.479 44.9895 122.166 44.953 120.678 45.2821C116.361 46.251 109.834 49.7901 100.441 56.3219C98.1046 57.9553 90.3764 63.8845 88.0613 65.8198C78.4021 73.9297 69.7942 82.2718 62.4463 90.6319L61.0574 92.2149L60.3088 92.4019C58.1357 92.9408 55.6521 93.3002 53.9032 93.3292C52.88 93.3456 51.5353 93.1445 50.9589 92.8514C50.6542 92.7004 50.6065 92.6609 50.436 92.4064C50.1365 91.9529 50.0801 91.5285 50.0914 90.686C50.1207 87.005 52.938 80.8997 57.4516 74.4934C59.1722 72.0541 61.1394 69.5617 63.2221 67.1792L64.2296 66.026C67.2997 65.2191 70.3889 63.4427 75.0812 59.8428C80.4709 55.697 85.7942 50.4145 87.2889 48.5805C89.0346 46.4383 89.762 44.2646 89.5249 43.3849C89.363 42.8222 89.0203 42.3454 88.5818 42.0138C88.1225 41.6664 87.5644 41.4826 87.0205 41.5158C86.2188 41.562 84.3468 42.4596 81.8385 44.1209C80.0632 45.2913 75.1153 49.0227 72.9414 50.8289C68.9775 54.1145 66.3507 56.5338 63.0529 59.9244L62.0117 60.9914C61.1493 61.1324 60.3546 61.0269 59.6709 60.7914C59.1236 60.6066 58.6959 60.5682 58.3424 60.6285ZM96.1124 66.9834C98.8581 64.8032 100.014 63.9272 103.774 61.1577C108.316 57.8196 113.29 54.6814 116.915 52.8629C118.691 51.9695 120.348 51.2742 121.624 51.0761C121.306 51.6751 120.823 52.4242 120.307 53.1348C117.797 56.5639 114.035 60.4253 108.431 65.3304C106.74 66.817 98.3398 73.2504 96.2523 74.6737C89.2158 79.4528 82.7542 83.2245 76.1419 86.3969C75.2998 86.7995 74.2932 87.2641 73.3236 87.7017C80.3547 80.4162 88.2523 73.2357 96.1124 66.9834ZM129.4 81.2395C136.408 77.4129 142.343 75.2542 145.113 75.2447C145.04 75.4747 144.929 75.7573 144.809 76.0062C143.619 78.5092 140.426 82.0917 135.921 86.0421C134.066 87.6642 126.861 93.1597 123.513 95.508C107.48 106.719 94.3969 114.171 81.7705 119.242C84.0685 116.403 87.2744 112.926 90.2897 110.027C95.9547 104.577 102.86 98.8495 109.727 93.9062C117.365 88.4036 123.449 84.4914 129.4 81.2395ZM132.215 111.277C137.457 107.533 142.127 104.554 145.557 102.746C145.221 103.161 144.875 103.576 144.549 103.953C138.915 110.485 132.27 116.272 124.047 121.785C119.221 125.018 114.241 127.944 109.418 130.37C112.266 127.37 115.848 124.106 120.708 120.074C121.974 119.018 130.546 112.463 132.215 111.277Z" fill="#1B1A22"/>
<path d="M94.0647 124.662C110.395 125.376 124.213 112.691 124.929 96.3296C125.644 79.968 112.986 66.1254 96.6556 65.4113C80.3253 64.6972 66.507 77.382 65.7916 93.7437C65.0761 110.105 77.7344 123.948 94.0647 124.662Z" fill="url(#paint0_radial_68_71)"/>
<path d="M152.034 95.2554C152.602 95.5096 152.73 95.5854 153.324 96.3593C153.885 97.0912 153.951 97.2614 154.058 97.8813C154.181 98.674 154.034 99.679 153.619 100.634C152.246 103.82 145.954 111.124 139.538 116.916C132.457 123.316 121.936 130.37 112.164 135.274C109.493 136.614 105.174 138.54 103.18 139.282L103.106 139.339L98.1225 141.132C97.6219 141.29 96.9242 141.502 96.206 141.718L95.726 141.861C94.7678 142.145 93.8428 142.413 93.3692 142.538C82.0341 145.556 73.6962 145.302 69.8621 142.17L73.7347 138.16C74.0691 138.506 74.9743 138.91 75.717 139.102C76.6028 139.334 78.4072 139.536 79.5428 139.534C83.6608 139.533 89.2241 138.368 95.6455 136.193C96.8107 135.793 97.8708 135.432 97.9943 135.37L109.417 130.399C114.24 127.974 119.22 125.047 124.046 121.814C132.268 116.301 138.914 110.514 144.548 103.982C144.873 103.605 145.22 103.19 145.556 102.775L152.034 95.2554ZM148.401 70.9508C149.418 71.608 150.091 72.5051 150.415 73.5783C150.723 74.5966 150.714 75.7881 150.334 77.1019C149.808 78.9516 147.709 82.2198 145.169 85.0917C141.916 88.7709 138.522 91.763 132.25 96.4691C121.722 104.366 110.023 111.848 99.91 117.17C92.423 121.109 84.4629 124.541 77.4608 126.845L76.1521 127.478L67.9841 129.581C66.7422 129.891 65.0784 130.278 63.9967 130.481C58.8625 131.455 54.8291 131.49 52.12 130.629C50.4666 130.102 49.1333 129.236 48.1074 128.037C47.1 126.858 46.3866 125.349 45.9845 123.492L51.6229 122.867C51.782 123.735 52.0225 124.391 52.4448 124.865C52.8516 125.321 53.4213 125.589 54.1771 125.771C55.3986 126.068 57.4994 126.062 59.6882 125.793C62.3137 125.464 67.5815 124.221 71.0065 123.101L81.7693 119.272C94.3957 114.2 107.479 106.748 123.511 95.5371C126.859 93.1888 134.065 87.6933 135.92 86.0713C140.424 82.1208 143.618 78.5384 144.808 76.0353C144.928 75.7864 145.039 75.5038 145.112 75.2738L148.401 70.9508ZM124.551 45.3626C125.704 45.715 126.631 46.475 127.203 47.5365C127.952 48.9254 128.058 50.5344 127.41 52.4617C126.829 54.1904 125.618 56.2029 123.729 58.5661C121.586 61.2363 118.838 64.0723 115.423 67.1303C111.124 70.9807 104.838 75.7194 99.0195 79.504C88.5215 86.3266 76.7634 92.2112 67.3624 95.357L65.9414 95.8364L60.9532 97.108L56.4379 97.918C54.1329 98.1673 51.863 98.0829 50.3944 97.7028C48.6041 97.2394 47.5104 96.5493 46.6014 95.3799C45.3727 93.7934 44.9121 91.8016 45.2545 88.9966L50.0901 90.7152C50.0789 91.5577 50.1353 91.9821 50.4348 92.4356C50.6053 92.69 50.6529 92.7295 50.9577 92.8806C51.5341 93.1736 52.8788 93.3747 53.902 93.3582C54.5863 93.3469 55.7159 93.2025 56.8375 93.0309L57.2105 92.9728C58.6961 92.7376 60.078 92.475 60.2818 92.436L60.3076 92.4311L73.3224 87.7308L73.3515 87.7175C73.5989 87.6044 75.3587 86.7999 76.1407 86.426C82.753 83.2536 89.2146 79.4819 96.251 74.7028C98.3386 73.2795 106.738 66.8461 108.43 65.3595C114.034 60.4545 117.796 56.5931 120.306 53.1639C120.822 52.4533 121.145 51.7074 121.623 51.1052L124.551 45.3626Z" fill="#1B1A22"/>
<path d="M12.205 180L12.205 151.65L17.91 151.65C19.8 151.65 21.3633 151.907 22.6 152.42C23.8367 152.91 24.7467 153.715 25.33 154.835C25.9367 155.932 26.24 157.378 26.24 159.175C26.24 160.272 26.1233 161.275 25.89 162.185C25.6567 163.072 25.2833 163.83 24.77 164.46C24.2567 165.067 23.58 165.51 22.74 165.79L26.765 180L22.95 180L19.24 166.7L16.16 166.7L16.16 180L12.205 180ZM16.16 163.865L17.665 163.865C18.785 163.865 19.695 163.725 20.395 163.445C21.095 163.165 21.6083 162.687 21.935 162.01C22.2617 161.333 22.425 160.388 22.425 159.175C22.425 157.518 22.1217 156.328 21.515 155.605C20.9083 154.858 19.7067 154.485 17.91 154.485L16.16 154.485L16.16 163.865ZM35.6394 180.28C34.0527 180.28 32.8277 179.977 31.9644 179.37C31.1011 178.74 30.4944 177.83 30.1444 176.64C29.8177 175.427 29.6544 173.945 29.6544 172.195L29.6544 167.575C29.6544 165.778 29.8294 164.285 30.1794 163.095C30.5294 161.905 31.1361 161.007 31.9994 160.4C32.8861 159.793 34.0994 159.49 35.6394 159.49C37.3427 159.49 38.5911 159.84 39.3844 160.54C40.2011 161.24 40.7377 162.255 40.9944 163.585C41.2511 164.892 41.3794 166.467 41.3794 168.31L41.3794 169.955L33.3994 169.955L33.3994 174.015C33.3994 174.832 33.4694 175.497 33.6094 176.01C33.7727 176.523 34.0177 176.908 34.3444 177.165C34.6944 177.398 35.1377 177.515 35.6744 177.515C36.2344 177.515 36.6544 177.387 36.9344 177.13C37.2377 176.85 37.4361 176.465 37.5294 175.975C37.6461 175.462 37.7044 174.867 37.7044 174.19L37.7044 172.965L41.3444 172.965L41.3444 173.735C41.3444 175.765 40.9127 177.363 40.0494 178.53C39.1861 179.697 37.7161 180.28 35.6394 180.28ZM33.3994 167.925L37.7044 167.925L37.7044 166.105C37.7044 165.265 37.6577 164.565 37.5644 164.005C37.4711 163.422 37.2727 162.99 36.9694 162.71C36.6894 162.407 36.2344 162.255 35.6044 162.255C34.9977 162.255 34.5311 162.395 34.2044 162.675C33.9011 162.955 33.6911 163.433 33.5744 164.11C33.4577 164.763 33.3994 165.673 33.3994 166.84L33.3994 167.925ZM48.4109 180.28C47.6175 180.28 46.9175 180.058 46.3109 179.615C45.7042 179.148 45.2259 178.565 44.8759 177.865C44.5259 177.142 44.3509 176.383 44.3509 175.59C44.3509 174.33 44.5609 173.268 44.9809 172.405C45.4009 171.542 45.9725 170.818 46.6959 170.235C47.4425 169.628 48.2942 169.103 49.2509 168.66C50.2309 168.217 51.2575 167.785 52.3309 167.365L52.3309 165.93C52.3309 165.113 52.2842 164.437 52.1909 163.9C52.0975 163.363 51.8992 162.967 51.5959 162.71C51.3159 162.43 50.8842 162.29 50.3009 162.29C49.7875 162.29 49.3675 162.407 49.0409 162.64C48.7375 162.873 48.5159 163.212 48.3759 163.655C48.2359 164.075 48.1659 164.577 48.1659 165.16L48.1659 166.175L44.4559 166.035C44.5025 163.795 45.0159 162.15 45.9959 161.1C46.9759 160.027 48.4925 159.49 50.5459 159.49C52.5525 159.49 53.9759 160.038 54.8159 161.135C55.6559 162.232 56.0759 163.818 56.0759 165.895L56.0759 175.135C56.0759 175.765 56.0875 176.372 56.1109 176.955C56.1575 177.538 56.2042 178.087 56.2509 178.6C56.3209 179.09 56.3792 179.557 56.4259 180L52.9959 180C52.9259 179.627 52.8325 179.16 52.7159 178.6C52.6225 178.017 52.5525 177.492 52.5059 177.025C52.2725 177.818 51.8175 178.565 51.1409 179.265C50.4875 179.942 49.5775 180.28 48.4109 180.28ZM49.8809 177.06C50.2542 177.06 50.6042 176.955 50.9309 176.745C51.2575 176.535 51.5492 176.302 51.8059 176.045C52.0625 175.765 52.2375 175.543 52.3309 175.38L52.3309 169.64C51.7475 169.967 51.1992 170.293 50.6859 170.62C50.1725 170.947 49.7175 171.297 49.3209 171.67C48.9475 172.02 48.6442 172.428 48.4109 172.895C48.2009 173.338 48.0959 173.852 48.0959 174.435C48.0959 175.252 48.2475 175.893 48.5509 176.36C48.8542 176.827 49.2975 177.06 49.8809 177.06ZM65.2032 180.28C63.5465 180.28 62.2865 179.953 61.4232 179.3C60.5832 178.623 60.0115 177.678 59.7082 176.465C59.4282 175.252 59.2882 173.84 59.2882 172.23L59.2882 167.575C59.2882 165.872 59.4399 164.425 59.7432 163.235C60.0465 162.022 60.6182 161.1 61.4582 160.47C62.3215 159.817 63.5699 159.49 65.2032 159.49C66.6732 159.49 67.8049 159.735 68.5982 160.225C69.4149 160.692 69.9749 161.403 70.2782 162.36C70.5815 163.293 70.7332 164.46 70.7332 165.86L70.7332 167.05L67.3382 167.05L67.3382 165.825C67.3382 164.938 67.2799 164.238 67.1632 163.725C67.0465 163.212 66.8365 162.838 66.5332 162.605C66.2299 162.372 65.7982 162.255 65.2382 162.255C64.6315 162.255 64.1649 162.395 63.8382 162.675C63.5115 162.955 63.2899 163.433 63.1732 164.11C63.0799 164.763 63.0332 165.662 63.0332 166.805L63.0332 173.175C63.0332 174.902 63.1965 176.057 63.5232 176.64C63.8499 177.223 64.4332 177.515 65.2732 177.515C65.9032 177.515 66.3582 177.375 66.6382 177.095C66.9415 176.792 67.1282 176.372 67.1982 175.835C67.2915 175.298 67.3382 174.692 67.3382 174.015L67.3382 172.37L70.7332 172.37L70.7332 173.77C70.7332 175.123 70.5699 176.29 70.2432 177.27C69.9399 178.25 69.3799 178.997 68.5632 179.51C67.7699 180.023 66.6499 180.28 65.2032 180.28ZM79.4529 180.28C78.4029 180.28 77.5512 180.082 76.8979 179.685C76.2679 179.288 75.8012 178.728 75.4979 178.005C75.2179 177.282 75.0779 176.43 75.0779 175.45L75.0779 162.255L72.9429 162.255L72.9429 159.77L75.0779 159.77L75.0779 153.855L78.8229 153.855L78.8229 159.77L82.0779 159.77L82.0779 162.255L78.8229 162.255L78.8229 175.205C78.8229 175.998 78.9512 176.57 79.2079 176.92C79.4645 177.247 79.9545 177.41 80.6779 177.41C80.8645 177.41 81.0745 177.398 81.3079 177.375C81.5645 177.352 81.8095 177.328 82.0429 177.305L82.0429 180.07C81.5762 180.14 81.1445 180.187 80.7479 180.21C80.3512 180.257 79.9195 180.28 79.4529 180.28ZM84.6545 170.865L84.6545 168.03L92.4595 168.03L92.4595 170.865L84.6545 170.865ZM103.075 180.315C101.441 180.315 100.076 179.965 98.9796 179.265C97.9062 178.565 97.0896 177.597 96.5296 176.36C95.9696 175.123 95.6429 173.688 95.5496 172.055L99.0496 171.11C99.1196 172.113 99.2712 173.082 99.5046 174.015C99.7612 174.948 100.17 175.718 100.73 176.325C101.29 176.908 102.071 177.2 103.075 177.2C104.101 177.2 104.871 176.92 105.385 176.36C105.921 175.777 106.19 174.948 106.19 173.875C106.19 172.592 105.898 171.565 105.315 170.795C104.731 170.002 103.996 169.208 103.11 168.415L98.3496 164.215C97.4162 163.398 96.7279 162.512 96.2846 161.555C95.8412 160.575 95.6196 159.373 95.6196 157.95C95.6196 155.873 96.2146 154.263 97.4046 153.12C98.5946 151.977 100.216 151.405 102.27 151.405C103.39 151.405 104.37 151.557 105.21 151.86C106.073 152.14 106.785 152.583 107.345 153.19C107.928 153.797 108.383 154.567 108.71 155.5C109.06 156.41 109.293 157.483 109.41 158.72L106.05 159.63C105.98 158.697 105.84 157.845 105.63 157.075C105.42 156.282 105.046 155.652 104.51 155.185C103.996 154.695 103.25 154.45 102.27 154.45C101.29 154.45 100.52 154.718 99.9596 155.255C99.4229 155.768 99.1546 156.538 99.1546 157.565C99.1546 158.428 99.2946 159.14 99.5746 159.7C99.8779 160.26 100.356 160.832 101.01 161.415L105.805 165.615C106.878 166.548 107.823 167.668 108.64 168.975C109.456 170.258 109.865 171.787 109.865 173.56C109.865 174.96 109.573 176.173 108.99 177.2C108.406 178.203 107.601 178.973 106.575 179.51C105.571 180.047 104.405 180.315 103.075 180.315ZM112.618 186.65L112.618 159.77L116.363 159.77L116.363 161.38C116.806 160.867 117.343 160.423 117.973 160.05C118.603 159.677 119.349 159.49 120.213 159.49C121.263 159.49 122.091 159.77 122.698 160.33C123.328 160.867 123.794 161.555 124.098 162.395C124.401 163.212 124.599 164.052 124.693 164.915C124.786 165.755 124.833 166.478 124.833 167.085L124.833 171.985C124.833 173.408 124.693 174.762 124.413 176.045C124.133 177.305 123.619 178.332 122.873 179.125C122.149 179.895 121.123 180.28 119.793 180.28C119.069 180.28 118.428 180.105 117.868 179.755C117.308 179.382 116.806 178.962 116.363 178.495L116.363 186.65L112.618 186.65ZM119.058 177.34C119.711 177.34 120.178 177.107 120.458 176.64C120.738 176.15 120.913 175.497 120.983 174.68C121.053 173.863 121.088 172.965 121.088 171.985L121.088 167.085C121.088 166.245 121.041 165.475 120.948 164.775C120.854 164.052 120.656 163.48 120.353 163.06C120.049 162.64 119.571 162.43 118.918 162.43C118.428 162.43 117.961 162.535 117.518 162.745C117.074 162.955 116.689 163.2 116.363 163.48L116.363 176.43C116.713 176.687 117.109 176.908 117.553 177.095C117.996 177.258 118.498 177.34 119.058 177.34ZM128.343 180L128.343 159.77L132.088 159.77L132.088 162.64C132.834 161.403 133.581 160.575 134.328 160.155C135.074 159.735 135.821 159.525 136.568 159.525C136.661 159.525 136.743 159.525 136.813 159.525C136.906 159.525 137.023 159.537 137.163 159.56L137.163 163.69C136.883 163.573 136.556 163.48 136.183 163.41C135.833 163.317 135.471 163.27 135.098 163.27C134.514 163.27 133.978 163.41 133.488 163.69C133.021 163.947 132.554 164.46 132.088 165.23L132.088 180L128.343 180ZM139.728 180L139.728 159.77L143.473 159.77L143.473 180L139.728 180ZM139.728 156.76L139.728 152.84L143.473 152.84L143.473 156.76L139.728 156.76ZM147.481 180L147.481 159.77L151.226 159.77L151.226 161.765C151.902 161.135 152.649 160.598 153.466 160.155C154.282 159.712 155.181 159.49 156.161 159.49C156.977 159.49 157.596 159.7 158.016 160.12C158.459 160.54 158.762 161.065 158.926 161.695C159.112 162.325 159.206 162.967 159.206 163.62L159.206 180L155.461 180L155.461 164.705C155.461 163.982 155.356 163.422 155.146 163.025C154.936 162.628 154.504 162.43 153.851 162.43C153.431 162.43 152.987 162.558 152.521 162.815C152.077 163.048 151.646 163.34 151.226 163.69L151.226 180L147.481 180ZM168.112 186.265C166.898 186.265 165.802 186.137 164.822 185.88C163.842 185.623 163.072 185.215 162.512 184.655C161.952 184.095 161.672 183.36 161.672 182.45C161.672 181.797 161.812 181.225 162.092 180.735C162.372 180.245 162.733 179.825 163.177 179.475C163.62 179.102 164.087 178.798 164.577 178.565C163.923 178.378 163.433 178.087 163.107 177.69C162.78 177.27 162.617 176.838 162.617 176.395C162.617 175.648 162.815 175.007 163.212 174.47C163.608 173.933 164.157 173.35 164.857 172.72C164.087 172.137 163.503 171.39 163.107 170.48C162.71 169.57 162.512 168.31 162.512 166.7C162.512 165.113 162.722 163.795 163.142 162.745C163.585 161.672 164.227 160.867 165.067 160.33C165.93 159.77 166.98 159.49 168.217 159.49C169.313 159.49 170.188 159.677 170.842 160.05C171.518 160.423 172.032 160.983 172.382 161.73C172.498 161.543 172.813 161.228 173.327 160.785C173.84 160.318 174.435 159.933 175.112 159.63L175.672 159.385L176.617 161.8C176.313 161.847 175.905 161.963 175.392 162.15C174.902 162.313 174.435 162.488 173.992 162.675C173.572 162.838 173.303 162.978 173.187 163.095C173.35 163.492 173.49 164.063 173.607 164.81C173.747 165.557 173.817 166.222 173.817 166.805C173.817 168.182 173.642 169.395 173.292 170.445C172.942 171.495 172.358 172.323 171.542 172.93C170.748 173.513 169.64 173.805 168.217 173.805C167.913 173.805 167.587 173.782 167.237 173.735C166.887 173.688 166.572 173.63 166.292 173.56C166.152 173.77 166 174.015 165.837 174.295C165.697 174.575 165.627 174.843 165.627 175.1C165.627 175.357 165.755 175.567 166.012 175.73C166.292 175.87 166.723 175.963 167.307 176.01L170.457 176.29C172.043 176.43 173.222 176.908 173.992 177.725C174.762 178.542 175.147 179.708 175.147 181.225C175.147 182.322 174.89 183.243 174.377 183.99C173.863 184.76 173.082 185.332 172.032 185.705C171.005 186.078 169.698 186.265 168.112 186.265ZM168.392 183.325C169.722 183.325 170.702 183.162 171.332 182.835C171.962 182.532 172.277 182.03 172.277 181.33C172.277 180.91 172.195 180.56 172.032 180.28C171.892 180 171.623 179.778 171.227 179.615C170.83 179.452 170.258 179.335 169.512 179.265L166.327 178.985C166.07 179.242 165.825 179.498 165.592 179.755C165.358 180.012 165.172 180.28 165.032 180.56C164.892 180.863 164.822 181.178 164.822 181.505C164.822 182.112 165.078 182.567 165.592 182.87C166.105 183.173 167.038 183.325 168.392 183.325ZM168.217 171.18C168.753 171.18 169.173 171.087 169.477 170.9C169.803 170.69 170.048 170.398 170.212 170.025C170.375 169.628 170.48 169.15 170.527 168.59C170.597 168.03 170.632 167.4 170.632 166.7C170.632 166 170.597 165.37 170.527 164.81C170.48 164.227 170.375 163.737 170.212 163.34C170.072 162.92 169.838 162.605 169.512 162.395C169.208 162.185 168.788 162.08 168.252 162.08C167.738 162.08 167.307 162.185 166.957 162.395C166.63 162.605 166.385 162.908 166.222 163.305C166.058 163.678 165.942 164.157 165.872 164.74C165.802 165.3 165.767 165.953 165.767 166.7C165.767 167.33 165.79 167.925 165.837 168.485C165.907 169.022 166.023 169.488 166.187 169.885C166.373 170.282 166.63 170.597 166.957 170.83C167.283 171.063 167.703 171.18 168.217 171.18Z" fill="black"/>
</g>
<defs>
<radialGradient id="paint0_radial_68_71" cx="0" cy="0" r="1" gradientUnits="userSpaceOnUse" gradientTransform="translate(-550.054 2784.08) rotate(57.1066) scale(3784.45 3794.12)">
<stop stop-color="white" stop-opacity="0.904382"/>
<stop offset="1" stop-color="#FF6D6D"/>
</radialGradient>
<clipPath id="clip0_68_71">
<rect width="182.35" height="182.35" fill="white" transform="translate(8.34131) rotate(2.50385)"/>
</clipPath>
</defs>
</svg>
