<svg width="475" height="450" viewBox="0 0 475 450" fill="none" xmlns="http://www.w3.org/2000/svg">
<g clip-path="url(#clip0_1_2)">
<path opacity="0.2" d="M246.287 443.5C305.415 443.5 353.348 429.126 353.348 411.395C353.348 393.664 305.415 379.29 246.287 379.29C187.159 379.29 139.226 393.664 139.226 411.395C139.226 429.126 187.159 443.5 246.287 443.5Z" fill="#34DCE7"/>
<path opacity="0.1" d="M246.454 426.469C289.713 426.469 324.781 415.953 324.781 402.981C324.781 390.009 289.713 379.493 246.454 379.493C203.195 379.493 168.127 390.009 168.127 402.981C168.127 415.953 203.195 426.469 246.454 426.469Z" fill="#34DCE7"/>
<path opacity="0.1" d="M246.534 418.883C278.926 418.883 305.185 411.009 305.185 401.295C305.185 391.581 278.926 383.707 246.534 383.707C214.142 383.707 187.883 391.581 187.883 401.295C187.883 411.009 214.142 418.883 246.534 418.883Z" fill="#34DCE7"/>
<path d="M382.381 264.305H101.503V271.3H382.381V264.305Z" fill="#224DC2"/>
<path d="M346.28 110.987H141.428C138.639 110.987 136.378 113.248 136.378 116.037V252.475C136.378 255.264 138.639 257.525 141.428 257.525H346.28C349.069 257.525 351.33 255.264 351.33 252.475V116.037C351.33 113.248 349.069 110.987 346.28 110.987Z" fill="#224DC2"/>
<path d="M345.306 111.596H142.406C140.809 111.596 139.277 112.231 138.147 113.36C137.018 114.49 136.383 116.022 136.383 117.619V243.13H351.329V117.614C351.328 116.017 350.693 114.487 349.563 113.358C348.434 112.23 346.903 111.596 345.306 111.596Z" fill="#1F4489"/>
<path d="M345.306 115.133H142.406C140.809 115.133 139.277 115.768 138.147 116.897C137.018 118.027 136.383 119.559 136.383 121.156V121.59C136.383 119.993 137.018 118.461 138.147 117.331C139.277 116.202 140.809 115.567 142.406 115.567H345.306C346.097 115.567 346.88 115.723 347.611 116.025C348.342 116.328 349.006 116.772 349.565 117.331C350.124 117.89 350.568 118.554 350.871 119.285C351.173 120.016 351.329 120.799 351.329 121.59V121.156C351.329 120.365 351.173 119.582 350.871 118.851C350.568 118.12 350.124 117.456 349.565 116.897C349.006 116.338 348.342 115.894 347.611 115.591C346.88 115.289 346.097 115.133 345.306 115.133Z" fill="#479EE8"/>
<path d="M144.757 120.36H343.001V237.697H144.757V120.36Z" fill="#2A5FD1"/>
<path d="M284.876 135.561H172.3C171.658 135.561 171.138 136.081 171.138 136.723V137.172C171.138 137.814 171.658 138.334 172.3 138.334H284.876C285.518 138.334 286.038 137.814 286.038 137.172V136.723C286.038 136.081 285.518 135.561 284.876 135.561Z" fill="#4795FA"/>
<path d="M225.151 126.299H153.169C152.345 126.299 151.677 126.967 151.677 127.791V128.367C151.677 129.191 152.345 129.859 153.169 129.859H225.151C225.975 129.859 226.643 129.191 226.643 128.367V127.791C226.643 126.967 225.975 126.299 225.151 126.299Z" fill="#4795FA"/>
<path d="M160.487 135.561H152.839C152.197 135.561 151.677 136.081 151.677 136.723V137.172C151.677 137.814 152.197 138.334 152.839 138.334H160.487C161.129 138.334 161.649 137.814 161.649 137.172V136.723C161.649 136.081 161.129 135.561 160.487 135.561Z" fill="#4795FA"/>
<path d="M211.575 144.212H153.563C153.164 144.212 152.84 144.536 152.84 144.935V145.212C152.84 145.611 153.164 145.935 153.563 145.935H211.575C211.974 145.935 212.298 145.611 212.298 145.212V144.935C212.298 144.536 211.974 144.212 211.575 144.212Z" fill="#4795FA"/>
<path d="M211.575 151.232H153.563C153.164 151.232 152.84 151.556 152.84 151.955V152.232C152.84 152.631 153.164 152.955 153.563 152.955H211.575C211.974 152.955 212.298 152.631 212.298 152.232V151.955C212.298 151.556 211.974 151.232 211.575 151.232Z" fill="#4795FA"/>
<path d="M211.575 158.253H153.563C153.164 158.253 152.84 158.577 152.84 158.976V159.253C152.84 159.652 153.164 159.976 153.563 159.976H211.575C211.974 159.976 212.298 159.652 212.298 159.253V158.976C212.298 158.577 211.974 158.253 211.575 158.253Z" fill="#4795FA"/>
<path d="M211.575 165.273H153.563C153.164 165.273 152.84 165.597 152.84 165.996V166.273C152.84 166.672 153.164 166.996 153.563 166.996H211.575C211.974 166.996 212.298 166.672 212.298 166.273V165.996C212.298 165.597 211.974 165.273 211.575 165.273Z" fill="#4795FA"/>
<path d="M162.649 172.293H153.563C153.164 172.293 152.84 172.617 152.84 173.016V173.293C152.84 173.692 153.164 174.016 153.563 174.016H162.649C163.048 174.016 163.372 173.692 163.372 173.293V173.016C163.372 172.617 163.048 172.293 162.649 172.293Z" fill="#4795FA"/>
<path d="M178.024 172.293H168.938C168.539 172.293 168.215 172.617 168.215 173.016V173.293C168.215 173.692 168.539 174.016 168.938 174.016H178.024C178.423 174.016 178.747 173.692 178.747 173.293V173.016C178.747 172.617 178.423 172.293 178.024 172.293Z" fill="#4795FA"/>
<path d="M193.4 172.293H184.314C183.915 172.293 183.591 172.617 183.591 173.016V173.293C183.591 173.692 183.915 174.016 184.314 174.016H193.4C193.799 174.016 194.123 173.692 194.123 173.293V173.016C194.123 172.617 193.799 172.293 193.4 172.293Z" fill="#4795FA"/>
<path d="M208.776 172.293H199.69C199.291 172.293 198.967 172.617 198.967 173.016V173.293C198.967 173.692 199.291 174.016 199.69 174.016H208.776C209.175 174.016 209.499 173.692 209.499 173.293V173.016C209.499 172.617 209.175 172.293 208.776 172.293Z" fill="#4795FA"/>
<path d="M224.151 172.293H215.065C214.666 172.293 214.342 172.617 214.342 173.016V173.293C214.342 173.692 214.666 174.016 215.065 174.016H224.151C224.55 174.016 224.874 173.692 224.874 173.293V173.016C224.874 172.617 224.55 172.293 224.151 172.293Z" fill="#4795FA"/>
<path d="M239.527 172.293H230.441C230.042 172.293 229.718 172.617 229.718 173.016V173.293C229.718 173.692 230.042 174.016 230.441 174.016H239.527C239.926 174.016 240.25 173.692 240.25 173.293V173.016C240.25 172.617 239.926 172.293 239.527 172.293Z" fill="#4795FA"/>
<path d="M211.575 179.314H153.563C153.164 179.314 152.84 179.638 152.84 180.037V180.314C152.84 180.713 153.164 181.037 153.563 181.037H211.575C211.974 181.037 212.298 180.713 212.298 180.314V180.037C212.298 179.638 211.974 179.314 211.575 179.314Z" fill="#4795FA"/>
<path d="M330.36 155.291H259.158C258.602 155.291 258.151 155.742 258.151 156.298V156.687C258.151 157.243 258.602 157.694 259.158 157.694H330.36C330.916 157.694 331.367 157.243 331.367 156.687V156.298C331.367 155.742 330.916 155.291 330.36 155.291Z" fill="#4795FA"/>
<path d="M330.36 165.795H259.158C258.602 165.795 258.151 166.246 258.151 166.802V167.191C258.151 167.747 258.602 168.198 259.158 168.198H330.36C330.916 168.198 331.367 167.747 331.367 167.191V166.802C331.367 166.246 330.916 165.795 330.36 165.795Z" fill="#4795FA"/>
<path d="M330.36 175.632H259.158C258.602 175.632 258.151 176.083 258.151 176.639V177.028C258.151 177.584 258.602 178.035 259.158 178.035H330.36C330.916 178.035 331.367 177.584 331.367 177.028V176.639C331.367 176.083 330.916 175.632 330.36 175.632Z" fill="#4795FA"/>
<path d="M330.36 185.469H259.158C258.602 185.469 258.151 185.92 258.151 186.476V186.865C258.151 187.421 258.602 187.872 259.158 187.872H330.36C330.916 187.872 331.367 187.421 331.367 186.865V186.476C331.367 185.92 330.916 185.469 330.36 185.469Z" fill="#4795FA"/>
<path d="M330.36 195.305H259.158C258.602 195.305 258.151 195.756 258.151 196.312V196.701C258.151 197.257 258.602 197.708 259.158 197.708H330.36C330.916 197.708 331.367 197.257 331.367 196.701V196.312C331.367 195.756 330.916 195.305 330.36 195.305Z" fill="#4795FA"/>
<path d="M295.932 205.142H259.158C258.602 205.142 258.151 205.593 258.151 206.149V206.538C258.151 207.094 258.602 207.545 259.158 207.545H295.932C296.488 207.545 296.939 207.094 296.939 206.538V206.149C296.939 205.593 296.488 205.142 295.932 205.142Z" fill="#4795FA"/>
<path d="M319.722 211.838H282.948C282.392 211.838 281.941 212.289 281.941 212.845V213.234C281.941 213.79 282.392 214.241 282.948 214.241H319.722C320.278 214.241 320.729 213.79 320.729 213.234V212.845C320.729 212.289 320.278 211.838 319.722 211.838Z" fill="#4795FA"/>
<path d="M319.722 218.772H282.948C282.392 218.772 281.941 219.223 281.941 219.779V220.168C281.941 220.724 282.392 221.175 282.948 221.175H319.722C320.278 221.175 320.729 220.724 320.729 220.168V219.779C320.729 219.223 320.278 218.772 319.722 218.772Z" fill="#4795FA"/>
<path d="M179.813 218.772H162.464C161.908 218.772 161.457 219.223 161.457 219.779V220.168C161.457 220.724 161.908 221.175 162.464 221.175H179.813C180.369 221.175 180.82 220.724 180.82 220.168V219.779C180.82 219.223 180.369 218.772 179.813 218.772Z" fill="#4795FA"/>
<path d="M179.813 213.039H162.464C161.908 213.039 161.457 213.49 161.457 214.046V214.435C161.457 214.991 161.908 215.442 162.464 215.442H179.813C180.369 215.442 180.82 214.991 180.82 214.435V214.046C180.82 213.49 180.369 213.039 179.813 213.039Z" fill="#4795FA"/>
<path d="M179.813 207.305H162.464C161.908 207.305 161.457 207.756 161.457 208.312V208.701C161.457 209.257 161.908 209.708 162.464 209.708H179.813C180.369 209.708 180.82 209.257 180.82 208.701V208.312C180.82 207.756 180.369 207.305 179.813 207.305Z" fill="#4795FA"/>
<path d="M179.813 201.572H162.464C161.908 201.572 161.457 202.023 161.457 202.579V202.968C161.457 203.524 161.908 203.975 162.464 203.975H179.813C180.369 203.975 180.82 203.524 180.82 202.968V202.579C180.82 202.023 180.369 201.572 179.813 201.572Z" fill="#4795FA"/>
<g opacity="0.17">
<path d="M343.001 194.776V173.724L279.028 237.697H300.08L343.001 194.776Z" fill="black"/>
<path d="M232.858 237.697L343.001 127.555V120.355H294.017L176.68 237.697H232.858Z" fill="black"/>
<path d="M144.757 171.389V218.807L243.204 120.36H195.786L144.757 171.389Z" fill="black"/>
</g>
<path d="M255.619 175.077H233.592V191.658H255.619V175.077Z" fill="#FEB187"/>
<path d="M233.593 188.075C240.699 190.712 248.514 190.712 255.62 188.075V192.896L249.564 194.003L244.606 195.011L233.593 191.372V188.075Z" fill="#F88B65"/>
<path d="M272.495 275.523H216.569C211.792 275.523 207.92 279.395 207.92 284.172V297.682C207.92 302.459 211.792 306.331 216.569 306.331H272.495C277.272 306.331 281.144 302.459 281.144 297.682V284.172C281.144 279.395 277.272 275.523 272.495 275.523Z" fill="#333049"/>
<path d="M280.826 294.4C243.042 305.544 208.236 294.317 208.218 294.311C208.912 297.697 210.751 300.741 213.425 302.93C216.1 305.119 219.447 306.321 222.903 306.332H266.16C269.601 306.321 272.933 305.13 275.602 302.959C278.271 300.787 280.115 297.766 280.826 294.4Z" fill="#28243F"/>
<path d="M248.173 125.977L263.552 110.599C264.671 113.026 265.205 115.682 265.111 118.353C265.017 121.024 264.297 123.635 263.009 125.977L269.353 119.633C269.353 119.633 272.209 128.189 266.418 132.873L271.656 127.636C271.656 127.636 274.956 137.362 262.801 144.822L248.173 125.977Z" fill="#333049"/>
<path d="M260.757 142.187L265.601 142.823L265.638 142.793C265.676 142.414 266.918 128.999 251.512 122.637L248.173 125.976L260.757 142.187Z" fill="#28243F"/>
<path d="M263.058 165.542C266.833 165.542 269.894 162.481 269.894 158.706C269.894 154.931 266.833 151.87 263.058 151.87C259.283 151.87 256.222 154.931 256.222 158.706C256.222 162.481 259.283 165.542 263.058 165.542Z" fill="#FEB187"/>
<path d="M226.302 165.542C230.077 165.542 233.138 162.481 233.138 158.706C233.138 154.931 230.077 151.87 226.302 151.87C222.527 151.87 219.466 154.931 219.466 158.706C219.466 162.481 222.527 165.542 226.302 165.542Z" fill="#FEB187"/>
<path d="M248.037 125.692H241.175C231.34 125.692 223.367 133.665 223.367 143.5V167.096C223.367 176.931 231.34 184.904 241.175 184.904H248.037C257.872 184.904 265.845 176.931 265.845 167.096V143.5C265.845 133.665 257.872 125.692 248.037 125.692Z" fill="#333049"/>
<path d="M240.128 182.345V187.886L241.678 186.336L243.369 188.027L244.963 186.427L246.607 188.071V182.34L240.128 182.345Z" fill="#333049"/>
<path d="M245.799 181.934L246.61 186.622L247.894 185.338L249.294 186.738L250.615 185.417L251.977 186.779V182.034L245.799 181.934Z" fill="#333049"/>
<path d="M234.761 182.034V186.625L236.045 185.341L237.445 186.741L238.766 185.42L240.128 186.782L240.628 181.936L234.761 182.034Z" fill="#333049"/>
<path d="M195.12 234.115L192.737 248.923H206.726V232.265L196.826 230.195" fill="#FEB187"/>
<path d="M204.19 237.131H194.635L195.12 234.115L204.19 237.131Z" fill="#DC9266"/>
<path d="M219.89 196.066C209.873 200.966 200.96 202.466 189.713 232.316L206.743 237.979C206.743 237.979 217.956 210.074 219.89 196.066Z" fill="#0C2898"/>
<path d="M292.929 234.115L295.312 248.923H281.323V232.265L291.223 230.195" fill="#FEB187"/>
<path d="M283.86 237.131H293.415L292.93 234.115L283.86 237.131Z" fill="#DC9266"/>
<path d="M268.155 196.066C278.172 200.966 287.085 202.466 298.332 232.316L281.302 237.979C281.302 237.979 270.093 210.074 268.155 196.066Z" fill="#0C2898"/>
<path d="M249.499 294.316H238.506C219.77 294.316 208.138 285.443 208.138 264.829L204.438 224.559C204.464 215.532 208.061 206.883 214.444 200.5C220.827 194.116 229.476 190.519 238.503 190.492H249.496C258.522 190.518 267.171 194.115 273.554 200.498C279.937 206.88 283.536 215.529 283.563 224.555L277.736 262.394C277.738 286.182 268.236 294.316 249.499 294.316Z" fill="#F87100"/>
<path d="M271.848 198.939C250.027 202.351 220.964 199.439 216.185 198.915C211.223 203.232 207.612 208.889 205.785 215.207L209.174 215.56L222.965 217.504L240.629 220.277L256.929 221.309L275.657 219.246L281.68 213.497C279.724 207.872 276.335 202.854 271.848 198.939Z" fill="#133AAF"/>
<path d="M218.457 397.382C218.457 400.41 222.716 399.951 227.97 399.951C233.224 399.951 237.482 400.41 237.482 397.382C237.482 394.354 233.223 391.898 227.97 391.898C222.717 391.898 218.457 394.349 218.457 397.382Z" fill="#F87100"/>
<path d="M212.39 306.328L227.782 395.934C230.929 396.914 234.301 396.914 237.448 395.934V327.906L212.39 306.328Z" fill="#333049"/>
<path d="M237.449 329.408L236.63 327.908L235.73 327.777L215.44 325.677L218.431 341.462C220.921 341.587 232.181 336.396 237.281 349.423L237.455 348.523L237.449 329.408Z" fill="#28243F"/>
<path d="M270.642 397.382C270.642 400.41 266.384 399.951 261.131 399.951C255.878 399.951 251.618 400.41 251.618 397.382C251.618 394.354 255.877 391.898 261.131 391.898C266.385 391.898 270.642 394.349 270.642 397.382Z" fill="#F87100"/>
<path d="M276.711 306.328L261.319 395.938C258.171 396.918 254.799 396.918 251.651 395.938V327.906L276.711 306.328Z" fill="#333049"/>
<path d="M251.651 329.408L252.472 327.908L253.372 327.777L273.661 325.677L270.671 341.462C268.181 341.587 256.921 336.396 251.821 349.423L251.646 348.523L251.651 329.408Z" fill="#28243F"/>
<path d="M242.091 325.488V383.887C242.091 384.665 242.722 385.296 243.5 385.296H245.562C246.34 385.296 246.971 384.665 246.971 383.887V325.488C246.971 324.71 246.34 324.079 245.562 324.079H243.5C242.722 324.079 242.091 324.71 242.091 325.488Z" fill="#2273DB"/>
<path d="M243.239 322.396H247.154C248.581 322.396 249.95 322.963 250.959 323.972C251.968 324.981 252.535 326.35 252.535 327.777V345.377C252.536 347.157 251.829 348.863 250.571 350.122C249.314 351.381 247.608 352.089 245.828 352.09H243.239C241.459 352.09 239.752 351.383 238.494 350.124C237.235 348.866 236.528 347.159 236.528 345.379V329.107C236.528 327.327 237.235 325.62 238.494 324.362C239.752 323.103 241.459 322.396 243.239 322.396Z" fill="#22A4FD"/>
<path opacity="0.65" d="M252.536 330.625C250.021 329.511 247.301 328.936 244.55 328.936C241.8 328.936 239.08 329.511 236.565 330.625V324.925C239.08 323.811 241.8 323.235 244.55 323.235C247.301 323.235 250.021 323.811 252.536 324.925V330.625Z" fill="#F87100"/>
<path d="M207.891 307.46H197.73C191.326 307.456 185.177 304.954 180.589 300.486C176.001 296.018 173.337 289.937 173.163 283.536C172.99 277.134 175.32 270.918 179.659 266.208C183.998 261.498 190.003 258.666 196.397 258.315C196.544 258.291 196.692 258.279 196.841 258.279H197.731C198.091 258.279 198.448 258.35 198.781 258.488C199.113 258.626 199.416 258.828 199.671 259.082C199.925 259.337 200.127 259.64 200.265 259.972C200.403 260.305 200.474 260.662 200.474 261.022C200.474 261.382 200.403 261.739 200.265 262.072C200.127 262.404 199.925 262.707 199.671 262.962C199.416 263.216 199.113 263.418 198.781 263.556C198.448 263.694 198.091 263.765 197.731 263.765C192.664 263.765 187.805 265.778 184.222 269.361C180.639 272.944 178.626 277.803 178.626 282.87C178.626 287.937 180.639 292.796 184.222 296.379C187.805 299.962 192.664 301.975 197.731 301.975H207.892C208.619 301.975 209.317 302.264 209.832 302.778C210.346 303.293 210.635 303.991 210.635 304.718C210.635 305.445 210.346 306.143 209.832 306.658C209.317 307.172 208.619 307.461 207.892 307.461L207.891 307.46Z" fill="#F87100"/>
<path d="M201.059 255.547H190.733C188.611 255.547 186.89 257.268 186.89 259.39V260.87C186.89 262.992 188.611 264.713 190.733 264.713H201.059C203.181 264.713 204.902 262.992 204.902 260.87V259.39C204.902 257.268 203.181 255.547 201.059 255.547Z" fill="#4895FA"/>
<path d="M191.473 256.074H200.319C201.486 256.079 202.606 256.529 203.453 257.332C204.299 258.134 204.808 259.229 204.876 260.394C204.876 260.306 204.902 260.221 204.902 260.131C204.897 258.917 204.413 257.754 203.554 256.896C202.696 256.038 201.533 255.553 200.319 255.549H191.473C190.259 255.553 189.096 256.038 188.238 256.896C187.379 257.754 186.895 258.917 186.89 260.131C186.89 260.222 186.911 260.306 186.917 260.394C186.984 259.229 187.493 258.134 188.339 257.332C189.186 256.529 190.306 256.079 191.473 256.074Z" fill="#F87100"/>
<path d="M279.993 307.46H290.154C296.558 307.456 302.707 304.954 307.295 300.486C311.883 296.018 314.547 289.937 314.721 283.536C314.894 277.134 312.564 270.918 308.225 266.208C303.886 261.498 297.881 258.666 291.487 258.315C291.34 258.291 291.192 258.279 291.043 258.279H290.153C289.793 258.279 289.436 258.35 289.103 258.488C288.77 258.626 288.468 258.828 288.213 259.082C287.959 259.337 287.757 259.64 287.619 259.972C287.481 260.305 287.41 260.662 287.41 261.022C287.41 261.382 287.481 261.739 287.619 262.072C287.757 262.404 287.959 262.707 288.213 262.962C288.468 263.216 288.77 263.418 289.103 263.556C289.436 263.694 289.793 263.765 290.153 263.765C295.22 263.765 300.079 265.778 303.662 269.361C307.245 272.944 309.258 277.803 309.258 282.87C309.258 287.937 307.245 292.796 303.662 296.379C300.079 299.962 295.22 301.975 290.153 301.975H279.993C279.265 301.975 278.568 302.264 278.053 302.778C277.539 303.293 277.25 303.991 277.25 304.718C277.25 305.445 277.539 306.143 278.053 306.658C278.568 307.172 279.265 307.461 279.993 307.461V307.46Z" fill="#F87100"/>
<path d="M297.151 255.547H286.825C284.703 255.547 282.982 257.268 282.982 259.39V260.87C282.982 262.992 284.703 264.713 286.825 264.713H297.151C299.273 264.713 300.994 262.992 300.994 260.87V259.39C300.994 257.268 299.273 255.547 297.151 255.547Z" fill="#4895FA"/>
<path d="M296.411 256.073H287.565C286.398 256.078 285.278 256.528 284.431 257.331C283.585 258.133 283.076 259.228 283.008 260.393C283.008 260.305 282.982 260.22 282.982 260.13C282.987 258.916 283.471 257.753 284.33 256.895C285.188 256.037 286.351 255.552 287.565 255.548H296.411C297.625 255.552 298.788 256.037 299.646 256.895C300.505 257.753 300.989 258.916 300.994 260.13C300.994 260.221 300.972 260.305 300.967 260.393C300.9 259.228 300.391 258.133 299.545 257.331C298.698 256.528 297.578 256.078 296.411 256.073Z" fill="#F87100"/>
<path d="M204.851 299.72H284.212C287.117 299.748 289.894 300.921 291.938 302.985C293.983 305.049 295.13 307.837 295.13 310.742C295.13 313.648 293.983 316.436 291.938 318.5C289.894 320.564 287.117 321.737 284.212 321.765H204.851C203.395 321.779 201.95 321.504 200.601 320.956C199.251 320.409 198.023 319.599 196.989 318.574C195.954 317.549 195.133 316.329 194.572 314.985C194.012 313.641 193.723 312.199 193.723 310.742C193.723 309.286 194.012 307.844 194.572 306.5C195.133 305.156 195.954 303.936 196.989 302.911C198.023 301.886 199.251 301.076 200.601 300.529C201.95 299.981 203.395 299.706 204.851 299.72Z" fill="#4895FA"/>
<path d="M204.849 300.753H284.21C287.04 300.762 289.759 301.857 291.806 303.812C293.853 305.766 295.071 308.432 295.21 311.259C295.218 311.087 295.236 310.917 295.236 310.743C295.227 307.822 294.063 305.024 291.998 302.959C289.933 300.894 287.135 299.73 284.214 299.721H204.849C201.928 299.73 199.13 300.894 197.065 302.959C195 305.024 193.836 307.822 193.827 310.743C193.827 310.917 193.845 311.088 193.853 311.259C193.992 308.432 195.21 305.766 197.257 303.811C199.304 301.856 202.023 300.762 204.853 300.753H204.849Z" fill="#F87100"/>
<path d="M257.98 289.852H229.35C223.842 289.836 218.563 287.641 214.668 283.746C210.773 279.851 208.578 274.572 208.562 269.064L203.362 224.079C203.378 218.571 205.573 213.292 209.468 209.397C213.363 205.502 218.642 203.307 224.15 203.291H264.909C270.418 203.307 275.697 205.503 279.592 209.399C283.487 213.295 285.682 218.575 285.697 224.084L278.768 269.069C278.752 274.577 276.557 279.856 272.662 283.751C268.767 287.646 263.488 289.841 257.98 289.857V289.852Z" fill="#4895FA"/>
<path d="M224.154 204.165H264.909C270.309 204.183 275.491 206.297 279.363 210.061C283.235 213.825 285.495 218.945 285.666 224.342L285.697 224.078C285.681 218.57 283.486 213.291 279.591 209.396C275.696 205.501 270.417 203.306 264.909 203.29H224.154C218.646 203.306 213.367 205.501 209.472 209.396C205.577 213.291 203.381 218.57 203.365 224.078L203.394 224.398C203.551 218.99 205.805 213.856 209.679 210.08C213.553 206.304 218.744 204.183 224.154 204.165Z" fill="#52FFFD"/>
<path d="M280.329 316.168H208.734C206.476 316.168 204.646 317.998 204.646 320.256V321.831C204.646 324.089 206.476 325.919 208.734 325.919H280.329C282.587 325.919 284.417 324.089 284.417 321.831V320.256C284.417 317.998 282.587 316.168 280.329 316.168Z" fill="#F87100"/>
<path d="M262.945 325.75H226.118C224.564 325.75 223.304 327.01 223.304 328.564V332.687C223.304 334.241 224.564 335.501 226.118 335.501H262.945C264.499 335.501 265.759 334.241 265.759 332.687V328.564C265.759 327.01 264.499 325.75 262.945 325.75Z" fill="#F87100"/>
<path d="M209.522 316.479H279.542C280.805 316.484 282.018 316.979 282.924 317.859C283.83 318.739 284.36 319.936 284.402 321.199C284.402 321.145 284.418 321.099 284.418 321.043C284.414 319.751 283.899 318.513 282.985 317.6C282.072 316.686 280.834 316.171 279.542 316.167H209.522C208.23 316.171 206.992 316.686 206.079 317.6C205.165 318.513 204.651 319.751 204.647 321.043C204.647 321.097 204.661 321.143 204.663 321.199C204.705 319.936 205.235 318.739 206.141 317.859C207.047 316.979 208.259 316.484 209.522 316.479Z" fill="#2293F0"/>
<path d="M275.692 323.681H213.37C212.24 323.681 211.324 324.597 211.324 325.727V326.515C211.324 327.645 212.24 328.561 213.37 328.561H275.692C276.822 328.561 277.738 327.645 277.738 326.515V325.727C277.738 324.597 276.822 323.681 275.692 323.681Z" fill="#2273DB"/>
<path d="M213.765 323.839H275.298C275.93 323.841 276.537 324.089 276.99 324.529C277.444 324.969 277.709 325.568 277.73 326.2C277.73 326.174 277.738 326.149 277.738 326.121C277.736 325.475 277.478 324.855 277.021 324.398C276.564 323.941 275.944 323.683 275.298 323.681H213.765C213.118 323.683 212.499 323.941 212.042 324.398C211.584 324.855 211.327 325.474 211.325 326.121C211.325 326.148 211.332 326.173 211.332 326.2C211.353 325.568 211.619 324.969 212.073 324.529C212.526 324.089 213.133 323.841 213.765 323.839Z" fill="#22B2FF"/>
<path d="M240.093 389.086V381.507C240.096 380.331 240.565 379.204 241.397 378.372C242.229 377.54 243.356 377.071 244.532 377.068C245.708 377.071 246.835 377.54 247.667 378.372C248.499 379.204 248.968 380.331 248.971 381.507V389.086" fill="#22A4FD"/>
<path d="M211.335 397.31C210.939 397.311 210.554 397.175 210.246 396.926C209.937 396.678 209.723 396.331 209.64 395.943C209.556 395.556 209.608 395.151 209.787 394.798C209.965 394.444 210.26 394.162 210.621 393.999C221.558 389.062 233.421 386.508 245.421 386.508C257.421 386.508 269.284 389.062 280.221 393.999C280.431 394.091 280.621 394.223 280.78 394.389C280.938 394.554 281.063 394.75 281.145 394.964C281.228 395.178 281.267 395.406 281.26 395.635C281.254 395.865 281.202 396.09 281.108 396.299C281.013 396.508 280.878 396.697 280.711 396.853C280.543 397.009 280.346 397.131 280.131 397.211C279.916 397.291 279.687 397.327 279.458 397.317C279.229 397.308 279.004 397.253 278.796 397.156C268.306 392.422 256.929 389.974 245.421 389.974C233.913 389.974 222.536 392.422 212.046 397.156C211.823 397.258 211.58 397.31 211.335 397.31Z" fill="#2273DB"/>
<path d="M250.88 385.296H238.877C237.963 385.296 237.222 386.037 237.222 386.951V389.377C237.222 390.291 237.963 391.032 238.877 391.032H250.88C251.794 391.032 252.535 390.291 252.535 389.377V386.951C252.535 386.037 251.794 385.296 250.88 385.296Z" fill="#F87100"/>
<path d="M245.073 388.164H244.678C244.114 388.164 243.656 388.622 243.656 389.186V402.518C243.656 403.082 244.114 403.54 244.678 403.54H245.073C245.637 403.54 246.095 403.082 246.095 402.518V389.186C246.095 388.622 245.637 388.164 245.073 388.164Z" fill="#2273DB"/>
<path d="M244.879 398.533C245.756 398.533 246.596 398.882 247.216 399.502C247.836 400.122 248.184 400.962 248.184 401.839V408.089C248.169 408.956 247.814 409.782 247.196 410.389C246.577 410.997 245.745 411.338 244.878 411.338C244.012 411.338 243.179 410.997 242.561 410.389C241.943 409.782 241.588 408.956 241.573 408.089V401.839C241.573 400.962 241.921 400.121 242.541 399.501C243.161 398.881 244.002 398.533 244.879 398.533Z" fill="#F87100"/>
<path d="M282.502 405.5C285.948 405.5 288.742 402.706 288.742 399.26C288.742 395.814 285.948 393.02 282.502 393.02C279.056 393.02 276.262 395.814 276.262 399.26C276.262 402.706 279.056 405.5 282.502 405.5Z" fill="#F87100"/>
<path d="M282.502 393.179C284.142 393.18 285.716 393.827 286.883 394.98C288.049 396.133 288.715 397.7 288.734 399.34C288.734 399.313 288.742 399.288 288.742 399.26C288.742 397.605 288.085 396.018 286.914 394.848C285.744 393.677 284.157 393.02 282.502 393.02C280.847 393.02 279.26 393.677 278.09 394.848C276.919 396.018 276.262 397.605 276.262 399.26C276.262 399.287 276.27 399.313 276.27 399.34C276.29 397.7 276.955 396.133 278.121 394.98C279.288 393.827 280.862 393.18 282.502 393.179Z" fill="#F87100"/>
<path d="M282.502 402.981C284.557 402.981 286.223 401.315 286.223 399.26C286.223 397.205 284.557 395.539 282.502 395.539C280.447 395.539 278.781 397.205 278.781 399.26C278.781 401.315 280.447 402.981 282.502 402.981Z" fill="#67A5FF"/>
<path d="M282.502 400.754C283.327 400.754 283.996 400.085 283.996 399.26C283.996 398.435 283.327 397.766 282.502 397.766C281.677 397.766 281.008 398.435 281.008 399.26C281.008 400.085 281.677 400.754 282.502 400.754Z" fill="#2273DB"/>
<path d="M282.502 397.846C282.89 397.847 283.262 397.999 283.539 398.27C283.817 398.541 283.978 398.909 283.988 399.297C283.988 399.284 283.996 399.272 283.996 399.258C283.996 398.862 283.839 398.482 283.558 398.202C283.278 397.921 282.898 397.764 282.502 397.764C282.106 397.764 281.726 397.921 281.446 398.202C281.165 398.482 281.008 398.862 281.008 399.258C281.008 399.272 281.015 399.284 281.015 399.297C281.025 398.909 281.186 398.541 281.464 398.27C281.742 397.999 282.114 397.847 282.502 397.846Z" fill="#5FFFFF"/>
<path d="M209.602 405.5C213.048 405.5 215.842 402.706 215.842 399.26C215.842 395.814 213.048 393.02 209.602 393.02C206.156 393.02 203.362 395.814 203.362 399.26C203.362 402.706 206.156 405.5 209.602 405.5Z" fill="#F87100"/>
<path d="M209.602 393.179C211.242 393.18 212.816 393.827 213.983 394.98C215.149 396.133 215.815 397.7 215.834 399.34C215.834 399.313 215.842 399.288 215.842 399.26C215.842 397.605 215.185 396.018 214.014 394.848C212.844 393.677 211.257 393.02 209.602 393.02C207.947 393.02 206.36 393.677 205.19 394.848C204.019 396.018 203.362 397.605 203.362 399.26C203.362 399.287 203.37 399.313 203.37 399.34C203.39 397.7 204.055 396.133 205.221 394.98C206.388 393.827 207.962 393.18 209.602 393.179Z" fill="#2273DB"/>
<path d="M209.602 402.981C211.657 402.981 213.323 401.315 213.323 399.26C213.323 397.205 211.657 395.539 209.602 395.539C207.547 395.539 205.881 397.205 205.881 399.26C205.881 401.315 207.547 402.981 209.602 402.981Z" fill="#67A5FF"/>
<path d="M209.602 400.754C210.427 400.754 211.096 400.085 211.096 399.26C211.096 398.435 210.427 397.766 209.602 397.766C208.777 397.766 208.108 398.435 208.108 399.26C208.108 400.085 208.777 400.754 209.602 400.754Z" fill="#2273DB"/>
<path d="M209.602 397.846C209.99 397.847 210.362 397.999 210.639 398.27C210.917 398.541 211.078 398.909 211.088 399.297C211.088 399.284 211.096 399.272 211.096 399.258C211.086 398.869 210.924 398.499 210.645 398.227C210.366 397.955 209.992 397.803 209.602 397.803C209.213 397.803 208.839 397.955 208.56 398.227C208.281 398.499 208.119 398.869 208.109 399.258C208.109 399.272 208.116 399.284 208.116 399.297C208.126 398.909 208.287 398.541 208.565 398.27C208.842 397.999 209.214 397.847 209.602 397.846Z" fill="#5FFFFF"/>
<path d="M257.224 231.877H231.839C227.125 231.877 223.304 235.698 223.304 240.412V243.701C223.304 248.415 227.125 252.236 231.839 252.236H257.224C261.938 252.236 265.759 248.415 265.759 243.701V240.412C265.759 235.698 261.938 231.877 257.224 231.877Z" fill="#F87100"/>
<path d="M255.581 231.877H233.481C230.784 231.885 228.2 232.96 226.292 234.867C224.385 236.775 223.31 239.359 223.302 242.056C223.302 242.113 223.309 242.168 223.31 242.224C223.361 239.557 224.454 237.016 226.355 235.145C228.256 233.274 230.814 232.221 233.481 232.213H255.581C258.248 232.222 260.806 233.274 262.707 235.145C264.608 237.016 265.701 239.557 265.752 242.224C265.752 242.168 265.76 242.113 265.76 242.056C265.752 239.359 264.677 236.774 262.77 234.867C260.863 232.96 258.278 231.885 255.581 231.877Z" fill="#226EE5"/>
<path d="M246.575 239.574H242.489C240.949 239.574 239.7 240.823 239.7 242.363V318.254C239.7 319.794 240.949 321.043 242.489 321.043H246.575C248.115 321.043 249.364 319.794 249.364 318.254V242.363C249.364 240.823 248.115 239.574 246.575 239.574Z" fill="#111F9A"/>
<path d="M247.752 244.653H241.311C240.993 244.653 240.736 244.91 240.736 245.228V246.176C240.736 246.494 240.993 246.751 241.311 246.751H247.752C248.07 246.751 248.327 246.494 248.327 246.176V245.228C248.327 244.91 248.07 244.653 247.752 244.653Z" fill="#1159C9"/>
<path d="M247.752 244.653H241.311C240.993 244.653 240.736 244.91 240.736 245.228V246.069C240.736 246.387 240.993 246.644 241.311 246.644H247.752C248.07 246.644 248.327 246.387 248.327 246.069V245.228C248.327 244.91 248.07 244.653 247.752 244.653Z" fill="#111B54"/>
<path d="M247.752 250.427H241.311C240.993 250.427 240.736 250.684 240.736 251.002V251.95C240.736 252.268 240.993 252.525 241.311 252.525H247.752C248.07 252.525 248.327 252.268 248.327 251.95V251.002C248.327 250.684 248.07 250.427 247.752 250.427Z" fill="#1159C9"/>
<path d="M247.752 250.427H241.311C240.993 250.427 240.736 250.684 240.736 251.002V251.843C240.736 252.161 240.993 252.418 241.311 252.418H247.752C248.07 252.418 248.327 252.161 248.327 251.843V251.002C248.327 250.684 248.07 250.427 247.752 250.427Z" fill="#111B54"/>
<path d="M247.752 255.913H241.311C240.993 255.913 240.736 256.17 240.736 256.488V257.436C240.736 257.754 240.993 258.011 241.311 258.011H247.752C248.07 258.011 248.327 257.754 248.327 257.436V256.488C248.327 256.17 248.07 255.913 247.752 255.913Z" fill="#1159C9"/>
<path d="M247.752 255.913H241.311C240.993 255.913 240.736 256.17 240.736 256.488V257.329C240.736 257.647 240.993 257.904 241.311 257.904H247.752C248.07 257.904 248.327 257.647 248.327 257.329V256.488C248.327 256.17 248.07 255.913 247.752 255.913Z" fill="#111B54"/>
<path d="M247.752 261.398H241.311C240.993 261.398 240.736 261.655 240.736 261.973V262.921C240.736 263.239 240.993 263.496 241.311 263.496H247.752C248.07 263.496 248.327 263.239 248.327 262.921V261.973C248.327 261.655 248.07 261.398 247.752 261.398Z" fill="#1159C9"/>
<path d="M247.752 261.398H241.311C240.993 261.398 240.736 261.655 240.736 261.973V262.814C240.736 263.132 240.993 263.389 241.311 263.389H247.752C248.07 263.389 248.327 263.132 248.327 262.814V261.973C248.327 261.655 248.07 261.398 247.752 261.398Z" fill="#111B54"/>
<path d="M247.752 266.884H241.311C240.993 266.884 240.736 267.141 240.736 267.459V268.407C240.736 268.725 240.993 268.982 241.311 268.982H247.752C248.07 268.982 248.327 268.725 248.327 268.407V267.459C248.327 267.141 248.07 266.884 247.752 266.884Z" fill="#1159C9"/>
<path d="M247.752 266.884H241.311C240.993 266.884 240.736 267.141 240.736 267.459V268.3C240.736 268.618 240.993 268.875 241.311 268.875H247.752C248.07 268.875 248.327 268.618 248.327 268.3V267.459C248.327 267.141 248.07 266.884 247.752 266.884Z" fill="#111B54"/>
<path d="M247.752 272.369H241.311C240.993 272.369 240.736 272.626 240.736 272.944V273.892C240.736 274.21 240.993 274.467 241.311 274.467H247.752C248.07 274.467 248.327 274.21 248.327 273.892V272.944C248.327 272.626 248.07 272.369 247.752 272.369Z" fill="#1159C9"/>
<path d="M247.752 272.369H241.311C240.993 272.369 240.736 272.626 240.736 272.944V273.785C240.736 274.103 240.993 274.36 241.311 274.36H247.752C248.07 274.36 248.327 274.103 248.327 273.785V272.944C248.327 272.626 248.07 272.369 247.752 272.369Z" fill="#111B54"/>
<path d="M247.752 277.855H241.311C240.993 277.855 240.736 278.112 240.736 278.43V279.378C240.736 279.696 240.993 279.953 241.311 279.953H247.752C248.07 279.953 248.327 279.696 248.327 279.378V278.43C248.327 278.112 248.07 277.855 247.752 277.855Z" fill="#1159C9"/>
<path d="M247.752 277.855H241.311C240.993 277.855 240.736 278.112 240.736 278.43V279.271C240.736 279.589 240.993 279.846 241.311 279.846H247.752C248.07 279.846 248.327 279.589 248.327 279.271V278.43C248.327 278.112 248.07 277.855 247.752 277.855Z" fill="#111B54"/>
<path d="M247.752 283.34H241.311C240.993 283.34 240.736 283.597 240.736 283.915V284.863C240.736 285.181 240.993 285.438 241.311 285.438H247.752C248.07 285.438 248.327 285.181 248.327 284.863V283.915C248.327 283.597 248.07 283.34 247.752 283.34Z" fill="#1159C9"/>
<path d="M247.752 283.34H241.311C240.993 283.34 240.736 283.597 240.736 283.915V284.756C240.736 285.074 240.993 285.331 241.311 285.331H247.752C248.07 285.331 248.327 285.074 248.327 284.756V283.915C248.327 283.597 248.07 283.34 247.752 283.34Z" fill="#111B54"/>
<path d="M247.752 288.826H241.311C240.993 288.826 240.736 289.083 240.736 289.401V290.349C240.736 290.667 240.993 290.924 241.311 290.924H247.752C248.07 290.924 248.327 290.667 248.327 290.349V289.401C248.327 289.083 248.07 288.826 247.752 288.826Z" fill="#1159C9"/>
<path d="M247.752 288.826H241.311C240.993 288.826 240.736 289.083 240.736 289.401V290.242C240.736 290.56 240.993 290.817 241.311 290.817H247.752C248.07 290.817 248.327 290.56 248.327 290.242V289.401C248.327 289.083 248.07 288.826 247.752 288.826Z" fill="#111B54"/>
<path d="M247.752 294.311H241.311C240.993 294.311 240.736 294.568 240.736 294.886V295.834C240.736 296.152 240.993 296.409 241.311 296.409H247.752C248.07 296.409 248.327 296.152 248.327 295.834V294.886C248.327 294.568 248.07 294.311 247.752 294.311Z" fill="#1159C9"/>
<path d="M247.752 294.311H241.311C240.993 294.311 240.736 294.568 240.736 294.886V295.727C240.736 296.045 240.993 296.302 241.311 296.302H247.752C248.07 296.302 248.327 296.045 248.327 295.727V294.886C248.327 294.568 248.07 294.311 247.752 294.311Z" fill="#111B54"/>
<path d="M247.752 299.797H241.311C240.993 299.797 240.736 300.054 240.736 300.372V301.32C240.736 301.638 240.993 301.895 241.311 301.895H247.752C248.07 301.895 248.327 301.638 248.327 301.32V300.372C248.327 300.054 248.07 299.797 247.752 299.797Z" fill="#1159C9"/>
<path d="M247.752 299.797H241.311C240.993 299.797 240.736 300.054 240.736 300.372V301.213C240.736 301.531 240.993 301.788 241.311 301.788H247.752C248.07 301.788 248.327 301.531 248.327 301.213V300.372C248.327 300.054 248.07 299.797 247.752 299.797Z" fill="#111B54"/>
<path d="M247.752 305.282H241.311C240.993 305.282 240.736 305.539 240.736 305.857V306.805C240.736 307.123 240.993 307.38 241.311 307.38H247.752C248.07 307.38 248.327 307.123 248.327 306.805V305.857C248.327 305.539 248.07 305.282 247.752 305.282Z" fill="#1159C9"/>
<path d="M247.752 305.282H241.311C240.993 305.282 240.736 305.539 240.736 305.857V306.698C240.736 307.016 240.993 307.273 241.311 307.273H247.752C248.07 307.273 248.327 307.016 248.327 306.698V305.857C248.327 305.539 248.07 305.282 247.752 305.282Z" fill="#111B54"/>
<path d="M247.752 310.768H241.311C240.993 310.768 240.736 311.025 240.736 311.343V312.291C240.736 312.609 240.993 312.866 241.311 312.866H247.752C248.07 312.866 248.327 312.609 248.327 312.291V311.343C248.327 311.025 248.07 310.768 247.752 310.768Z" fill="#1159C9"/>
<path d="M247.752 310.768H241.311C240.993 310.768 240.736 311.025 240.736 311.343V312.184C240.736 312.502 240.993 312.759 241.311 312.759H247.752C248.07 312.759 248.327 312.502 248.327 312.184V311.343C248.327 311.025 248.07 310.768 247.752 310.768Z" fill="#111B54"/>
<path d="M336.989 256.868C335.812 256.868 334.661 256.519 333.682 255.865C332.703 255.212 331.94 254.282 331.489 253.194C331.039 252.107 330.921 250.91 331.15 249.755C331.38 248.601 331.947 247.54 332.779 246.708C333.611 245.875 334.672 245.308 335.826 245.078C336.981 244.849 338.178 244.967 339.265 245.417C340.353 245.867 341.283 246.63 341.937 247.609C342.591 248.588 342.94 249.739 342.94 250.916C342.94 252.494 342.313 254.008 341.197 255.124C340.081 256.241 338.567 256.868 336.989 256.868ZM336.989 246.728C336.161 246.728 335.351 246.973 334.662 247.433C333.973 247.894 333.436 248.548 333.119 249.313C332.802 250.078 332.719 250.92 332.88 251.733C333.042 252.545 333.441 253.292 334.027 253.877C334.612 254.463 335.359 254.862 336.171 255.024C336.984 255.185 337.826 255.102 338.591 254.785C339.356 254.468 340.01 253.931 340.471 253.242C340.931 252.553 341.176 251.743 341.176 250.915C341.176 249.805 340.734 248.74 339.949 247.955C339.164 247.169 338.099 246.728 336.989 246.728Z" fill="#34C6E7"/>
<path d="M336.86 242.521V254.48C336.852 257.037 335.833 259.488 334.024 261.296C332.216 263.104 329.765 264.124 327.208 264.131C324.651 264.124 322.2 263.104 320.391 261.296C318.583 259.488 317.564 257.037 317.556 254.48V242.521H336.86Z" fill="#34DCE7"/>
<path d="M336.09 262.816H318.326C317.828 262.816 317.425 263.219 317.425 263.717V264.544C317.425 265.042 317.828 265.445 318.326 265.445H336.09C336.588 265.445 336.991 265.042 336.991 264.544V263.717C336.991 263.219 336.588 262.816 336.09 262.816Z" fill="#34C6E7"/>
<path d="M199.793 77.217H72.014L71.897 76.641C71.3161 73.8093 71.6034 70.8683 72.7215 68.2026C73.8395 65.537 75.7361 63.2709 78.1632 61.7009C80.5903 60.1309 83.4348 59.3301 86.3245 59.4033C89.2142 59.4764 92.0145 60.4202 94.359 62.111C95.9249 54.3358 99.9786 47.2813 105.908 42.0134C111.837 36.7456 119.32 33.5504 127.225 32.9106C135.131 32.2708 143.03 34.2212 149.729 38.4671C156.428 42.713 161.563 49.0237 164.359 56.446C167.712 53.3884 171.947 51.4702 176.457 50.9663C180.967 50.4623 185.521 51.3983 189.467 53.6404C193.412 55.8824 196.547 59.3154 198.423 63.4478C200.298 67.5802 200.818 72.2001 199.908 76.646L199.793 77.217ZM73.204 75.779H198.604C199.336 71.5699 198.706 67.237 196.804 63.4113C194.902 59.5856 191.829 56.4671 188.031 54.5099C184.234 52.5527 179.91 51.8592 175.691 52.5303C171.472 53.2014 167.577 55.2021 164.574 58.241L163.757 59.066L163.38 57.966C160.853 50.5756 155.933 44.2395 149.398 39.9611C142.864 35.6826 135.089 33.7063 127.305 34.3452C119.521 34.9841 112.172 38.2017 106.423 43.4883C100.673 48.7749 96.8521 55.8285 95.564 63.532L95.355 64.791L94.385 63.96C92.5104 62.3479 90.2125 61.3077 87.7642 60.9631C85.3159 60.6185 82.8201 60.9838 80.5734 62.0158C78.3266 63.0478 76.4233 64.703 75.0895 66.7848C73.7557 68.8666 73.0475 71.2876 73.049 73.76C73.0492 74.436 73.1017 75.111 73.206 75.779H73.204Z" fill="#2D61F0"/>
<path d="M137.287 70.441H125.7C124.968 70.4402 124.266 70.1491 123.749 69.6314C123.231 69.1138 122.94 68.412 122.939 67.68V60.591H119.881C119.379 60.5912 118.889 60.4426 118.472 60.1641C118.055 59.8855 117.73 59.4896 117.538 59.0262C117.346 58.5629 117.296 58.053 117.394 57.5612C117.492 57.0693 117.733 56.6175 118.088 56.263L129.701 44.651C130.184 44.1909 130.826 43.9343 131.493 43.9343C132.161 43.9343 132.803 44.1909 133.286 44.651L144.899 56.263C145.253 56.6178 145.494 57.0696 145.592 57.5614C145.69 58.0532 145.639 58.5629 145.447 59.0261C145.255 59.4892 144.93 59.8851 144.513 60.1637C144.096 60.4422 143.606 60.5909 143.105 60.591H140.047V67.68C140.046 68.4118 139.755 69.1135 139.238 69.6311C138.72 70.1487 138.019 70.4399 137.287 70.441ZM131.494 45.347C131.35 45.3466 131.207 45.3748 131.074 45.4301C130.941 45.4854 130.82 45.5666 130.719 45.669L119.106 57.28C118.954 57.434 118.851 57.6292 118.81 57.8413C118.769 58.0535 118.791 58.2731 118.873 58.4728C118.956 58.6725 119.096 58.8434 119.275 58.9642C119.454 59.085 119.665 59.1503 119.881 59.152H124.381V67.679C124.382 68.0294 124.522 68.3653 124.769 68.6129C125.017 68.8605 125.354 68.9997 125.704 69H137.291C137.641 68.9997 137.978 68.8605 138.226 68.6129C138.474 68.3653 138.613 68.0294 138.614 67.679V59.152H143.114C143.33 59.1505 143.541 59.0853 143.721 58.9646C143.9 58.8439 144.04 58.673 144.123 58.4732C144.205 58.2735 144.227 58.0538 144.186 57.8416C144.145 57.6293 144.042 57.434 143.89 57.28L132.27 45.668C132.168 45.5657 132.047 45.4845 131.914 45.4292C131.781 45.3739 131.638 45.3467 131.494 45.347Z" fill="#2D61F0"/>
<path d="M315.245 24.21H262.868L262.819 23.974C262.741 23.5862 262.702 23.1916 262.701 22.796C262.7 21.7121 262.999 20.649 263.564 19.724C264.129 18.7989 264.938 18.0479 265.903 17.5537C266.868 17.0595 267.95 16.8414 269.031 16.9233C270.112 17.0052 271.149 17.384 272.028 18.018C272.67 14.8308 274.332 11.9392 276.762 9.77979C279.193 7.62043 282.26 6.31071 285.5 6.04847C288.741 5.78624 291.979 6.58574 294.725 8.3262C297.471 10.0667 299.576 12.6535 300.722 15.696C302.097 14.4464 303.832 13.6633 305.679 13.4584C307.526 13.2534 309.391 13.6372 311.007 14.5548C312.623 15.4724 313.908 16.877 314.678 18.5682C315.448 20.2593 315.664 22.1506 315.296 23.972L315.245 24.21ZM263.355 23.621H314.755C314.835 23.1546 314.875 22.6822 314.875 22.209C314.875 20.5783 314.39 18.9844 313.482 17.6299C312.574 16.2755 311.284 15.2216 309.775 14.6023C308.267 13.9831 306.608 13.8264 305.01 14.1522C303.412 14.478 301.948 15.2716 300.802 16.432L300.467 16.771L300.313 16.32C299.278 13.2895 297.261 10.691 294.582 8.9363C291.904 7.1816 288.716 6.37103 285.524 6.63302C282.333 6.89501 279.32 8.21458 276.963 10.3826C274.606 12.5507 273.04 15.4433 272.513 18.602L272.427 19.118L272.027 18.777C271.204 18.0733 270.185 17.6385 269.107 17.5313C268.03 17.4241 266.945 17.6495 266 18.1772C265.054 18.705 264.293 19.5097 263.818 20.4832C263.344 21.4566 263.179 22.552 263.346 23.622L263.355 23.621Z" fill="#2D61F0"/>
<path d="M289.624 21.433H284.874C284.574 21.4327 284.286 21.3134 284.074 21.1012C283.862 20.8889 283.742 20.6011 283.742 20.301V17.401H282.488C282.282 17.4008 282.081 17.3398 281.911 17.2255C281.74 17.1112 281.607 16.9488 281.528 16.7589C281.449 16.5689 281.429 16.36 281.469 16.1583C281.509 15.9567 281.608 15.7714 281.753 15.626L286.513 10.866C286.711 10.6772 286.974 10.5718 287.247 10.5718C287.521 10.5718 287.784 10.6772 287.982 10.866L292.743 15.626C292.889 15.7713 292.988 15.9565 293.028 16.1583C293.069 16.3601 293.048 16.5694 292.97 16.7595C292.891 16.9496 292.757 17.1121 292.586 17.2263C292.415 17.3405 292.214 17.4013 292.008 17.401H290.754V20.301C290.753 20.6007 290.634 20.888 290.423 21.1002C290.211 21.3123 289.924 21.4319 289.624 21.433ZM287.251 11.146C287.192 11.1459 287.133 11.1576 287.079 11.1802C287.024 11.2029 286.975 11.2361 286.933 11.278L282.173 16.038C282.11 16.1007 282.067 16.1807 282.05 16.2679C282.032 16.355 282.041 16.4454 282.075 16.5275C282.109 16.6096 282.167 16.6798 282.24 16.7292C282.314 16.7786 282.401 16.805 282.49 16.805H284.334V20.305C284.334 20.4486 284.391 20.5862 284.493 20.6876C284.595 20.789 284.732 20.846 284.876 20.846H289.624C289.695 20.8461 289.766 20.8322 289.831 20.8051C289.897 20.778 289.957 20.7382 290.008 20.688C290.058 20.6377 290.098 20.578 290.125 20.5123C290.153 20.4466 290.167 20.3762 290.167 20.305V16.81H292.011C292.1 16.81 292.187 16.7836 292.261 16.7342C292.334 16.6848 292.392 16.6146 292.426 16.5325C292.46 16.4504 292.469 16.36 292.451 16.2729C292.434 16.1857 292.391 16.1057 292.328 16.043L287.568 11.283C287.527 11.2403 287.477 11.2062 287.422 11.1829C287.367 11.1595 287.309 11.1473 287.249 11.147L287.251 11.146Z" fill="#2D61F0"/>
<path opacity="0.3" d="M219.992 64.888H42V65.753H219.992V64.888Z" fill="#34DCE7"/>
<path opacity="0.3" d="M42 64.888H219.992V165.965C219.992 167.959 219.2 169.871 217.79 171.28C216.381 172.69 214.469 173.482 212.475 173.482H49.517C47.5234 173.482 45.6114 172.69 44.2017 171.28C42.792 169.871 42 167.959 42 165.965V64.888Z" fill="#34DCE7"/>
<path opacity="0.3" d="M152.459 87.335H57.679V121.357H152.459V87.335Z" fill="#34DCE7"/>
<path opacity="0.3" d="M91.237 128.075H57.909V138.63H91.237V128.075Z" fill="#34DCE7"/>
<path opacity="0.3" d="M152.69 128.075H96.239V138.63H152.69V128.075Z" fill="#34DCE7"/>
<path opacity="0.3" d="M210.571 87.711H158.976V102.44H210.571V87.711Z" fill="#34DCE7"/>
<path opacity="0.3" d="M210.571 144.972H57.909V159.701H210.571V144.972Z" fill="#34DCE7"/>
<path opacity="0.3" d="M210.571 106.289H158.976V139.805H210.571V106.289Z" fill="#34DCE7"/>
<path opacity="0.3" d="M219.992 64.888H42V82.644H219.992V64.888Z" fill="#34DCE7"/>
<path opacity="0.66" d="M219.992 82.302H42V82.644H219.992V82.302Z" fill="#34DCE7"/>
<path d="M49.151 76.239C50.7637 76.239 52.071 74.9317 52.071 73.319C52.071 71.7063 50.7637 70.399 49.151 70.399C47.5383 70.399 46.231 71.7063 46.231 73.319C46.231 74.9317 47.5383 76.239 49.151 76.239Z" fill="#2A5FD1"/>
<path d="M57.91 76.239C59.5227 76.239 60.83 74.9317 60.83 73.319C60.83 71.7063 59.5227 70.399 57.91 70.399C56.2973 70.399 54.99 71.7063 54.99 73.319C54.99 74.9317 56.2973 76.239 57.91 76.239Z" fill="#2A5FD1"/>
<path d="M66.601 76.239C68.2137 76.239 69.521 74.9317 69.521 73.319C69.521 71.7063 68.2137 70.399 66.601 70.399C64.9883 70.399 63.681 71.7063 63.681 73.319C63.681 74.9317 64.9883 76.239 66.601 76.239Z" fill="#2A5FD1"/>
<path opacity="0.3" d="M49.622 85.182H48.679C47.327 85.182 46.231 86.278 46.231 87.63V164.014C46.231 165.366 47.327 166.462 48.679 166.462H49.622C50.974 166.462 52.07 165.366 52.07 164.014V87.63C52.07 86.278 50.974 85.182 49.622 85.182Z" fill="#34DCE7"/>
<path d="M49.133 87.711H48.756C48.2159 87.711 47.778 88.1489 47.778 88.689V108.061C47.778 108.601 48.2159 109.039 48.756 109.039H49.133C49.6731 109.039 50.111 108.601 50.111 108.061V88.689C50.111 88.1489 49.6731 87.711 49.133 87.711Z" fill="#34DCE7"/>
<path d="M87.638 130.508H76.457" stroke="#F87100" stroke-linecap="round" stroke-linejoin="round"/>
<path d="M86.595 135.428H60.804" stroke="#F87100" stroke-linecap="round" stroke-linejoin="round"/>
<path d="M99.117 130.508H103.738" stroke="#F87100" stroke-linecap="round" stroke-linejoin="round"/>
<path d="M107.541 130.508H112.162" stroke="#F87100" stroke-linecap="round" stroke-linejoin="round"/>
<path d="M115.964 130.508H120.585" stroke="#F87100" stroke-linecap="round" stroke-linejoin="round"/>
<path d="M124.387 130.508H129.008" stroke="#F87100" stroke-linecap="round" stroke-linejoin="round"/>
<path d="M132.81 130.508H137.431" stroke="#F87100" stroke-linecap="round" stroke-linejoin="round"/>
<path d="M141.233 130.508H145.854" stroke="#F87100" stroke-linecap="round" stroke-linejoin="round"/>
<path d="M99.117 134.1H102.099" stroke="#F87100" stroke-linecap="round" stroke-linejoin="round"/>
<path d="M106.05 134.1H109.032" stroke="#F87100" stroke-linecap="round" stroke-linejoin="round"/>
<path d="M112.982 134.1H115.964" stroke="#F87100" stroke-linecap="round" stroke-linejoin="round"/>
<path d="M119.914 134.1H122.896" stroke="#F87100" stroke-linecap="round" stroke-linejoin="round"/>
<path d="M126.846 134.1H129.828" stroke="#F87100" stroke-linecap="round" stroke-linejoin="round"/>
<path d="M133.779 134.1H136.761" stroke="#F87100" stroke-linecap="round" stroke-linejoin="round"/>
<path d="M140.711 134.1H143.693" stroke="#F87100" stroke-linecap="round" stroke-linejoin="round"/>
<path d="M64.45 148.733L61.168 152.015L64.322 155.169" stroke="#F87100" stroke-linecap="round" stroke-linejoin="round"/>
<path d="M67.732 148.733L64.45 152.015L67.604 155.169" stroke="#F87100" stroke-linecap="round" stroke-linejoin="round"/>
<path d="M167.598 91.857L164.316 95.14L167.47 98.294" stroke="#F87100" stroke-linecap="round" stroke-linejoin="round"/>
<path d="M162.67 110.112H188.647" stroke="#F87100" stroke-linecap="round" stroke-linejoin="round"/>
<path d="M162.67 113.292H172.877" stroke="#F87100" stroke-linecap="round" stroke-linejoin="round"/>
<path d="M162.67 118.284H172.877" stroke="#F87100" stroke-linecap="round" stroke-linejoin="round"/>
<path d="M162.67 123.276H172.877" stroke="#F87100" stroke-linecap="round" stroke-linejoin="round"/>
<path d="M162.67 128.267H172.877" stroke="#F87100" stroke-linecap="round" stroke-linejoin="round"/>
<path d="M203.175 116.346H196.256" stroke="#F87100" stroke-linecap="round" stroke-linejoin="round"/>
<path d="M203.175 119.185H196.256" stroke="#F87100" stroke-linecap="round" stroke-linejoin="round"/>
<path d="M203.175 122.025H196.256" stroke="#F87100" stroke-linecap="round" stroke-linejoin="round"/>
<path d="M203.175 124.864H196.256" stroke="#F87100" stroke-linecap="round" stroke-linejoin="round"/>
<path d="M203.175 127.704H196.256" stroke="#F87100" stroke-linecap="round" stroke-linejoin="round"/>
<path d="M203.175 130.544H196.256" stroke="#F87100" stroke-linecap="round" stroke-linejoin="round"/>
<path d="M203.175 133.383H196.256" stroke="#F87100" stroke-linecap="round" stroke-linejoin="round"/>
<path d="M203.175 136.223H196.256" stroke="#F87100" stroke-linecap="round" stroke-linejoin="round"/>
<path d="M75.862 148.733H145.854" stroke="#F87100" stroke-linecap="round" stroke-linejoin="round"/>
<path d="M75.862 151.951H118.274" stroke="#F87100" stroke-linecap="round" stroke-linejoin="round"/>
<path d="M75.862 156.482H118.274" stroke="#F87100" stroke-linecap="round" stroke-linejoin="round"/>
<path d="M127.161 104.457L130.689 144.305L146.531 148.732L162.368 144.307L165.902 104.457H127.161ZM158.361 117.488L157.916 122.494L156.571 137.503L146.531 140.276H146.525L136.495 137.5L135.795 129.652H140.71L141.075 133.725L146.529 135.197L146.535 135.191L151.995 133.719L152.739 126.937L135.561 126.985L135.074 122.344L153.152 122.134L153.517 117.167L134.589 117.22L134.271 112.604H158.796L158.361 117.488Z" fill="#2753CC"/>
<path d="M79.382 74.763L82.245 111.39C82.266 111.659 82.3668 111.915 82.5344 112.127C82.7021 112.338 82.9289 112.494 83.186 112.576L98.25 117.353C98.5165 117.437 98.8025 117.437 99.069 117.353L114.134 112.577C114.391 112.495 114.618 112.339 114.786 112.128C114.953 111.916 115.054 111.66 115.075 111.391L117.939 74.763C117.953 74.5768 117.929 74.3896 117.868 74.2131C117.807 74.0367 117.709 73.8748 117.583 73.7377C117.456 73.6006 117.302 73.4912 117.131 73.4164C116.96 73.3416 116.775 73.303 116.588 73.303H80.732C80.5453 73.3031 80.3606 73.3419 80.1896 73.4167C80.0185 73.4916 79.8648 73.601 79.7381 73.7381C79.6113 73.8752 79.5142 74.037 79.453 74.2134C79.3917 74.3897 79.3675 74.5769 79.382 74.763ZM110.597 86.127H91.938L92.501 91.32H110.191L109.034 106.12L98.66 109.413L88.282 106.124L87.682 98.39H93.127V102.183L98.805 103.703L104.45 102.179L104.888 96.133H87.505L86.351 81.373H110.968L110.597 86.127Z" fill="#2753CC"/>
<path opacity="0.3" d="M106.676 167.612H190.836V239.128C190.836 241.122 190.044 243.034 188.634 244.443C187.225 245.853 185.313 246.645 183.319 246.645H114.193C112.199 246.645 110.287 245.853 108.878 244.443C107.468 243.034 106.676 241.122 106.676 239.128V167.612Z" fill="#34DCE7"/>
<path opacity="0.3" d="M187.233 184.222H118.254V208.983H187.233V184.222Z" fill="#34DCE7"/>
<path opacity="0.3" d="M142.509 213.598H118.254V221.28H142.509V213.598Z" fill="#34DCE7"/>
<path opacity="0.3" d="M187.234 213.598H146.15V221.28H187.234V213.598Z" fill="#34DCE7"/>
<path opacity="0.3" d="M190.836 167.612H106.676V180.535H190.836V167.612Z" fill="#34DCE7"/>
<path opacity="0.66" d="M190.836 180.285H106.676V180.534H190.836V180.285Z" fill="#34DCE7"/>
<path d="M111.88 175.873C113.054 175.873 114.005 174.922 114.005 173.748C114.005 172.574 113.054 171.623 111.88 171.623C110.706 171.623 109.755 172.574 109.755 173.748C109.755 174.922 110.706 175.873 111.88 175.873Z" fill="#2A5FD1"/>
<path d="M118.255 175.873C119.429 175.873 120.38 174.922 120.38 173.748C120.38 172.574 119.429 171.623 118.255 171.623C117.081 171.623 116.13 172.574 116.13 173.748C116.13 174.922 117.081 175.873 118.255 175.873Z" fill="#2A5FD1"/>
<path d="M124.58 171.623C125 171.623 125.411 171.748 125.761 171.981C126.11 172.215 126.382 172.547 126.543 172.935C126.704 173.323 126.746 173.75 126.664 174.163C126.582 174.575 126.38 174.953 126.083 175.251C125.785 175.548 125.407 175.75 124.995 175.832C124.582 175.914 124.155 175.872 123.767 175.711C123.378 175.55 123.047 175.278 122.813 174.929C122.58 174.579 122.455 174.168 122.455 173.748C122.455 173.184 122.679 172.644 123.077 172.245C123.476 171.847 124.016 171.623 124.58 171.623Z" fill="#2A5FD1"/>
<path opacity="0.3" d="M112.422 182.382H111.338C110.464 182.382 109.755 183.091 109.755 183.965V239.953C109.755 240.827 110.464 241.536 111.338 241.536H112.422C113.296 241.536 114.005 240.827 114.005 239.953V183.965C114.005 183.091 113.296 182.382 112.422 182.382Z" fill="#34DCE7"/>
<path d="M111.947 184.222H111.513C111.164 184.222 110.881 184.505 110.881 184.854V199.112C110.881 199.461 111.164 199.744 111.513 199.744H111.947C112.296 199.744 112.579 199.461 112.579 199.112V184.854C112.579 184.505 112.296 184.222 111.947 184.222Z" fill="#34DCE7"/>
<path d="M120.934 187.761H149.98" stroke="#F87100" stroke-linecap="round" stroke-linejoin="round"/>
<path d="M152.744 187.761H157.467" stroke="#F87100" stroke-linecap="round" stroke-linejoin="round"/>
<path d="M162.675 187.761H183.29" stroke="#F87100" stroke-linecap="round" stroke-linejoin="round"/>
<path d="M120.934 190.74H156.056" stroke="#F87100" stroke-linecap="round" stroke-linejoin="round"/>
<path d="M159.529 190.198H173.807" stroke="#F87100" stroke-linecap="round" stroke-linejoin="round"/>
<path d="M176.454 190.198H183.723" stroke="#F87100" stroke-linecap="round" stroke-linejoin="round"/>
<path d="M122.455 194.429H163.977" stroke="#F87100" stroke-linecap="round" stroke-linejoin="round"/>
<path d="M168.859 194.429H180.089" stroke="#F87100" stroke-linecap="round" stroke-linejoin="round"/>
<path d="M183.723 197.743H151.608" stroke="#F87100" stroke-linecap="round" stroke-linejoin="round"/>
<path d="M165.387 202.241H120.934" stroke="#F87100" stroke-linecap="round" stroke-linejoin="round"/>
<path d="M151.608 205.062H184.483" stroke="#F87100" stroke-linecap="round" stroke-linejoin="round"/>
<path d="M155.105 206.472H128.064" stroke="#F87100" stroke-linecap="round" stroke-linejoin="round"/>
<path d="M120.934 197.743H132.729" stroke="#F87100" stroke-linecap="round" stroke-linejoin="round"/>
<path d="M139.89 215.369H131.753" stroke="#F87100" stroke-linecap="round" stroke-linejoin="round"/>
<path d="M139.131 218.949H120.361" stroke="#F87100" stroke-linecap="round" stroke-linejoin="round"/>
<path d="M148.245 215.369H151.608" stroke="#F87100" stroke-linecap="round" stroke-linejoin="round"/>
<path d="M154.375 215.369H157.738" stroke="#F87100" stroke-linecap="round" stroke-linejoin="round"/>
<path d="M160.505 215.369H163.868" stroke="#F87100" stroke-linecap="round" stroke-linejoin="round"/>
<path d="M166.635 215.369H169.998" stroke="#F87100" stroke-linecap="round" stroke-linejoin="round"/>
<path d="M172.765 215.369H176.128" stroke="#F87100" stroke-linecap="round" stroke-linejoin="round"/>
<path d="M178.895 215.369H182.258" stroke="#F87100" stroke-linecap="round" stroke-linejoin="round"/>
<path d="M148.245 217.983H150.415" stroke="#F87100" stroke-linecap="round" stroke-linejoin="round"/>
<path d="M153.29 217.983H155.46" stroke="#F87100" stroke-linecap="round" stroke-linejoin="round"/>
<path d="M158.335 217.983H160.505" stroke="#F87100" stroke-linecap="round" stroke-linejoin="round"/>
<path d="M163.38 217.983H165.55" stroke="#F87100" stroke-linecap="round" stroke-linejoin="round"/>
<path d="M168.425 217.983H170.595" stroke="#F87100" stroke-linecap="round" stroke-linejoin="round"/>
<path d="M173.471 217.983H175.641" stroke="#F87100" stroke-linecap="round" stroke-linejoin="round"/>
<path d="M178.516 217.983H180.686" stroke="#F87100" stroke-linecap="round" stroke-linejoin="round"/>
<path d="M123.014 231.573L120.625 233.962L122.925 236.262" stroke="#F87100" stroke-linecap="round" stroke-linejoin="round"/>
<path d="M125.403 231.573L123.014 233.962L125.314 236.262" stroke="#F87100" stroke-linecap="round" stroke-linejoin="round"/>
<path opacity="0.3" d="M314.901 208.573H382.007V235.139C382.007 236.126 381.813 237.104 381.435 238.016C381.057 238.928 380.503 239.756 379.805 240.454C379.107 241.152 378.279 241.706 377.367 242.084C376.455 242.462 375.477 242.656 374.49 242.656H322.418C320.424 242.656 318.512 241.864 317.103 240.454C315.693 239.045 314.901 237.133 314.901 235.139V208.573Z" fill="#34DCE7"/>
<path opacity="0.3" d="M360.819 218.506H321.825V233.314H360.819V218.506Z" fill="#34DCE7"/>
<path opacity="0.3" d="M382.007 208.573H314.901V216.301H382.007V208.573Z" fill="#34DCE7"/>
<path opacity="0.3" d="M318.013 213.846C318.898 213.846 319.616 213.128 319.616 212.243C319.616 211.358 318.898 210.64 318.013 210.64C317.128 210.64 316.41 211.358 316.41 212.243C316.41 213.128 317.128 213.846 318.013 213.846Z" fill="#34DCE7"/>
<path d="M318.013 213.845C317.591 213.845 317.186 213.678 316.886 213.381C316.587 213.084 316.416 212.68 316.413 212.258V212.275C316.413 212.7 316.582 213.108 316.883 213.408C317.183 213.709 317.591 213.878 318.016 213.878C318.441 213.878 318.849 213.709 319.15 213.408C319.45 213.108 319.619 212.7 319.619 212.275V212.258C319.616 212.681 319.445 213.086 319.144 213.383C318.843 213.681 318.436 213.847 318.013 213.845Z" fill="#34DCE7"/>
<path opacity="0.3" d="M321.825 213.846C322.71 213.846 323.428 213.128 323.428 212.243C323.428 211.358 322.71 210.64 321.825 210.64C320.94 210.64 320.222 211.358 320.222 212.243C320.222 213.128 320.94 213.846 321.825 213.846Z" fill="#34DCE7"/>
<path d="M321.826 213.845C321.404 213.845 320.999 213.678 320.699 213.381C320.4 213.084 320.229 212.68 320.226 212.258V212.275C320.226 212.7 320.395 213.108 320.696 213.408C320.996 213.709 321.404 213.878 321.829 213.878C322.254 213.878 322.662 213.709 322.962 213.408C323.263 213.108 323.432 212.7 323.432 212.275V212.258C323.429 212.681 323.258 213.086 322.957 213.383C322.656 213.681 322.249 213.847 321.826 213.845Z" fill="#34DCE7"/>
<path opacity="0.3" d="M325.608 213.846C326.493 213.846 327.211 213.128 327.211 212.243C327.211 211.358 326.493 210.64 325.608 210.64C324.723 210.64 324.005 211.358 324.005 212.243C324.005 213.128 324.723 213.846 325.608 213.846Z" fill="#34DCE7"/>
<path d="M325.608 213.845C325.186 213.845 324.781 213.678 324.481 213.381C324.182 213.084 324.011 212.68 324.008 212.258V212.275C324.008 212.699 324.177 213.106 324.477 213.406C324.777 213.706 325.184 213.875 325.608 213.875C326.032 213.875 326.439 213.706 326.739 213.406C327.039 213.106 327.208 212.699 327.208 212.275V212.258C327.205 212.68 327.034 213.084 326.735 213.381C326.435 213.678 326.03 213.845 325.608 213.845Z" fill="#34DCE7"/>
<path opacity="0.66" d="M382.007 216.152H314.901V216.301H382.007V216.152Z" fill="#34DCE7"/>
<path d="M318.013 213.514C318.715 213.514 319.284 212.945 319.284 212.243C319.284 211.541 318.715 210.972 318.013 210.972C317.311 210.972 316.742 211.541 316.742 212.243C316.742 212.945 317.311 213.514 318.013 213.514Z" fill="#34DCE7"/>
<path d="M321.825 213.514C322.527 213.514 323.096 212.945 323.096 212.243C323.096 211.541 322.527 210.972 321.825 210.972C321.123 210.972 320.554 211.541 320.554 212.243C320.554 212.945 321.123 213.514 321.825 213.514Z" fill="#DBFF0E"/>
<path d="M325.608 213.514C326.31 213.514 326.879 212.945 326.879 212.243C326.879 211.541 326.31 210.972 325.608 210.972C324.906 210.972 324.337 211.541 324.337 212.243C324.337 212.945 324.906 213.514 325.608 213.514Z" fill="#FF2995"/>
<path opacity="0.3" d="M318.218 217.406H317.807C317.219 217.406 316.742 217.883 316.742 218.471V238.536C316.742 239.124 317.219 239.601 317.807 239.601H318.218C318.806 239.601 319.283 239.124 319.283 238.536V218.471C319.283 217.883 318.806 217.406 318.218 217.406Z" fill="#34DCE7"/>
<path d="M318.005 218.506H317.842C317.607 218.506 317.416 218.697 317.416 218.932V227.363C317.416 227.598 317.607 227.789 317.842 227.789H318.005C318.24 227.789 318.431 227.598 318.431 227.363V218.932C318.431 218.697 318.24 218.506 318.005 218.506Z" fill="#34DCE7"/>
<path d="M335.557 220.09H323.281C323.226 220.09 323.173 220.068 323.134 220.029C323.095 219.99 323.073 219.937 323.073 219.882C323.073 219.827 323.095 219.774 323.134 219.735C323.173 219.696 323.226 219.674 323.281 219.674H335.557C335.612 219.674 335.665 219.696 335.704 219.735C335.743 219.774 335.765 219.827 335.765 219.882C335.765 219.937 335.743 219.99 335.704 220.029C335.665 220.068 335.612 220.09 335.557 220.09Z" fill="#34FBE7"/>
<path d="M338.173 220.09H336.522C336.467 220.09 336.414 220.068 336.375 220.029C336.336 219.99 336.314 219.937 336.314 219.882C336.314 219.827 336.336 219.774 336.375 219.735C336.414 219.696 336.467 219.674 336.522 219.674H338.173C338.228 219.674 338.281 219.696 338.32 219.735C338.359 219.774 338.381 219.827 338.381 219.882C338.381 219.937 338.359 219.99 338.32 220.029C338.281 220.068 338.228 220.09 338.173 220.09Z" fill="#34FBE7"/>
<path d="M354.881 220.09H339.995C339.94 220.09 339.887 220.068 339.848 220.029C339.809 219.99 339.787 219.937 339.787 219.882C339.787 219.827 339.809 219.774 339.848 219.735C339.887 219.696 339.94 219.674 339.995 219.674H354.882C354.937 219.674 354.99 219.696 355.029 219.735C355.068 219.774 355.09 219.827 355.09 219.882C355.09 219.937 355.068 219.99 355.029 220.029C354.99 220.068 354.937 220.09 354.882 220.09H354.881Z" fill="#34FBE7"/>
<path d="M337.681 221.135H323.281C323.226 221.135 323.173 221.113 323.134 221.074C323.095 221.035 323.073 220.982 323.073 220.927C323.073 220.872 323.095 220.819 323.134 220.78C323.173 220.741 323.226 220.719 323.281 220.719H337.681C337.736 220.719 337.789 220.741 337.828 220.78C337.867 220.819 337.889 220.872 337.889 220.927C337.889 220.982 337.867 221.035 337.828 221.074C337.789 221.113 337.736 221.135 337.681 221.135Z" fill="#34FBE7"/>
<path d="M351.567 220.946H338.894C338.839 220.946 338.786 220.924 338.747 220.885C338.708 220.846 338.686 220.793 338.686 220.738C338.686 220.683 338.708 220.63 338.747 220.591C338.786 220.552 338.839 220.53 338.894 220.53H351.567C351.622 220.53 351.675 220.552 351.714 220.591C351.753 220.63 351.775 220.683 351.775 220.738C351.775 220.793 351.753 220.846 351.714 220.885C351.675 220.924 351.622 220.946 351.567 220.946Z" fill="#34FBE7"/>
<path d="M355.034 220.946H352.494C352.439 220.946 352.386 220.924 352.347 220.885C352.308 220.846 352.286 220.793 352.286 220.738C352.286 220.683 352.308 220.63 352.347 220.591C352.386 220.552 352.439 220.53 352.494 220.53H355.034C355.089 220.53 355.142 220.552 355.181 220.591C355.22 220.63 355.242 220.683 355.242 220.738C355.242 220.793 355.22 220.846 355.181 220.885C355.142 220.924 355.089 220.946 355.034 220.946Z" fill="#34FBE7"/>
<path d="M340.449 222.425H323.812C323.783 222.427 323.755 222.423 323.728 222.413C323.701 222.404 323.676 222.389 323.655 222.369C323.634 222.35 323.617 222.326 323.606 222.3C323.594 222.274 323.589 222.245 323.589 222.217C323.589 222.188 323.594 222.159 323.606 222.133C323.617 222.107 323.634 222.083 323.655 222.064C323.676 222.044 323.701 222.029 323.728 222.02C323.755 222.01 323.783 222.006 323.812 222.008H340.449C340.478 222.006 340.506 222.01 340.533 222.02C340.56 222.029 340.585 222.044 340.606 222.064C340.627 222.083 340.644 222.107 340.655 222.133C340.667 222.159 340.672 222.188 340.672 222.217C340.672 222.245 340.667 222.274 340.655 222.3C340.644 222.326 340.627 222.35 340.606 222.369C340.585 222.389 340.56 222.404 340.533 222.413C340.506 222.423 340.478 222.427 340.449 222.425Z" fill="#34FBE7"/>
<path d="M353.763 222.425H349.838C349.809 222.427 349.781 222.423 349.754 222.413C349.727 222.404 349.702 222.389 349.681 222.369C349.66 222.35 349.643 222.326 349.632 222.3C349.62 222.274 349.615 222.245 349.615 222.217C349.615 222.188 349.62 222.159 349.632 222.133C349.643 222.107 349.66 222.083 349.681 222.064C349.702 222.044 349.727 222.029 349.754 222.02C349.781 222.01 349.809 222.006 349.838 222.008H353.763C353.792 222.006 353.82 222.01 353.847 222.02C353.874 222.029 353.899 222.044 353.92 222.064C353.941 222.083 353.958 222.107 353.969 222.133C353.981 222.159 353.986 222.188 353.986 222.217C353.986 222.245 353.981 222.274 353.969 222.3C353.958 222.326 353.941 222.35 353.92 222.369C353.899 222.389 353.874 222.404 353.847 222.413C353.82 222.423 353.792 222.427 353.763 222.425Z" fill="#34FBE7"/>
<path d="M355.033 223.584H336.126C336.073 223.58 336.024 223.557 335.988 223.518C335.952 223.479 335.931 223.428 335.931 223.376C335.931 223.323 335.952 223.272 335.988 223.233C336.024 223.194 336.073 223.171 336.126 223.167H355.033C355.086 223.171 355.135 223.194 355.171 223.233C355.207 223.272 355.228 223.323 355.228 223.376C355.228 223.428 355.207 223.479 355.171 223.518C355.135 223.557 355.086 223.58 355.033 223.584Z" fill="#34FBE7"/>
<path d="M340.943 225.156H323.281C323.226 225.156 323.172 225.134 323.133 225.095C323.094 225.056 323.072 225.002 323.072 224.947C323.072 224.892 323.094 224.838 323.133 224.799C323.172 224.76 323.226 224.738 323.281 224.738H340.943C340.998 224.738 341.052 224.76 341.091 224.799C341.13 224.838 341.152 224.892 341.152 224.947C341.152 225.002 341.13 225.056 341.091 225.095C341.052 225.134 340.998 225.156 340.943 225.156Z" fill="#34FBE7"/>
<path d="M355.299 226.142H336.126C336.073 226.138 336.024 226.115 335.988 226.076C335.952 226.037 335.931 225.986 335.931 225.934C335.931 225.881 335.952 225.83 335.988 225.791C336.024 225.752 336.073 225.729 336.126 225.725H355.299C355.352 225.729 355.401 225.752 355.437 225.791C355.473 225.83 355.494 225.881 355.494 225.934C355.494 225.986 355.473 226.037 355.437 226.076C355.401 226.115 355.352 226.138 355.299 226.142Z" fill="#34FBE7"/>
<path d="M331.048 226.634H325.772C325.717 226.634 325.664 226.612 325.625 226.573C325.586 226.534 325.564 226.481 325.564 226.426C325.564 226.371 325.586 226.318 325.625 226.279C325.664 226.24 325.717 226.218 325.772 226.218H331.048C331.103 226.218 331.156 226.24 331.195 226.279C331.234 226.318 331.256 226.371 331.256 226.426C331.256 226.481 331.234 226.534 331.195 226.573C331.156 226.612 331.103 226.634 331.048 226.634Z" fill="#34FBE7"/>
<path d="M327.403 223.584H323.281C323.252 223.586 323.224 223.582 323.197 223.572C323.17 223.563 323.145 223.548 323.124 223.528C323.103 223.509 323.086 223.485 323.075 223.459C323.063 223.433 323.058 223.404 323.058 223.376C323.058 223.347 323.063 223.318 323.075 223.292C323.086 223.266 323.103 223.242 323.124 223.223C323.145 223.203 323.17 223.188 323.197 223.179C323.224 223.169 323.252 223.165 323.281 223.167H327.403C327.456 223.171 327.505 223.194 327.541 223.233C327.577 223.272 327.598 223.323 327.598 223.376C327.598 223.428 327.577 223.479 327.541 223.518C327.505 223.557 327.456 223.58 327.403 223.584Z" fill="#34FBE7"/>
<path opacity="0.3" d="M281.272 36.447H400.926V202.588C400.926 204.582 400.134 206.494 398.724 207.903C397.315 209.313 395.403 210.105 393.409 210.105H288.789C286.795 210.105 284.883 209.313 283.474 207.903C282.064 206.494 281.272 204.582 281.272 202.588V36.447Z" fill="#F87100"/>
<path opacity="0.3" d="M391.961 59.27H297.181V142.2H391.961V59.27Z" fill="#F87100"/>
<path opacity="0.3" d="M330.509 164.698H297.181V175.253H330.509V164.698Z" fill="#F87100"/>
<path opacity="0.3" d="M391.962 164.698H335.511V175.253H391.962V164.698Z" fill="#F87100"/>
<path opacity="0.3" d="M391.961 181.594H297.181V196.323H391.961V181.594Z" fill="#F87100"/>
<path opacity="0.3" d="M400.926 36.447H281.272V54.203H400.926V36.447Z" fill="#F87100"/>
<path opacity="0.66" d="M400.926 53.861H281.272V54.203H400.926V53.861Z" fill="#F87100"/>
<path d="M288.422 47.798C290.035 47.798 291.342 46.4906 291.342 44.878C291.342 43.2653 290.035 41.958 288.422 41.958C286.809 41.958 285.502 43.2653 285.502 44.878C285.502 46.4906 286.809 47.798 288.422 47.798Z" fill="#2A5FD1"/>
<path d="M297.182 47.798C298.795 47.798 300.102 46.4906 300.102 44.878C300.102 43.2653 298.795 41.958 297.182 41.958C295.569 41.958 294.262 43.2653 294.262 44.878C294.262 46.4906 295.569 47.798 297.182 47.798Z" fill="#2A5FD1"/>
<path d="M305.873 47.798C307.486 47.798 308.793 46.4906 308.793 44.878C308.793 43.2653 307.486 41.958 305.873 41.958C304.26 41.958 302.953 43.2653 302.953 44.878C302.953 46.4906 304.26 47.798 305.873 47.798Z" fill="#2A5FD1"/>
<path opacity="0.3" d="M288.893 56.741H287.95C286.598 56.741 285.502 57.837 285.502 59.189V200.636C285.502 201.988 286.598 203.084 287.95 203.084H288.893C290.245 203.084 291.341 201.988 291.341 200.636V59.189C291.341 57.837 290.245 56.741 288.893 56.741Z" fill="#F87100"/>
<path d="M288.405 59.27H288.028C287.488 59.27 287.05 59.7079 287.05 60.248V79.62C287.05 80.1601 287.488 80.598 288.028 80.598H288.405C288.945 80.598 289.383 80.1601 289.383 79.62V60.248C289.383 59.7079 288.945 59.27 288.405 59.27Z" fill="#F87100"/>
<path d="M300.864 64.133H340.775" stroke="white" stroke-linecap="round" stroke-linejoin="round"/>
<path d="M344.571 64.133H351.061" stroke="white" stroke-linecap="round" stroke-linejoin="round"/>
<path d="M358.217 64.133H386.542" stroke="white" stroke-linecap="round" stroke-linejoin="round"/>
<path d="M300.864 68.226H349.124" stroke="white" stroke-linecap="round" stroke-linejoin="round"/>
<path d="M353.894 67.481H373.512" stroke="white" stroke-linecap="round" stroke-linejoin="round"/>
<path d="M377.15 67.481H387.138" stroke="white" stroke-linecap="round" stroke-linejoin="round"/>
<path d="M302.953 73.295H360.006" stroke="white" stroke-linecap="round" stroke-linejoin="round"/>
<path d="M366.715 73.295H382.145" stroke="white" stroke-linecap="round" stroke-linejoin="round"/>
<path d="M387.139 77.848H343.011" stroke="white" stroke-linecap="round" stroke-linejoin="round"/>
<path d="M361.944 84.028H300.864" stroke="white" stroke-linecap="round" stroke-linejoin="round"/>
<path d="M343.011 87.905H388.182" stroke="white" stroke-linecap="round" stroke-linejoin="round"/>
<path d="M386.435 148.356H349.279" stroke="white" stroke-linecap="round" stroke-linejoin="round"/>
<path d="M300.864 77.848H317.071" stroke="white" stroke-linecap="round" stroke-linejoin="round"/>
<path d="M326.91 167.131H315.729" stroke="white" stroke-linecap="round" stroke-linejoin="round"/>
<path d="M325.867 172.051H300.076" stroke="white" stroke-linecap="round" stroke-linejoin="round"/>
<path d="M338.389 167.131H343.01" stroke="white" stroke-linecap="round" stroke-linejoin="round"/>
<path d="M346.813 167.131H351.434" stroke="white" stroke-linecap="round" stroke-linejoin="round"/>
<path d="M355.236 167.131H359.857" stroke="white" stroke-linecap="round" stroke-linejoin="round"/>
<path d="M363.659 167.131H368.28" stroke="white" stroke-linecap="round" stroke-linejoin="round"/>
<path d="M372.082 167.131H376.703" stroke="white" stroke-linecap="round" stroke-linejoin="round"/>
<path d="M380.505 167.131H385.126" stroke="white" stroke-linecap="round" stroke-linejoin="round"/>
<path d="M338.389 170.723H341.371" stroke="white" stroke-linecap="round" stroke-linejoin="round"/>
<path d="M345.322 170.723H348.304" stroke="white" stroke-linecap="round" stroke-linejoin="round"/>
<path d="M352.254 170.723H355.236" stroke="white" stroke-linecap="round" stroke-linejoin="round"/>
<path d="M359.186 170.723H362.168" stroke="white" stroke-linecap="round" stroke-linejoin="round"/>
<path d="M366.118 170.723H369.1" stroke="white" stroke-linecap="round" stroke-linejoin="round"/>
<path d="M373.051 170.723H376.033" stroke="white" stroke-linecap="round" stroke-linejoin="round"/>
<path d="M379.983 170.723H382.965" stroke="white" stroke-linecap="round" stroke-linejoin="round"/>
<path d="M303.722 185.356L300.44 188.638L303.594 191.792" stroke="white" stroke-linecap="round" stroke-linejoin="round"/>
<path d="M307.004 185.356L303.722 188.638L306.876 191.792" stroke="white" stroke-linecap="round" stroke-linejoin="round"/>
<path d="M315.134 185.356H385.126" stroke="white" stroke-linecap="round" stroke-linejoin="round"/>
<path d="M315.134 188.574H357.546" stroke="white" stroke-linecap="round" stroke-linejoin="round"/>
<path d="M315.134 193.104H357.546" stroke="white" stroke-linecap="round" stroke-linejoin="round"/>
<path d="M400.926 219.135C399.493 219.135 398.093 218.71 396.902 217.914C395.711 217.118 394.783 215.987 394.234 214.664C393.686 213.34 393.543 211.884 393.822 210.479C394.102 209.074 394.791 207.783 395.804 206.77C396.817 205.757 398.108 205.068 399.513 204.788C400.918 204.509 402.374 204.652 403.698 205.2C405.021 205.749 406.152 206.677 406.948 207.868C407.744 209.059 408.169 210.459 408.169 211.892C408.169 213.813 407.406 215.655 406.048 217.014C404.689 218.372 402.847 219.135 400.926 219.135ZM400.926 205.953C399.751 205.953 398.603 206.301 397.626 206.954C396.65 207.606 395.889 208.534 395.439 209.619C394.99 210.704 394.872 211.899 395.101 213.051C395.33 214.203 395.896 215.261 396.727 216.092C397.557 216.922 398.615 217.488 399.767 217.717C400.919 217.946 402.114 217.828 403.199 217.379C404.284 216.929 405.212 216.168 405.864 215.192C406.517 214.215 406.865 213.067 406.865 211.892C406.865 210.317 406.239 208.806 405.126 207.693C404.012 206.579 402.501 205.953 400.926 205.953Z" fill="#2D61F0"/>
<path d="M81.548 189.966C80.1154 189.966 78.715 189.541 77.5239 188.745C76.3328 187.949 75.4044 186.818 74.8562 185.495C74.3081 184.171 74.1647 182.715 74.4442 181.31C74.7238 179.905 75.4137 178.614 76.4268 177.601C77.4398 176.588 78.7305 175.898 80.1356 175.619C81.5406 175.34 82.997 175.483 84.3205 176.032C85.6439 176.58 86.7751 177.508 87.5708 178.7C88.3666 179.891 88.7912 181.291 88.791 182.724C88.791 184.645 88.0279 186.487 86.6696 187.846C85.3112 189.204 83.469 189.966 81.548 189.966ZM81.548 176.784C80.3734 176.784 79.2251 177.132 78.2483 177.784C77.2715 178.437 76.5102 179.364 76.0605 180.449C75.6108 181.534 75.493 182.729 75.7219 183.881C75.9509 185.033 76.5163 186.091 77.3468 186.922C78.1772 187.753 79.2354 188.318 80.3874 188.548C81.5394 188.777 82.7335 188.66 83.8188 188.21C84.9041 187.761 85.8318 187 86.4845 186.023C87.1373 185.047 87.4858 183.899 87.486 182.724C87.486 181.149 86.8604 179.639 85.7469 178.525C84.6333 177.411 83.1229 176.785 81.548 176.785V176.784Z" fill="#2D61F0"/>
<path d="M211.568 48.3418L209.882 50.028L224.993 65.1394L226.68 63.4532L211.568 48.3418Z" fill="#2D61F0"/>
<path d="M224.996 48.3413L209.882 63.455L211.568 65.1415L226.682 50.0278L224.996 48.3413Z" fill="#2D61F0"/>
<path d="M85.722 240.56L68.733 223.571L85.722 206.579L102.71 223.571L85.722 240.56ZM72.11 223.571L85.726 237.187L99.342 223.571L85.726 209.953L72.11 223.571Z" fill="#2D61F0"/>
<path d="M117.08 321.079L100.091 304.09L117.08 287.098L134.068 304.09L117.08 321.079ZM103.468 304.09L117.084 317.706L130.7 304.09L117.084 290.472L103.468 304.09Z" fill="#2D61F0"/>
<path d="M433.266 175.032L423.275 165.041L433.266 155.05L434.31 156.094L425.362 165.042L434.31 173.99L433.266 175.032Z" fill="#2D61F0"/>
<path d="M440.956 175.032L430.965 165.041L440.956 155.05L442 156.094L433.052 165.042L442 173.99L440.956 175.032Z" fill="#2D61F0"/>
<path d="M148.499 334.499L158.49 324.508L148.499 314.517L147.455 315.561L156.402 324.509L147.455 333.457L148.499 334.499Z" fill="#2D61F0"/>
<path d="M140.81 334.499L150.801 324.508L140.81 314.517L139.767 315.561L148.715 324.509L139.767 333.457L140.81 334.499Z" fill="#2D61F0"/>
<path d="M271.536 105.143L261.545 95.152L271.536 85.161L272.58 86.205L263.632 95.153L272.58 104.101L271.536 105.143Z" fill="#2D61F0"/>
<path d="M279.226 105.143L269.235 95.152L279.226 85.161L280.27 86.205L271.322 95.153L280.27 104.101L279.226 105.143Z" fill="#2D61F0"/>
<path d="M426.755 131.508H419.797C419.313 131.507 418.85 131.315 418.508 130.973C418.166 130.631 417.974 130.168 417.973 129.684V125.592H416.301C415.967 125.592 415.641 125.494 415.363 125.308C415.086 125.123 414.87 124.86 414.742 124.551C414.614 124.243 414.581 123.904 414.646 123.577C414.711 123.249 414.872 122.949 415.108 122.713L422.082 115.738C422.399 115.423 422.828 115.246 423.274 115.246C423.721 115.246 424.15 115.423 424.467 115.738L431.44 122.714C431.676 122.95 431.837 123.25 431.902 123.578C431.967 123.905 431.934 124.244 431.806 124.552C431.678 124.861 431.462 125.124 431.185 125.309C430.907 125.495 430.581 125.593 430.247 125.593H428.577V129.685C428.576 130.168 428.384 130.631 428.043 130.973C427.701 131.315 427.238 131.507 426.755 131.508ZM423.276 116.438C423.211 116.438 423.147 116.45 423.087 116.475C423.027 116.5 422.973 116.536 422.927 116.582L415.952 123.553C415.883 123.622 415.836 123.71 415.817 123.806C415.798 123.902 415.808 124.001 415.845 124.091C415.883 124.182 415.946 124.259 416.027 124.313C416.109 124.367 416.204 124.396 416.302 124.396H419.167V129.681C419.167 129.848 419.233 130.009 419.352 130.127C419.47 130.246 419.631 130.312 419.798 130.312H426.756C426.923 130.312 427.083 130.245 427.202 130.127C427.32 130.009 427.386 129.848 427.386 129.681V124.396H430.251C430.349 124.396 430.444 124.367 430.525 124.313C430.606 124.258 430.669 124.181 430.707 124.091C430.744 124.001 430.754 123.902 430.735 123.806C430.716 123.71 430.669 123.622 430.6 123.553L423.627 116.578C423.581 116.533 423.526 116.497 423.465 116.473C423.405 116.449 423.341 116.437 423.276 116.438Z" fill="#2D61F0"/>
<path d="M413.939 234.485C412.38 231.786 410.138 229.544 407.439 227.985C404.723 226.392 401.626 225.562 398.477 225.585C395.329 225.563 392.233 226.392 389.517 227.985C386.818 229.544 384.576 231.786 383.017 234.485C381.426 237.202 380.6 240.299 380.625 243.447C380.587 247.224 381.783 250.911 384.031 253.947C386.201 256.981 389.285 259.241 392.831 260.398C392.988 260.446 393.154 260.456 393.316 260.428C393.477 260.4 393.63 260.334 393.761 260.235C393.859 260.147 393.936 260.039 393.988 259.918C394.04 259.797 394.065 259.666 394.061 259.535C394.061 259.488 394.057 259.07 394.049 258.28C394.041 257.49 394.037 256.8 394.037 256.211L393.502 256.303C393.076 256.371 392.644 256.398 392.212 256.384C391.67 256.374 391.129 256.32 390.596 256.221C390.028 256.116 389.494 255.876 389.038 255.521C388.56 255.159 388.203 254.661 388.015 254.091L387.783 253.556C387.587 253.133 387.342 252.735 387.051 252.371C386.791 251.999 386.444 251.696 386.04 251.488L385.877 251.371C385.766 251.29 385.665 251.197 385.577 251.092C385.491 250.995 385.421 250.885 385.368 250.767C385.321 250.658 385.36 250.569 385.484 250.499C385.698 250.415 385.929 250.38 386.158 250.399L386.625 250.468C387.041 250.579 387.431 250.769 387.776 251.026C388.237 251.34 388.622 251.753 388.903 252.235C389.21 252.816 389.653 253.314 390.193 253.688C390.639 254.003 391.17 254.177 391.716 254.188C392.16 254.194 392.604 254.155 393.041 254.072C393.402 253.998 393.753 253.881 394.087 253.723C394.164 252.813 394.568 251.962 395.225 251.328C394.421 251.249 393.625 251.109 392.842 250.909C392.079 250.699 391.345 250.394 390.657 250.002C389.937 249.611 389.301 249.082 388.785 248.445C388.232 247.713 387.819 246.886 387.565 246.004C387.23 244.873 387.069 243.697 387.088 242.517C387.05 240.742 387.709 239.022 388.925 237.728C388.354 236.187 388.412 234.484 389.088 232.986C389.771 232.876 390.472 232.986 391.088 233.3C391.757 233.55 392.406 233.851 393.029 234.2C393.44 234.447 393.769 234.657 394.017 234.828C396.938 234.022 400.024 234.022 402.945 234.828L403.828 234.27C404.507 233.862 405.223 233.52 405.966 233.247C406.551 232.963 407.211 232.873 407.85 232.991C408.191 233.73 408.384 234.53 408.416 235.343C408.447 236.157 408.318 236.969 408.036 237.733C409.252 239.027 409.911 240.747 409.873 242.522C409.891 243.706 409.731 244.886 409.396 246.022C409.145 246.907 408.727 247.736 408.164 248.463C407.639 249.092 407 249.617 406.281 250.009C405.593 250.401 404.859 250.706 404.096 250.916C403.313 251.116 402.517 251.256 401.713 251.335C402.144 251.763 402.476 252.28 402.685 252.85C402.894 253.421 402.975 254.03 402.922 254.635V259.535C402.918 259.666 402.942 259.796 402.993 259.916C403.043 260.037 403.118 260.145 403.213 260.235C403.342 260.334 403.492 260.4 403.652 260.428C403.812 260.456 403.976 260.446 404.131 260.397C407.677 259.24 410.761 256.98 412.931 253.946C415.179 250.91 416.375 247.223 416.337 243.446C416.359 240.297 415.53 237.201 413.937 234.485H413.939Z" fill="#2753CC"/>
<path d="M278.319 60.494C276.998 60.4952 275.695 60.7986 274.509 61.381C274.135 60.7663 273.848 60.1031 273.655 59.41C273.546 58.864 273.521 58.3045 273.581 57.751C273.706 57.1434 273.873 56.5453 274.081 55.961C274.073 55.887 273.991 55.526 273.145 55.518C272.299 55.51 271.568 55.682 271.486 55.904C271.34 56.3134 271.222 56.7324 271.134 57.158C270.433 58.8824 269.573 60.5376 268.564 62.102C268.296 61.6534 268.099 61.166 267.981 60.657C267.872 60.111 267.847 59.5515 267.907 58.998C268.032 58.3904 268.199 57.7923 268.407 57.208C268.399 57.134 268.317 56.773 267.471 56.765C266.625 56.757 265.894 56.929 265.812 57.151C265.73 57.373 265.64 57.898 265.459 58.407C265.278 58.916 263.234 63.482 262.7 64.673C262.429 65.281 262.191 65.765 262.018 66.094C261.845 66.423 262.01 66.119 261.993 66.151L261.763 66.586V66.594C261.648 66.794 261.525 66.994 261.463 66.994C261.363 66.5638 261.368 66.1157 261.479 65.688C261.779 64.103 262.522 61.631 262.514 61.541C262.514 61.5 262.654 61.065 262.038 60.841C261.897 60.7721 261.738 60.7493 261.583 60.7759C261.428 60.8025 261.286 60.877 261.176 60.989C261.127 60.989 261.086 61.12 261.086 61.12C261.086 61.12 261.751 58.336 259.813 58.336C258.598 58.336 256.922 59.658 256.093 60.865C255.567 61.152 254.451 61.765 253.268 62.409C252.816 62.655 252.348 62.918 251.905 63.156L251.815 63.056C249.466 60.556 245.122 58.778 245.303 55.411C245.369 54.187 245.796 50.96 253.646 47.051C260.076 43.851 265.225 44.727 266.12 46.681C267.393 49.473 263.369 54.663 256.685 55.41C254.139 55.697 252.801 54.71 252.464 54.342C252.111 53.956 252.064 53.942 251.93 54.014C251.716 54.129 251.848 54.474 251.93 54.679C252.186 55.1404 252.531 55.5461 252.945 55.8724C253.36 56.1986 253.835 56.4389 254.344 56.579C256.969 57.1492 259.707 56.8792 262.17 55.807C266.218 54.239 269.38 49.886 268.452 46.248C267.512 42.548 261.37 41.336 255.564 43.397C251.923 44.6195 248.559 46.5476 245.664 49.071C242.466 52.058 241.957 54.672 242.171 55.758C242.918 59.624 248.244 62.145 250.382 64.009C250.275 64.066 250.182 64.124 250.082 64.173C249.014 64.698 244.95 66.825 243.931 69.073C242.781 71.619 244.112 73.45 244.999 73.696C246.329 74.0147 247.726 73.9098 248.993 73.396C250.261 72.8821 251.336 71.985 252.069 70.83C252.692 69.8732 253.075 68.78 253.185 67.6435C253.295 66.5069 253.129 65.3606 252.701 64.302L252.676 64.253L253.514 63.76C254.056 63.44 254.59 63.144 255.058 62.889C254.745 63.7895 254.56 64.7292 254.508 65.681C254.401 67.1432 254.849 68.5921 255.764 69.738C256.044 69.9767 256.407 70.0947 256.774 70.066C257.674 70.066 258.088 69.319 258.54 68.424C259.098 67.332 259.591 66.067 259.591 66.067C259.591 66.067 258.975 69.491 260.659 69.491C261.275 69.491 261.891 68.691 262.17 68.284V68.292C262.17 68.292 262.186 68.267 262.219 68.21C262.252 68.153 262.286 68.11 262.319 68.054V68.038C262.565 67.611 263.119 66.638 263.937 65.016C264.996 62.93 266.015 60.316 266.015 60.316C266.115 60.8873 266.249 61.4522 266.415 62.008C266.664 62.6838 266.957 63.3423 267.294 63.979C267.048 64.324 266.9 64.521 266.9 64.521L266.908 64.529C266.708 64.792 266.489 65.071 266.259 65.35C265.548 66.1295 264.89 66.9553 264.288 67.822C264.2 67.9673 264.169 68.1406 264.203 68.3074C264.236 68.4741 264.331 68.6222 264.469 68.722C264.787 68.8881 265.15 68.9457 265.504 68.886C266.035 68.8583 266.558 68.7389 267.048 68.533C267.522 68.3635 267.97 68.1278 268.378 67.833C268.798 67.543 269.136 67.1496 269.359 66.6907C269.582 66.2319 269.682 65.7232 269.651 65.214C269.604 64.5737 269.44 63.9474 269.167 63.366C269.241 63.259 269.315 63.152 269.389 63.038C270.243 61.7627 271.011 60.4321 271.689 59.055C271.789 59.6263 271.923 60.1912 272.089 60.747C272.294 61.3296 272.543 61.8953 272.836 62.439C271.854 63.1993 271.083 64.1974 270.594 65.339C270.11 66.739 270.487 67.367 271.202 67.515C271.591 67.54 271.979 67.4606 272.327 67.285C272.834 67.1184 273.313 66.873 273.744 66.558C274.2 66.288 274.583 65.9093 274.857 65.4556C275.131 65.002 275.289 64.4875 275.316 63.958C275.281 63.4305 275.162 62.912 274.963 62.422C276.257 61.9149 277.661 61.7536 279.036 61.954C282.69 62.381 283.413 64.664 283.273 65.616C283.207 65.9559 283.069 66.278 282.87 66.561C282.67 66.844 282.413 67.0816 282.115 67.258C281.86 67.414 281.778 67.472 281.803 67.586C281.836 67.759 281.951 67.75 282.173 67.717C282.722 67.5449 283.206 67.2102 283.561 66.7572C283.915 66.3042 284.124 65.7543 284.16 65.18C284.26 62.921 282.115 60.458 278.313 60.48L278.319 60.494ZM250.136 69.994C248.929 71.316 247.229 71.817 246.506 71.394C245.726 70.942 246.03 68.994 247.516 67.594C248.398 66.7958 249.352 66.0807 250.366 65.458C250.538 65.351 250.801 65.195 251.113 65.006C251.139 64.9882 251.167 64.9718 251.195 64.957C251.252 64.924 251.318 64.883 251.384 64.842C251.653 65.7343 251.68 66.6822 251.46 67.5881C251.241 68.4939 250.784 69.3238 250.136 69.994ZM258.964 63.994C258.545 65.02 257.658 67.656 257.125 67.509C256.665 67.386 256.386 65.39 257.035 63.42C257.365 62.4681 257.851 61.5773 258.472 60.784C259.137 60.045 259.86 59.799 260.041 60.102C260.253 60.494 259.227 63.352 258.964 63.992V63.994ZM266.244 67.474C266.063 67.564 265.899 67.63 265.825 67.581C265.768 67.548 265.899 67.425 265.899 67.425C265.899 67.425 266.811 66.448 267.172 65.996C267.372 65.733 267.624 65.429 267.886 65.084V65.184C267.818 65.6701 267.633 66.1324 267.347 66.5313C267.061 66.9301 266.683 67.2536 266.244 67.474ZM271.861 66.193C271.73 66.093 271.746 65.793 272.189 64.838C272.492 64.2225 272.917 63.6748 273.437 63.228C273.52 63.4542 273.561 63.6932 273.56 63.934C273.567 64.445 273.404 64.9438 273.098 65.3525C272.791 65.7613 272.358 66.0568 271.865 66.193H271.861Z" fill="#2753CC"/>
<path d="M81.548 207.471C81.5485 208.644 82.0148 209.768 82.8442 210.597C83.6736 211.426 84.7983 211.892 85.971 211.892H111.427C112.599 211.891 113.724 211.426 114.553 210.597C115.382 209.768 115.847 208.643 115.848 207.471V182.015C115.848 180.842 115.382 179.718 114.553 178.888C113.724 178.059 112.6 177.593 111.427 177.592H85.971C84.798 177.592 83.6729 178.058 82.8435 178.887C82.014 179.717 81.548 180.842 81.548 182.015V207.471Z" fill="#2753CC"/>
<path d="M95.772 192.765V187.908H100.048C100.443 187.906 100.837 187.94 101.226 188.008C101.579 188.067 101.918 188.191 102.226 188.372C102.519 188.548 102.761 188.799 102.926 189.099C103.114 189.468 103.204 189.878 103.188 190.292C103.22 190.647 103.166 191.005 103.029 191.334C102.892 191.664 102.677 191.955 102.403 192.183C101.815 192.59 101.111 192.795 100.396 192.765H95.772ZM91.205 184.359V205.128H101.269C102.187 205.13 103.101 205.012 103.989 204.779C104.832 204.564 105.63 204.2 106.345 203.703C107.034 203.217 107.597 202.574 107.988 201.827C108.441 200.871 108.648 199.816 108.589 198.76C108.531 197.703 108.209 196.678 107.654 195.777C106.96 194.812 105.944 194.126 104.789 193.843C105.632 193.469 106.36 192.877 106.898 192.127C107.396 191.347 107.645 190.434 107.611 189.509C107.637 188.668 107.473 187.832 107.13 187.064C106.827 186.425 106.36 185.878 105.777 185.479C105.142 185.059 104.43 184.768 103.683 184.621C102.795 184.439 101.89 184.351 100.983 184.359H91.205ZM95.772 201.579V195.879H100.746C101.594 195.836 102.432 196.076 103.13 196.559C103.451 196.841 103.7 197.195 103.856 197.592C104.013 197.989 104.072 198.417 104.03 198.842C104.048 199.304 103.953 199.763 103.754 200.18C103.582 200.515 103.326 200.801 103.012 201.009C102.684 201.22 102.319 201.368 101.936 201.445C101.515 201.534 101.086 201.578 100.656 201.576L95.772 201.579Z" fill="#3577FD"/>
<path d="M352.196 77.719C352.196 74.2871 343.898 71.505 333.663 71.505C323.428 71.505 315.13 74.2871 315.13 77.719C315.13 81.1509 323.428 83.933 333.663 83.933C343.898 83.933 352.196 81.1509 352.196 77.719Z" stroke="#2962FF" stroke-width="0.8"/>
<path d="M342.822 93.8915C345.794 92.1756 344.055 83.5987 338.937 74.7345C333.819 65.8703 327.261 60.0755 324.289 61.7914C321.317 63.5074 323.056 72.0843 328.174 80.9485C333.292 89.8127 339.85 95.6075 342.822 93.8915Z" stroke="#2962FF" stroke-width="0.8"/>
<path d="M342.821 61.7915C339.849 60.0756 333.291 65.8704 328.173 74.7345C323.055 83.5987 321.316 92.1756 324.288 93.8916C327.26 95.6075 333.818 89.8127 338.936 80.9485C344.054 72.0844 345.793 63.5074 342.821 61.7915Z" stroke="#2962FF" stroke-width="0.8"/>
<path d="M333.663 81.088C335.452 81.088 336.902 79.6378 336.902 77.849C336.902 76.0601 335.452 74.61 333.663 74.61C331.874 74.61 330.424 76.0601 330.424 77.849C330.424 79.6378 331.874 81.088 333.663 81.088Z" fill="#2962FF"/>
<path d="M390.411 123.377H357.311C356.26 123.376 355.253 122.958 354.51 122.215C353.767 121.472 353.349 120.465 353.348 119.414V86.314C353.349 85.2633 353.767 84.2559 354.51 83.5129C355.253 82.7699 356.26 82.3521 357.311 82.351H390.411C391.462 82.3521 392.469 82.7699 393.212 83.5129C393.955 84.2559 394.373 85.2633 394.374 86.314V119.414C394.373 120.465 393.955 121.472 393.212 122.215C392.469 122.958 391.462 123.376 390.411 123.377ZM357.311 84.682C356.879 84.6833 356.465 84.8558 356.16 85.1617C355.854 85.4675 355.683 85.8819 355.682 86.314V119.414C355.683 119.847 355.855 120.261 356.161 120.567C356.467 120.873 356.881 121.045 357.314 121.046H390.414C390.847 121.045 391.261 120.873 391.567 120.567C391.873 120.261 392.045 119.847 392.046 119.414V86.314C392.045 85.8813 391.873 85.4665 391.567 85.1606C391.261 84.8547 390.847 84.6825 390.414 84.682H357.311Z" fill="#2753CC"/>
<path d="M365.377 114.531L368.017 112.931C368.526 113.831 368.99 114.598 370.101 114.598C371.166 114.598 371.838 114.181 371.838 112.561V101.541H375.08V112.612C375.08 115.97 373.112 117.498 370.24 117.498C369.225 117.553 368.217 117.299 367.349 116.77C366.481 116.241 365.793 115.461 365.377 114.534" fill="#2753CC"/>
<path d="M376.84 114.184L379.48 112.656C379.774 113.252 380.23 113.753 380.796 114.101C381.362 114.45 382.015 114.631 382.68 114.624C384.023 114.624 384.88 113.952 384.88 113.024C384.88 111.913 384 111.524 382.518 110.871L381.708 110.523C379.369 109.523 377.818 108.277 377.818 105.637C377.818 103.206 379.67 101.353 382.565 101.353C383.503 101.285 384.44 101.495 385.26 101.956C386.079 102.417 386.745 103.11 387.173 103.947L384.649 105.568C384.483 105.153 384.195 104.797 383.823 104.549C383.451 104.301 383.012 104.172 382.565 104.179C382.37 104.159 382.173 104.18 381.987 104.241C381.8 104.302 381.629 104.4 381.483 104.531C381.337 104.662 381.219 104.822 381.139 105C381.058 105.179 381.015 105.372 381.013 105.568C381.013 106.541 381.613 106.934 383.004 107.536L383.814 107.883C386.57 109.064 388.121 110.268 388.121 112.977C388.121 115.895 385.829 117.492 382.749 117.492C381.551 117.567 380.357 117.295 379.31 116.708C378.263 116.12 377.409 115.243 376.849 114.181" fill="#2753CC"/>
</g>
<defs>
<clipPath id="clip0_1_2">
<rect width="475" height="450" fill="white"/>
</clipPath>
</defs>
</svg>
