<svg width="1000" height="950" viewBox="0 0 1000 950" fill="none"
    xmlns="http://www.w3.org/2000/svg">
    <path fill-rule="evenodd" clip-rule="evenodd" d="M349 201L594 163C620 159 646 177 650 204L662 285H663C668 285 672 288 673 292L681 345C682 350 679 354 674 355H673L742 800C746 826 728 852 701 856L457 894C430 898 405 879 401 853L333 416H329C328 416 328 416 327 415L323 384C322 383 323 383 324 383L328 382L326 373H322C321 373 321 373 321 372L316 341C316 340 316 340 317 340L321 339L308 257C304 230 323 205 349 201Z" fill="#292929"/>
    <path fill-rule="evenodd" clip-rule="evenodd" d="M351 212L417 202C420 210 429 215 438 214L512 202C522 201 528 193 530 184L595 174C616 171 635 185 638 206L731 801C734 822 720 841 699 845L455 883C435 886 415 872 412 851L319 255C316 235 330 215 351 212Z" fill="#ECF0FF"/>
    <path fill-rule="evenodd" clip-rule="evenodd" d="M195 216H199L205 207C205 206 206 205 207 204C208 204 210 204 211 204L224 207C225 207 226 208 227 209C228 210 228 211 228 212L229 222L233 225H234L243 223C245 222 246 222 247 223C248 223 249 224 250 225L257 236C258 237 258 239 258 240C258 241 257 242 256 243L250 251L251 256L260 261C261 262 262 263 262 264C263 265 263 266 262 268L259 281C259 282 258 283 258 284C257 285 255 285 254 285L244 286L241 290L244 300C244 301 244 303 243 304C243 305 242 306 241 307L230 314C229 314 228 315 226 315C225 315 224 314 223 313L215 307H210C210 307 210 307 210 308L205 316C204 317 203 318 202 319C201 319 200 319 199 319L186 316C184 316 183 315 183 314C182 313 181 312 181 311L180 301L176 298L166 300C165 301 164 301 163 300H162C161 300 160 299 160 298L153 287C152 286 152 284 152 283C152 282 152 281 153 280L160 272L159 267L150 262C149 261 148 260 148 259C147 258 147 257 147 255L150 243C150 241 151 240 152 239C153 239 154 238 155 238L165 237C166 237 166 237 166 237L168 233C168 230 167 226 166 223C166 222 166 221 166 219C167 218 167 217 168 217L180 209C181 209 182 208 183 209C184 209 186 209 187 210L194 216C194 216 195 217 195 216ZM199 230C203 230 208 230 212 231C216 231 220 233 223 236C226 238 229 241 232 245C234 248 235 252 236 256C237 260 237 265 236 269C235 273 233 276 231 280C228 283 225 286 222 288C218 291 214 292 210 293C206 294 202 294 198 293C194 292 190 290 186 288C183 285 180 282 178 279C176 275 174 271 173 267C173 263 173 259 174 255C175 251 176 247 179 243C181 240 184 237 188 235C191 232 195 231 199 230Z" fill="#FF7300"/>
    <path fill-rule="evenodd" clip-rule="evenodd" d="M244 161H246L248 157C248 157 248 157 249 156H250L255 157C256 158 256 158 257 158C257 159 257 159 257 160L258 164L259 165L263 164C264 164 264 164 265 164C265 164 266 164 266 165L269 169C269 170 269 170 269 171V172L266 175V177L270 179C270 180 271 180 271 180C271 181 271 181 271 182L270 187C270 188 269 188 269 188C269 189 268 189 268 189H264L262 191L263 195C264 195 264 196 263 196C263 197 263 197 262 198L258 200C258 201 257 201 257 201C256 201 256 201 255 200L252 198H250L248 201C248 202 247 202 247 202C246 203 246 203 245 203L240 201H239C239 200 238 200 238 199V195L236 194L232 195H231C230 195 230 194 230 194L227 190C227 189 226 189 226 188C227 188 227 187 227 187L230 184L229 182L226 180C225 179 225 179 225 178V177L226 172C226 171 226 171 227 170C227 170 227 170 228 170H232L233 168C233 167 233 165 232 164C232 163 232 163 232 162C232 162 233 162 233 161L238 158H239C240 158 240 158 241 159L244 161ZM246 167C247 167 249 167 251 167C252 167 254 168 255 169C257 170 258 171 259 173C260 174 260 176 260 177C261 179 261 181 260 182C260 184 259 185 258 187C257 188 256 189 255 190C253 191 252 192 250 192C248 192 247 192 245 192C243 192 242 191 240 190C239 189 238 188 237 186C236 185 236 183 235 182C235 180 235 178 235 177C236 175 236 173 237 172C238 171 240 170 241 169C242 168 244 167 246 167Z" fill="#019DD6"/>
    <path fill-rule="evenodd" clip-rule="evenodd" d="M640 79H642L645 74C646 74 646 73 647 73C647 73 648 72 649 73L656 74C657 74 657 75 658 75C658 76 659 76 659 77V83L661 84L667 83C668 83 668 83 669 83L670 84L674 91C675 91 675 92 675 93C675 93 675 94 674 94L670 99L671 101C671 101 671 101 671 102L676 104C676 105 677 105 677 106C677 106 678 107 677 108L676 115C676 116 675 116 675 117C674 117 674 118 673 118H667L666 120L667 126C667 127 667 127 667 128C667 129 666 129 666 129L659 133C659 134 658 134 657 134C657 134 656 134 656 133L651 130C651 129 651 129 651 129L649 130H648L646 135C645 135 645 136 644 136C643 136 643 137 642 136L635 135C634 135 634 134 633 134C633 133 632 133 632 132V126L630 125L624 126C623 126 623 126 622 126C621 126 621 125 620 125L617 118C616 118 616 117 616 116C616 116 616 115 617 115L620 110V108V107L615 105C614 104 614 104 614 103C613 102 613 102 614 101L615 94C615 93 616 93 616 92C617 92 617 91 618 91H624L625 89C625 87 624 85 624 83C624 82 624 82 624 81C624 80 625 80 625 80L631 76C632 75 633 75 633 75C634 75 635 75 635 76L640 79ZM642 87C645 87 647 87 649 87C652 88 654 89 656 90C657 91 659 93 660 95C662 97 662 99 663 101C663 104 663 106 663 108C662 111 661 113 660 115C659 116 657 118 655 119C653 121 651 121 648 122C646 122 644 122 642 122C639 121 637 120 635 119C633 118 632 116 631 114C629 112 628 110 628 108C628 105 628 103 628 101C629 98 630 96 631 94C632 93 634 91 636 90C638 88 640 88 642 87Z" fill="#019DD6"/>
    <path fill-rule="evenodd" clip-rule="evenodd" d="M694 113H695L697 110C698 110 698 109 698 110H702C703 111 703 111 703 111C704 111 704 112 704 112V115L705 116L708 115C709 115 709 115 709 115C710 115 710 116 710 116L712 119C713 120 713 120 713 120C713 121 712 121 712 121L710 124V125C710 125 710 125 711 125L713 127C713 127 714 127 714 128C714 128 714 128 714 129L713 133C713 133 713 133 713 134C712 134 712 134 712 134H708V136V139C708 139 708 139 708 140C708 140 708 140 708 141L704 143H703H702L700 141H698L697 144C696 144 696 144 696 144C695 144 695 144 695 144L691 143C690 143 690 143 690 143L689 142V139L688 138L685 139H684C683 138 683 138 683 138L681 135C681 134 681 134 681 134C681 133 681 133 681 132L683 130V129L680 127C680 127 679 127 679 126V125L680 121C680 121 680 120 681 120C681 120 681 120 682 120H685L686 118C685 117 685 116 685 115C685 115 685 115 685 114C685 114 685 114 686 113L689 111H690H691L693 113C693 113 693 113 694 113ZM695 118C696 117 697 117 699 118C700 118 701 118 702 119C703 120 704 121 705 122C705 123 706 124 706 125C706 127 706 128 706 129C706 130 705 131 704 133C704 134 703 134 702 135C701 136 699 136 698 136C697 137 696 137 695 136H694C693 136 692 136 691 135C690 134 689 133 688 132C688 131 687 130 687 129C687 127 687 126 687 125C687 124 688 122 689 121C689 120 690 120 691 119C693 118 694 118 695 118Z" fill="#FF7300"/>
    <path fill-rule="evenodd" clip-rule="evenodd" d="M834 811L836 810L839 805C839 805 840 804 841 804C841 804 842 804 843 804L850 805C850 806 851 806 852 806C852 807 852 808 852 808L853 814L855 815V816C855 816 855 816 855 815L861 814C861 814 862 814 863 814C863 814 864 815 864 816L868 822C868 822 869 823 869 824C869 824 868 825 868 826L864 830L865 833L870 835C870 836 871 836 871 837C871 838 871 838 871 839L870 846H869C869 847 869 848 868 848L867 849H861L859 851C859 851 859 851 859 852L861 857C861 858 861 858 861 859C860 860 860 860 859 861L853 865C853 865 852 865 851 865C851 865 850 865 849 864L845 861H842L839 866C839 867 838 867 838 867C837 868 837 868 836 868L829 866C828 866 827 865 827 865C826 864 826 864 826 863V857L823 856L818 857C817 857 816 857 816 857C815 857 815 856 814 856L810 850C810 849 810 848 810 848C810 847 810 846 811 846L814 841V839L809 836C808 835 808 835 808 834C807 834 807 833 807 832L809 825C809 824 809 824 810 823C810 823 811 823 812 823L817 822C817 822 817 822 818 822L819 820C819 818 818 816 818 814C817 814 818 813 818 812C818 812 818 811 819 811L825 807C826 806 827 806 827 806C828 806 829 807 829 807L833 811C834 811 834 811 834 811ZM836 818C838 818 841 818 843 818C845 819 847 820 849 821C851 823 853 824 854 826C855 828 856 830 857 833C857 835 857 837 856 840C856 842 855 844 854 846C852 848 851 849 849 851C847 852 844 853 842 853C840 853 838 853 835 853C833 852 831 851 829 850C827 849 826 847 824 845C823 843 822 841 822 839C821 836 822 834 822 832C823 830 823 827 825 825C826 824 828 822 830 821C832 819 834 819 836 818Z" fill="#FF7300"/>
    <path fill-rule="evenodd" clip-rule="evenodd" d="M331 868H332L334 865C334 865 334 865 335 864C335 864 335 864 336 864L340 865L341 866C341 866 341 866 341 867L342 870L343 871L346 870H347C348 870 348 871 348 871L350 875C351 875 351 875 351 876C351 876 350 876 350 877L348 879V881L351 882C352 883 352 883 352 883C352 884 352 884 352 884L351 889C351 889 351 889 351 890C350 890 350 890 350 890H346L345 892L346 895C346 895 346 895 346 896C346 896 346 897 345 897L342 899H341C340 899 340 899 340 899L337 897H336L334 900C334 900 333 900 333 901H332L328 900C327 900 327 899 327 899C327 899 326 899 326 898V895L325 894L322 895C321 895 321 895 321 895C320 895 320 894 320 894L317 890C317 890 317 890 317 889C317 889 317 889 318 888L320 886L319 884L317 883C316 882 316 882 316 882C316 881 316 881 316 881L317 876C317 876 317 876 317 875C318 875 318 875 318 875H321C322 875 322 875 322 875V873C322 872 322 871 322 870C322 870 322 870 322 869V868L326 866H327H328L331 868ZM332 873C333 872 335 872 336 873C337 873 339 874 340 874C341 875 342 876 342 877C343 878 344 880 344 881C344 882 344 883 344 885C343 886 343 887 342 888C341 889 340 890 339 891C338 892 337 892 336 892C334 893 333 893 332 892C330 892 329 891 328 891C327 890 326 889 325 888C325 887 324 885 324 884C324 883 324 882 324 880C324 879 325 878 326 877C326 876 327 875 329 874C330 873 331 873 332 873Z" fill="#019DD6"/>
    <path fill-rule="evenodd" clip-rule="evenodd" d="M788 409L781 436C781 436 779 436 778 436C777 436 776 436 775 436C772 436 770 436 768 436C764 435 758 434 753 433C751 433 749 432 746 431C744 430 743 429 741 428C737 422 741 422 740 419C739 418 739 417 738 416C737 414 737 413 739 411C740 410 740 409 740 408C740 407 739 406 739 405C738 403 739 403 741 400C744 397 736 396 744 390C746 389 747 389 750 389C752 390 755 390 757 391C759 391 760 392 761 392C762 392 764 393 765 393C767 390 765 385 765 383C764 378 764 371 772 369C772 369 773 369 774 369C775 370 775 370 775 372C775 377 774 380 776 384C778 387 779 387 780 392C781 396 782 405 785 408C786 408 787 408 788 409ZM802 411C804 411 804 413 804 415L798 437C797 442 797 442 792 441C783 439 783 440 786 430L790 413C790 412 790 410 792 409C793 408 795 409 797 409C798 410 801 410 802 411Z" fill="#019DD6"/>
    <path fill-rule="evenodd" clip-rule="evenodd" d="M105 503L150 475C151 474 153 474 154 476L191 536C192 538 192 539 190 540L145 569C144 569 142 569 141 568L104 507C103 506 104 504 105 503Z" fill="#292929"/>
    <path fill-rule="evenodd" clip-rule="evenodd" d="M187 542L181 557L211 606L216 607L219 612C222 615 220 616 216 619L199 631C197 632 196 632 195 630L162 578C156 576 151 572 146 568L187 542Z" fill="#FF7300"/>
    <path fill-rule="evenodd" clip-rule="evenodd" d="M236 370L242 367C244 366 246 366 247 368L330 508C331 510 330 513 329 514L323 517C321 518 319 517 318 516L235 376C234 374 234 371 236 370Z" fill="#292929"/>
    <path fill-rule="evenodd" clip-rule="evenodd" d="M157 481C189 458 218 429 237 379L316 512C272 507 230 516 189 534L157 481ZM139 563C106 572 89 533 107 512L139 563Z" fill="#FF7300"/>
    <path fill-rule="evenodd" clip-rule="evenodd" d="M284 416C299 414 312 424 314 438C316 448 311 458 304 464L277 419C279 418 282 417 284 416Z" fill="#01AFEF"/>
    <path fill-rule="evenodd" clip-rule="evenodd" d="M314 354C315 354 316 356 315 358L301 392C301 393 299 394 297 394C296 393 295 391 296 390L310 355C310 354 312 353 314 354ZM379 454C379 455 377 457 376 457L339 459C337 459 336 458 335 456C335 454 337 453 338 453L375 451C377 451 378 452 379 454ZM370 419C371 420 370 422 368 422L333 433C331 433 329 432 329 431C328 429 329 427 331 427L366 416C368 416 370 417 370 419ZM348 381C349 382 349 384 348 385L322 412C321 413 319 413 317 412C316 410 316 408 317 407L344 381C345 380 347 380 348 381Z" fill="#01AFEF"/>
    <path d="M596.326 247.075L372.316 281.856L397.822 446.13L621.832 411.35L596.326 247.075Z" fill="white"/>
    <path d="M627.609 448.562L403.599 483.343L427.709 638.63L651.72 603.85L627.609 448.562Z" fill="white"/>
    <path d="M657.726 642.53L433.716 677.311L439.22 712.763L663.231 677.983L657.726 642.53Z" fill="#019DD6"/>
    <path d="M459.011 694.86C460.815 694.58 462.051 692.89 461.771 691.086C461.491 689.282 459.801 688.046 457.997 688.326C456.193 688.606 454.957 690.296 455.237 692.1C455.517 693.904 457.207 695.14 459.011 694.86Z" fill="#FF7300"/>
    <path d="M469.987 693.156C471.791 692.876 473.027 691.186 472.747 689.382C472.467 687.578 470.777 686.342 468.973 686.622C467.169 686.902 465.933 688.592 466.213 690.396C466.493 692.2 468.183 693.436 469.987 693.156Z" fill="#FF7300"/>
    <path d="M480.963 691.452C482.767 691.172 484.003 689.482 483.723 687.678C483.443 685.874 481.753 684.638 479.949 684.918C478.145 685.198 476.909 686.888 477.189 688.692C477.469 690.496 479.159 691.732 480.963 691.452Z" fill="#FF7300"/>
    <path d="M627.609 448.562L403.599 483.343L409.103 518.795L633.114 484.015L627.609 448.562Z" fill="#40C8FB"/>
    <path d="M428.895 500.893C430.699 500.613 431.935 498.923 431.655 497.119C431.375 495.315 429.685 494.079 427.881 494.359C426.077 494.639 424.841 496.329 425.121 498.133C425.401 499.937 427.091 501.173 428.895 500.893Z" fill="#FF7300"/>
    <path d="M439.871 499.188C441.675 498.908 442.911 497.218 442.631 495.414C442.351 493.61 440.661 492.374 438.857 492.654C437.053 492.934 435.817 494.624 436.097 496.428C436.377 498.232 438.067 499.468 439.871 499.188Z" fill="#FF7300"/>
    <path d="M450.847 497.484C452.651 497.204 453.887 495.514 453.607 493.71C453.327 491.906 451.637 490.67 449.833 490.95C448.029 491.23 446.793 492.92 447.073 494.724C447.353 496.528 449.043 497.764 450.847 497.484Z" fill="#FF7300"/>
    <path d="M596.326 247.075L372.316 281.856L377.82 317.308L601.831 282.528L596.326 247.075Z" fill="#019DD6"/>
    <path d="M397.611 299.406C399.415 299.126 400.651 297.436 400.371 295.632C400.091 293.828 398.401 292.592 396.597 292.872C394.793 293.152 393.557 294.842 393.837 296.646C394.117 298.45 395.807 299.686 397.611 299.406Z" fill="#FF7300"/>
    <path d="M408.587 297.701C410.391 297.421 411.627 295.731 411.347 293.927C411.067 292.123 409.377 290.887 407.573 291.167C405.769 291.447 404.533 293.137 404.813 294.941C405.093 296.745 406.783 297.981 408.587 297.701Z" fill="#FF7300"/>
    <path d="M419.563 295.997C421.367 295.717 422.603 294.027 422.323 292.223C422.043 290.419 420.353 289.183 418.549 289.463C416.745 289.743 415.509 291.433 415.789 293.237C416.069 295.041 417.759 296.277 419.563 295.997Z" fill="#FF7300"/>
    <path fill-rule="evenodd" clip-rule="evenodd" d="M486 376L481 341L514 354L486 376Z" fill="#019DD6"/>
    <path d="M494.577 533.864L435.823 542.986L443.359 591.522L502.113 582.399L494.577 533.864Z" fill="#019DD6"/>
    <path d="M614.843 515.191L508.744 531.664L509.763 538.227L615.862 521.753L614.843 515.191Z" fill="#019DD6"/>
    <path d="M617.013 529.167L510.914 545.64L511.933 552.203L618.032 535.729L617.013 529.167Z" fill="#01AFEF"/>
    <path d="M596.942 546.596L513.084 559.616L514.103 566.179L597.961 553.159L596.942 546.596Z" fill="#15BFFD"/>
    <path d="M568.303 565.356L515.254 573.593L516.273 580.156L569.322 571.919L568.303 565.356Z" fill="#40C8FB"/>
    <path d="M528.602 753.01C526.085 736.797 510.892 725.695 494.667 728.214C478.443 730.733 467.331 745.919 469.848 762.133C472.366 778.347 487.559 789.449 503.783 786.929C520.008 784.41 531.12 769.224 528.602 753.01Z" fill="#40C8FB"/>
    <path d="M645.1 710.066L539.001 726.539L540.02 733.102L646.119 716.628L645.1 710.066Z" fill="#40C8FB"/>
    <path d="M647.27 724.042L541.171 740.515L542.19 747.078L648.289 730.604L647.27 724.042Z" fill="#15BFFD"/>
    <path d="M649.452 738.017L543.327 754.494L544.346 761.057L650.471 744.579L649.452 738.017Z" fill="#01AFEF"/>
    <path d="M651.622 751.993L545.497 768.47L546.516 775.033L652.641 758.555L651.622 751.993Z" fill="#019DD6"/>
    <path fill-rule="evenodd" clip-rule="evenodd" d="M497 743C500 742 503 744 503 747C504 751 502 754 499 754C496 754 493 752 492 749C492 746 494 743 497 743ZM499 757C507 756 514 762 516 770L487 775C487 766 492 758 499 757Z" fill="white"/>
    <path fill-rule="evenodd" clip-rule="evenodd" d="M635 229H675L722 231H745C768 231 786 250 786 273C786 296 767 314 744 314L722 313L685 312L652 343V312H634C623 311 614 302 614 291V249C615 238 624 229 635 229Z" fill="#15BFFD"/>
    <path fill-rule="evenodd" clip-rule="evenodd" d="M662 262C666 261 670 264 670 268C671 272 668 275 664 276C661 276 657 274 656 270C656 266 658 262 662 262ZM733 264C737 263 740 266 741 270C741 273 739 277 735 278C731 278 728 276 727 272C726 268 729 264 733 264ZM698 263C701 263 705 265 706 269C706 273 703 277 700 277C696 278 692 275 692 271C691 268 694 264 698 263Z" fill="#FF7300"/>
    <path fill-rule="evenodd" clip-rule="evenodd" d="M393 51L459 39C461 38 463 40 463 42L475 106C475 107 474 109 472 110L451 113L442 128L428 118L407 122C405 122 403 121 403 119L391 55C390 53 392 51 393 51Z" fill="#15BFFD"/>
    <path d="M431 70C433 65 435 63 440 62C446 61 451 64 452 69C454 78 445 89 436 100C424 93 412 85 411 76C410 71 414 67 419 65C424 65 427 66 431 70Z" fill="#FF0000"/>
    <path fill-rule="evenodd" clip-rule="evenodd" d="M739 826C771 826 791 829 793 836C795 852 702 879 585 897C468 915 371 916 369 901C368 894 384 885 411 876C422 889 439 897 457 894L701 856C719 853 733 841 739 826Z" fill="#7BD8FA"/>
    <path fill-rule="evenodd" clip-rule="evenodd" d="M212 844L400 845L379 710C367 728 366 751 359 771C360 744 357 721 349 703C346 694 340 682 331 678C314 669 292 686 305 719C312 738 325 743 327 775C297 717 256 758 290 797C266 783 250 802 268 819C234 816 217 827 212 844Z" fill="#019DD6"/>
    <path fill-rule="evenodd" clip-rule="evenodd" d="M278 776C253 761 228 736 205 715C198 708 191 700 182 696C160 687 147 706 154 727C159 743 170 750 184 757C219 776 250 776 283 787C280 783 279 779 278 776Z" fill="#FF7300"/>
    <path fill-rule="evenodd" clip-rule="evenodd" d="M740 787C763 787 885 787 885 787C884 737 840 723 805 749C856 706 833 671 780 719C801 691 799 660 777 665C772 666 769 668 765 672C755 685 753 709 741 717C749 698 756 679 754 662C753 654 750 641 741 639C737 638 733 641 728 648L721 663L740 787Z" fill="#FF7300"/>
    <path fill-rule="evenodd" clip-rule="evenodd" d="M794 683C808 675 833 653 863 625C889 603 920 638 883 669C860 686 827 693 791 698C793 693 794 688 794 683Z" fill="#01AFEF"/>
</svg>
